<svg xmlns="http://www.w3.org/2000/svg" xmlns:xlink="http://www.w3.org/1999/xlink" viewBox="0 0 87.21 19.96"><defs><style>.cls-1{fill:none;}.cls-2{clip-path:url(#clip-path);}.cls-3{fill:url(#linear-gradient);}.cls-4{clip-path:url(#clip-path-2);}.cls-5{fill:url(#linear-gradient-2);}.cls-6{clip-path:url(#clip-path-3);}.cls-7{fill:url(#linear-gradient-3);}.cls-8{clip-path:url(#clip-path-4);}.cls-9{fill:url(#linear-gradient-4);}.cls-10{fill:#1f3d7f;}</style><clipPath id="clip-path"><path class="cls-1" d="M0,10a6.38,6.38,0,0,0,12.76,0A2.78,2.78,0,0,0,10,7.2,6.38,6.38,0,0,1,10,20,10,10,0,0,1,0,10"/></clipPath><linearGradient id="linear-gradient" x1="-537.74" y1="299.78" x2="-536.07" y2="299.78" gradientTransform="translate(-2273.29 -4072.53) rotate(-90) scale(7.61)" gradientUnits="userSpaceOnUse"><stop offset="0" stop-color="#985a15"/><stop offset="0.51" stop-color="#e0b508"/><stop offset="1" stop-color="#ffea6c"/></linearGradient><clipPath id="clip-path-2"><path class="cls-1" d="M3.6,6.38A6.38,6.38,0,0,1,10,0,10,10,0,0,1,20,10,6.38,6.38,0,0,0,7.2,10,2.78,2.78,0,0,0,10,12.76,6.37,6.37,0,0,1,3.6,6.38"/></clipPath><linearGradient id="linear-gradient-2" x1="-512.38" y1="376.82" x2="-510.71" y2="376.82" gradientTransform="translate(2878.04 3897.54) rotate(90) scale(7.61)" xlink:href="#linear-gradient"/><clipPath id="clip-path-3"><path class="cls-1" d="M0,10A10,10,0,0,1,10,0a6.38,6.38,0,0,0,0,12.76A2.78,2.78,0,0,0,12.76,10,6.38,6.38,0,0,1,0,10"/></clipPath><linearGradient id="linear-gradient-3" x1="-564.55" y1="351.35" x2="-562.88" y2="351.35" gradientTransform="translate(4190.3 -2599.48) scale(7.42)" gradientUnits="userSpaceOnUse"><stop offset="0" stop-color="#0a5aa3"/><stop offset="0.06" stop-color="#0a5aa3"/><stop offset="0.17" stop-color="#0f539a"/><stop offset="0.53" stop-color="#1f3d7f"/><stop offset="1" stop-color="#1e335d"/></linearGradient><clipPath id="clip-path-4"><path class="cls-1" d="M16.36,13.58A6.38,6.38,0,0,0,10,7.2,2.78,2.78,0,0,0,7.2,10,6.38,6.38,0,0,1,20,10,10,10,0,0,1,10,20a6.38,6.38,0,0,0,6.38-6.38"/></clipPath><linearGradient id="linear-gradient-4" x1="-485.55" y1="325.24" x2="-483.88" y2="325.24" gradientTransform="translate(-3582.7 2424.93) rotate(180) scale(7.42)" gradientUnits="userSpaceOnUse"><stop offset="0" stop-color="#0a5aa3"/><stop offset="0.06" stop-color="#0a5aa3"/><stop offset="0.16" stop-color="#0f539a"/><stop offset="0.48" stop-color="#1f3d7f"/><stop offset="1" stop-color="#1e335d"/></linearGradient></defs><title>Asset 2</title><g id="Layer_2" data-name="Layer 2"><g id="Слой_1" data-name="Слой 1"><g class="cls-2"><rect class="cls-3" y="7.2" width="16.36" height="12.76"/></g><g class="cls-4"><rect class="cls-5" x="3.6" width="16.36" height="12.76"/></g><g class="cls-6"><rect class="cls-7" width="12.76" height="16.36"/></g><g class="cls-8"><rect class="cls-9" x="7.2" y="3.6" width="12.76" height="16.36"/></g><path class="cls-10" d="M87,12.87H80.4V6a.27.27,0,0,0-.27-.27H78.69a.27.27,0,0,0-.27.27v8.09a.28.28,0,0,0,.27.27h7.36a.68.68,0,0,0,.52-.29l.59-.95c.1-.16,0-.29-.16-.29"/><rect class="cls-10" x="52.19" y="5.77" width="1.98" height="8.62" rx="0.27"/><path class="cls-10" d="M76.68,12.87h-6.6V6a.27.27,0,0,0-.27-.27H68.36a.28.28,0,0,0-.27.27v8.09a.28.28,0,0,0,.27.27h7.37a.69.69,0,0,0,.52-.29l.59-.95c.09-.16,0-.29-.16-.29"/><path class="cls-10" d="M38.37,12.87H31.22v-2h4a.68.68,0,0,0,.52-.29l.59-1c.1-.16,0-.29-.16-.29h-4a.68.68,0,0,0-.52.29l-.43.69v-3h5.66A.69.69,0,0,0,37.4,7l.59-1c.1-.16,0-.29-.16-.29H30.66a1.42,1.42,0,0,0-1.42,1.39h0v7a.28.28,0,0,0,.28.27h7.91a.68.68,0,0,0,.52-.29l.59-.95c.1-.16,0-.29-.16-.29"/><path class="cls-10" d="M66.05,12.87H58.9v-2h4a.68.68,0,0,0,.52-.29l.59-1c.1-.16,0-.29-.16-.29h-4a.68.68,0,0,0-.52.29l-.43.69v-3h5.66A.68.68,0,0,0,65.08,7l.59-1c.1-.16,0-.29-.16-.29H58.34a1.42,1.42,0,0,0-1.42,1.39h0v7a.28.28,0,0,0,.27.27H65.1a.68.68,0,0,0,.52-.29l.59-.95c.1-.16,0-.29-.16-.29"/><path class="cls-10" d="M49.47,7.19A1.43,1.43,0,0,0,48,5.77H41.56a1.43,1.43,0,0,0-1.42,1.42v6.93a.28.28,0,0,0,.27.27h1.44a.28.28,0,0,0,.27-.27V11.39h4.16l1,2.75a.4.4,0,0,0,.36.25h1.58a.18.18,0,0,0,.18-.25l-1-2.8A1.42,1.42,0,0,0,49.47,10Zm-6.92,3-.43.68V7.3h5.36V9.86H43.07a.68.68,0,0,0-.52.29"/></g></g></svg>