<svg id="Слой_1" data-name="Слой 1" xmlns="http://www.w3.org/2000/svg" viewBox="0 0 81.82 14.54"><defs><style>.cls-1{fill:#fff;}.cls-2{fill:#3aaa35;}</style></defs><title>Artboard 17</title><rect class="cls-1" x="-639.33" y="-80.59" width="1199.02" height="173.36"/><path class="cls-2" d="M8.17.05v7.5h0a.6.6,0,0,1-.59.59h-.9a.08.08,0,0,0-.08.08v6.28c.22,0,.44,0,.67,0A7.27,7.27,0,0,0,8.17.05ZM8,11.24a.91.91,0,1,1,.91-.91A.91.91,0,0,1,8,11.24Zm2.13,0a.91.91,0,1,1,.91-.91A.91.91,0,0,1,10.15,11.24Zm2.13,0a.91.91,0,1,1,.91-.91A.91.91,0,0,1,12.28,11.24Z"/><path class="cls-2" d="M7.27,0A7.27,7.27,0,0,0,5.73,14.38V7.85h0a.58.58,0,0,1,.57-.58h.92s.07,0,.08-.08V0ZM5.88,6a.91.91,0,1,1,.91-.91A.91.91,0,0,1,5.88,6Z"/><polygon class="cls-2" points="80 4 80 6.74 76.31 6.74 76.31 4 74.5 4 74.5 11.24 76.31 11.24 76.31 8.31 80 8.31 80 11.24 81.81 11.24 81.81 4 80 4"/><path class="cls-2" d="M49.76,4.81a1.64,1.64,0,0,0-1.49-1h0a1.62,1.62,0,0,0-1.49,1l-3,6.43h1.93l.64-1.53h3.77l.65,1.53h1.93ZM47,8.26l1.12-2.63a.15.15,0,0,1,.15-.1h0a.15.15,0,0,1,.14.1l1.12,2.63Z"/><path class="cls-2" d="M28.15,2.69a1.89,1.89,0,0,0-1.8,1.36L24,9.5,21.62,4.05a1.88,1.88,0,0,0-1.8-1.36,1.64,1.64,0,0,0-1.62,1.8v6.75H20V4.68l2.38,5.4A1.72,1.72,0,0,0,24,11.31h0a1.71,1.71,0,0,0,1.58-1.23L28,4.68v6.56h1.82V4.49A1.64,1.64,0,0,0,28.15,2.69Z"/><path class="cls-2" d="M33,9.71a.16.16,0,0,1-.16-.15V8.26h4.53V6.79H32.79V5.68A.16.16,0,0,1,33,5.53h4.48V4H32.06A1.09,1.09,0,0,0,31,5.08v5.08a1.09,1.09,0,0,0,1.09,1.08h5.37V9.71Z"/><path class="cls-2" d="M40.51,11.24V5.68a.15.15,0,0,1,.15-.15h4.48V4H39.77a1.08,1.08,0,0,0-1.08,1.08v6.16Z"/><path class="cls-2" d="M73.3,7.61c0-2.54-1.09-3.72-3.85-3.72h-.63C66.07,3.89,65,5.07,65,7.61h0c0,2.5,1.11,3.7,3.86,3.7h.6c2.74,0,3.86-1.2,3.86-3.7Zm-3.87,2.2h-.58c-1.52,0-2.1-.68-2.1-2.19h0c0-1.47.51-2.2,2.1-2.2h.58c1.54,0,2.1.73,2.1,2.2h0C71.53,9.13,70.93,9.81,69.43,9.81Z"/><path class="cls-2" d="M59.91,2.86H56.32c-2.69,0-3.76,1.35-3.76,3.72a5.59,5.59,0,0,0,.08,1c.28,1.68,1.27,2.7,3.78,2.7h.79v.93H59v-.93h.79c2.52,0,3.5-1,3.78-2.7a5.59,5.59,0,0,0,.08-1C63.67,4.21,62.6,2.86,59.91,2.86Zm-2.7,5.93h-.83c-1.23,0-1.67-.46-2-1.18a3.21,3.21,0,0,1-.1-1c0-1.54.72-2.2,1.76-2.2h1.12ZM61.8,7.61c-.28.72-.72,1.18-1.95,1.18H59V4.38h1.12c1,0,1.76.66,1.76,2.2A3.21,3.21,0,0,1,61.8,7.61Z"/></svg>