<svg id="Layer_1" data-name="Layer 1" xmlns="http://www.w3.org/2000/svg" viewBox="0 0 1152 514"><defs><style>.cls-1{fill:none;}.cls-2{fill:#ff4f12;}.cls-3{opacity:0.81;}.cls-4{fill:#70f;}.cls-5{fill:#101828;}</style></defs><title>Artboard 10</title><path class="cls-1" d="M149.76,348.12l0,.05c-17.6,17.49-29.23,29-37.8,37.58-7.61,7.59-12.81,12.81-17.63,17.69L84.15,413.55h0a18.18,18.18,0,0,0-4.78,12.31,17.08,17.08,0,0,0,10.83,15.88h0c.22.09.44.19.67.27s.43.13.73.2a28.28,28.28,0,0,0,8.23,1.29H244.91l-95.15-95.41Z"/><path class="cls-2" d="M90.19,441.76h0c.22.09.44.19.67.27s.43.13.73.2a28.28,28.28,0,0,0,8.23,1.29H244.91l-95.15-95.41h0l0,.05c-17.6,17.49-29.23,29-37.8,37.58-7.61,7.59-12.81,12.81-17.63,17.69L84.15,413.55h0a18.18,18.18,0,0,0-4.78,12.31A17.08,17.08,0,0,0,90.19,441.76Z"/><path class="cls-4" d="M79.36,425.88a18.18,18.18,0,0,1,4.78-12.31h0l10.13-10.11c4.82-4.88,10-10.1,17.63-17.69,8.57-8.54,20.2-20.09,37.8-37.58l0-.05h0l17.14-17.05.35-.34c28.48-28.32,69-68.67,128.5-127.92L165.09,72.09l-74,74.06C69,168.25,72,182.72,72,212.42V415.61a27.89,27.89,0,0,0,18.19,26.15h0A17.08,17.08,0,0,1,79.36,425.88Z"/><polygon class="cls-5" points="905.46 309.68 883.7 309.68 857.69 335.98 857.69 309.68 839.29 309.68 839.29 382.14 857.69 382.14 857.69 352.19 884.13 382.14 906.34 382.14 872.15 343.28 905.46 309.68"/><path class="cls-5" d="M322,279.88H275.5V382.14h19.29V346.49H322c23.08,0,38.27-11.83,38.27-33.3S345,279.88,322,279.88Zm-.59,49.38H294.79V297.12h26.58c13.44,0,19.58,6.43,19.58,16.07S334.81,329.26,321.37,329.26Z"/><path class="cls-5" d="M403.75,307.64c-19.86,0-39.58,12.85-39.58,38.27s19.72,38.27,39.58,38.27,39.59-12.85,39.59-38.27S423.62,307.64,403.75,307.64Zm0,59.3c-10.8,0-20.88-7.74-20.88-21s10.08-21,20.88-21,20.89,7.75,20.89,21S414.56,366.94,403.75,366.94Z"/><path class="cls-5" d="M490.34,366.94c-11.11,0-19.29-8-19.29-21s8.47-21,19.29-21c6.57,0,12.27,3.07,16.79,9.94l15.78-9.06c-5.26-11.25-16.65-18.11-32.43-18.11-20.6,0-38.13,15.19-38.13,38.27s16.66,38.27,38.13,38.27c15.49,0,25.86-7,33.16-19.43l-15.19-8.32C504.07,362.56,499.39,366.94,490.34,366.94Z"/><path class="cls-5" d="M686.31,350.73c-.87,11.1-3.07,13.59-6.86,13.59a18.41,18.41,0,0,1-5.6-.76l.1,18.75a24.53,24.53,0,0,0,6.52.7c15.63,0,21.47-10.08,22.94-31.55l1.75-25.27H725.9V382h18.41V309.68H689.38Z"/><path class="cls-5" d="M634.11,307.64c-21,0-38.13,15.33-38.13,38.27s17.09,38.27,37.25,38.27c15.92,0,26-6,33.31-18.4l-14.61-7.31c-4.53,5.7-8.62,9.94-18.41,9.94-10.81,0-18.7-7-19.86-18.12h55.8v-6.43C669.46,322.68,654.85,307.64,634.11,307.64ZM614,336.27c2.63-8.18,9.93-14.61,19.57-14.61,10.23,0,17.09,5.55,18.85,14.61Z"/><path class="cls-5" d="M792.74,307.64c-21,0-38.13,15.33-38.13,38.27s17.09,38.27,37.25,38.27c15.93,0,26-6,33.31-18.4l-14.61-7.31c-4.53,5.7-8.62,9.94-18.4,9.94-10.81,0-18.7-7-19.87-18.12h55.8v-6.43C828.09,322.68,813.48,307.64,792.74,307.64Zm-20.16,28.63c2.63-8.18,9.93-14.61,19.58-14.61,10.22,0,17.09,5.55,18.84,14.61Z"/><polygon class="cls-5" points="529.37 325.75 550.99 325.75 550.99 382.14 569.39 382.14 569.39 325.75 591.01 325.75 591.01 309.68 529.37 309.68 529.37 325.75"/><path class="cls-5" d="M942.88,307.64c-19.87,0-39.59,12.85-39.59,38.27s19.72,38.27,39.59,38.27,39.59-12.85,39.59-38.27S962.75,307.64,942.88,307.64Zm0,59.31c-10.81,0-20.89-7.75-20.89-21s10.08-21,20.89-21,20.89,7.75,20.89,21S953.69,367,942.88,367Z"/><polygon class="cls-5" points="1055.71 309.67 1035.73 360.41 1015.75 309.67 991.7 309.67 991.7 381.99 1009.19 381.99 1009.19 336.21 1028.59 381.99 1042.88 381.99 1062.27 336.21 1062.27 381.99 1079.77 381.99 1079.77 309.67 1055.71 309.67"/></svg>