
<svg xmlns="http://www.w3.org/2000/svg" viewBox="0 0 17.22 18"><path d="M17 2.76l-2-1.69V1a.58.58 0 0 0-.19 0h-2.36V.5a.5.5 0 0 0-1 0V1H4.56V.5a.5.5 0 0 0-.5-.5.5.5 0 0 0-.5.5V1H.5a.5.5 0 0 0-.5.5v14a.5.5 0 0 0 .14.35l2 2a.51.51 0 0 0 .36.15h14.22a.5.5 0 0 0 .5-.5V3.14a.48.48 0 0 0-.22-.38zM1 2h2.56v.7a.5.5 0 0 0 .5.5.5.5 0 0 0 .5-.5V2h6.89v.7a.5.5 0 0 0 1 0V2h2.06l1.71 1.7v1.52H1zm1.72 15L1 15.26v-9h15.22V17z"/><circle cx="4.25" cy="9.75" r="1.25"/><circle cx="8.66" cy="9.75" r="1.25"/><circle class="cls-2" cx="13.06" cy="9.75" r="1.25"/><circle cx="4.25" cy="13.67" r="1.25"/><circle cx="8.66" cy="13.67" r="1.25"/><circle cx="13.06" cy="13.67" r="1.25"/></svg>