<svg xmlns="http://www.w3.org/2000/svg" viewBox="0 0 23.74 16.97"><path d="M1 11.67V1h17.41l1 1a.5.5 0 0 0 .71 0 .51.51 0 0 0 0-.71L19 .14a.5.5 0 0 0-.39-.14H.5a.5.5 0 0 0-.5.5v11.39a.55.55 0 0 0 .15.36l1.11 1.06a.49.49 0 0 0 .35.14.5.5 0 0 0 .39-.86z"/><path d="M23.59 4.54l-1.36-1.36a.51.51 0 0 0-.35-.18H3.58a.5.5 0 0 0-.5.5v11.61a.5.5 0 0 0 .14.35l1.37 1.36a.47.47 0 0 0 .35.15h18.3a.5.5 0 0 0 .5-.5V4.9a.49.49 0 0 0-.15-.36zM22.74 16H5.15l-1.07-1.1V4h17.59l1.07 1.1z"/><path d="M5.93 5.82h3.9v2.26h-3.9zM7.61 10.83H5.94a.5.5 0 1 0 0 1h1.67a.5.5 0 0 0 0-1zM11.4 10.83H9.72a.5.5 0 0 0 0 1h1.68a.5.5 0 0 0 0-1zM15 10.83h-1.69a.5.5 0 0 0 0 1H15a.5.5 0 0 0 0-1z"/></svg>