<svg xmlns="http://www.w3.org/2000/svg" viewBox="0 0 20.85 20.85"><path d="M10.43 7.71a2.72 2.72 0 1 0 0 5.44h.2a2.63 2.63 0 0 0 2.52-2.73 2.71 2.71 0 0 0-2.72-2.71z"/><path d="M16.68 5.53a2.47 2.47 0 0 0-.54-.91 8.38 8.38 0 0 0-.91-.54 4.5 4.5 0 0 0-1.54-.27c-1.09-.1-2.27-.1-3.35-.1s-2.27 0-3.36.1a4 4 0 0 0-1.54.27 2.47 2.47 0 0 0-.91.54 3.22 3.22 0 0 0-.53.91 4.46 4.46 0 0 0-.27 1.54 26.83 26.83 0 0 0-.09 3.35 26.94 26.94 0 0 0 .09 3.36A4.07 4.07 0 0 0 4 15.32a4 4 0 0 0 .63 1 8.38 8.38 0 0 0 .91.54 4.81 4.81 0 0 0 1.54.28c1.09.09 2.27.09 3.36.09 1.09 0 2.27 0 3.36-.09a4.07 4.07 0 0 0 1.54-.27 4 4 0 0 0 1-.63 8.38 8.38 0 0 0 .54-.91 4.54 4.54 0 0 0 .27-1.54c.1-1.09.1-2.27.1-3.36A14 14 0 0 0 17 7.07a4 4 0 0 0-.32-1.54zm-6.25 9.16a4.27 4.27 0 0 1-4.27-4.26 4.32 4.32 0 0 1 4.27-4.27 4.27 4.27 0 0 1 0 8.53zM14.78 7a1 1 0 0 1 0-2H15a.9.9 0 0 1 .79 1 1 1 0 0 1-1.01 1z"/><path d="M20.76 6.16a7.79 7.79 0 0 0-.45-2.53A4.39 4.39 0 0 0 19 1.81 5.25 5.25 0 0 0 17.22.54a8.07 8.07 0 0 0-2.53-.45C13.6 0 13.23 0 10.42 0S7.25 0 6.16.09a8.07 8.07 0 0 0-2.53.45 6.09 6.09 0 0 0-1.82 1.27A4.39 4.39 0 0 0 .54 3.63a7.79 7.79 0 0 0-.45 2.53C0 7.58 0 9 0 10.43s0 2.84.09 4.26a8.18 8.18 0 0 0 .45 2.54A4.52 4.52 0 0 0 1.81 19a5.25 5.25 0 0 0 1.82 1.27 7.79 7.79 0 0 0 2.53.45c1.42.1 2.85.13 4.27.09a37.86 37.86 0 0 0 4.26-.09 7.79 7.79 0 0 0 2.53-.45 6.42 6.42 0 0 0 3.09-3.08 7.9 7.9 0 0 0 .45-2.54q.15-2.13.09-4.26c.04-1.39.01-2.81-.09-4.23zm-2.27 7.71a4.49 4.49 0 0 1-2.71 4.35 8 8 0 0 1-2 .37 28.18 28.18 0 0 1-3.44.09 28.39 28.39 0 0 1-3.45-.09 4.51 4.51 0 0 1-4.35-2.72 5.1 5.1 0 0 1-.36-2 28.18 28.18 0 0 1-.09-3.44A28.39 28.39 0 0 1 2.18 7a6.84 6.84 0 0 1 .45-2A3.79 3.79 0 0 1 5 2.63a5.2 5.2 0 0 1 2-.36 28.39 28.39 0 0 1 3.45-.09c1.08 0 2.26 0 3.35.09A4.49 4.49 0 0 1 18.13 5a5 5 0 0 1 .36 2 30.58 30.58 0 0 1 .1 3.45 30.34 30.34 0 0 1-.1 3.42z"/></svg>