<svg xmlns="http://www.w3.org/2000/svg" viewBox="0 0 12.45 13"><path d="M12.29 2.19L10.87.88a.33.33 0 0 0-.1-.06.58.58 0 0 0-.19 0H9.7V.5a.5.5 0 0 0-.5-.5.5.5 0 0 0-.5.5v.25H2.91V.5a.5.5 0 0 0-.5-.5.5.5 0 0 0-.5.5v.25H.5a.5.5 0 0 0-.5.5v9.82a.49.49 0 0 0 .15.36l1.41 1.42a.49.49 0 0 0 .36.15H12a.5.5 0 0 0 .5-.5V2.56a.52.52 0 0 0-.21-.37zM1 1.75h.91v.43a.5.5 0 0 0 .5.5.5.5 0 0 0 .5-.5v-.43H8.7v.43a.5.5 0 0 0 .5.5.5.5 0 0 0 .5-.5v-.43h.63l1.12 1.13v.41H1zM2.13 12L1 10.87V4.29h10.45V12z"/><path d="M8.44 7.71H6.77v-.87a.53.53 0 0 1 .55-.51h2l.25-.26v-.31H7.26c-.9 0-1.39.42-1.39 1.08v3c0 .66.48 1.09 1.39 1.09h1.18c.9 0 1.39-.43 1.39-1.09v-1c0-.7-.49-1.13-1.39-1.13zm.49 2.1a.53.53 0 0 1-.55.51h-1a.53.53 0 0 1-.57-.49V8.29h1.55a.53.53 0 0 1 .57.49v1zM2.24 6.05v.36h1.14v4.42h.91V5.76h-.66l-1.39.29z"/></svg>