<svg xmlns="http://www.w3.org/2000/svg" width="162.07" height="92.397" viewBox="0 0 162.07 92.397">
  <g data-name="Group 10">
    <path fill="#fff" fill-rule="evenodd" d="M156.714 44.146a3.329 3.329 0 0 1-2.081 2.313 24.163 24.163 0 0 1 5.934 6.092c0 .005 0 .005 0 0l-.033.024c.923 1.886.923 9.28.923 9.3h-.008a4.809 4.809 0 0 1-8.293-.259 9.018 9.018 0 0 0-1.59-2.483c-.1-.118-.189-.22-.263-.3a8.4 8.4 0 0 0 1.056 5.957 8.927 8.927 0 0 0 .6.879c.072.092.141.181.212.266a4.677 4.677 0 0 0 2.423.04 7.131 7.131 0 0 1 6.161 4.426l.3 7.5a3.327 3.327 0 0 1-3.943 3.619 21.16 21.16 0 0 1-6.138-2.411c-.5-.3-1.087-.656-1.67-1.055a30.032 30.032 0 0 1-1.918-1.434 29.235 29.235 0 0 1-5.989-5.478 25.977 25.977 0 0 1-4.1-6.889 10.818 10.818 0 0 1-2.089.279 11.739 11.739 0 0 1-1.218-.012c-.29-.018-.606-.052-.939-.1a3.091 3.091 0 0 1-.254-.032h-.005v-.007a21.08 21.08 0 0 1-.763-.134v3.354h-.006a3.321 3.321 0 0 1-4.388 3.145c-.005 0-1.276-.446-2.842-.815-.119.545-.256 1.154-.411 1.82-.213.913-.475 2-.8 3.3-1.213 4.854-3.665 8.493-7.283 10.774a15.454 15.454 0 0 1-2.254 1.17 16.97 16.97 0 0 1-2.457.824c-5.147 1.288-29.326 3.471-29.4 3.477-.033 0-11.712 1.107-20.538 1.107-6.435 0-20.618-1.212-33.173-2.649-2.037-.233-4.4-.521-7.043-.861a353.257 353.257 0 0 1-6.3-.854C.979 85.8.064 70.963.015 68.533c-.01-.1-.015-.207-.015-.313V23.875C0 16.948 5.333 8.964 17.385 4.81 33.849-.864 59.092-.284 75.463.477a156.789 156.789 0 0 1 21.264 2.39 115.562 115.562 0 0 1 13.508 3.308l.1.005.645.032.645.032.613.031h.043l.638.032.629.033.616.033.564.03h.049l.582.031.559.032.494.029h.053l.375.022a3.441 3.441 0 0 1 .494.046l.915.157a3.324 3.324 0 0 1 2.79 3.047l.025.347a3.311 3.311 0 0 1 2.523-.48l7.134 1.518a61.276 61.276 0 0 1 4.017 2.764l.458-.412.006.006a3.307 3.307 0 0 1 3.088-.734l8.309 2.265a3.3 3.3 0 0 1 1.851 1.1 3.268 3.268 0 0 1 .259.351 3.32 3.32 0 0 1 1.205 5.719l-3.823 3.235a72.134 72.134 0 0 1 7.283 3.782 3.315 3.315 0 0 1 1.313 4.107 9.973 9.973 0 0 1-1.049 1.829l.06.038c4.513 3.186 3.016 8.913 3.012 8.93zm3.727 8.268a1.522 1.522 0 0 1 .091.163l.033-.024a3.624 3.624 0 0 1-.124-.139z" data-name="Path 1"/>
    <path fill="#fff" fill-rule="evenodd" d="M58.513 17.471a10.693 10.693 0 0 1-2.483.684l-.212.015-.212.017-.213.022-.214.024-.214.028-.214.03-.215.034-.214.036-.214.039-.214.042-.214.044-.213.046-.212.048-.211.05-1.13.279.256-.643-.216-.007-.439-.011-.434-.009-.431-.005h-1.263l-.412.007-.408.01-.4.013-.4.017-.395.019-.391.022-.387.025-.382.028-.379.03-.373.033-.37.036-.366.039-.362.041-.357.044-.352.046-.35.049-.345.052-.342.054-.336.056-.333.059-.329.061-.325.063-.321.066-.317.069-.2.044-.2.046-.2.047-.2.048-.2.049-.194.049-.192.051-.886.237.079-.779.007-.1V18.565l-.006-.1-.01-.1-.013-.1-.021-.138-.027-.134-.031-.132-.036-.129-.04-.125-.045-.118-.05-.114-.053-.1-.064-.111-.069-.1-.073-.093-.077-.084-.083-.075-.087-.066-.091-.057-.1-.05-.1-.038-.1-.031-.1-.023-.111-.015-.117-.007h-.123l-.129.013-.139.024-.147.036-.154.048-.163.062-.172.078-.18.093-.189.109-.2.125-.219.153-.01.007-.24.184-.224.185-.211.188-.2.191-.186.193-.175.2-.163.2-.154.2-.143.2-.135.2-.124.2-.117.2-.109.2-.1.2-.093.2-.132.3-.216.182-.11.111-.1.119-.1.129-.088.136-.082.143-.074.148-.068.152-.059.154-.054.155-.047.154-.042.153-.035.148-.03.144-.025.138-.051.317-.284.206-.125.093-.122.092-.122.094-.12.093-.118.094-.117.095-.116.095-.112.095-.112.1-.109.1-.108.1-.107.1-.105.1-.1.1-.1.1-.22.214-.21.216-.2.216-.2.218-.188.217-.181.219-.174.218-.167.22-.159.219-.153.22-.145.219-.139.22-.132.219-.124.219-.119.218-.11.217-.1.217-.1.216-.091.214-.085.214-.078.211-.072.211-.066.209-.059.207-.053.205-.047.2-.041.2-.036.2-.029.2-.024.194-.017.191-.013.19-.005.14V31.977l.007.133.01.132.013.129.023.2-.048.248-.034.182-.035.184-.035.182-.034.182-.035.185-.035.181-.046.242-.071.142-.052.11-.06.133-.066.156-.07.174-.07.19-.069.205-.066.218-.06.228-.052.235-.041.241-.03.244-.016.244v.243l.018.237.037.236.018.078.022.079.024.075.028.072.03.068.033.066.035.064.034.055.08.11.086.1.094.09.1.082.11.076.118.067.125.06.76.3-.465.528-.05.053-.052.054-.054.055-.055.056-.058.056-.058.057-.058.057-.123.118-.121.119-.117.118-.112.118-.105.117-.1.118-.089.116-.2.3-.3.047-.07.014-.07.018-.071.021-.069.023-.069.027-.069.029-.064.031-.136.075-.124.082-.117.092-.109.1-.1.109-.092.118-.083.127-.076.139-.025.054-.025.06-.023.062-.022.063-.018.064-.018.067-.015.068-.068.367-.382.1-.069.02-.069.023-.068.025-.067.027-.065.03-.066.032-.059.033-.126.078-.116.083-.106.089-.1.1-.089.1-.078.109-.07.115-.062.127-.008.019-.011.027-.01.026-.01.026-.008.027-.008.027-.007.029-.052.191-.294.208-.155.114-.155.12-.156.125-.156.129-.154.134-.153.139-.15.141-.144.146-.142.148-.136.151-.13.153-.122.155-.116.156-.108.157-.089.143-.029.06-.04.084-.039.082-.039.083-.04.083-.039.084-.04.083-.029.059-.01.028-.015.048-.015.048-.013.047-.013.048-.011.048-.011.048v.066l-.005.167v.167l-.005.167V48.071l.007.045.01.044.011.045.012.042.013.043.016.044v.008l.025.041.05.08.049.079.049.079.049.079.05.08.049.08.025.041.059.064.09.088.1.087.11.088.122.087.132.086.143.086.5.271-.135.424-.018.067-.015.073-.013.078-.008.081-.007.087V50.853l.006.1.01.106.012.109.016.113.019.115.022.119.023.116.008.035.011.042.01.042.01.04.011.041.02.085.007.033.067.235.077.245.086.25.094.254.1.258.11.261.119.263.125.264.132.264.138.263.144.263.148.261.154.258.158.254.162.251.165.246.134.191.137.189.137.185.138.181.139.176.139.171.14.166.139.159.139.153.138.146.137.138.136.131.134.122.13.114.129.1.123.094.18.124.173.1.167.086.158.067.148.048.138.03.129.013.458-.006.148.273.007.015.007.013.005.012.007.012.006.013.007.013v.01l.033.057.035.06.036.059.036.057.038.057.038.056.039.055.037.051.107.134.108.125.112.118.115.111.117.1.12.1.12.09.121.082.122.075.121.069.121.06.119.055.117.046.113.04.11.033.05.012.02-.011.011-.009v-.081l-.017-.139-.037-.152-.057-.163-.075-.173-.092-.18-.106-.188-.825-1.367 1.5.583.178.066.187.064.193.063.2.061.206.057.212.052.216.048.221.042.224.037.227.028.229.022.232.014h.466l.234-.015.3-.031.3-.042.3-.052.3-.059.294-.068.287-.074.283-.078.274-.083.266-.086.256-.088.245-.089.232-.088.218-.087.2-.084.187-.079.582-.256.239.391.011.018.013.02.011.017.023.036.014.02.011.016.035.047.036.049.038.048.04.049.041.048.042.049.046.049.05.053.118.118.132.122.139.12.143.118.15.115.154.113.156.11.157.1.158.1.157.1.156.091.153.087.148.08.143.074.137.068.054.025-.012-.1-.03-.144-.042-.16-.054-.173-.064-.184-.071-.192-.076-.2-.086-.216-.013-.042-.028-.081-.042-.126-.052-.159-.059-.181-.062-.191-.059-.19-.214-.708.99-.093.4-.038.389-.04.379-.04.369-.041.357-.04.345-.041.331-.039.317-.039.3-.038.283-.036.266-.034.247-.033.227-.03.206-.028.182-.024.046-.007.045-.006h.041l.04-.006.039-.005h.036l.036-.005.067-.009.146-.02.18-.026.178-.025.177-.024.175-.025.174-.025.173-.024.148-.021h.006l.2-.028.173-.025.171-.025.17-.023.169-.024.167-.023.164-.024.162-.022.161-.023.16-.022.158-.021.156-.022.156-.021.153-.02.153-.02.861-.112-.173.678.138.341-.378.243-.071.045-.081.05-.09.055-.1.059-.2.122-.139.085-.128.079-.136.084-.141.089-.147.093-.152.1-.158.1-.162.106-.167.111-.232.155-.237.158-.241.161-.244.165-.245.165-.248.169-.247.17-.248.174-.246.173-.245.176-.243.177-.24.177-.235.178-.231.178-.225.178-.218.178-.212.178-.2.177-.2.175-.185.173-.175.172-.163.169-.152.167-.138.164-.125.159-.11.154-.1.15-.08.142-.063.134-.049.127-.032.117-.016.094v.041l.063 1.159-.714-.63-.042.014-.222.087-.315.137-.414.2-.179.095-.172.106-.168.116-.163.129-.158.139-.153.149-.146.157-.139.165-.133.17-.124.178-.115.18-.107.186-.1.187-.087.189-.077.188-.068.189-.039.128-.035.129-.03.128-.025.125-.019.123-.014.121-.008.117v.246l.019.345-1.535.757-.428-.546-.176-.221-.174-.215-.17-.207-.167-.2-.161-.185-.157-.175.023.137.034.176.038.186.043.193.048.2.053.207.158.589-.559.24-.177.089-.175.1-.172.118-.163.131-.154.149-.143.167-.128.184-.113.205-.1.229-.073.256-.051.285-.022.316.01.351.046.387.086.427.1.353.1.319.116.284.123.253.134.225.142.2.154.184.164.169.179.158.2.149.212.145.23.142.248.141.268.144.287.148.305.154.142.072.145.073.151.077.154.079.158.082.161.086.167.089.5.277-.136.413-.006.038v.077l.007.037.012.038.018.036.031.047.184.231.2.236.2.228.2.222.207.215.209.208.213.2.216.2.22.188.222.182.226.177.228.17.231.165.233.159.237.153.238.147.241.141.243.135.245.13.247.124.249.119.25.114.252.108.253.1.256.1.257.093.257.088.259.083.26.077.261.073.261.068.262.064.218.05.221.047.22.043.22.04.221.038.221.034.22.031.22.029.22.026.22.022.22.02.218.017.219.015.216.012.217.009.215.007h.854l.211-.005.21-.008.209-.01.207-.012.206-.014.2-.017.2-.018.2-.02.2-.023.2-.025.2-.026.192-.028.395-.064.386-.071.377-.079.366-.085.357-.091.346-.1.334-.1.321-.108.31-.112.295-.116.281-.12.266-.122.25-.125.233-.127.217-.128.2-.128.225-.162.2-.163.175-.164.147-.162.123-.16.1-.155.072-.151.055-.165.058-.2.07-.2.079-.193.084-.18.089-.17.093-.158.1-.147.1-.137.1-.126.1-.118.1-.108.1-.1.1-.092.092-.084.088-.078.082-.07.124-.107.115-.1.1-.094.093-.089.082-.084.068-.078.055-.072.042-.066.032-.06.021-.056.013-.056.006-.057v-.065l-.012-.077-.023-.089-.189-.5.565-.273.171-.1.176-.118.181-.136.186-.153.19-.169.193-.183.194-.2.2-.209.2-.22.2-.229.2-.238.2-.245.208-.251.209-.255.211-.259.238-.292.24-.292.241-.292.24-.285.242-.28.24-.272.24-.258.237-.246.237-.231.235-.213.234-.192.234-.172.239-.148.246-.12.259-.087.069-.01.114-.026.075-.013.1-.017.123-.02.152-.025.177-.029.2-.034.228-.039.251-.042.274-.048.3-.052.315-.057.334-.062.351-.065.368-.072.384-.075.4-.081.409-.085.422-.09.433-.095.442-.1.45-.1.457-.109.462-.114.467-.12.47-.123.472-.129.473-.134.473-.138.417-.127.161-.093.207-.128.208-.134.208-.14.207-.148.208-.154.207-.16.2-.167.2-.173.2-.179.2-.185.2-.192.2-.2.193-.2.191-.21.187-.215.184-.222.18-.229.175-.233.171-.241.167-.245.161-.253.157-.257.15-.263.145-.27.139-.274.132-.281.126-.286.119-.292.111-.3.1-.3.1-.309.085-.306.08-.317.072-.327.065-.341.061-.352.053-.364.048-.377.042-.39.037-.4.032-.416.028-.431.023-.444.02-.458.015-.473.012-.487 45.162 7.225-3.975-51.242-1-.161-.53-.03-.561-.031-.588-.031-.611-.032-.631-.032-.648-.033-.661-.032-.669-.033-.677-.033-.678-.032-.678-.032-.673-.031-.665-.031-.815-.038-1.1-.049-.6-.027-.573-.026-.544-.025-.51-.023-.476-.021-.436-.02-.392-.017-.347-.016-.3-.014-.244-.011-.188-.009-.129-.007h-.07l-.677-.055-.7-.047-.735-.04-.769-.031-.8-.024-.831-.016-.86-.008h-.889l-.915.009-.943.018-.967.026-.993.035-1.015.045-1.037.054-1.06.063-1.08.074-1.1.082-1.118.093-1.134.1-1.152.114-1.166.124-1.182.134-1.194.146-1.207.156-1.218.167-1.228.179-1.239.189-1.246.2-1.254.213-1.261.225-1.265.236a97.844 97.844 0 0 0-14.971 3.973c-1.444.462-2.669.842-1.989 1.415z" data-name="Path 2"/>
    <path fill="#0090df" fill-rule="evenodd" d="M109.41 9.583c-6.513-2.081-18.032-4.9-34.208-5.656-16.822-.782-39.608-1.4-55.988 3.932-10.906 3.55-15.719 10.31-15.719 16.073v44.166s-.308 14.466 13.234 16.466 37.084 4.309 45.855 4.309 20.158-1.078 20.158-1.078 23.851-2.154 28.776-3.385 8.156-4.77 9.54-10.31a171.789 171.789 0 0 0 1.289-5.489c-15.627 1.178-36.655 5.074-47.542 11.743-4.215-.632-3.688-4.531.421-7.377 9.575-4.557 27.356-6.905 42.02-7.13h-.005l-.2-.052 5.688.917.025-.152-1.539-4.771-42.807-7.284-.011.491-.014.477-.019.461-.022.447-.026.434-.03.419-.035.407-.04.393-.045.38-.05.367-.057.355-.061.344-.068.33-.075.32-.08.309-.091.312-.1.3-.106.3-.113.295-.12.289-.125.284-.132.276-.138.272-.142.265-.149.259-.153.255-.158.247-.162.243-.166.235-.171.231-.174.224-.177.217-.181.212-.183.206-.186.2-.188.194-.191.186-.192.181-.194.174-.194.168-.2.161-.2.155-.2.149-.2.141-.2.135-.2.129-.153.093-.4.128-.448.139-.448.135-.447.13-.445.124-.442.121-.438.115-.433.11-.426.106-.419.1-.41.1-.4.091-.388.085-.377.081-.364.075-.349.072-.333.065-.317.062-.3.057-.28.052-.259.048-.238.042-.216.039-.193.034-.168.029-.144.025-.117.02-.091.017-.071.013-.108.026-.065.01-.245.087-.233.121-.226.149-.222.173-.222.194-.223.215-.224.233-.224.248-.227.26-.227.275-.229.283-.227.288-.228.295-.227.295-.225.295-.2.261-.2.257-.2.253-.194.247-.194.24-.191.231-.189.222-.188.211-.184.2-.183.185-.18.17-.176.154-.172.137-.167.119-.162.1-.536.276.179.506.022.09.011.077v.065l-.006.057-.012.056-.02.056-.03.06-.04.066-.052.072-.064.078-.077.085-.088.089-.1.094-.109.1-.118.108-.077.07-.083.078-.087.085-.092.092-.093.1-.1.109-.1.119-.1.127-.094.138-.092.148-.088.159-.084.171-.079.182-.074.2-.066.206-.055.2-.052.166-.068.152-.093.156-.117.161-.14.163-.166.165-.189.164-.213.163-.187.129-.206.129-.221.128-.237.126-.252.123-.266.121-.279.117-.294.113-.3.109-.317.1-.328.1-.339.091-.347.085-.357.079-.366.071-.374.064-.182.028-.186.026-.187.025-.189.023-.191.02-.192.018-.194.017-.2.014-.2.012-.2.01-.2.008-.2.005h-.8l-.2-.007-.206-.009-.205-.012-.207-.015-.207-.017-.208-.02-.208-.022-.208-.026-.208-.029-.208-.031-.209-.034-.209-.038-.208-.04-.208-.043-.209-.047-.207-.05-.248-.064-.247-.068-.247-.073-.246-.077-.245-.083-.243-.089-.243-.094-.242-.1-.24-.1-.239-.109-.237-.115-.236-.12-.234-.125-.232-.131-.23-.136-.228-.142-.225-.148-.224-.154-.221-.16-.219-.166-.216-.171-.214-.178-.21-.184-.208-.19-.205-.2-.2-.2-.2-.21-.2-.217-.191-.224-.189-.23-.185-.238-.174-.233-.029-.047-.017-.036-.011-.038-.007-.037v-.077l.006-.038.129-.416-.477-.28-.158-.089-.153-.087-.15-.082-.146-.079-.143-.077-.138-.073-.135-.072-.29-.155-.272-.149-.254-.145-.235-.142-.218-.143-.2-.146-.185-.15-.17-.159-.156-.17-.146-.185-.135-.2-.127-.227-.117-.255-.11-.287-.1-.322-.091-.356-.081-.43-.043-.39-.009-.354.021-.319.048-.288.069-.258.09-.231.108-.207.122-.186.136-.168.146-.15.155-.132.163-.119.166-.1.168-.09.53-.242-.15-.594-.05-.209-.045-.2-.041-.2-.036-.188-.032-.178-.022-.138.149.176.153.187.158.2.161.209.165.217.167.223.406.551 1.455-.763-.018-.348v-.248l.008-.118.013-.122.018-.124.024-.126.028-.129.033-.13.037-.129.064-.191.073-.19.082-.191.092-.189.1-.187.109-.182.118-.179.126-.172.132-.166.139-.158.145-.15.15-.14.155-.13.159-.117.163-.107.17-.1.392-.2.3-.138.21-.087.04-.014.677.635-.059-1.168v-.041l.015-.094.03-.118.046-.128.059-.135.075-.143.09-.151.1-.155.119-.16.131-.165.144-.168.155-.171.166-.173.175-.175.185-.177.192-.178.2-.179.207-.18.213-.18.219-.179.223-.18.227-.179.23-.178.232-.177.233-.175.235-.175.234-.172.235-.17.232-.167.231-.166.228-.162.224-.159.22-.156.158-.112.154-.107.15-.1.144-.1.14-.093.134-.09.129-.084.122-.079.132-.085.191-.123.091-.059.085-.055.076-.05.067-.045.358-.245-.131-.344.164-.684-.816.113-.145.02-.145.02-.148.021-.148.022-.15.021-.152.022-.153.023-.154.022-.156.024-.158.023-.16.024-.161.023-.162.025-.164.025-.187.028h-.006l-.141.021-.164.024-.165.025-.166.025-.168.024-.169.025-.171.026-.139.02-.063.009-.034.005-.034.005-.037.005-.038.006h-.039l-.042.006-.043.007-.173.024-.2.028-.215.03-.234.033-.252.034-.268.036-.286.038-.3.039-.314.039-.327.041-.339.04-.35.041-.359.04-.369.04-.376.038-.938.093.2.714.056.192.058.193.056.182.049.16.04.127.026.081.012.042.081.218.072.2.067.194.06.185.051.175.04.161.028.145.011.1-.051-.025-.13-.068-.136-.074-.141-.08-.145-.087-.148-.091-.149-.1-.15-.1-.149-.106-.148-.111-.146-.114-.142-.116-.136-.119-.132-.121-.125-.123-.112-.119-.047-.053-.043-.049-.04-.049-.039-.048-.038-.049-.036-.048-.034-.049-.033-.047-.01-.016-.013-.02-.022-.036-.01-.017-.012-.02-.01-.018-.226-.394-.552.258-.177.079-.193.084-.207.087-.22.088-.232.09-.242.088-.252.086-.259.083-.268.078-.272.074-.278.068-.282.059-.284.052-.286.042-.283.031-.222.015h-.442l-.22-.014-.217-.022-.215-.028-.212-.037-.209-.042-.205-.048-.2-.052-.2-.057-.19-.061-.183-.063-.177-.064-.169-.066-1.418-.588.782 1.378.1.19.087.182.071.174.054.164.035.153.016.14v.081l-.01.009-.019.011-.047-.012-.1-.033-.108-.04-.111-.046-.113-.055-.115-.06-.115-.069-.116-.075-.115-.082-.114-.09-.114-.1-.111-.1-.109-.112-.107-.119-.1-.126-.1-.135-.035-.051-.037-.055-.036-.056-.036-.057-.034-.057-.034-.059-.033-.06-.031-.057v-.01l-.007-.013-.006-.013-.007-.012-.005-.012-.007-.013-.007-.015-.141-.275-.434.006-.123-.013-.131-.03-.141-.048-.15-.067-.158-.087-.164-.105-.171-.125-.117-.094-.123-.106-.124-.115-.127-.123-.129-.132-.13-.139-.131-.147-.132-.154-.132-.16-.133-.167-.132-.172-.132-.177-.131-.183-.13-.186-.13-.191-.127-.193-.157-.248-.154-.253-.15-.256-.146-.26-.141-.263-.137-.265-.131-.266-.125-.266-.119-.266-.113-.266-.1-.263-.1-.26-.089-.256-.081-.252-.073-.247-.063-.237-.007-.033-.019-.085-.01-.041-.009-.04-.009-.042-.01-.042-.008-.035-.022-.117-.021-.12-.018-.116-.015-.114-.011-.11-.009-.107-.006-.1V50.539l.007-.087.008-.081.012-.078.014-.073.017-.067.128-.427-.473-.273-.136-.086-.125-.087-.116-.087-.1-.088-.1-.087-.085-.088-.056-.064-.024-.041-.046-.08-.047-.08-.046-.079-.046-.079-.046-.079-.047-.08-.024-.041v-.008l-.015-.044-.012-.043-.011-.042-.01-.045-.009-.044-.007-.045V47.979l.005-.168v-.167l.005-.168v-.077l.01-.048.01-.048.012-.048.012-.047.014-.048.014-.048.009-.028.027-.059.038-.083.037-.084.038-.083.037-.083.037-.082.038-.084.027-.06.084-.144.1-.158.11-.157.116-.156.124-.154.129-.152.135-.149.137-.147.142-.142.145-.14.146-.135.148-.13.148-.126.147-.121.147-.115.278-.21.049-.193.007-.029.008-.027.008-.027.009-.026.009-.026.01-.027.008-.019.058-.128.066-.116.074-.11.084-.1.093-.1.1-.09.11-.083.12-.078.056-.033.062-.032.061-.03.063-.027.064-.025.065-.023.065-.02.362-.1.064-.37.014-.068.017-.067.017-.064.021-.063.022-.062.024-.06.024-.054.072-.14.078-.128.087-.119.1-.11.1-.1.111-.093.118-.082.129-.075.06-.031.065-.029.065-.027.065-.023.067-.021.066-.018.066-.014.281-.047.193-.3.084-.117.094-.119.1-.118.107-.119.111-.119.115-.12.117-.119.055-.057.055-.057.055-.056.052-.056.051-.055.049-.054.047-.053.44-.532-.721-.3-.119-.06-.112-.067-.1-.076-.1-.082-.089-.091-.081-.1-.075-.111-.032-.055-.033-.064-.031-.066-.028-.068-.026-.072-.023-.075-.021-.079-.017-.078-.035-.238-.017-.239v-.245l.015-.246.028-.246.039-.243.049-.237.057-.23.062-.22.065-.207.066-.192.066-.175.062-.157.057-.134.049-.111.067-.143.043-.244.033-.183.033-.186.032-.184.033-.183.033-.185.032-.184.045-.25-.022-.2-.012-.13-.009-.133-.007-.134V31.424l.005-.141.012-.192.016-.193.023-.2.027-.2.034-.2.039-.2.044-.206.05-.207.056-.209.062-.211.068-.213.074-.213.08-.216.086-.216.094-.218.1-.219.1-.219.113-.22.118-.221.125-.221.132-.222.138-.221.145-.222.151-.221.158-.222.165-.22.172-.221.178-.219.186-.22.193-.218.2-.218.208-.216.1-.1.1-.1.1-.1.1-.1.1-.1.1-.1.107-.1.107-.1.11-.1.111-.1.112-.095.114-.094.116-.094.116-.092.119-.093.269-.208.048-.32.024-.139.028-.145.033-.149.04-.154.044-.155.051-.156.056-.155.064-.153.07-.149.077-.144.083-.137.091-.13.1-.12.1-.112.205-.184.125-.3.089-.2.1-.2.1-.2.111-.2.118-.2.128-.2.136-.2.146-.2.155-.2.166-.2.176-.2.188-.193.2-.19.212-.187.227-.186.009-.007.207-.154.186-.126.179-.11.171-.094.163-.078.155-.062.146-.048.14-.036.132-.024.123-.013h.117l.111.007.106.015.1.023.1.031.091.038.1.05.086.057.082.066.078.075.073.084.069.093.065.1.06.112.05.105.047.115.042.119.038.126.034.13.029.133.025.135.02.139.012.1.009.1.006.1V18.616l-.007.1-.074.785.839-.239.182-.051.184-.049.186-.049.187-.048.189-.047.19-.046.192-.044.3-.069.3-.066.308-.063.312-.061.316-.059.319-.056.324-.054.327-.052.332-.049.334-.046.339-.044.343-.041.347-.039.351-.036.354-.033.359-.03.362-.028.367-.025.371-.022.374-.019.379-.017.382-.013.387-.01.39-.007H48.144l.408.005.411.009.416.011.205.007-.242.648 1.071-.282.2-.05.2-.048.2-.046.2-.044.2-.042.2-.039.2-.036.2-.034.2-.03.2-.028.2-.024.2-.022.2-.017.2-.015a9.666 9.666 0 0 0 2.354-.69c-.644-.578.517-.961 1.9-1.5a88.337 88.337 0 0 1 14.191-4.006l1.2-.238 1.2-.227 1.188-.215 1.181-.2 1.174-.191 1.164-.18 1.154-.169 1.144-.157 1.132-.147 1.12-.135 1.1-.125 1.092-.115 1.075-.1 1.06-.093 1.042-.082 1.023-.074 1-.063.983-.054.962-.045.941-.035.917-.026.894-.018.868-.009h.842l.815.008.787.016.758.024.729.031.7.04.666.047.641.055h.066l.123.007.178.009.231.011.281.014.329.016.372.017.413.02.451.021.484.023.516.025.543.026.567.027 1.04.049.772.038.63.031.121.006zm41.807 22.506a7.044 7.044 0 0 1-1.077 1.693c-.769.923-1.385 2.308 1.231 4.155s1.692 5.386 1.692 5.386-8.616-4-12.464-5.541-16-7.847-21.389-10a60.308 60.308 0 0 0-18.465-3.539c-5.386-.154-12 .308-12 .308 2.769-1.847 7.539-3.54 11.079-4.463s12.617-.769 26.928 2.462a87.6 87.6 0 0 1 24.467 9.541zm-26.158 10.927s1.538 5.849-4 5.541a174.087 174.087 0 0 0-23.081.614 143.1 143.1 0 0 0-14.31 2.155s.923-5.694 2.154-6.309 14.464-3.539 22.621-3.539a107.253 107.253 0 0 1 16.616 1.538z" data-name="Path 3"/>
    <g data-name="Group 9">
      <path fill="#0d0a07" d="M44.677 38.079c.33 2.753 3.24 2.7 5.416 2.451.487-.056.993-.132 1.508-.226a17.692 17.692 0 0 0 6.465-2.353.33.33 0 0 1 .435.055.268.268 0 0 1-.058.4 18.778 18.778 0 0 1-6.9 2.538c-.522.095-1.049.174-1.571.234a19.162 19.162 0 0 1-2.125.129c-.039 0-.129-.05-.128 0a.4.4 0 0 1-.277.377c-.019.006-6.639 1.995-9.124 4.185a.373.373 0 0 1-.464.01.245.245 0 0 1-.013-.388 19.07 19.07 0 0 1 4.832-2.71c-1.744.173-4.345.551-5.863.877-.311.068-.572.131-.764.19a.345.345 0 0 1-.111.191.51.51 0 0 1-.622.031.273.273 0 0 1-.093-.116c-.112-.279.126-.5.633-.675a9.828 9.828 0 0 1 .986-.255c1.036-.223 2.567-.47 4-.661a65.192 65.192 0 0 0-7.788-.077.231.231 0 0 1-.275-.283.479.479 0 0 1 .389-.366 61.349 61.349 0 0 1 7.289.038 3.865 3.865 0 0 0-2.467-1.059.231.231 0 0 1-.266-.292.483.483 0 0 1 .4-.357 4.5 4.5 0 0 1 2.973 1.2 2.768 2.768 0 0 1 .458.5.818.818 0 0 1 .041.068l.63.042c.577.042 1.045.086 1.345.128a2.043 2.043 0 0 1 .771.208c1.1-.416 2.047-.729 2.58-.9a3.607 3.607 0 0 1-2.95-3c-.21.057-.451.181-.591.216h-.016l-.241-.859-1.087.771-.66-.711a14.677 14.677 0 0 1 1.615-1.065 19.029 19.029 0 0 1 1.815-.913 22.766 22.766 0 0 1 10.23-1.931l-.452 1.048a21.581 21.581 0 0 0-10.929 2.483c2.957-.809 7.952-2.407 10.98-1.8l-.6 1.028a8.69 8.69 0 0 0-2.677.056 4.5 4.5 0 0 1 .246 1.329c.141 2.721-3.277 2.9-5.272 1.9a3.2 3.2 0 0 1-1.469-1.739l-.189.051zm27.128-22.553c.181-1.189-.8-1.152-1.665-1.353l-.844 1.025c.156.037.369.078.578.118.5.095.41.315.034.315-.692 0-1.332-.37-1.2-1.077.017-.1.035-.2.048-.305.046 0-.3-.006-.228-.012 2.232-.566 3.421-.738 5.618-1.181 13.429-2.7 26.236-3.3 33.131-2.691a1.088 1.088 0 0 0 1.016-.593.479.479 0 0 0-.421-.72c-7.016-.622-20.027-.013-33.646 2.725-2.668.536-5.344 1.15-7.985 1.846s-5.3 1.725-7.9 2.612l-.017.006a.761.761 0 0 0-.5.806.507.507 0 0 0 .7.4l.017-.006c2.531-.863 5.129-1.873 7.751-2.565.4-.106.759-.189 1.16-.29a1.544 1.544 0 0 0 .561 1.672c.728.651 3.576.741 3.8-.732zM59.423 52.384a.24.24 0 0 1-.319-.229.417.417 0 0 1 .3-.393 1.848 1.848 0 0 1 .526-.046 3.857 3.857 0 0 1 .574.076 21.79 21.79 0 0 1 4.452 1.74h.006a10.338 10.338 0 0 0 1.159.463c.416.141.86.266 1.317.378a19.24 19.24 0 0 0 6.263.548.231.231 0 0 1 .284.27.462.462 0 0 1-.367.374 20.068 20.068 0 0 1-6.58-.558 16.851 16.851 0 0 1-1.369-.393 10.786 10.786 0 0 1-1.221-.491h-.006a21.432 21.432 0 0 0-4.308-1.691 2.964 2.964 0 0 0-.462-.063.9.9 0 0 0-.248.015zm0 0zM25.592 32.515a58.713 58.713 0 0 1-2.627-2.539l-1.045.794c.008.008 1.572 1.636 3.394 3.206a5.975 5.975 0 0 0-.678 3.465 2.073 2.073 0 0 0 .292.719 2.124 2.124 0 0 0 1.089.82c-.093.11-.244.255-.4.407a6 6 0 0 0-.913 1.022 2.3 2.3 0 0 0-.718.227 2.323 2.323 0 0 0-1.045 1.048 2.276 2.276 0 0 0-.2.634 2.542 2.542 0 0 0-.67.261 2.168 2.168 0 0 0-.942 1.011 1.831 1.831 0 0 0-.1.283 8.436 8.436 0 0 0-2.362 2.373 32.556 32.556 0 0 0-7.964-1c-.534-.012-.982-.016-1.327-.015s-.634.01-.8.019h-.087a.49.49 0 0 0-.41.356.231.231 0 0 0 .262.3l.058-.006c.137-.007.4-.014.759-.016s.822 0 1.306.013a30.954 30.954 0 0 1 7.886 1.009 2.773 2.773 0 0 0-.12.45l-4.455-.2a.528.528 0 0 0-.483.311.236.236 0 0 0 .223.344l4.7.215a1.95 1.95 0 0 0 .116.451c-8.136.358-12.008 3.367-12.02 3.376a.262.262 0 0 0-.034.4.345.345 0 0 0 .447.034c.011-.008 3.794-2.952 12-3.174a3.684 3.684 0 0 0 1.074.8 3.367 3.367 0 0 0 .014 1.751.264.264 0 0 0-.186-.028c-.015 0-5.289.9-6.316 2.97-.078.16.015.309.209.334a.509.509 0 0 0 .494-.243c.8-1.608 5.534-2.418 5.546-2.421a.463.463 0 0 0 .332-.281 14.686 14.686 0 0 0 2.049 4.238 10.886 10.886 0 0 0 2.28 2.535 2.4 2.4 0 0 0 1.554.566c.018.035.036.071.055.1a4.127 4.127 0 0 0 .331.511 3.821 3.821 0 0 0 2.135 1.442.561.561 0 0 0 .576-.386v-.008a2.776 2.776 0 0 0-.566-1.591 8.181 8.181 0 0 0 3.632.641 14.138 14.138 0 0 0 4.281-1.2 2.7 2.7 0 0 0 .112.174 3.744 3.744 0 0 0 .37.443 8.865 8.865 0 0 0 2.482 1.686.48.48 0 0 0 .637-.4v-.053a6.058 6.058 0 0 0-.464-1.506s-.233-.684-.362-1.126c2.183-.2 4.106-.458 5.023-.582l.313-.042 1.411-.2h.006c.938-.133 1.8-.253 2.591-.357a.407.407 0 0 0 .014.294c-.274.181-1.025.609-1.936 1.216-2.453 1.634-5.849 3.9-6.026 5.527v.112c-.005-.011-.09-.113-1.384.517a4.889 4.889 0 0 0-2.325 2.8 3.692 3.692 0 0 0-.2 1.117c0 .071 0 .141.007.209l-.883.436c-.48-.616-.95-1.2-1.366-1.627l-.013-.014a.185.185 0 0 0-.019-.019.443.443 0 0 0-.7.384 13.212 13.212 0 0 0 .336 1.548c-1.054.422-2.4 1.465-1.788 4 .514 2.122 1.522 2.629 3.209 3.477.372.188.782.392 1.228.64a.738.738 0 0 0 .1.733 13.454 13.454 0 0 0 7.8 4.884 18.872 18.872 0 0 0 6.993.244 13.124 13.124 0 0 0 5.141-1.755 2.9 2.9 0 0 0 1.278-1.523 3.574 3.574 0 0 1 1.294-1.953c.682-.586 1.138-.979.805-1.764 1.065-.46 2.148-1.792 3.276-3.183 1.262-1.554 2.6-3.2 3.509-3.242l.291-1.047c-1.672.085-3.258 2.038-4.759 3.886a7.791 7.791 0 0 1-3.059 3.1.806.806 0 0 0-.344.092.851.851 0 0 0-.4 1.094c.027.059-.083.153-.247.293a5.156 5.156 0 0 0-1.867 2.82c-.035.131-.213.305-.506.5a10.955 10.955 0 0 1-4.234 1.393 17.227 17.227 0 0 1-6.39-.225 12.875 12.875 0 0 1-5.465-2.691.892.892 0 0 0 .336-.188.639.639 0 0 0-.034-1.024 21.121 21.121 0 0 0-3.7-2.257c-1.449-.729-2.315-1.165-2.737-2.9-.356-1.472.21-2.036.646-2.251a7.907 7.907 0 0 0 .39.86 4.736 4.736 0 0 0 .388.614 2.666 2.666 0 0 0 .46.48h.005a.5.5 0 0 0 .158.057 2.351 2.351 0 0 0 .467-.01 4.8 4.8 0 0 0 3.481 1.3c2.2-.084 3.372-.173 3.621-.193.436.025 4.2.2 5.548-1.125a3.651 3.651 0 0 1 .784-.526.6.6 0 0 0 .064.185.591.591 0 0 0 .811.217 23.219 23.219 0 0 0 4.553-3.293 25.363 25.363 0 0 0 3.356-3.906 8.1 8.1 0 0 0 1.761-3.993 4.823 4.823 0 0 0-1.4-3.56c-2.668-3.112-5.684-2.688-12.741-1.691l-1.411.2-.309.042c-2.179.294-10.206 1.38-13.255.484h-.01c-3.053-.906-3.229-2.928-3.23-2.933a.616.616 0 0 0-.85-.5.966.966 0 0 0-.242.115c-.25-.455-.526-.965-.739-1.377-.512-.988 2.055.608 2.888.846s2.034-.958 2.034-.958l3.061-4.162s-2.589 2.243-3.72 2.34-1.893-.765-2.645.082-2.638.371-3.912.356-2.531-4.176-2.531-4.176c.14.09 1.033 4.552 1.671 5.488l3.482 2.091a.788.788 0 0 0-.037.335c.116.978.424 3.193-.259 4.073-.06.078-.353-.086-.761-.383a10.187 10.187 0 0 1-2.119-2.369c-1.265-1.84-2.352-4.068-2.287-5.109.025-.425.15-.5.05-.968-.1-.489-.156-.43-.572-.716a2.186 2.186 0 0 1-.592-.572 1.36 1.36 0 0 1-.141-.271.444.444 0 0 0 .089-.139.232.232 0 0 0-.172-.337v-.049a1.586 1.586 0 0 1 .036-.238.461.461 0 0 0 .127-.1.283.283 0 0 0 .038-.347q.033-.066.07-.132a5.783 5.783 0 0 1 1.388-1.54 4.136 4.136 0 0 0 1.179 1.662l1.014-.818a3.289 3.289 0 0 1-1.027-1.485 1.051 1.051 0 0 1 .02-.694.567.567 0 0 1 .241-.272.779.779 0 0 1 .255-.088 5.057 5.057 0 0 0 1.634 2.532.974.974 0 0 0 1.231.037.679.679 0 0 0 .041-1.06 3.88 3.88 0 0 1-1.418-2.323 1.2 1.2 0 0 1 .089-.646.285.285 0 0 1 .1-.132.46.46 0 0 1 .31.011 1.029 1.029 0 0 0 1.2-.817c0-.18.36-.527.685-.84a6.856 6.856 0 0 0 .6-.628.477.477 0 0 0 .111-.314c.113-.011.226-.026.339-.046a4.035 4.035 0 0 0 1.3-.478 3.268 3.268 0 0 0 .643-.478.617.617 0 0 0 .333-.077 15.689 15.689 0 0 1 6.36-1.757 4.021 4.021 0 0 1 .664.024c.08.011.1-.005.109 0l.011.009a.969.969 0 0 0 1.231.046.687.687 0 0 0 .058-1.059 1.326 1.326 0 0 0-.741-.294 5.6 5.6 0 0 0-.941-.04 14.562 14.562 0 0 0-2.216.264.345.345 0 0 0 .067-.068 8.454 8.454 0 0 1 1.615-1.664 13.113 13.113 0 0 1 2.267-1.418.325.325 0 0 0 .157-.41.283.283 0 0 0-.391-.135 14.276 14.276 0 0 0-2.465 1.548 9.485 9.485 0 0 0-1.813 1.866.224.224 0 0 0 .133.358l.019.006q-.3.063-.611.14a.365.365 0 0 0 .017-.081c.149-1.79 1.841-4.585 3.519-6.373a10 10 0 0 1 .946-.9 4.359 4.359 0 0 1 .809-.54h.008a.331.331 0 0 0 .169-.409.277.277 0 0 0-.386-.144h-.008a5.428 5.428 0 0 0-1.035.685 10.863 10.863 0 0 0-1.048.99c-1.783 1.9-3.583 4.891-3.744 6.831a.3.3 0 0 0 .018.13 18.312 18.312 0 0 0-2.679.961l-.335-1.042-2.115-1.356 2.368.388.554-1.029-4.041-.664-.142.264c-.1-.089-.2-.179-.305-.267l.859-.343a5.112 5.112 0 0 1-.134-1.484 9.726 9.726 0 0 1 3.265-6.274 15 15 0 0 1 1.228-1.059 1.006 1.006 0 0 0 .228.049c.945.117 1.264-.392 1.537-1.246a22.665 22.665 0 0 1 4.318-1.961.537.537 0 0 0 .728.262 1.439 1.439 0 0 0 .644-.69q.9-.254 1.874-.47a44.543 44.543 0 0 1 10.216-.913 31.248 31.248 0 0 0-3.9 1.6l.389.858c.015-.008 5.277-2.706 9.5-2.559l.058-.151c2.766-.144 11.979-.551 13.943.3l.79-.963c-2.543-1.1-15.211-.338-15.248-.336l-.029.109a17.661 17.661 0 0 0-3.515.552l.161-.405a47.881 47.881 0 0 0-12.326.892q-.826.181-1.6.391a3.561 3.561 0 0 0-.011-.907 3.462 3.462 0 0 0-.351-1.141 1.836 1.836 0 0 0-.874-.845c-.71-.311-1.646-.2-2.84.673l-.024.018a7.857 7.857 0 0 0-2.61 3.325 3.913 3.913 0 0 0-1.226 2.5 17.227 17.227 0 0 0-1.88 1.561 10.98 10.98 0 0 0-3.673 7.086 6.312 6.312 0 0 0 .043 1.154zm2.3 3.447a9.635 9.635 0 0 0 .911.527c.168.553.189 1.035-.282 1.308a2.253 2.253 0 0 1-.723.267 2.089 2.089 0 0 1-1-.049 1.328 1.328 0 0 1-.946-1.027 4.309 4.309 0 0 1 .321-2.29l.181.145a.082.082 0 0 0-.011.016l-.414 1.224a.242.242 0 0 0 0 .107s.429 1.108 1.527.329a1.08 1.08 0 0 0 .433-.557zm21.414.944l.278.26a.22.22 0 0 1 .06.224s-.269 1.318-2.074 1.026c-.779-.125-.981-.489-.964-.859l-.5.134a1.286 1.286 0 0 0 .468.868 3.274 3.274 0 0 0 1.706.694c.076.011.171.023.284.034a2.5 2.5 0 0 0 1.546-.168c.206-.146.285-.457.262-.908a2.639 2.639 0 0 0-.363-1.448c-.232.045-.467.093-.7.144zm-4.62 35.345a.822.822 0 0 0 .184.029c.39-.034.825-.082 1.262-.131s.882-.1 1.254-.13h.007c.348-.029.606-.4.387-.586-.354-.3-.732-.671-1.127-1.054-.28-.271-.569-.551-.862-.823.107.023.222.043.342.061a12.6 12.6 0 0 0 1.58.109c1.438.015 3.01-.228 3.431-.791l-.995-.361a9.331 9.331 0 0 1-2.064.1 13.34 13.34 0 0 0-3.135.153 4.508 4.508 0 0 0-2-1.062h-.006c-.234-.033-.558.215-.549.426a3.468 3.468 0 0 0 .039.4l-.015-.005a.746.746 0 0 0-.8.234 1.543 1.543 0 0 1-1.192.713 6.606 6.606 0 0 1-2.114-.375.729.729 0 0 1-.447-.358 1.316 1.316 0 0 1-.138-.637 2.75 2.75 0 0 1 .146-.829 3.3 3.3 0 0 1 1.49-1.906c1.8-.876 2.169-1.476 2.242-1.715h.018c.117-1.067 3.162-3.1 5.364-4.562 1.51-1.006 2.69-1.792 2.71-2.329a.579.579 0 0 0 0-.1 12.583 12.583 0 0 1 5.191.171 21.207 21.207 0 0 0-4.315 2.409c-.2.2-.425.477-.684.788-.78.937-1.88 2.258-3.021 2.572l.048.992c1.69-.463 3-2.032 3.92-3.144.23-.275.433-.52.6-.7a26.57 26.57 0 0 1 4.576-2.39 5.923 5.923 0 0 1 1.327 1.173 4.018 4.018 0 0 1 1.2 2.916 3.6 3.6 0 0 1-.135.744.261.261 0 0 0-.132-.141.424.424 0 0 0-.486.08c-.091.1-.2.22-.315.353-.762.862-2.349 2.7-3.7 4.276-1.184 1.373-1.783 2.487-1.979 2.5a.482.482 0 0 0-.4.356.225.225 0 0 0 .2.291c-.294.139-.653.3-1.024.474a9.966 9.966 0 0 0-2.643 1.522c-.861.845-4.312.618-4.321.617h-.092s-1.187.1-3.616.195a3.676 3.676 0 0 1-2.119-.572.282.282 0 0 0 .04-.409 24.769 24.769 0 0 1-1.607-1.937l.588-.289a1.5 1.5 0 0 0 .84.583 7.479 7.479 0 0 0 2.536.417 3.126 3.126 0 0 0 2.4-1.338 6.061 6.061 0 0 0 .982 2.062 3.723 3.723 0 0 0 .5.532 2.785 2.785 0 0 0 .6.4l.035.018zM27.601 58.235a2.618 2.618 0 0 1-.2-.523.208.208 0 0 0-.059-.1 6.447 6.447 0 0 0 .123-1.128 6.451 6.451 0 0 0 2.637 1.433h.013a17.773 17.773 0 0 0 4.929.382 11.187 11.187 0 0 1-2.878.7 8.036 8.036 0 0 1-4.227-1.117l-.342.348zM82.114 12.96h.014c.168-.014.439-.022.607-.019 3.224.046 2.68 2.581.788 3.507 2.368-.339 4.332-.258 5.193.637a5.139 5.139 0 0 1 .7.893 3.323 3.323 0 0 1 .3 3.007 6.235 6.235 0 0 1-1.861 2.468 10.972 10.972 0 0 1-1.891 1.282.575.575 0 0 1-.8-.239.621.621 0 0 1 .273-.813 8.617 8.617 0 0 0 1.485-1.01 4.413 4.413 0 0 0 1.323-1.726 2.349 2.349 0 0 0-.25-2.125 4.281 4.281 0 0 0-.589-.753c-2.444-2.538-18.06 3.914-18.1 3.932a.525.525 0 0 1-.729-.341.7.7 0 0 1 .414-.808 80.936 80.936 0 0 1 13.813-4.288c-1.659.121-2.685.239-2.835-1.314-.062-.635.916-.757 1.4-.8-.7 3.089 4.634-.4.995-.453h-.252c-.09 0-.17.006-.222.01h-.01l.24-1.052zm-18.9 7.708a2.531 2.531 0 0 0 .433.29 1.015 1.015 0 0 0 .531.129l-.239 1.051c-2.328.2-2.706-3.142-.9-3.3l.775-.067c-.577.65-1.125 1.159-.6 1.892zm18.667 17.235c3.469-.3 2.728 2.714 1.053 3.325a2.165 2.165 0 0 1-2.554-.938l1.067-.38c1.441 1.949 3.159-1.7.194-.955l.24-1.052zm-10.59-6.715a.822.822 0 0 0-.047.541c.907 3.489 5.58-.546 1.378-.653l.407-1.052c6.718.222-1.535 7.85-3 2.2a1.678 1.678 0 0 1 .1-1.095l1.169.059zm-23.295-7c-.647.308.344 1.224 1.117.067l.774-.146c.128 1.312-1.385 2-2.616 1.511-1.591-.629-.377-2.889.971-2.483l-.246 1.051zm6.662-3.288c2.5.2 3.333 1.091 2.414 2.094a2.454 2.454 0 0 1-3.813-.141l.841-.578c.374.556 2.245.907 2.292.122-.386-.5-1.229-.509-1.974-.446l.24-1.051zm-13.912 1.107c-1.067 2.193 1.222.952 1.064.017-.034-.206-.3-.212-.575-.328a3.366 3.366 0 0 0 .221-.689c1.75-.149.968 1.693-.07 2.576-1.692 1.442-2.441-1.155-.9-2.106l.256.53zM37.73 50.049c-1.112 1.029-.332 1.391.63.841.07.712-1.666 1.275-1.944.7a1.861 1.861 0 0 1 .217-1.742l1.1.2zm-4.316-28.771l.094-.289a.984.984 0 0 0 .562-.643.487.487 0 0 0-.1-.455 5.916 5.916 0 0 1 1.768-2.121l.025-.018c.5-.368.835-.444 1.041-.354a.968.968 0 0 1 .429.45 2.6 2.6 0 0 1 .26.844 7.423 7.423 0 0 0 .169.806 25.681 25.681 0 0 0-4.246 1.779zM8.657 42.32a.238.238 0 0 1-.317-.231.418.418 0 0 1 .3-.393 11.856 11.856 0 0 1 7.78.846.291.291 0 0 1 .086.477.54.54 0 0 1-.617.111 10.992 10.992 0 0 0-7.234-.809zm30.935 9.458c.053-.015 18.439-5.181 22.577-4.682a.542.542 0 0 0 .518-.281.24.24 0 0 0-.2-.367c-4.312-.52-22.872 4.7-22.925 4.711a.411.411 0 0 0-.292.4.241.241 0 0 0 .322.225zm4.617-.763c.093-.012 32.412-4.117 39.854-.17l-.532.586c-7.261-3.852-39.345.222-39.437.234l.116-.65zm-3.58-1.209c.037-.017 13.065-5.869 21.129-6.425a.5.5 0 0 0 .422-.35.231.231 0 0 0-.257-.3c-8.244.568-21.442 6.5-21.48 6.514a.343.343 0 0 0-.188.407.268.268 0 0 0 .373.157zm4.476-1.12c.066-.018 22.947-6.453 34.219-4.231a.553.553 0 0 0 .548-.25.249.249 0 0 0-.179-.392c-11.461-2.258-34.553 4.236-34.619 4.255a.411.411 0 0 0-.292.4.24.24 0 0 0 .322.224zm20.369 9.306a.4.4 0 0 1 .141-.554.414.414 0 0 1 .566.126c.007.012 2.722 4.171-4.808 7.771a.285.285 0 0 1-.245 0 36.923 36.923 0 0 1-2.926 6.1.5.5 0 0 1-.5.2.223.223 0 0 1-.175-.343 29.294 29.294 0 0 0 4.137-10.933c.047-.433-.189-1.15-.1-1.3a.644.644 0 0 1 .407-.334c.29-.078.477.094.506.5a5.972 5.972 0 0 1-.041 1 21.654 21.654 0 0 1-1.071 4.45c6.415-3.164 4.12-6.682 4.112-6.692zM52.964 69.26l-.677.325c.011.027-.153.118-.417.249.439-.375 1.386-1.474 2.479-2.74 1.3-1.515 2.835-3.29 3.7-4.267.109-.124.2-.23.277-.311a9.538 9.538 0 0 1-1.266 2.265 23.375 23.375 0 0 1-3.1 3.61c-.318.3-.65.587-1 .87zm-17.27-25.544l-.109.054zm0 0l.206-.1-.2.1zm-.478.234zm10.6 22.555a.569.569 0 0 1-.727-.039.412.412 0 0 1 .036-.636l5.071-3.953a.57.57 0 0 1 .727.04.411.411 0 0 1-.037.635l-5.07 3.953zm33.755-42.952l-.774.006s-1.74 2 2.341 1.65l.238-1.046c-2.3.577-2.013-.363-1.8-.61zm-5.856-1.056l.633.544c.016-.009 5.32-3.213 9.693-3.035a3.015 3.015 0 0 1 1.493.3.249.249 0 0 1 .1.308 1.471 1.471 0 0 1-.458.537 14.611 14.611 0 0 1-4.97 2.24l.085.772a16.764 16.764 0 0 0 5.745-2.632 2.563 2.563 0 0 0 .805-.991.722.722 0 0 0-.278-.9 3.892 3.892 0 0 0-2.053-.477c-4.949-.197-10.776 3.324-10.796 3.334z" data-name="Path 4"/>
    </g>
    <path fill="#0d0a07" fill-rule="evenodd" d="M122.859 14.982l-1.947 23.375 7.629 2.111.925-11.325 6.543 12.948 9.416 3.9-8.929-16.4 10.553-8.929-8.929-2.435-8.379 7.54.749-9.163-7.63-1.624zm-20.378 12.242l5.675.31-2.18-8.331-3.495 8.021zm7.006 5.4l-9.2-.35-1.451 3.329-8.28-.325 11.364-22.4 9.091.488 7.462 24.831-7.955-1.624z" data-name="Path 5"/>
    <path fill="#0d0a07" fill-rule="evenodd" d="M92.826 41.341s-5.682.811-9.9 1.786-9.091 2.6-9.091 2.6l1.136 23.864s7.143-1.948 10.553-2.922 10.714-2.6 9.74-10.228-9.253-4.545-9.253-4.545l-4.546 1.136-.325-3.409s3.084-.974 5.52-1.462 6.331-1.136 6.331-1.136l-.162-5.682zm64.937 12.5c.162.162.162 7.631.162 7.631-1.464-4.033-8.916-11.438-10.552-4.058-1.282 5.784 2.11 10.877 4.871 12.5a8.339 8.339 0 0 0 6.007.649l.325 8.117a18.515 18.515 0 0 1-5.359-2.111c-2.76-1.623-9.579-6.331-11.851-15.26a28.7 28.7 0 0 1-.978-6.376c-.142 5.428-4.431 6.205-7.464 5.727a16.36 16.36 0 0 1-4.871-1.462v8.28a33.1 33.1 0 0 0-6.169-1.461c-2.922-.326-7.792-.488-7.792-.488l-1.586-4.358-8.852.113-1.088 3.759s-2.111.161-3.9.161-3.9.162-3.734.162l7.955-23.54a25.467 25.467 0 0 1 4.707-.487h4.546l8.117 20.78-.162-20.78a117.163 117.163 0 0 1 11.526 2.111c3.186.956 8.562 5.352 8.76 10.888.066-4.653 2.121-7.347 6.337-7.8 6.007-.649 10.876 7.143 11.038 7.3zm-52.6 2.245l5.46-.1-3.023-8.311-2.437 8.414zm-23.389 6.716l-.294-5.236s2.428-.663 3.457-.811 2.941 0 3.089 1.549-.808 2.656-2.795 3.393-3.457 1.105-3.457 1.105zm45.892-9a26.433 26.433 0 0 0 2.941.443c1.176.073 2.355-.517 2.355-1.845a3.986 3.986 0 0 0-2.133-3.465 15.11 15.11 0 0 0-3.309-.737z" data-name="Path 6"/>
    <path fill="#00862f" fill-rule="evenodd" d="M120.912 13.522l-1.95 23.376 7.63 2.111.925-11.324 6.545 12.948 9.416 3.9-8.929-16.4 10.553-8.929-8.929-2.436-8.378 7.541.748-9.164-7.629-1.623zm-20.379 12.241l5.675.31-2.18-8.331-3.495 8.021zm7.006 5.4l-9.2-.349-1.45 3.329-8.28-.325 11.364-22.4 9.09.487 7.468 24.839-7.954-1.624z" data-name="Path 7"/>
    <path fill="#d9000d" fill-rule="evenodd" d="M90.877 39.993s-5.681.811-9.9 1.785-9.091 2.6-9.091 2.6l1.136 23.864s7.144-1.947 10.553-2.922 10.715-2.6 9.74-10.227-9.253-4.546-9.253-4.546l-4.545 1.137-.326-3.41s3.084-.974 5.52-1.461 6.332-1.136 6.332-1.136l-.163-5.682zm64.938 12.5c.162.162.162 7.631.162 7.631-1.465-4.034-8.917-11.438-10.553-4.059-1.281 5.785 2.111 10.877 4.871 12.5a8.346 8.346 0 0 0 6.007.649l.325 8.116a18.527 18.527 0 0 1-5.357-2.11c-2.76-1.624-9.578-6.331-11.851-15.261a28.833 28.833 0 0 1-.978-6.375c-.142 5.427-4.43 6.2-7.464 5.726a16.367 16.367 0 0 1-4.872-1.457v8.28a33.176 33.176 0 0 0-6.169-1.462c-2.923-.325-7.793-.487-7.793-.487l-1.586-4.358-8.852.113-1.088 3.758s-2.111.162-3.9.162-3.9.162-3.734.162l7.955-23.54a25.485 25.485 0 0 1 4.707-.487h4.546l8.117 20.78-.162-20.78a116.807 116.807 0 0 1 11.526 2.111c3.186.956 8.563 5.352 8.76 10.887.067-4.653 2.121-7.347 6.337-7.8 6.007-.649 10.877 7.144 11.04 7.306zm-52.6 2.245l5.46-.1-3.023-8.31-2.437 8.414zm-23.388 6.716l-.294-5.236s2.427-.664 3.457-.811 2.941 0 3.088 1.549-.808 2.655-2.794 3.392-3.457 1.106-3.457 1.106zm45.891-9a26.516 26.516 0 0 0 2.942.442c1.176.074 2.353-.517 2.353-1.843a3.986 3.986 0 0 0-2.132-3.466 15.113 15.113 0 0 0-3.309-.737z" data-name="Path 8"/>
  </g>
</svg>