<svg xmlns="http://www.w3.org/2000/svg" xmlns:xlink="http://www.w3.org/1999/xlink" width="76.658" height="92.4" viewBox="0 0 76.658 92.4">
  <defs>
    <clipPath id="clip-path">
      <path id="SVGID" d="M1435.214,5643.547c.177-.056.317.451.224.72a.8.8,0,0,1-.541.545c-.226.031-.367-.174-.338-.4s.192-.209.37-.564.285-.3.285-.3Z" fill="none" clip-rule="evenodd"/>
    </clipPath>
  </defs>
  <g id="Group_4518" data-name="Group 4518" transform="translate(-1378.808 -5621.986)">
    <path id="Path_2943" data-name="Path 2943" d="M1418.573,5636.819a33.537,33.537,0,1,1-33.536,33.537,33.541,33.541,0,0,1,33.536-33.537Z" fill="#d9000d" fill-rule="evenodd"/>
    <path id="Path_2944" data-name="Path 2944" d="M1443.312,5633.07,1423.364,5646l-5.37,3.482,1.655-6.177,1.246-4.652-11.659,8.328-7.35,26.828,18.307-12.781,5.525-3.857-1.742,6.5-2.536,9.463,13.866-10.195,8.006-29.878Zm-17.254,5.334,19.949-12.936,5.37-3.482-1.655,6.177-9.884,36.887-.223.832-.7.516-20.211,14.86-5.644,4.149,1.813-6.767,2.607-9.727-18.347,12.808-5.565,3.885,1.792-6.541,9.375-34.219.233-.849.71-.508,17.944-12.816,5.575-3.982-1.773,6.619-1.365,5.094Z" fill="#d9000d"/>
    <path id="Path_2945" data-name="Path 2945" d="M1447.344,5627.528l-25.319,16.417,3.02-11.271-17.944,12.816-9.531,34.375,23.638-16.665-4.193,16.075,20.445-14.86,9.884-36.887Z" fill="#005a32" fill-rule="evenodd"/>
    <path id="Path_2946" data-name="Path 2946" d="M1433.093,5670.981l-17.489,11.305-5.355,3.461,1.649-6.156,1.26-4.7-14.225,10.075-4.647,17.763,18.4-12.848,5.525-3.857-1.743,6.5-2.536,9.463,13.85-10.183,5.308-20.826Zm-14.791,3.725,17.4-11.244,5.261-3.4-1.546,6.067-7.069,27.741-.217.848-.717.528L1411.2,5710.1l-5.644,4.149,1.814-6.767,2.606-9.727-18.347,12.808-5.469,3.818,1.687-6.445,6.56-25.073.227-.864.736-.521,20.513-14.529,5.552-3.932-1.761,6.569-1.37,5.115Z" fill="#d9000d"/>
    <path id="Path_2947" data-name="Path 2947" d="M1437.026,5665.521l-22.75,14.706,3.02-11.271-20.513,14.528-6.561,25.073,23.872-16.666-4.349,16.23,20.211-14.86,7.07-27.741Z" fill="#005a32" fill-rule="evenodd"/>
    <path id="Path_2948" data-name="Path 2948" d="M1392.671,5691.559l2.834-10.065h-.574l-1.814,2.056h1.786l-.661,2.346-1.594,5.663Zm2.791,3.7h-7.686l.66-2.346.151-.535-2.064,2.274-.55.607h-7.165l.661-2.346,3.874-13.761.38-1.35h7.746l-.66,2.346q-.094.336-.19.672l2.108-2.39.554-.628h5.94l.006-.02h7.187a8.2,8.2,0,0,1,2.884.453,5.374,5.374,0,0,1,1.165.6,4.339,4.339,0,0,1,.717.614l.09-.318.38-1.35h14.177l-.006.02h7.47l-.313,1.112,1.267-.027.858-1.085h7.095l-.66,2.346-.116.412c.082-.082.166-.163.251-.242a10,10,0,0,1,1.5-1.151,11.53,11.53,0,0,1,1.723-.891,9.935,9.935,0,0,1,2.094-.6,13.415,13.415,0,0,1,2.311-.191,13.686,13.686,0,0,1,2.211.178q.54.088,1.037.212.523.129.995.29l1.924.656-.834,1.849-1.277,2.836-.631,1.4-1.491-.368c-.237-.058-.439-.1-.6-.133s-.351-.056-.589-.083c-.221-.026-.409-.043-.566-.053h-.008c-.136-.009-.3-.013-.493-.013a3.584,3.584,0,0,0-1.007.13,1.871,1.871,0,0,0-.34.14,2.137,2.137,0,0,0-.327.217,2.417,2.417,0,0,0-.316.312,3.446,3.446,0,0,0-.323.45,4.225,4.225,0,0,0-.3.592,7.243,7.243,0,0,0-.276.8,8.834,8.834,0,0,0-.206.886,3.9,3.9,0,0,0-.063.583,1.392,1.392,0,0,0,.015.218,2.233,2.233,0,0,0,.346.07,4.856,4.856,0,0,0,.624.031c.13,0,.294-.007.49-.023.176-.013.294-.023.357-.03.189-.02.324-.035.4-.045.15-.019.455-.063.917-.13.128-.019.253-.04.374-.063q.23-.044.339-.071l2.426-.594-.152,2.493-.166,2.716-.075,1.24-1.181.4q-.615.207-1.334.38-.687.165-1.421.281-.81.127-1.41.179-.7.06-1.338.059a9.412,9.412,0,0,1-4.076-.756,6.031,6.031,0,0,1-1.45-.965,4.989,4.989,0,0,1-1.064-1.382q-.12-.228-.217-.462l-.562,2-.38,1.35H1429.6l.661-2.346.15-.535-2.063,2.274-.55.607h-7.165l.451-1.6-.013.01a7.68,7.68,0,0,1-1.079.68,8.084,8.084,0,0,1-1.179.493,7.916,7.916,0,0,1-1.289.312,8.872,8.872,0,0,1-1.345.109h-9.447l.661-2.346,1.067-3.79-.145.083a8.538,8.538,0,0,1-1.21.555,7.712,7.712,0,0,1-1.4.364,9.136,9.136,0,0,1-1.475.121h-.722l-1.031,3.663-.38,1.35h-6.631Zm-11.117-3.7,1.594-1.757h-1.7l.66-2.345q.711-2.525,1.183-4.172l.512-1.791h-.079l-2.833,10.065Zm23.931-7.5a3.791,3.791,0,0,0,.2-.559,4.249,4.249,0,0,0,.131-.644,2.571,2.571,0,0,0,.019-.493.859.859,0,0,0-.044-.238.5.5,0,0,0-.074-.137.665.665,0,0,0-.142-.127,1.715,1.715,0,0,0-.371-.182,2.648,2.648,0,0,0-.4-.112,2.669,2.669,0,0,1,.6,1.547,4.2,4.2,0,0,1-.16,1.4,4.35,4.35,0,0,0,.244-.455Zm-7.943,3.835.07-.251h0l.661-2.345.984-3.5.093-.33h-.123l-2.839,10.085h.123l1.031-3.663Zm14.251-6.422h-.143l-2.839,10.085h.142l.368-1.306.95-3.376.071-.25h0l.185-.656.124-.443h0l.351-1.247.709-2.517.082-.29Zm9.183,2.636h-1.34c.106.081.21.166.31.256a4.135,4.135,0,0,1,.722.841l.308-1.1Zm-4.146,2.682c-.078-.022-.159-.041-.243-.058a2.63,2.63,0,0,1,.516,1.3,3.708,3.708,0,0,1-.141,1.453,5.072,5.072,0,0,1-.179.524c.061-.078.12-.16.179-.247a4.061,4.061,0,0,0,.335-.591,4.477,4.477,0,0,0,.242-.662,3.588,3.588,0,0,0,.135-.7,1.327,1.327,0,0,0-.012-.362.631.631,0,0,0-.17-.341,1.273,1.273,0,0,0-.249-.165,2.1,2.1,0,0,0-.413-.152Zm14.871,4.767,2.834-10.065h-.574l-1.814,2.056h1.786l-.66,2.346-1.594,5.663Zm-8.325,0,1.594-1.757h-1.7l.66-2.345q.711-2.525,1.182-4.172l.513-1.791h-.079l-2.834,10.065Zm16.79-6.883q.116-.277.245-.537a6.815,6.815,0,0,0-.438.72q-.289.551-.526,1.132a10.652,10.652,0,0,0-.38,1.1,11.639,11.639,0,0,0-.271,1.186,8.968,8.968,0,0,0-.121,1.082,3.131,3.131,0,0,0,.048.753h.007a2.067,2.067,0,0,0,.185.553,1.3,1.3,0,0,0,.284.356,2.345,2.345,0,0,0,.57.373,4.114,4.114,0,0,0,1.337.328c-.1-.06-.2-.125-.3-.194a3.427,3.427,0,0,1-.855-.888,3.631,3.631,0,0,1-.481-1.127,4.777,4.777,0,0,1-.127-1.152,7.306,7.306,0,0,1,.106-1.189,12.448,12.448,0,0,1,.293-1.276,10.859,10.859,0,0,1,.42-1.223Z" fill="#005a32"/>
    <path id="Path_2949" data-name="Path 2949" d="M1397.939,5679.647l-3.874,13.76h-3.854l2.255-8.008h-.1l-4.544,5.073-2.664,2.935h-3.914l3.874-13.76h3.914q-.585,2.078-1.177,4.144t-1.182,4.164h.08l.753-.829q.462-.508,1-1.128l5.6-6.351Zm12.316,4.354a5.962,5.962,0,0,1-.748,1.627,6.025,6.025,0,0,1-1.275,1.408,6.144,6.144,0,0,1-1.767.989,6.443,6.443,0,0,1-2.24.369h-2.118l-1.411,5.013h-3.954l3.88-13.78h5.791a6.434,6.434,0,0,1,2.234.329,2.906,2.906,0,0,1,1.322.909,2.48,2.48,0,0,1,.5,1.378,5.209,5.209,0,0,1-.215,1.758Zm-6.433-1.7-.984,3.495h1.3a2.181,2.181,0,0,0,1.26-.4,2.273,2.273,0,0,0,.841-1.318q.274-.979-.1-1.378a1.462,1.462,0,0,0-1.116-.4Zm9.222-2.676h10.345l-.742,2.636h-6.371l-.709,2.517h2.637a7.29,7.29,0,0,1,1.892.229,3.405,3.405,0,0,1,1.413.729,2.412,2.412,0,0,1,.74,1.308,4.078,4.078,0,0,1-.144,1.968,6.128,6.128,0,0,1-.823,1.787,5.746,5.746,0,0,1-1.32,1.388,6.037,6.037,0,0,1-1.731.9,6.469,6.469,0,0,1-2.057.319h-7.01l3.88-13.78Zm1.792,7.749-.95,3.375h1.958a2.194,2.194,0,0,0,1.259-.429,2.3,2.3,0,0,0,.873-1.328,1.194,1.194,0,0,0-.151-1.239,1.56,1.56,0,0,0-1.131-.379Zm24.924-7.729-3.874,13.76h-3.854l2.255-8.008h-.1l-4.544,5.073-2.664,2.935h-3.915l3.874-13.76h3.915q-.585,2.078-1.177,4.144t-1.182,4.164h.08l.752-.829q.463-.508,1-1.128l5.6-6.351Zm9.537-.32a11.833,11.833,0,0,1,1.915.15,10.679,10.679,0,0,1,1.736.43l-1.277,2.836a11.566,11.566,0,0,0-2.7-.34,5.36,5.36,0,0,0-1.527.21,3.741,3.741,0,0,0-1.3.689,4.748,4.748,0,0,0-1.058,1.238,7.452,7.452,0,0,0-.772,1.857,7.6,7.6,0,0,0-.334,1.968,2.261,2.261,0,0,0,.312,1.268,1.737,1.737,0,0,0,.944.689,5.02,5.02,0,0,0,1.569.209c.159,0,.369-.009.627-.029s.543-.05.854-.09.626-.083.946-.13.614-.1.886-.17l-.165,2.716a14.96,14.96,0,0,1-2.453.589,15.829,15.829,0,0,1-2.466.21,7.683,7.683,0,0,1-3.275-.569,3.567,3.567,0,0,1-1.684-1.538,4.322,4.322,0,0,1-.448-2.237,11.91,11.91,0,0,1,.456-2.686,13.275,13.275,0,0,1,1.051-2.6,8.718,8.718,0,0,1,4.468-4.025,9.608,9.608,0,0,1,3.7-.649Z" fill="#fff"/>
    <path id="Path_2950" data-name="Path 2950" d="M1434.5,5641.249a2.992,2.992,0,0,0,.181-1.524c-.09-.991.017-1.5-.439-1.738s-.925.25-1.471.48-1.027.405-1.027.405l1.157,1.942,1.6.435Z" fill="#fff" fill-rule="evenodd"/>
    <path id="Path_2951" data-name="Path 2951" d="M1436.023,5643.4a4.273,4.273,0,0,0-1.372-2.446c-1.182-1-2.185-2.193-4.182-2.162a10.912,10.912,0,0,0-2.187.119,16.907,16.907,0,0,0-2.931-1.314,1.886,1.886,0,0,0-1.273,1.681,8.586,8.586,0,0,0,.263,3.137,1.181,1.181,0,0,0,.7.619,2.62,2.62,0,0,0-.37.27c-.7.654.048.21-.041.34s-.549.572-.661.733c-.067.1.216-.088.144.014a15.65,15.65,0,0,1-1.626,2.076,4.2,4.2,0,0,0-.914,1.039.926.926,0,0,0-.806.527c-.239.527-.145.183-.145.183a16.928,16.928,0,0,1-3.867.93c-1.558.08-2.812-.492-4.447.364a9.7,9.7,0,0,0-4.739,4.476c-1,2.316-2.253,3.294-2.823,6.16s-1.53,4.644-2.114,5.079-1.325.653-1.366,1.158a44.56,44.56,0,0,0-1.194,10.739s.661,1.391,3.055,1.048a1.884,1.884,0,1,0,2.8-2.523c-.243-.373-.458-.214-.458-.214a3.8,3.8,0,0,0-.5-.543c-.3-.266-.364-.258-.364-.258s.027-1.5.124-2.682.139-1.683.139-1.683a10.987,10.987,0,0,0,2.665-3.008,17.886,17.886,0,0,1,2.226-3,7.982,7.982,0,0,0,1.213-1.907,10.3,10.3,0,0,1,1.135-1.931,1.407,1.407,0,0,1,1-.615,1.533,1.533,0,0,1,.975.046s.551.724,1.842,2.375,1.166,1.733,1.166,1.733a9.389,9.389,0,0,1,.218,2.175,3.755,3.755,0,0,0,.536,2.905c.833,1.438,3.479,6.166,4.523,6.546a5.256,5.256,0,0,0,2.626-.07s.621-.1,1.049-.154a1.015,1.015,0,0,0,.577-.2s.159,1.382.871,1.766a23.492,23.492,0,0,0,2.344.963s.6,1.431,1.2,1.461a16.7,16.7,0,0,0,2.047-.169,2.075,2.075,0,0,0,1.42.169c.709-.215.8-.325.8-.325a.916.916,0,0,0,.9.029,1.53,1.53,0,0,0,.766-.588.553.553,0,0,0,.784-.424,2.914,2.914,0,0,0-.686-2.188.865.865,0,0,0-1.065-.277s-.442-.65-.873-.633a.683.683,0,0,0-.584.434s-.86-.234-2.3-2.6-2.281-3.87-2.281-3.87-.3-2.9-.365-4.892-.14-2.951-.14-2.951a12.414,12.414,0,0,0,1.379-3.36,6.788,6.788,0,0,0,.1-3.446,9.908,9.908,0,0,1-.27-2.336.925.925,0,0,0,.711.385c.542.07,2.581-.433,2.663-.876s.147-1.317.147-1.317.358-.407.8-.891a2.1,2.1,0,0,0,.526-.928,6.606,6.606,0,0,1,.373-1.677,1.789,1.789,0,0,0,0-1.434,6,6,0,0,1,.128-1.781ZM1421,5664.207a11.892,11.892,0,0,0-.07,3.087,66.452,66.452,0,0,0,4,5.475l1.056-.121-.266-1.842-4.722-6.6Z" fill="#fff" fill-rule="evenodd"/>
    <path id="Path_2952" data-name="Path 2952" d="M1429.463,5661.09l0-.027a14.121,14.121,0,0,0,1.062-2.245c-.445.308-.953.67-1.226.893-.553.452-2.163,1.522-2.163,1.522s.768,1.79.8,1.764c0,0,1.148-1.406,1.53-1.907Z" fill="#bababa" fill-rule="evenodd"/>
    <path id="Path_2953" data-name="Path 2953" d="M1404.846,5671l.051-.59a10.387,10.387,0,0,0,3.027-2.957,31.526,31.526,0,0,0,1.739-2.972s.032-.033.087-.1l-.035-.009s-2.839,2.351-3.652,2.828-1.159,2.639-1.239,3.667a.285.285,0,0,0,.022.129Z" fill="#a3a3a3" fill-rule="evenodd"/>
    <path id="Path_2954" data-name="Path 2954" d="M1413.923,5659.75a19.157,19.157,0,0,0,1.742,2.475c1.172,1.5,1.167,1.733,1.167,1.733a9.41,9.41,0,0,1,.217,2.175,3.756,3.756,0,0,0,.536,2.905c.833,1.438,3.375,6.166,4.419,6.546a6.989,6.989,0,0,0,2.991-.07s.621-.1,1.049-.154a1.015,1.015,0,0,0,.577-.2s.159,1.382.871,1.766c.039.021.082.044.126.066a3.277,3.277,0,0,0,.212-1.479c-.091-.168-.945-1.505-1.848-2.928l.01.063-1.056.122s-3.773-4.8-4-5.476a9.892,9.892,0,0,1,.05-3.132c-.145-.138.115.054-.548-.472a4.6,4.6,0,0,0-1.42-.742,5.147,5.147,0,0,1-2.242-1.019c-1.588-1.02-2.177-1.974-2.851-2.179Z" fill="#bababa" fill-rule="evenodd"/>
    <path id="Path_2955" data-name="Path 2955" d="M1420.684,5673.7a5.805,5.805,0,0,0,1.685,1.88,5.256,5.256,0,0,0,2.626-.07s.621-.1,1.049-.154a1.015,1.015,0,0,0,.577-.2s.159,1.382.871,1.766c.039.021.082.044.126.066a3.277,3.277,0,0,0,.212-1.479c-.091-.168-.945-1.505-1.848-2.928l.01.063-1.069-.018s-.975-1.11-1.97-2.425a31.064,31.064,0,0,0-3.5-2.509c-.474-.1-.019,1.847,1.23,6.008Z" fill="#fff" fill-rule="evenodd"/>
    <path id="Path_2956" data-name="Path 2956" d="M1427.492,5676.926a21.83,21.83,0,0,0,2.246.928,23.2,23.2,0,0,0-1.446-3.011c-.883-1.589-2.273-3.614-2.273-3.614s-.665-1.12-.649-.964l.356.541c.233,1.615.134,5.238,1.766,6.12Z" fill="#a3a3a3" fill-rule="evenodd"/>
    <path id="Path_2957" data-name="Path 2957" d="M1436.023,5643.4c-.065-.147-.129-.3-.2-.451h0a3.973,3.973,0,0,0-1.242,1.026,1.467,1.467,0,0,0-.193.8,23.583,23.583,0,0,1,1.007,2.808,2.879,2.879,0,0,1-.038.511c.011.79.16.077.182.112.031-.271-.414-1.953-.168-2.471s.664,0,.533-.555a6,6,0,0,1,.128-1.781Z" fill="#a3a3a3" fill-rule="evenodd"/>
    <path id="Path_2958" data-name="Path 2958" d="M1426.439,5659.931a.1.1,0,0,0-.142-.04.105.105,0,0,0-.04.143,29.828,29.828,0,0,1,2.046,4.342c.518,1.673,1.583,4.406,1.586,4.415a.767.767,0,0,0,.162.261,2.73,2.73,0,0,1-.147-.749c-.356-.956-1.037-2.815-1.4-3.989a29.926,29.926,0,0,0-2.064-4.383Z" fill="#a3a3a3"/>
    <path id="Path_2959" data-name="Path 2959" d="M1430.626,5652.081c.049.025.4.132.5.168a.855.855,0,0,0,.369.07l-1.016-.467-.973-.885c.055-.216-.777-.672-.111-.7.178-.006-.763-.533-.937-.7-1.088-1.055-1.52-1.513-1.522-1.514-.107-.085.01.309,1.276,1.769.99.96,1.1,1.085,1.072,1.152a.105.105,0,0,0,.048.138l1.295.967Z" fill="#a3a3a3"/>
    <path id="Path_2960" data-name="Path 2960" d="M1424.818,5638.388a2.178,2.178,0,0,1,.873,1.076c.3.768,1.9,1.6,1.9,1.6s-.8,1.377-1.6,1.415-1.22.088-1.447-.956a5.4,5.4,0,0,1-.134-2.552c.2-.611.414-.583.414-.583Z" fill="#a3a3a3" fill-rule="evenodd"/>
    <path id="Path_2961" data-name="Path 2961" d="M1435.381,5647.431c-.019.017-.18.448-1,.515s-1.24-.424-1.587-.491a.84.84,0,0,0-.59.1s.138.566.53.7.872.414.752,1.05c-.051.272.094.193.312,0,.293-.259.551-.638.81-.742.113-.046.219-.085.314-.13a1.119,1.119,0,0,0,.351-.353,1,1,0,0,0,.112-.647Z" fill="#757474" fill-rule="evenodd"/>
    <path id="Path_2962" data-name="Path 2962" d="M1434.167,5650.272l-.547-.9-.357.413-1.833.538-.655.126.531.1a20.816,20.816,0,0,1,2.1-.42,1.671,1.671,0,0,1,.679.248l.084-.1Z" fill="#757474" fill-rule="evenodd"/>
    <path id="Path_2963" data-name="Path 2963" d="M1401.208,5666.9s-1.905-.651-3.551-4.253a7.378,7.378,0,0,1-.676-3.514,6.145,6.145,0,0,1,.426-2.615c.853-1.888-.37-2.4-1.216-2.038a1.827,1.827,0,0,0-.666.472c-.588.683.177-.686-.372-.111a4.116,4.116,0,0,0-1.163,2.8,12.494,12.494,0,0,0,.319,2.32s-.7-2.482-.457-.408.826,6.106,3.123,8.249a14.01,14.01,0,0,0,3.675,2.7l.558-3.6Z" fill="#fff" fill-rule="evenodd"/>
    <path id="Path_2964" data-name="Path 2964" d="M1396.871,5667.687a12.535,12.535,0,0,0,3.608,2.751c.117-.767.305-1.64.442-2.332-.946,1.012-2.576-.33-4.05-.419Z" fill="#a3a3a3" fill-rule="evenodd"/>
    <path id="Path_2965" data-name="Path 2965" d="M1423.187,5673.326a.1.1,0,0,0-.045.141.106.106,0,0,0,.141.045s1-.543,1.311.716c.34,1.394.361,1.4.361,1.4a.1.1,0,1,0,.2-.059s-.02,0-.358-1.39a1.065,1.065,0,0,0-1.611-.853Zm1.058-.34a.107.107,0,0,0,.011.148.1.1,0,0,0,.148-.011.843.843,0,0,1,1.521.2l.057.116c-.021-.176-.04-.352-.057-.525-.749-1.038-1.677.069-1.68.072Z" fill="#757474"/>
    <path id="Path_2966" data-name="Path 2966" d="M1435.339,5679.057a.1.1,0,0,0,.207-.034,11.976,11.976,0,0,0-.986-3.218c.294-.523.463-.763.649-.714.22.059.525.444,1.072,1.165,1.084,1.426.578,2.381.576,2.384a.1.1,0,0,0,.187.095s.569-1.074-.595-2.606c-.577-.758-.9-1.164-1.187-1.24-.3-.081-.516.168-.834.726-.73-.874-1.891.522-1.9.526a.106.106,0,0,0,.013.148.1.1,0,0,0,.147-.013s1.063-1.277,1.629-.454a11.119,11.119,0,0,1,1.017,3.235Zm-2.236.239a.106.106,0,0,0,.1.107.1.1,0,0,0,.107-.1,6.842,6.842,0,0,0-.469-2.49c-.572-1.426-1.61-.041-1.612-.038a.1.1,0,1,0,.167.127s.818-1.091,1.251-.011a6.589,6.589,0,0,1,.453,2.408Z" fill="#757474"/>
    <path id="Path_2967" data-name="Path 2967" d="M1400.731,5675.9a.1.1,0,0,0,.053.138c.053.024.028-.1.051-.152.079-.181.233-.37.4-.391a.725.725,0,0,1,.619.37,3.442,3.442,0,0,1,.261,2.275.1.1,0,1,0,.2.051,3.666,3.666,0,0,0-.282-2.429,1.881,1.881,0,0,0-.193-.282,1.338,1.338,0,0,1,.732-.446.554.554,0,0,1,.447.183.1.1,0,0,0,.077.085,2.178,2.178,0,0,1,.293.5,5.178,5.178,0,0,1,.49,2.218.1.1,0,0,0,.1.109.1.1,0,0,0,.109-.1,5.377,5.377,0,0,0-.509-2.313,2.336,2.336,0,0,0-.334-.557c.067-.189.308-.659.914-.067a4.6,4.6,0,0,1,.98,2.5.1.1,0,1,0,.209-.017,4.833,4.833,0,0,0-1.042-2.631c-.751-.733-1.1-.242-1.224.056a.717.717,0,0,0-.53-.168,1.523,1.523,0,0,0-.864.511c-.543-.394-.958.56-.959.563Z" fill="#8c8b8b"/>
    <path id="Path_2968" data-name="Path 2968" d="M1430.2,5651.685a.105.105,0,0,0,0-.148c-.042-.04-.215-.163-.255-.122a4.594,4.594,0,0,0-1.008,2.147c0,.086-.011.133-.027.147s-.009-.013-.032-.03a1,1,0,0,1-.208-.233,4.412,4.412,0,0,1-.869-2.223c-.005-.058-.023-.358-.08-.353a.1.1,0,0,0-.1.113,5.78,5.78,0,0,0,.874,2.584,1.243,1.243,0,0,0,.256.282c.113.081.215.09.3.015a.407.407,0,0,0,.094-.3,3.637,3.637,0,0,1,1.055-1.88Z" fill="#a3a3a3"/>
    <path id="Path_2969" data-name="Path 2969" d="M1430.665,5652.038c0-.058-.248-.186-.305-.189s-.116-.128-.119-.071a8.22,8.22,0,0,0,.4,2.816.1.1,0,0,0-.074,0,.1.1,0,0,0-.06.118,5.968,5.968,0,0,1,.118,2.56,4.088,4.088,0,0,0-.31-1.282,1.954,1.954,0,0,0-.079-.311,1.034,1.034,0,0,0-.115-.247c-.178-.255-.187-.238-.13.091a2.218,2.218,0,0,1-.164,1.87,9.024,9.024,0,0,0-.627,1.147,6,6,0,0,1-2.18,2.668.1.1,0,0,0,.122.17,6.176,6.176,0,0,0,2.247-2.747,8.893,8.893,0,0,1,.613-1.122,2.036,2.036,0,0,0,.3-.725,5.171,5.171,0,0,1,.042.705c0,.165,0,.266.082.3.1.04.169-.077.288-.379a4.477,4.477,0,0,0,.12-1.927l.484,1.117a.109.109,0,0,0,.037.049.1.1,0,0,0,.146-.023s.247-.315-.469-1.664a5.164,5.164,0,0,1-.368-2.926Zm.455,3.58.032.073-.032-.073Zm-.6,1.942c.009.032.012.047-.013.036s-.009-.018.013-.036Z" fill="#a3a3a3"/>
    <path id="Path_2970" data-name="Path 2970" d="M1428.6,5643.31a7.564,7.564,0,0,0,1.425.165c.715,0,1.408-.057,1.67.567a5.885,5.885,0,0,0,.489.957l-.409.285s.162.054-.608.039-1.218-.522-1.4-1.335a8.188,8.188,0,0,0-1.088-.495l-.083-.183Z" fill="#a3a3a3" fill-rule="evenodd"/>
    <path id="Path_2971" data-name="Path 2971" d="M1430.934,5643.667c-.265-.076-.737.327-.672.621a1.125,1.125,0,0,0,.781.752.541.541,0,0,0,.664-.393c.024-.245-.24-.241-.414-.635s-.359-.345-.359-.345Z" fill="#fff" fill-rule="evenodd"/>
    <path id="Path_2972" data-name="Path 2972" d="M1431.262,5643.687a.611.611,0,0,1,.305.714c-.065.315-.307.5-.54.425a.614.614,0,0,1-.306-.714c.065-.315.308-.5.541-.425Z" fill="#8c8b8b" fill-rule="evenodd"/>
    <path id="Path_2973" data-name="Path 2973" d="M1435.214,5643.547c.177-.056.317.451.224.72a.8.8,0,0,1-.541.545c-.226.031-.367-.174-.338-.4s.192-.209.37-.564.285-.3.285-.3Z" fill="#fff" fill-rule="evenodd"/>
    <g id="Group_4517" data-name="Group 4517">
      <g id="Group_4516" data-name="Group 4516" clip-path="url(#clip-path)">
        <path id="Path_2974" data-name="Path 2974" d="M1435.136,5643.588c-.186-.1-.413.039-.507.319a.6.6,0,0,0,.168.694c.186.1.412-.04.506-.32a.593.593,0,0,0-.167-.693Z" fill="#8c8b8b" fill-rule="evenodd"/>
      </g>
    </g>
    <path id="Path_2975" data-name="Path 2975" d="M1431.231,5643.917a.223.223,0,1,1-.051.265.195.195,0,0,1,.051-.265Z" fill="#fff" fill-rule="evenodd"/>
    <path id="Path_2976" data-name="Path 2976" d="M1435.01,5643.711a.18.18,0,0,1,.153.312.18.18,0,0,1-.153-.312Z" fill="#fff" fill-rule="evenodd"/>
    <path id="Path_2977" data-name="Path 2977" d="M1411.967,5660.608s2.484-6.338,4.292-8.026a17.487,17.487,0,0,0-2.17,4.1,5.3,5.3,0,0,0-.189,3.1,2.72,2.72,0,0,0-.932.056,4.321,4.321,0,0,0-1,.772Z" fill="#a3a3a3" fill-rule="evenodd"/>
    <path id="Path_2978" data-name="Path 2978" d="M1426.281,5659.94a9.805,9.805,0,0,0-.2-4.112c-.587-2.349-3.328-7.145-3.328-7.145s3.915,5.383,4.111,8.516-.1,2.741-.1,2.741l.686,1.762.195.881-1.37-2.643Z" fill="#bababa" fill-rule="evenodd"/>
    <path id="Path_2979" data-name="Path 2979" d="M1427.4,5647.537l-.945-.7.78.246.164.452Z" fill="#a3a3a3" fill-rule="evenodd"/>
    <path id="Path_2980" data-name="Path 2980" d="M1427.319,5646.88l-1.15-.945.862-.164-.328.288.616.821Z" fill="#a3a3a3" fill-rule="evenodd"/>
    <path id="Path_2981" data-name="Path 2981" d="M1432.042,5645.382c0,.005-.664,1.653-1.409,2.025a2.551,2.551,0,0,0-.961.966,2.628,2.628,0,0,0-.4,1.31c-.315-.363.074-1.16.227-1.415a2.762,2.762,0,0,1,1.045-1.044c.643-.321,1.111-1.526,1.5-1.842Z" fill="#bababa"/>
    <path id="Path_2982" data-name="Path 2982" d="M1433.245,5643.058a1.734,1.734,0,0,1,.238,1.148c-.407.073-.232-.662-.423-1.06-.35-.731-1.242-2.18-1.244-2.182a11.488,11.488,0,0,1,1.429,2.094Z" fill="#a3a3a3"/>
    <path id="Path_2983" data-name="Path 2983" d="M1420.995,5664.182l-.563-.838-.645-1.483-.471-2.156.226,2.231.462,1.522.992.723Z" fill="#a3a3a3" fill-rule="evenodd"/>
    <path id="Path_2984" data-name="Path 2984" d="M1435.721,5645.526a4.609,4.609,0,0,1,2.653-.192,4.8,4.8,0,0,0-1.918.128c-.831.288-.767.384-.767.384l.032-.32Z" fill="#fff" fill-rule="evenodd"/>
    <path id="Path_2985" data-name="Path 2985" d="M1435.746,5645.842a4.6,4.6,0,0,1,2.638.342,4.786,4.786,0,0,0-1.905-.258c-.872.116-.828.223-.828.223l.095-.307Z" fill="#fff" fill-rule="evenodd"/>
    <path id="Path_2986" data-name="Path 2986" d="M1435.651,5646.184a2.366,2.366,0,0,1,1.775.615,2.53,2.53,0,0,0-1.281-.455c-.6.024-.581.135-.581.135l.087-.295Z" fill="#fff" fill-rule="evenodd"/>
    <path id="Path_2987" data-name="Path 2987" d="M1430.18,5645.428a4.6,4.6,0,0,0-2.652-.192,4.784,4.784,0,0,1,1.917.128c.831.288.78.274.78.274l.469.128-.514-.338Z" fill="#bababa" fill-rule="evenodd"/>
    <path id="Path_2988" data-name="Path 2988" d="M1430.156,5645.744a4.6,4.6,0,0,0-2.638.342,4.78,4.78,0,0,1,1.905-.258c.871.116.779.076.779.076l.405.03-.451-.19Z" fill="#bababa" fill-rule="evenodd"/>
    <path id="Path_2989" data-name="Path 2989" d="M1430.251,5646.085a2.37,2.37,0,0,0-1.776.616,2.525,2.525,0,0,1,1.282-.455,2.384,2.384,0,0,0,.984-.146l-.49-.015Z" fill="#bababa" fill-rule="evenodd"/>
    <path id="Path_2990" data-name="Path 2990" d="M1435.509,5646.855s2.021-.225,2.929.47a5.755,5.755,0,0,0-2.069-.456c-.975.024-.939.135-.939.135l.079-.149Z" fill="#fff" fill-rule="evenodd"/>
    <path id="Path_2991" data-name="Path 2991" d="M1435.636,5646.868s1.11.5,1.282,1.375a2.523,2.523,0,0,0-.92-1c-.544-.261-.577-.153-.577-.153l.215-.22Z" fill="#fff" fill-rule="evenodd"/>
  </g>
</svg>
