<?xml version="1.0" encoding="utf-8"?><svg xmlns="http://www.w3.org/2000/svg" xmlns:xlink="http://www.w3.org/1999/xlink"><symbol viewBox="0 0 22 18.5" id="51" xmlns="http://www.w3.org/2000/svg"><path class="aacls-2" d="M19 0H3a3 3 0 0 0-3 3v9a3 3 0 0 0 3 3h1v2.5a1 1 0 0 0 2 0V15h10v2.5a1 1 0 0 0 2 0V15h1a3 3 0 0 0 3-3V3a3 3 0 0 0-3-3zm1 12a1 1 0 0 1-1 1H3a1 1 0 0 1-1-1V3a1 1 0 0 1 1-1h16a1 1 0 0 1 1 1z"/><path class="aacls-2" d="M8.83 6.18a1 1 0 0 0 0-2H6.1a1 1 0 0 0-1 1v2.69a1 1 0 0 0 1 1h1.73v.69H6.1a1 1 0 0 0 0 2h2.73a1 1 0 0 0 1-1V7.87a1 1 0 0 0-1-1H7.1v-.69zM11.7 6a.67.67 0 1 0 .67.67.67.67 0 0 0-.67-.67zm0 2.12a.67.67 0 1 0 .67.67.67.67 0 0 0-.67-.67zm4.21-3.94h-1.1a1 1 0 0 0 0 2h.1v4.38a1 1 0 0 0 2 0V5.18a1 1 0 0 0-1-1z"/></symbol><symbol viewBox="0 0 20.48 18.46" id="academy" xmlns="http://www.w3.org/2000/svg"><path d="M8.69 11.54h4.91l-1.51-6.9zm1.61-1l1.43-2.9.63 2.9z"/><path d="M15.67 0H5.34l3.07 2.53L0 18.46h6.38l1.34-2.69h5.87l.6 2.69h6.29zm-1.28 14.77H7.1l-1.34 2.69h-4.1l8-15.19L8.13 1h6.77l4.28 16.46H15z"/></symbol><symbol viewBox="0 0 16.46 10.15" id="arrow-down" xmlns="http://www.w3.org/2000/svg"><path d="M15 0L8.23 7.22 1.46 0 0 1.37l8.23 8.78 8.23-8.78L15 0z"/></symbol><symbol viewBox="0 0 8.48 14.14" id="arrow-left" xmlns="http://www.w3.org/2000/svg"><path d="M8.48 1.42L7.07 0 0 7.07l7.07 7.06 1.41-1.41-5.65-5.65 5.65-5.65z"/></symbol><symbol viewBox="0 0 8.48 14.14" id="arrow-right" xmlns="http://www.w3.org/2000/svg"><path d="M1.41 0L0 1.41l5.65 5.66L0 12.72l1.41 1.41 7.07-7.06L1.41 0z"/></symbol><symbol viewBox="0 0 16.46 10.15" id="arrow-up" xmlns="http://www.w3.org/2000/svg"><path d="M8.23 0L0 8.78l1.46 1.37 6.77-7.23L15 10.15l1.46-1.37L8.23 0z"/></symbol><symbol viewBox="0 0 18.22 19" id="calendar-white" xmlns="http://www.w3.org/2000/svg"><path d="M17.87 2.88l-2-1.69a1 1 0 0 0-.18-.1L15.58 1a1.16 1.16 0 0 0-.37 0h-1.77a1 1 0 0 0-2 0H5.55a1 1 0 0 0-2 0H1a1 1 0 0 0-1 1v14a1 1 0 0 0 .29.7l2 2A1 1 0 0 0 3 19h14.22a1 1 0 0 0 1-1V3.64a1 1 0 0 0-.35-.76zM2 3h1.56v.2a1 1 0 1 0 2 0V3h5.89v.2a1 1 0 0 0 2 0V3h1.35l1.42 1.4v.82H2zm1.43 14L2 15.56V7.22h14.22V17z"/><circle cx="4.75" cy="10.25" r="1.25"/><circle cx="9.16" cy="10.25" r="1.25"/><circle cx="13.56" cy="10.25" r="1.25"/><circle cx="4.75" cy="14.17" r="1.25"/><circle cx="9.16" cy="14.17" r="1.25"/><circle cx="13.56" cy="14.17" r="1.25"/></symbol><symbol viewBox="0 0 23.74 16.97" id="card" xmlns="http://www.w3.org/2000/svg"><path d="M1 11.67V1h17.41l1 1a.5.5 0 0 0 .71 0 .51.51 0 0 0 0-.71L19 .14a.5.5 0 0 0-.39-.14H.5a.5.5 0 0 0-.5.5v11.39a.55.55 0 0 0 .15.36l1.11 1.06a.49.49 0 0 0 .35.14.5.5 0 0 0 .39-.86z"/><path d="M23.59 4.54l-1.36-1.36a.51.51 0 0 0-.35-.18H3.58a.5.5 0 0 0-.5.5v11.61a.5.5 0 0 0 .14.35l1.37 1.36a.47.47 0 0 0 .35.15h18.3a.5.5 0 0 0 .5-.5V4.9a.49.49 0 0 0-.15-.36zM22.74 16H5.15l-1.07-1.1V4h17.59l1.07 1.1z"/><path d="M5.93 5.82h3.9v2.26h-3.9zm1.68 5.01H5.94a.5.5 0 1 0 0 1h1.67a.5.5 0 0 0 0-1zm3.79 0H9.72a.5.5 0 0 0 0 1h1.68a.5.5 0 0 0 0-1zm3.6 0h-1.69a.5.5 0 0 0 0 1H15a.5.5 0 0 0 0-1z"/></symbol><symbol viewBox="0 0 6.12 7.82" id="downvote" xmlns="http://www.w3.org/2000/svg"><path fill="currentColor" d="M5.21 3.52H4.06V.5h-2v3.02H.91l2.15 3.37 2.15-3.37z"/><path d="M4.56 3V0h-3v3H0l3.06 4.82L6.12 3zm-3 .5h.5v-3h2v3h1.15L3.06 6.89.91 3.53z"/></symbol><symbol viewBox="0 0 10.39 20.1" id="fb" xmlns="http://www.w3.org/2000/svg"><path d="M7.69 0a4.47 4.47 0 0 0-3.38 1.35A4.07 4.07 0 0 0 3.1 4.72v2.7H0v3.51h3.1v9.17h3.65v-9.17h3.1l.4-3.51h-3.5V5.13c0-1.08.27-1.76 1.75-1.76h1.89V.13A17.44 17.44 0 0 0 7.69 0z"/></symbol><symbol viewBox="0 0 26 17.91" id="goals" xmlns="http://www.w3.org/2000/svg"><path d="M13 10c6.46 0 13-1.72 13-5s-6.54-5-13-5S0 1.72 0 5s6.54 5 13 5zm0-8c7.12 0 11 2 11 3s-3.88 3-11 3S2 6 2 5s3.88-3 11-3z"/><path fill="currentColor" d="M13 10.91c-6.39 0-11.85-1.72-13-4.09v6.09c0 2.76 5.83 5 13 5s13-2.24 13-5V6.82c-1.15 2.37-6.62 4.09-13 4.09zm11 2c0 .16-.61 1-2.77 1.76A25.1 25.1 0 0 1 13 15.91a25.06 25.06 0 0 1-8.23-1.24C2.61 13.89 2 13.07 2 12.91v-2a17.34 17.34 0 0 0 1.93.73A31.07 31.07 0 0 0 13 12.91a31 31 0 0 0 9.06-1.25 16.08 16.08 0 0 0 1.94-.73z"/></symbol><symbol viewBox="0 0 20.85 20.85" id="instagram" xmlns="http://www.w3.org/2000/svg"><path d="M10.43 7.71a2.72 2.72 0 1 0 0 5.44h.2a2.63 2.63 0 0 0 2.52-2.73 2.71 2.71 0 0 0-2.72-2.71z"/><path d="M16.68 5.53a2.47 2.47 0 0 0-.54-.91 8.38 8.38 0 0 0-.91-.54 4.5 4.5 0 0 0-1.54-.27c-1.09-.1-2.27-.1-3.35-.1s-2.27 0-3.36.1a4 4 0 0 0-1.54.27 2.47 2.47 0 0 0-.91.54 3.22 3.22 0 0 0-.53.91 4.46 4.46 0 0 0-.27 1.54 26.83 26.83 0 0 0-.09 3.35 26.94 26.94 0 0 0 .09 3.36A4.07 4.07 0 0 0 4 15.32a4 4 0 0 0 .63 1 8.38 8.38 0 0 0 .91.54 4.81 4.81 0 0 0 1.54.28c1.09.09 2.27.09 3.36.09 1.09 0 2.27 0 3.36-.09a4.07 4.07 0 0 0 1.54-.27 4 4 0 0 0 1-.63 8.38 8.38 0 0 0 .54-.91 4.54 4.54 0 0 0 .27-1.54c.1-1.09.1-2.27.1-3.36A14 14 0 0 0 17 7.07a4 4 0 0 0-.32-1.54zm-6.25 9.16a4.27 4.27 0 0 1-4.27-4.26 4.32 4.32 0 0 1 4.27-4.27 4.27 4.27 0 0 1 0 8.53zM14.78 7a1 1 0 0 1 0-2H15a.9.9 0 0 1 .79 1 1 1 0 0 1-1.01 1z"/><path d="M20.76 6.16a7.79 7.79 0 0 0-.45-2.53A4.39 4.39 0 0 0 19 1.81 5.25 5.25 0 0 0 17.22.54a8.07 8.07 0 0 0-2.53-.45C13.6 0 13.23 0 10.42 0S7.25 0 6.16.09a8.07 8.07 0 0 0-2.53.45 6.09 6.09 0 0 0-1.82 1.27A4.39 4.39 0 0 0 .54 3.63a7.79 7.79 0 0 0-.45 2.53C0 7.58 0 9 0 10.43s0 2.84.09 4.26a8.18 8.18 0 0 0 .45 2.54A4.52 4.52 0 0 0 1.81 19a5.25 5.25 0 0 0 1.82 1.27 7.79 7.79 0 0 0 2.53.45c1.42.1 2.85.13 4.27.09a37.86 37.86 0 0 0 4.26-.09 7.79 7.79 0 0 0 2.53-.45 6.42 6.42 0 0 0 3.09-3.08 7.9 7.9 0 0 0 .45-2.54q.15-2.13.09-4.26c.04-1.39.01-2.81-.09-4.23zm-2.27 7.71a4.49 4.49 0 0 1-2.71 4.35 8 8 0 0 1-2 .37 28.18 28.18 0 0 1-3.44.09 28.39 28.39 0 0 1-3.45-.09 4.51 4.51 0 0 1-4.35-2.72 5.1 5.1 0 0 1-.36-2 28.18 28.18 0 0 1-.09-3.44A28.39 28.39 0 0 1 2.18 7a6.84 6.84 0 0 1 .45-2A3.79 3.79 0 0 1 5 2.63a5.2 5.2 0 0 1 2-.36 28.39 28.39 0 0 1 3.45-.09c1.08 0 2.26 0 3.35.09A4.49 4.49 0 0 1 18.13 5a5 5 0 0 1 .36 2 30.58 30.58 0 0 1 .1 3.45 30.34 30.34 0 0 1-.1 3.42z"/></symbol><symbol viewBox="0 0 16 24" id="mobile" xmlns="http://www.w3.org/2000/svg"><path d="M13 0H3a3 3 0 0 0-3 3v18a3 3 0 0 0 3 3h10a3 3 0 0 0 3-3V3a3 3 0 0 0-3-3zM3 2h10a1 1 0 0 1 1 1v12.71H2V3a1 1 0 0 1 1-1zm10 20H3a1 1 0 0 1-1-1v-3.29h12V21a1 1 0 0 1-1 1z"/><circle cx="8" cy="20" r="1"/></symbol><symbol viewBox="0 0 12.45 13" id="news-calendar" xmlns="http://www.w3.org/2000/svg"><path d="M12.29 2.19L10.87.88a.33.33 0 0 0-.1-.06.58.58 0 0 0-.19 0H9.7V.5a.5.5 0 0 0-.5-.5.5.5 0 0 0-.5.5v.25H2.91V.5a.5.5 0 0 0-.5-.5.5.5 0 0 0-.5.5v.25H.5a.5.5 0 0 0-.5.5v9.82a.49.49 0 0 0 .15.36l1.41 1.42a.49.49 0 0 0 .36.15H12a.5.5 0 0 0 .5-.5V2.56a.52.52 0 0 0-.21-.37zM1 1.75h.91v.43a.5.5 0 0 0 .5.5.5.5 0 0 0 .5-.5v-.43H8.7v.43a.5.5 0 0 0 .5.5.5.5 0 0 0 .5-.5v-.43h.63l1.12 1.13v.41H1zM2.13 12L1 10.87V4.29h10.45V12z"/><path d="M8.44 7.71H6.77v-.87a.53.53 0 0 1 .55-.51h2l.25-.26v-.31H7.26c-.9 0-1.39.42-1.39 1.08v3c0 .66.48 1.09 1.39 1.09h1.18c.9 0 1.39-.43 1.39-1.09v-1c0-.7-.49-1.13-1.39-1.13zm.49 2.1a.53.53 0 0 1-.55.51h-1a.53.53 0 0 1-.57-.49V8.29h1.55a.53.53 0 0 1 .57.49v1zM2.24 6.05v.36h1.14v4.42h.91V5.76h-.66l-1.39.29z"/></symbol><symbol viewBox="0 0 15.93 13" id="news-comments" xmlns="http://www.w3.org/2000/svg"><path d="M12.93 0H3a3 3 0 0 0-3 3v4.62a3 3 0 0 0 3 3h5.05L10.44 13l2.38-2.38h.11a3 3 0 0 0 3-3V3a3 3 0 0 0-3-3zm2 7.62a2 2 0 0 1-2 2h-.53l-.29.29-1.67 1.68-1.68-1.68-.29-.29H3a2 2 0 0 1-2-2V3a2 2 0 0 1 2-2h9.93a2 2 0 0 1 2 2z"/></symbol><symbol viewBox="0 0 20 16" id="news-photo" xmlns="http://www.w3.org/2000/svg"><path d="M19 0H1a1 1 0 0 0-1 1v14a1 1 0 0 0 1 1h18a1 1 0 0 0 1-1V1a1 1 0 0 0-1-1zM1 .5V1h18v6.89l-2.7-2.7-6.52 5.89-4.52-2.82L1 11V1zM1 15v-3l.12.18 4.15-2.73 4.62 2.88 6.37-5.76 2.65 2.64.09-.09V15z"/><circle cx="5.5" cy="4.5" r="1.5"/></symbol><symbol viewBox="0 0 19.39 16.5" id="news-video" xmlns="http://www.w3.org/2000/svg"><path d="M18.39 0H1a1 1 0 0 0-1 1v11.53a1 1 0 0 0 1 1h17.39a1 1 0 0 0 1-1V1a1 1 0 0 0-1-1zm0 12.53H1V1h17.39z"/><path d="M7.92 3.82v5.39l4.35-2.67zm1 1.8l1.45.91-1.45.89zm4.22 9.88H6.25a.5.5 0 0 0 0 1h6.89a.5.5 0 0 0 0-1z"/></symbol><symbol viewBox="0 0 17.42 9.42" id="news-views" xmlns="http://www.w3.org/2000/svg"><path d="M17.31 4.4c-.14-.18-3.59-4.4-8.6-4.4S.25 4.22.11 4.4a.48.48 0 0 0 0 .6c.14.18 3.59 4.4 8.6 4.4s8.46-4.2 8.6-4.4a.48.48 0 0 0 0-.6zm-8.6 4c-3.77 0-6.66-2.77-7.54-3.71C2 3.76 4.93 1 8.71 1s6.66 2.76 7.54 3.71c-.87.95-3.76 3.71-7.54 3.71z"/><path d="M8.71 1.79a2.92 2.92 0 1 0 2.92 2.92 2.92 2.92 0 0 0-2.92-2.92zm0 4.83a1.92 1.92 0 1 1 1.92-1.91 1.91 1.91 0 0 1-1.92 1.91z"/></symbol><symbol viewBox="0 0 12.84 22" id="ok" xmlns="http://www.w3.org/2000/svg"><path d="M6.35 11.34A5.67 5.67 0 1 0 .69 5.67a5.7 5.7 0 0 0 5.66 5.67zm0-8.1a2.3 2.3 0 1 1-2.29 2.29 2.36 2.36 0 0 1 2.29-2.29zm2.3 12.69A10.5 10.5 0 0 0 12 14.58a1.67 1.67 0 0 0-1.75-2.84 7.17 7.17 0 0 1-7.69 0 1.68 1.68 0 0 0-2.31.5 1.66 1.66 0 0 0 .5 2.3 10.59 10.59 0 0 0 3.37 1.35L1 19.17a1.55 1.55 0 0 0-.11 2.19l.11.1a1.92 1.92 0 0 0 1.17.54 1.65 1.65 0 0 0 1.22-.54l3.1-3.1 3.1 3.1a1.62 1.62 0 1 0 2.3-2.29z"/></symbol><symbol viewBox="0 0 24 24" id="person" xmlns="http://www.w3.org/2000/svg"><path d="M12 0A12 12 0 0 0 .06 13.21l.06.4c0 .26.07.53.12.78s.08.33.12.49.11.44.17.65.13.36.19.53.13.38.21.56.17.37.26.55.15.33.23.49.22.37.33.55l.26.43c.12.18.26.35.39.53s.19.26.29.38.28.33.43.49.18.21.28.31a12 12 0 0 0 17.2 0c.1-.09.18-.2.28-.3l.43-.5c.1-.12.19-.25.29-.38s.27-.35.39-.53.17-.28.25-.42l.34-.56.23-.48c.09-.19.18-.37.26-.56s.14-.37.21-.55l.19-.54c.06-.21.11-.43.16-.64a4.6 4.6 0 0 0 .13-.5c0-.25.08-.51.12-.77l.06-.41A12 12 0 0 0 12 0zm0 22a10 10 0 0 1-7.71-3.64 9 9 0 0 1 15.42 0A10 10 0 0 1 12 22zM9 9a3 3 0 1 1 3 3 3 3 0 0 1-3-3zm12.93 4.11c0 .12 0 .23-.05.35s-.08.49-.13.73-.07.27-.1.41-.13.44-.2.65l-.15.4c-.08.22-.18.43-.28.64a2.56 2.56 0 0 0-.11.24 11 11 0 0 0-5.43-4A4.93 4.93 0 0 0 17 9 5 5 0 0 0 7 9a4.93 4.93 0 0 0 1.52 3.57 11 11 0 0 0-5.43 4A1.63 1.63 0 0 0 3 16.3c-.1-.22-.2-.43-.28-.65l-.15-.4c-.07-.21-.14-.43-.2-.65s-.07-.27-.1-.4-.09-.49-.13-.74 0-.23-.05-.35A8.27 8.27 0 0 1 2 12v-1a10 10 0 0 1 9-8.95h1a9.42 9.42 0 0 1 1.2.08 10.71 10.71 0 0 1 1.28.24 10.5 10.5 0 0 1 1.16.38 2.85 2.85 0 0 1 .31.12A10 10 0 0 1 21 7.69c.12.25.23.5.33.76a9.59 9.59 0 0 1 .39 1.29l.09.38A10.6 10.6 0 0 1 22 12a8.27 8.27 0 0 1-.07 1.11z"/></symbol><symbol viewBox="0 0 29.89 22" id="photo" xmlns="http://www.w3.org/2000/svg"><path d="M28.89 3.23h-4.54L24 0H12.34L12 3.23H1a1 1 0 0 0-1 1V21a1 1 0 0 0 1 1h27.89a1 1 0 0 0 1-1V4.23a1 1 0 0 0-1-1zm-1 16.77H2V5.23h4v9.94a1 1 0 0 0 2 0V5.23h5.8l.2-1.79.14-1.44h8.07l.15 1.44.19 1.79h5.34z"/><path fill="currentColor" d="M18.42 7.47a5 5 0 1 0 5 5 5 5 0 0 0-5-5zm0 8a3 3 0 1 1 3-3 3 3 0 0 1-3 3z"/></symbol><symbol viewBox="0 0 20 16" id="photo-white" xmlns="http://www.w3.org/2000/svg"><path d="M19 0H1a1 1 0 0 0-1 1v14a1 1 0 0 0 1 1h18a1 1 0 0 0 1-1V1a1 1 0 0 0-1-1zm-1 2v4.18L16.31 4.5l-6.58 6-4.47-2.83L2 9.77V2zM2 14v-1.85L5.28 10 10 13l6.3-5.7L18 9v5z"/><circle cx="5.5" cy="4.5" r="1.5"/></symbol><symbol viewBox="0 0 58 58" id="play" xmlns="http://www.w3.org/2000/svg"><path d="M24.75 37.96l14.76-9.07-14.76-9.22v18.29z"/><path d="M29 0a29 29 0 1 0 29 29A29 29 0 0 0 29 0zm0 56a27 27 0 1 1 27-27 27 27 0 0 1-27 27z"/></symbol><symbol viewBox="0 0 21 25.99" id="protocol" xmlns="http://www.w3.org/2000/svg"><path d="M15.62 0H0v26h21V5c-4.92-4.54-.64-.47-5.38-5zm2.23 4.84h-1.78V3.2c.73.7.75.72.89.84zM2 24V2h12.07v3.84a1 1 0 0 0 1 1H19V24z"/><path fill="currentColor" d="M16.08 12.25H4.58a1 1 0 1 0 0 2h11.5a1 1 0 0 0 0-2zM13.81 16.93H4.06a1 1 0 1 0 0 2h9.75a1 1 0 1 0 0-2z"/></symbol><symbol viewBox="0 0 27.78 24.07" id="publications" xmlns="http://www.w3.org/2000/svg"><path d="M26.78 0H1a1 1 0 0 0-1 1v17.45a1 1 0 0 0 1 1h2.38L8 24.07l4.62-4.62h14.16a1 1 0 0 0 1-1V1a1 1 0 0 0-1-1zm-1 17.45h-14l-.59.58L8 21.24 4.79 18l-.59-.58H2V2h23.78z"/><path fill="currentColor" d="M5.5 7h17a1 1 0 0 0 0-2h-17a1 1 0 0 0 0 2zM5.5 12h11a1 1 0 0 0 0-2h-11a1 1 0 0 0 0 2z"/></symbol><symbol viewBox="0 0 12.84 15" id="refresh" xmlns="http://www.w3.org/2000/svg"><path d="M12.3 8a.54.54 0 0 0-.53.54 5.35 5.35 0 1 1-5.35-5.31v1.89a.28.28 0 0 0 0 .15.27.27 0 0 0 .37.08l3.81-2.43a.3.3 0 0 0 .08-.08.27.27 0 0 0-.08-.37L6.83 0a.19.19 0 0 0-.15 0 .26.26 0 0 0-.26.27v1.89a6.42 6.42 0 1 0 6.42 6.42.54.54 0 0 0-.54-.58z"/></symbol><symbol viewBox="0 0 25.41 25.41" id="search" xmlns="http://www.w3.org/2000/svg"><path d="M25.06 23.63L18.45 17a10.23 10.23 0 0 0 2.36-6.57 10.36 10.36 0 1 0-10.36 10.38A10.23 10.23 0 0 0 17 18.45l6.61 6.61a1 1 0 0 0 .72.3 1 1 0 0 0 .71-.3 1 1 0 0 0 .02-1.43zM2.11 10.45a8.34 8.34 0 1 1 8.34 8.34 8.36 8.36 0 0 1-8.34-8.34z"/></symbol><symbol viewBox="0 0 17.11 19.04" id="shop" xmlns="http://www.w3.org/2000/svg"><path d="M16.21 3a.5.5 0 0 0-.5-.47h-3.79A4 4 0 0 0 8.55 0a4 4 0 0 0-3.37 2.55H1.4A.5.5 0 0 0 .9 3L0 18.51a.47.47 0 0 0 .14.37.48.48 0 0 0 .36.12h16.11a.48.48 0 0 0 .36-.16.5.5 0 0 0 .14-.37zM8.55 1a2.76 2.76 0 0 1 2.21 1.55H6.34A2.79 2.79 0 0 1 8.55 1zM1 18l.87-14.45h2.9a9.36 9.36 0 0 0-.36 1.56A1.5 1.5 0 1 0 6 6.6a1.53 1.53 0 0 0-.62-1.21 8 8 0 0 1 .47-1.84h5.41a8.58 8.58 0 0 1 .46 1.78A1.48 1.48 0 0 0 11 6.6a1.5 1.5 0 1 0 1.7-1.48 8.57 8.57 0 0 0-.37-1.57h2.91L16.08 18z"/></symbol><symbol viewBox="0 0 7.65 12.32" id="sort" xmlns="http://www.w3.org/2000/svg"><path d="M3.83 11L.65 8.28 0 9.04l3.83 3.28 3.82-3.28L7 8.28 3.83 11zm0-9.68L7 4.04l.65-.76L3.83 0 0 3.28l.65.76 3.18-2.72z"/></symbol><symbol viewBox="0 0 22.34 20" id="telegram" xmlns="http://www.w3.org/2000/svg"><path d="M21.55 0a.82.82 0 0 0-.35 0L.51 8.17a.81.81 0 0 0 .08 1.54l3.81 1.22c.08 0 .08.08.17.16l2.51 8.36a.85.85 0 0 0 1.09.55.7.7 0 0 0 .29-.19l4.06-4a.15.15 0 0 1 .21 0L17.14 19a.86.86 0 0 0 1.19-.23.71.71 0 0 0 .11-.25L22.34 1a.86.86 0 0 0-.79-1zm-12 17l.4-3.33 1.7 1.3zm7.76-12.64l-8.6 8.27a.3.3 0 0 0-.09.25l-.4 4.54c0 .24-.33.24-.4 0L6 10.77a.33.33 0 0 1 0-.25L17.07 4c.23-.08.4.17.23.33z"/></symbol><symbol viewBox="0 0 20.14 23" id="tickets" xmlns="http://www.w3.org/2000/svg"><path d="M20.07 5.06a.52.52 0 0 0-.31-.23l-8.43-2.07-.75-2.41A.5.5 0 0 0 10 0L.36 2.92a.5.5 0 0 0-.3.25.5.5 0 0 0 0 .38L1.42 8a.51.51 0 0 0 .25.29l.89.46-.47.87a.5.5 0 0 0 0 .38l3.01 9.7-.1.3a.51.51 0 0 0 .37.61.49.49 0 0 0 .39.22.39.39 0 0 0 .15 0h.13l9 2.22h.12a.49.49 0 0 0 .48-.37L18.45 12a.5.5 0 0 0-.06-.38l-.51-.84.19-.12-.2-.46.23.45.61-.36A.56.56 0 0 0 19 10l1.16-4.53a.5.5 0 0 0-.09-.41zm-2.45 4.72h-.08l-.61.36a.52.52 0 0 0-.23.31.5.5 0 0 0 .06.38l.35.58a.53.53 0 0 1 .06.1l.25.42-2.53 9.97-8.77-2.15 2.53-9.93.41-.24.1-.06.61-.36a.46.46 0 0 0 .23-.31.51.51 0 0 0 0-.38l-.4-.57-.07-.1-.25-.42 1-3.85L19 5.68l-1 3.84zm-14.55.14l.22-.4.06-.1.33-.62a.53.53 0 0 0 0-.39.51.51 0 0 0-.25-.29l-.57-.32h-.1l-.44-.23-1.19-3.84 8.64-2.61.43 1.36h-.18a.5.5 0 0 0-.61.36l-.24 1v-.06a.5.5 0 0 0-.62-.33l-5.1 1.49a.51.51 0 0 0-.33.63.5.5 0 0 0 .48.35.39.39 0 0 0 .15 0l5.08-1.58a.48.48 0 0 0 .24-.18l-.81 3.17a.49.49 0 0 0 .05.39l.52.84-.83.5a.53.53 0 0 0-.24.31L6.5 14.19a.5.5 0 0 0-.31.62.46.46 0 0 0 .11.19l-.73 2.89z"/><path d="M13.76 18.58l-5.16-1.3a.51.51 0 0 0-.61.37.5.5 0 0 0 .37.6l5.15 1.3h.13a.5.5 0 0 0 .48-.38.49.49 0 0 0-.36-.59zM14.51 16.47l-5.16-1.3a.5.5 0 0 0-.24 1l5.16 1.29h.12a.5.5 0 0 0 .48-.38.49.49 0 0 0-.36-.61zM16.77 7l-5.15-1.28a.5.5 0 0 0-.61.36.5.5 0 0 0 .37.61L16.53 8h.12a.51.51 0 0 0 .49-.38.5.5 0 0 0-.37-.62z"/></symbol><symbol viewBox="0 0 20.01 16" id="twitter" xmlns="http://www.w3.org/2000/svg"><path d="M20 1.9a8.32 8.32 0 0 1-2.36.63A4 4 0 0 0 19.45.3a8.26 8.26 0 0 1-2.6 1 4.15 4.15 0 0 0-4.93-.8A4 4 0 0 0 9.85 5 11.73 11.73 0 0 1 1.4.74a4 4 0 0 0 1.27 5.39A4.13 4.13 0 0 1 .8 5.62a4.07 4.07 0 0 0 3.3 4 4 4 0 0 1-1.86.07 4.09 4.09 0 0 0 3.84 2.81A8.27 8.27 0 0 1 1 14.24a8.06 8.06 0 0 1-1-.06A11.78 11.78 0 0 0 6.29 16 11.49 11.49 0 0 0 18 4.69v-.7a8.31 8.31 0 0 0 2-2.09z"/></symbol><symbol viewBox="0 0 6.12 7.82" id="upvote" xmlns="http://www.w3.org/2000/svg"><path fill="currentColor" d="M5.21 4.29L3.06.93.91 4.29h1.15v3.03h2V4.29h1.15z"/><path d="M3.06 0L0 4.79h1.56v3h3v-3h1.56zm1 4.79v2.53h-2v-3H.91L3.06.93l2.15 3.36H4.06z"/></symbol><symbol viewBox="0 0 27.78 23.92" id="video" xmlns="http://www.w3.org/2000/svg"><path d="M0 0v19.45h27.78V0zm25.78 17.45H2V2h23.78z"/><path fill="currentColor" d="M10.68 5.68v8.47L17.51 10zm2 3.61l1 .65-1 .63z"/><path d="M21.53 21.92H6.25a1 1 0 0 0 0 2h15.28a1 1 0 0 0 0-2z"/></symbol><symbol viewBox="0 0 20 17.5" id="video-white" xmlns="http://www.w3.org/2000/svg"><path d="M19 0H1a1 1 0 0 0-1 1v12a1 1 0 0 0 1 1h18a1 1 0 0 0 1-1V1a1 1 0 0 0-1-1zm-1 12H2V2h16z"/><path d="M7.69 4.09v6.1l4.92-3.02-4.92-3.08zM15.5 15.5h-11a1 1 0 0 0 0 2h11a1 1 0 0 0 0-2z"/></symbol><symbol viewBox="0 0 23.03 14.32" id="vk" xmlns="http://www.w3.org/2000/svg"><path d="M20.82 10.21a12.28 12.28 0 0 0-1.7-1.9.82.82 0 0 1-.05-1.15h.06s3-4.41 3.3-5.91c.1-.5-.1-.8-.6-.8h-2.6a1 1 0 0 0-1 .7A20.71 20.71 0 0 1 15 6.21c-.6.6-.8.8-1.1.8s-.4-.2-.4-.8V1.1c0-.7-.1-.9-.6-.9H8.71a.63.63 0 0 0-.4.1c-.1.1-.2.2-.2.3 0 .7 1 .8 1 2.6v3.71c0 .69 0 1-.4 1-.9 0-3.1-3.2-4.3-6.91-.2-.8-.5-1-1.2-1H.6a.72.72 0 0 0-.5.2c0 .3-.1.5-.1.7C0 1.6.8 5 4.11 9.51c2.2 3 5 4.7 7.61 4.7 1.6 0 1.9-.3 1.9-1v-2.3c0-.6.2-.8.5-.8s1 .1 2.5 1.7c1.8 1.7 1.9 2.5 2.8 2.5h3c.3 0 .6-.1.6-.7s-.9-1.9-2.2-3.4z"/></symbol><symbol viewBox="0 0 22.8 16.68" id="youtube" xmlns="http://www.w3.org/2000/svg"><path d="M22.64 3.58a5.06 5.06 0 0 0-.9-2.39 3.21 3.21 0 0 0-2.28-1c-3.18-.2-8-.2-8-.2s-4.77 0-8 .2a3.24 3.24 0 0 0-2.29 1A5 5 0 0 0 .2 3.58C.1 4.87 0 6.16 0 7.45v1.78c0 1.3.1 2.59.2 3.88a4.91 4.91 0 0 0 .89 2.38 3.93 3.93 0 0 0 2.48 1c1.79.2 7.75.2 7.75.2s4.76 0 8-.3a3.25 3.25 0 0 0 2.29-1 5.12 5.12 0 0 0 .93-2.39c.1-1.29.2-2.59.2-3.88V7.35a16.38 16.38 0 0 0-.1-3.77zm-13.5 7.84V4.67L15.29 8z"/></symbol></svg>