<svg id="Слой_1" data-name="Слой 1" xmlns="http://www.w3.org/2000/svg" viewBox="0 0 64.24 19.79"><defs><style>.cls-1{fill:#fff;}.cls-2{fill:#05509d;}.cls-3{fill:#03519c;}</style></defs><title>Artboard 7</title><rect class="cls-1" x="-823.28" y="-77.5" width="1199.02" height="173.36"/><path class="cls-2" d="M55.78,13.35a6.81,6.81,0,0,0,0-.78,7.38,7.38,0,0,0-14.76,0,7.3,7.3,0,0,0,7.38,7.22,7.37,7.37,0,0,0,6.84-4.52l-3.18-.56a4.07,4.07,0,0,1-3.56,2.16,4.15,4.15,0,0,1-4-3.52Zm-7.23-5A4.11,4.11,0,0,1,52.36,11H44.74a4.1,4.1,0,0,1,3.81-2.68"/><rect class="cls-3" x="35.31" y="5.65" width="3.77" height="13.87"/><path class="cls-2" d="M37.2,0a2.1,2.1,0,1,0,2.1,2.1A2.1,2.1,0,0,0,37.2,0"/><polygon class="cls-3" points="12.24 1.21 12.24 8.67 4.12 8.67 4.12 1.21 0 1.21 0 19.51 4.12 19.51 4.12 12.05 12.24 12.05 12.24 19.51 16.37 19.51 16.37 1.21 12.24 1.21"/><path class="cls-3" d="M29.26,5.66V6.4a7.22,7.22,0,1,0-.09,12.39v.73h3.68V5.66ZM25.69,16.74a4.17,4.17,0,1,1,4.21-4.17,4.18,4.18,0,0,1-4.21,4.17"/><rect class="cls-2" x="35.31" y="5.62" width="3.77" height="13.87"/><polygon class="cls-2" points="12.24 1.17 12.24 8.64 4.12 8.64 4.12 1.17 0 1.17 0 19.48 4.12 19.48 4.12 12.02 12.24 12.02 12.24 19.48 16.37 19.48 16.37 1.17 12.24 1.17"/><path class="cls-2" d="M29.26,5.63v.74a7.21,7.21,0,1,0-.09,12.39v.72h3.68V5.63ZM25.69,16.71a4.17,4.17,0,1,1,4.21-4.17,4.18,4.18,0,0,1-4.21,4.17"/><path class="cls-2" d="M63.62,4.36a7.46,7.46,0,0,0-6.15,7.27v7.9h3.61v-8a3.6,3.6,0,0,1,3.16-3.58Z"/></svg>