<svg id="Слой_1" data-name="Слой 1" xmlns="http://www.w3.org/2000/svg" viewBox="0 0 63.49 24.06"><defs><style>.cls-1{fill:#fff;}.cls-2{fill:#c00d0d;}.cls-3{fill:#1d1d1b;}.cls-4{fill:#13110c;}</style></defs><title>Artboard 10</title><rect class="cls-1" x="-1140.35" y="-78.75" width="1199.02" height="173.36"/><path class="cls-2" d="M12.07,19.14h0a7.2,7.2,0,0,1,0-14.4h0V0h0a12,12,0,0,0,0,24.06h0Z"/><path class="cls-3" d="M12.07,0V4.74a7.21,7.21,0,0,1,6.76,4.83H12.07V14.4H18.8a7.18,7.18,0,0,1-6.73,4.74v4.92A12,12,0,0,0,12.07,0"/><path class="cls-4" d="M33,9.65a2.77,2.77,0,0,1-1.82.61,2.63,2.63,0,0,1-2.14-.9A3.39,3.39,0,0,1,28.25,7a4.45,4.45,0,0,1,.44-2,2.86,2.86,0,0,1,2.52-1.52A2.69,2.69,0,0,1,32.86,4l-.59.89a1.7,1.7,0,0,0-1-.37,1.38,1.38,0,0,0-1.13.57,3.46,3.46,0,0,0-.37,1.81A3.29,3.29,0,0,0,30,8.51a1.38,1.38,0,0,0,1.27.73,1.71,1.71,0,0,0,1.12-.42Z"/><path class="cls-4" d="M36,10.15V7c0-.29,0-.49-.12-.6a.32.32,0,0,0-.27-.11.93.93,0,0,0-.47.12,2.26,2.26,0,0,0-.45.31v3.43H33.48V6.64a3.39,3.39,0,0,0-.17-1.14l1.11-.32a1.18,1.18,0,0,1,.18.6l.16-.11a2.44,2.44,0,0,1,.38-.26A2,2,0,0,1,36,5.19a1.18,1.18,0,0,1,1.16.73,1.8,1.8,0,0,1,.1.69v3.54Z"/><path class="cls-4" d="M41.72,5.88a2.63,2.63,0,0,1,.6,1.85,2.62,2.62,0,0,1-.6,1.84,2.22,2.22,0,0,1-3.22,0,2.62,2.62,0,0,1-.6-1.84,2.63,2.63,0,0,1,.6-1.85,2.22,2.22,0,0,1,3.22,0Zm-2.16.5a2.36,2.36,0,0,0-.25,1.35,2.32,2.32,0,0,0,.25,1.34.7.7,0,0,0,1.1,0,2.31,2.31,0,0,0,.26-1.34,2.34,2.34,0,0,0-.26-1.35.7.7,0,0,0-1.1,0Z"/><path class="cls-4" d="M44,5.21a1.7,1.7,0,0,1,.09.45,1.54,1.54,0,0,1,1.19-.47,1.65,1.65,0,0,1,1,.3,2.53,2.53,0,0,1,.9,2.2,2.65,2.65,0,0,1-.67,2,1.84,1.84,0,0,1-1.3.55,2,2,0,0,1-1-.26,2.48,2.48,0,0,1,0,.29v1.62l-1.26.34V6.63a5.73,5.73,0,0,0-.07-1.23ZM44.19,9a1.21,1.21,0,0,0,.72.28.77.77,0,0,0,.7-.42,3,3,0,0,0,.16-1.11,2.71,2.71,0,0,0-.13-1.07.57.57,0,0,0-.59-.41,1.26,1.26,0,0,0-.86.37Z"/><path class="cls-4" d="M52.76,10.15V7c0-.31,0-.49-.09-.59a.39.39,0,0,0-.28-.1,1.37,1.37,0,0,0-.87.4v3.49H50.29V7a1.53,1.53,0,0,0,0-.53.32.32,0,0,0-.36-.22,1.13,1.13,0,0,0-.4.08,1.21,1.21,0,0,0-.43.29v3.53H47.81V6.77a2.3,2.3,0,0,0-.18-1.24l1.14-.32a.85.85,0,0,1,.1.19c0,.09.05.21.07.31a1.59,1.59,0,0,1,1.19-.52,1.22,1.22,0,0,1,1,.42l.19.24a1.7,1.7,0,0,1,1.38-.66,1.24,1.24,0,0,1,1,.33c.18.16.36.35.36,1.18v3.45Z"/><path class="cls-4" d="M27.85,12.33a3,3,0,0,1,1.77-.52,2.72,2.72,0,0,1,2.16.94,3.79,3.79,0,0,1,.74,2.45,3.74,3.74,0,0,1-.77,2.52,2.79,2.79,0,0,1-2.16.91A2.93,2.93,0,0,1,27.71,18l.61-.85a1.82,1.82,0,0,0,1.17.42A1.43,1.43,0,0,0,30.73,17a2.21,2.21,0,0,0,.3-1.14v-.32H29.11V14.51H31v-.2a1.79,1.79,0,0,0-.3-.94,1.34,1.34,0,0,0-1.12-.51,1.86,1.86,0,0,0-1.12.37Z"/><path class="cls-4" d="M34.44,13.54v2h.31a.82.82,0,0,0,.49-.14.85.85,0,0,0,.2-.45l.11-.47a1,1,0,0,1,.29-.6,1.32,1.32,0,0,1,.75-.25l.45,0,.23.86-.21.05a.48.48,0,0,0-.24.09.58.58,0,0,0-.2.32l-.16.44a.85.85,0,0,1-.66.6.92.92,0,0,1,.68.7l.24.59a.66.66,0,0,0,.24.36.65.65,0,0,0,.28.12l.17,0-.23.87-.41,0a1.41,1.41,0,0,1-1-.31,1.48,1.48,0,0,1-.27-.61L35.37,17a1,1,0,0,0-.24-.47.8.8,0,0,0-.47-.12h-.22v2.11H33.19V13.77Z"/><path class="cls-4" d="M41.39,18a1.62,1.62,0,0,1-.44.36,2.3,2.3,0,0,1-1.19.31,2,2,0,0,1-1.5-.6,2.75,2.75,0,0,1-.61-1.91,2.18,2.18,0,0,1,2.23-2.57,1.76,1.76,0,0,1,.9.22,1.56,1.56,0,0,1,.48.34l-.62.83a1.16,1.16,0,0,0-.79-.38.7.7,0,0,0-.64.46,3.05,3.05,0,0,0-.16,1.2,2.13,2.13,0,0,0,.25,1.16.72.72,0,0,0,.57.28,1.2,1.2,0,0,0,.46-.11,2.07,2.07,0,0,0,.41-.29l.07-.07Z"/><path class="cls-4" d="M44.42,18.51V15.36c0-.29,0-.49-.11-.6a.37.37,0,0,0-.28-.11.93.93,0,0,0-.47.12,4,4,0,0,0-.45.31v3.43H41.86V15a3.15,3.15,0,0,0-.17-1.14l1.11-.32a1.09,1.09,0,0,1,.18.6l.16-.11a4.26,4.26,0,0,1,.38-.26,2,2,0,0,1,.89-.22,1.18,1.18,0,0,1,1.17.73,2,2,0,0,1,.09.69v3.54Z"/><path class="cls-4" d="M47.7,13.57a1.7,1.7,0,0,1,.09.45A1.52,1.52,0,0,1,49,13.55a1.65,1.65,0,0,1,1,.3,2.56,2.56,0,0,1,.9,2.2,2.6,2.6,0,0,1-.68,2,1.77,1.77,0,0,1-1.29.56,2,2,0,0,1-1-.27,2.48,2.48,0,0,1,0,.29v1.62l-1.25.34V15a5.19,5.19,0,0,0-.08-1.22Zm.17,3.76a1.23,1.23,0,0,0,.73.28.74.74,0,0,0,.69-.42,2.79,2.79,0,0,0,.16-1.11A2.79,2.79,0,0,0,49.33,15a.57.57,0,0,0-.6-.41,1.28,1.28,0,0,0-.86.37Z"/><path class="cls-4" d="M52.59,16.48v.11a1.14,1.14,0,0,0,.31.83,1,1,0,0,0,.73.26,1.85,1.85,0,0,0,1.21-.49l.5.76a2.9,2.9,0,0,1-1.83.68A2.24,2.24,0,0,1,51.87,18a2.62,2.62,0,0,1-.66-1.9,2.62,2.62,0,0,1,.61-1.87,1.91,1.91,0,0,1,1.53-.66,1.88,1.88,0,0,1,1.4.52,3,3,0,0,1,.64,2.12v.29Zm1.49-1a1.27,1.27,0,0,0-.18-.78.66.66,0,0,0-.53-.24.65.65,0,0,0-.53.23,1.32,1.32,0,0,0-.23.83v0h1.47Z"/><path class="cls-4" d="M59.56,18a1.62,1.62,0,0,1-.44.36,2.28,2.28,0,0,1-1.19.31,1.93,1.93,0,0,1-1.49-.6,2.71,2.71,0,0,1-.62-1.91,2.18,2.18,0,0,1,2.23-2.57,1.84,1.84,0,0,1,.91.22,1.65,1.65,0,0,1,.47.34l-.62.83a1.14,1.14,0,0,0-.79-.38.7.7,0,0,0-.64.46,3.05,3.05,0,0,0-.16,1.2,2.13,2.13,0,0,0,.25,1.16.72.72,0,0,0,.57.28,1.2,1.2,0,0,0,.46-.11,2.07,2.07,0,0,0,.41-.29l.07-.07Z"/><path class="cls-4" d="M63.49,18a1.62,1.62,0,0,1-.44.36,2.28,2.28,0,0,1-1.19.31,2,2,0,0,1-1.49-.6,2.76,2.76,0,0,1-.62-1.91,2.48,2.48,0,0,1,1-2.24A2.45,2.45,0,0,1,62,13.55a1.8,1.8,0,0,1,.91.22,1.65,1.65,0,0,1,.47.34l-.61.83a1.18,1.18,0,0,0-.8-.38.7.7,0,0,0-.64.46,3.05,3.05,0,0,0-.16,1.2,2.13,2.13,0,0,0,.25,1.16.72.72,0,0,0,.57.28,1.2,1.2,0,0,0,.46-.11,1.81,1.81,0,0,0,.41-.29l.08-.07Z"/></svg>