<svg xmlns="http://www.w3.org/2000/svg" width="64.617" height="35.892" viewBox="0 0 64.617 35.892">
  <g id="Group_4591" data-name="Group 4591" transform="translate(-1289 -5598.583)">
    <path id="Path_3031" data-name="Path 3031" d="M1294.1,5617.319l-1.418-.792,28.625-15.9,28.63,15.9-28.63,15.9-27.207-15.108Zm27.207-18.736L1289,5616.527l32.305,17.947,32.312-17.951-32.309-17.941Z" fill="#c10022"/>
    <path id="Path_3032" data-name="Path 3032" d="M1307.245,5622.559l24.918-13.837,8.286,4.6-24.92,13.837-8.284-4.6Zm24.918-15.9-28.626,15.9,1.42.792,27.206,15.108,28.63-15.9-28.63-15.9Z" transform="translate(-10.856 -6.032)" fill="#fff"/>
    <path id="Path_3033" data-name="Path 3033" d="M1343.1,5614.8l-24.918,13.837,8.284,4.6,24.92-13.838-8.286-4.6Z" transform="translate(-21.791 -12.111)" fill="#c10022"/>
    <path id="Path_3034" data-name="Path 3034" d="M1408.763,5651.271h0l-24.919,13.838,8.286,4.6,24.92-13.84-8.287-4.6Z" transform="translate(-70.826 -39.345)" fill="#c10022"/>
    <path id="Path_3035" data-name="Path 3035" d="M1393.97,5634.33l-2.537,0v.834a7.274,7.274,0,0,0-4.59-1.188,8.7,8.7,0,0,0-8.887,8.749c.025,4.792,3.668,8.629,9.385,8.684a12.894,12.894,0,0,0,7.781-2.593l-1.581-1.849a8.5,8.5,0,0,1-5.247,2.069c-3.006-.041-6.18-1.521-6.134-6.41.051-5.507,3.26-6.409,5.515-6.423a3.468,3.468,0,0,1,3.775,3.524l2.52-.009v-5.389Z" transform="translate(-66.429 -26.43)" fill="#c10022"/>
    <path id="Path_3036" data-name="Path 3036" d="M1394.772,5635.967h-1.7v.9l.008.349-.305-.276a8,8,0,0,0-4.638-1.332,8.284,8.284,0,0,0-8.544,8.375c0,4.527,3.558,8.255,9.116,8.232a12.483,12.483,0,0,0,7.025-2.251l-1.03-1.211a8.2,8.2,0,0,1-5.146,1.912c-3.329,0-6.591-1.839-6.591-6.729,0-5.9,3.63-6.9,6.019-6.923a3.773,3.773,0,0,1,4.086,3.535l1.725-.011-.026-4.563Z" transform="translate(-67.652 -27.645)" fill="#fff"/>
  </g>
</svg>
