<svg xmlns="http://www.w3.org/2000/svg" width="59.678" height="90.117" viewBox="0 0 59.678 90.117">
  <g id="Group_1946" data-name="Group 1946" transform="translate(0 0)">
    <path id="Path_2568" data-name="Path 2568" d="M595.439,154.9a29.408,29.408,0,0,1-4.37,5.823,19.15,19.15,0,0,0-.919-2.128c1.016-6.005-.845-11.269-4.44-13.473a25.066,25.066,0,0,1,.672,7.962c-3.347-3.94-10-7.342-16.485-7.384,7.083,4.365,14.424,10.077,16.423,20.018a22.381,22.381,0,0,1-7.3,5.644c1.112-8.595-3.026-17.185-8.382-18.614a30.552,30.552,0,0,1,2.426,11.382,14.5,14.5,0,0,1-5.365-8.679c-2.408,3.809-1.39,12.028,4.787,15.558a15.663,15.663,0,0,1-.941,2.863,53.719,53.719,0,0,1-5.872.91c-4.644-2.455-5.1-11.965-4.664-16.41-3.047,2.343-5.049,8.642-4.109,14.492a13.874,13.874,0,0,0-4.048,1.018c-1.9-5.04-.3-12.252.421-14.5-3.851,1.748-7.36,7.847-6.506,14.818a13.034,13.034,0,0,1-4.129-6.308c3.72-8.393,11.041-16.584,15.105-20.328-4.215.214-8.75,3.295-11.978,6.637a21.492,21.492,0,0,1,1.468-5.482c-4.379,1.755-6.35,7.425-6.7,11.514q-.357.486-.7.972a44.371,44.371,0,0,1-1.9-5.415c-3.365,6.777-2.676,17.5,3.931,23.389-.52,3.687.343,7.026,2.327,9.1a2.878,2.878,0,0,0,.176,1.512,36.1,36.1,0,0,0-3.849,11.417l-.015.158.036.154a28.31,28.31,0,0,0,3.2,7.979l.2.346a18.756,18.756,0,0,0,3.962.709,22.652,22.652,0,0,0,3.9,14.389,24.817,24.817,0,0,0,13.061,9.676l2.056.624.412-2.109c1.521-7.773,5.4-12.324,8.767-17.021,2.087-2.917,3.77-5.326,5-7.258,3.424-5.363,2.9-8.967,1.135-12.278-.972-1.825-3.058-5.968-3.058-5.968,4.561-3.547,4.983-10.645,3.869-13.7C592.049,171.759,596.7,163.049,595.439,154.9Z" transform="translate(-535.964 -145.126)" fill="#a2a2a2"/>
    <path id="Path_2569" data-name="Path 2569" d="M596.9,161.15a22.744,22.744,0,0,1-4.167,4.9,16.507,16.507,0,0,0-1.445-3.757c.61-3.706.2-8.684-2.179-11.452a17.321,17.321,0,0,1,.038,8.029,23.865,23.865,0,0,0-14.586-8.732c8.975,4.826,14.013,12.031,15.016,19.335a22.976,22.976,0,0,1-9.8,7.386c1.143-6.1-.427-15.253-5.4-18.835,1.285,2.6,2.105,7.192,2.069,11.548-2.785-1.5-5.581-3.678-6.719-7.964-1.163,5.262,2.33,10.367,6.31,12.562a11.633,11.633,0,0,1-1.588,4.337,46.074,46.074,0,0,1-6.986.957c-4.56-1.728-5.672-10.14-5.3-14.961A18.426,18.426,0,0,0,560.3,177.29a12.842,12.842,0,0,0-5.833,1.49c-1.981-4.028-1.663-9.912-.415-13.845-3.9,3.678-4.924,10.212-3.877,15.034-3.149-2.031-5.534-4.4-6.634-8.51,2.1-5.554,8.607-14.7,14.284-19.359-3.79,1.348-7.855,4.673-11.257,8.443a18.742,18.742,0,0,1,1.615-6.832c-2.783,2.067-4.393,6.588-4.55,10.41-.669.9-1.287,1.8-1.843,2.673a24.142,24.142,0,0,1-1.766-5.28c-2,6.018-1.464,15.6,5.056,20.808a4.206,4.206,0,0,0-.092.435c-.467,3.149.112,6.734,2.455,8.781a1.707,1.707,0,0,0,.2,1.791,34.825,34.825,0,0,0-4.005,11.519,27.326,27.326,0,0,0,3.093,7.705,23.493,23.493,0,0,0,4.39.657,21.531,21.531,0,0,0,3.643,14.733,23.83,23.83,0,0,0,12.54,9.293l1.028.312.206-1.055c1.566-8,5.484-12.673,8.954-17.432,6.93-9.5,8.721-13.07,6.186-18.234-.96-1.954-3.428-6.684-3.577-6.986,4.692-3,5.362-9.966,4.226-13-.07-.172-.168-.459-.3-.766C591.282,176.037,596.442,169.366,596.9,161.15Z" transform="translate(-538.105 -148.67)" fill="#00194a"/>
    <path id="Path_2570" data-name="Path 2570" d="M584.752,261.023a8.606,8.606,0,0,0,7.416,3.581,45.449,45.449,0,0,1,2.719,6.795l-1.367-.353c2.519,6.316,2.48,9.462.869,11.85-3.918,5.807-10.458,11.367-12.132,21.656-7.16-3.294-10.733-8.457-12.173-13.418l1.217-2.265.033.191a19.4,19.4,0,0,0,8.41,11.841,30.662,30.662,0,0,1-1.954-12.484l.009-.156.107.114c.013.014,1.312,1.4,2.315,2.516.47-8.228,1.677-12.534,3.838-17.271.032-.071.592-1.1.624-1.176a9.537,9.537,0,0,0,.256-7.653,9.518,9.518,0,0,1-2.188,6.608c-.012,0-.741-.051-1.328-.044-4.31,0-8.013,3.365-9.045,4.4l-.061.061-.044-.075c-.675-1.155-1.9-1.469-3.19-1.8-1.719-.442-3.494-.9-4.122-3.38-1,1.8-1.853,2.723-2.838,3.049-.024.006-.047.009-.07.013.841-4.358,3.786-9.772,4.178-10.479l1.437-1.494-2.076.621a14.445,14.445,0,0,1,2.595-6.527,5.22,5.22,0,0,1,3.026-1.689,9.348,9.348,0,0,0-2.714.11c.309-1.269,1.891-4.767,8.68-4.932a7.863,7.863,0,0,0,5.052,5.046c.936.038,1.868.026,2.795-.02,1.15-.056,1.115.857-.078.857a10.656,10.656,0,0,1-2.2-.22c5.6,2.779,13.772-1.006,15.423-1.94C599.228,256.157,595.995,267.988,584.752,261.023Zm-19.615-1.233a15.352,15.352,0,0,1,1.441-3.362,16.49,16.49,0,0,1-3.393-1.537A6.441,6.441,0,0,0,565.137,259.79Z" transform="translate(-554.397 -218.673)" fill="#c00020"/>
    <path id="Path_2571" data-name="Path 2571" d="M585.347,281.578a23.371,23.371,0,0,0-4.487,4.869,14.073,14.073,0,0,1,3.035-5.6,9.547,9.547,0,0,1-.467-2.336,17.974,17.974,0,0,0,1.261,1.538,8.614,8.614,0,0,1,6.043-2.549,28.151,28.151,0,0,0,.628-2.926,14.52,14.52,0,0,1,.571,4.357,11.893,11.893,0,0,0-1.3.177C588.758,282.52,586.665,282.372,585.347,281.578Zm3.5-8.48c-2.065-.02-4.476,1.273-5.221,3a4.587,4.587,0,0,0,.343,1.048A10.182,10.182,0,0,1,588.849,273.1Zm-7.355.064a13.693,13.693,0,0,1-.815,3.546,5.42,5.42,0,0,0,1.113-.478A5.377,5.377,0,0,0,581.494,273.162Zm10.543,8.164c-.6,1.391-2.475,2.781-5.057,3.2a4.892,4.892,0,0,0,5.252-1A17.662,17.662,0,0,0,592.037,281.326Zm17.536-9.63a14.438,14.438,0,0,1-5.159,1.162,6.356,6.356,0,0,0-3.7,3.616,6.389,6.389,0,0,0,5.214-1.423,3.239,3.239,0,0,1-2.82-.4C605.509,274.7,607.275,274.221,609.573,271.7Z" transform="translate(-567.554 -234.546)" fill="#00194a"/>
    <g id="Group_1945" data-name="Group 1945" transform="translate(32.552 33.741)">
      <path id="Path_2572" data-name="Path 2572" d="M646.867,260.082" transform="translate(-646.867 -260.082)" fill="#fff"/>
    </g>
    <path id="Path_2573" data-name="Path 2573" d="M548.047,176.445c-.2.239-.4.491-.6.741a15.891,15.891,0,0,1,.644-3.867C548.014,174.379,548.021,175.539,548.047,176.445ZM544.619,186.7a1.053,1.053,0,0,1-.7-.463c.429.023.941-.629,1.131-1.119a50.1,50.1,0,0,1,6.542-10.992,40.25,40.25,0,0,0-7.829,10.1,44.292,44.292,0,0,1-1.039-4.308c-.3,4.445.472,14.529,10.172,18.4h0a7.389,7.389,0,0,1,.726-1.676C549.262,194.828,546.453,191.384,544.619,186.7Zm9.462.727a15.028,15.028,0,0,0,.342,8.077,8.909,8.909,0,0,1,1.113-1.128A17.092,17.092,0,0,1,554.081,187.426ZM592.4,174.352a12.191,12.191,0,0,0,.559-3.635,12.774,12.774,0,0,1,.166,4.788C592.894,175.122,592.64,174.718,592.4,174.352Zm3.173,7.5c.091.539.177,1.127.247,1.681a16.741,16.741,0,0,0,2.05-4.349C597.17,180.069,596.276,181.133,595.575,181.856Zm-7.233-9.643c2.528,3.7,4.811,7.7,5.138,12.195-2.429,3.66-7.478,7.36-14.186,9.41a3.142,3.142,0,0,1,.829-.895c1.088-2.458,1.58-8.513.211-11.786a36.883,36.883,0,0,1-.075,5.514,16.5,16.5,0,0,1-5.991-3.711,13.623,13.623,0,0,0,5.816,5.072c-.266,1.694-.869,4.566-2.342,6.246a37.918,37.918,0,0,1-7.976,1.158c-3.4-.845-5.079-3.634-6.057-8.738-.381,4.993,1.287,10.274,5.567,10.807,12.55-.228,22.05-7.018,25.363-12.153A17.013,17.013,0,0,0,588.342,172.214Z" transform="translate(-540.707 -163.206)" fill="#fff"/>
    <path id="Path_2574" data-name="Path 2574" d="M582.3,322.3c-3.886-.226-7.533,2.217-10.4,6.328-.844,1.21-1.918,2.893-2.48,3.514a26.174,26.174,0,0,1-5.879-.472,14.293,14.293,0,0,1-1.444-3.208,5.12,5.12,0,0,1,3.381,2.254c.357-1.826,1.631-2.026,2.744-2.282a17.253,17.253,0,0,0-.861-2.455,11.019,11.019,0,0,1-5.943-.17h0a12.891,12.891,0,0,1,.2-1.356c.834-.262,1.726-.978,2.92-3.182,1.01,4.516,5.728,2.567,7.344,5.334C573.843,324.642,577.986,321.561,582.3,322.3Zm-8.668,12.541a10.472,10.472,0,0,1-1.371-4.453,32.544,32.544,0,0,0-2,3.565c-.43.026-.862.037-1.293.042a18.943,18.943,0,0,0,.692,8.139l1.158-2.162a19.481,19.481,0,0,0,8.612,11.983,30.586,30.586,0,0,1-2.023-12.634s1.4,1.494,2.422,2.635c.485-8.739,1.754-13.085,4.4-18.607h0v0C581.246,328.506,575.548,330.8,573.636,334.836Z" transform="translate(-553.948 -269.568)" fill="#fff"/>
  </g>
</svg>
