<svg xmlns="http://www.w3.org/2000/svg" width="70.745" height="92.4" viewBox="0 0 70.745 92.4">
  <g id="Group_4515" data-name="Group 4515" transform="translate(-249.146 -391.498)">
    <path id="Path_2924" data-name="Path 2924" d="M319.331,432.005c1.646,4.146-.625,5.717-3.118,7.442a12.745,12.745,0,0,0-2.415,2,6.252,6.252,0,0,1-1.516,1.7,2.908,2.908,0,0,1-.016,1.123,3.283,3.283,0,0,1,.225,2.277,3.383,3.383,0,0,1-1.466,1.892,9.013,9.013,0,0,1-2.8,3.464c1.012-.168,2.021-.327,3.033-.489q-1.875,9.18-3.753,18.366l-6.729,1.13a10.459,10.459,0,0,1-3.962.079A49.781,49.781,0,0,1,282.257,483.9a57.97,57.97,0,0,1-9.727-8.483l-10.866,1.732a4.225,4.225,0,0,1-5.06-4.565l1.2-12.6,2.9-.457c-.12-.209-.241-.416-.377-.65a12.915,12.915,0,0,1-3.849-2.662,4.456,4.456,0,0,1-1.466-3.192,3.323,3.323,0,0,1-.323-.977,6.465,6.465,0,0,1-1.339-.939,4.042,4.042,0,0,1-1.025-4.115c-1.932-1.009-3.626-2.75-3.08-5.133A3.021,3.021,0,0,1,250.462,440a3.957,3.957,0,0,1,2.309-.618,34.789,34.789,0,0,1,.378-13.24,25.441,25.441,0,0,1,9.229-13.232,40.988,40.988,0,0,1,7.683-4.251,15.84,15.84,0,0,1-.85-2.717c-.273-1.3-.361-3.184,1.235-3.666a2.4,2.4,0,0,1,1.909.409c2.669,1.236,5.1,1.259,7.713,1.291a14.713,14.713,0,0,0,7.468-12.478c11.973,9.743,19.295,17.218,23,32.687,1.339.45,2.937.875,3.978-.105a27.069,27.069,0,0,1,4.765,6.288C319.636,431.075,319.172,431.6,319.331,432.005Z" fill="#edeeef" fill-rule="evenodd"/>
    <path id="Path_2925" data-name="Path 2925" d="M298.825,466.24q.266-.409.529-.819-.263.41-.529.819Zm10.291-43.185h0l-.219-.843-.054-.207c.086.352.184.7.273,1.05Zm-.282-1.066h0c-1.805-6.52-4.94-12.566-7.579-15.437,2.687,4.257,4.219,8.613,3.023,12.959-.7-8.413-3.023-12.959-9.422-18.727,6.487,9.743,4.162,15.022.225,22.912-4.531,9.055-15.959,42.544-10.273,48.638,1.427,2.021,1.123,5.758-.666,7.836,12.237-8.22,20.209-23.657,23.473-37.483A60.713,60.713,0,0,0,308.834,421.989Z" fill="#e60005" fill-rule="evenodd"/>
    <path id="Path_2926" data-name="Path 2926" d="M292.139,423.842c3.344-4.692,4.733-8.782,4.837-12.11.207-6.2-4.628-13.112-8.388-17.626,4.458,15.862-10.386,20.561-19.279,31.836,4.435-11.307,20.641-15.358,18.22-28.918-5.054,13.119-23.594,9.623-31.3,24.708-7.8,19.72,10.745,48.975,26.119,59.577a1.088,1.088,0,0,1,.112-.073c2.807-2.373,1.436-7.554-.207-8.493.609-16.833-.257-34.659,9.886-48.9Zm-36.022-1.9c.128-.239.137-.232,0,0Z" fill="#009836" fill-rule="evenodd"/>
    <path id="Path_2927" data-name="Path 2927" d="M282.346,481.307c13.255-7.866,21.843-24.131,25.269-38.622a60.707,60.707,0,0,0,1.219-20.7,30.1,30.1,0,0,1,1.307,7.265,54.453,54.453,0,0,1-1.46,13.683c-3.569,15.107-12.512,31.627-26.385,39.663-14.4-9.8-37.106-42.239-26.063-60.859C248.432,441.45,266.979,470.707,282.346,481.307Z" fill-rule="evenodd"/>
    <path id="Path_2928" data-name="Path 2928" d="M263.471,440.3c.371.12.948.33,1.18.425-.016-.384.048-1.484.032-2.046a6.6,6.6,0,0,1-2.005-4.058,4.983,4.983,0,0,1,.505-2.341,4.865,4.865,0,0,0-1.723,3.883,6.577,6.577,0,0,0,2.011,4.064Z" fill="#007628" fill-rule="evenodd"/>
    <path id="Path_2929" data-name="Path 2929" d="M266.186,429.354c.384-.257.8-.52,1.259-.8a33.479,33.479,0,0,1,4.524-18.563C267.661,414.712,265.906,422.812,266.186,429.354Z" fill="#007628" fill-rule="evenodd"/>
    <path id="Path_2930" data-name="Path 2930" d="M261.141,418.284a33.023,33.023,0,0,0-.866,20.707h-.143l-.009-.01h-.264a4.2,4.2,0,0,0-.932.105,3.427,3.427,0,0,0-1.066,2.157,1.065,1.065,0,0,1-.787.312c-.9-3.4-1.354-16.286,4.067-23.271Zm22.614,61.043h0a22.926,22.926,0,0,1-7.217-3.608c-.753-.539-1.466-1.164-2.18-1.716l-.33.057a54.881,54.881,0,0,0,8.318,7.249c.039-.025.08-.05.111-.073a4.3,4.3,0,0,0,1.3-1.909ZM269.1,412.2h0a28.732,28.732,0,0,0-3.722,17.722,7.95,7.95,0,0,0-1.982,1.982C262.128,426.865,263.956,417.338,269.1,412.2Z" fill="#60af20" fill-rule="evenodd"/>
    <path id="Path_2931" data-name="Path 2931" d="M293.667,460.5h.561c.112-2.373-2.253-7.065-.689-8.6a21.643,21.643,0,0,0,4.09-5.076,19.327,19.327,0,0,0,5.71-.729,3.062,3.062,0,0,0,.969.32c-1.339,1.164-2.012,1.982-5.229,1.935,3.192,1.018,4.051.848,6.513-.066.007.168.1.441.336.457-.209,2.318-1.427,2.759-3.4,3.184,4,.394,6.031-.875,7.642-4.257a2.17,2.17,0,0,0,.923-3.281,1.664,1.664,0,0,0-.193-1.659,5.088,5.088,0,0,0,1.973-1.91c2.446-2.982,7.465-3.559,5.358-8.6-.161-.377.248-.977.064-1.348a23.239,23.239,0,0,0-3.528-4.956c-.955,1.749-9.391-4.089-14.1-1.259-6.992-1.964-8.045-1.066-10.523.018-1.361-1.677-2.548-1.605-2.814-3.626a1.079,1.079,0,0,0,.232-.168c-.184,1.4,1.268-.329,1.478-.625a3.466,3.466,0,0,1,2.036-.25,20.187,20.187,0,0,1-.529,2.8,3.027,3.027,0,0,0,2.741-2.287c1.4-.321,2.783-3.151,2.069-4.61.618-1.091-1.491-3.69-2.332-4.4-.105-2.107-2.535-4.017-4.949-5.267a5.324,5.324,0,0,0-4.7-1.068c-4.371-.328-7.972.443-12.262-1.892-2.462-.12.521,6.625.857,6.7a33.573,33.573,0,0,0-4.521,18.573c-3.512,2.132-4.772,3.537-4.765,6.062a6.574,6.574,0,0,0,2.014,4.058c.007.568-.057,1.675-.032,2.053-.282-.121-1.116-.409-1.42-.505a4.907,4.907,0,0,0-4.306-1.148,3.393,3.393,0,0,0-1.066,2.167,1.661,1.661,0,0,1-1.637.193c-.8-.507-6.294-2.639-5.983,1.8.555,1.78,2.157,2.665,3.762,3.322-.77.5-.875,1.323-.691,2.382.225,1.234,1.491,2.012,2.551,2.421a1.5,1.5,0,0,0,.282,1.434,2.441,2.441,0,0,0,1.659,2.785,6.586,6.586,0,0,0,4.556,2.678,3.816,3.816,0,0,0,2.116-.282,2.55,2.55,0,0,1-3.119-1.53.708.708,0,0,0,.546-.577c2.348.705,3.125.936,5.587-.025a6.551,6.551,0,0,1-4.994-1.507,2.065,2.065,0,0,0,.746-.305,15.245,15.245,0,0,0,3.328.48l.006.016a22.743,22.743,0,0,1,7.25,1.8c.5.682.7,3.375.9,4.169h18.927Zm-29.952-14.356.006.219c-.111-1.469.939-1.053,1.38-2.151a13.964,13.964,0,0,0,.609,1.475c-.015.635-1.548.514-1.995.457Zm33.962.6h0a15.5,15.5,0,0,0,1.4-2.935,6.5,6.5,0,0,0,2.046-1.155c.159.978.552,1.082,1.178,1.771A12.654,12.654,0,0,1,297.677,446.747Z" fill="#fff" fill-rule="evenodd"/>
    <path id="Path_2932" data-name="Path 2932" d="M281.323,430.268l-3.312-.273c-1.4-1.5-1.932-3.255-2.214-6.278.057-1.2.754-2.214,1.6-1.517a16.028,16.028,0,0,1,2.093-7.369c-1.459-.153-3.014-4.394,1.564-5.2-.041-.843.73-1.468,2.173-1.2l.13-.834c-1.71-.616-.827-1.891,1.171-2.414-4.388.2-9.784.434-13.41-1.9-2.462-.12.523,6.625.859,6.7a33.505,33.505,0,0,0-4.514,18.573c-3.522,2.134-4.781,3.53-4.765,6.062a6.515,6.515,0,0,0,2.005,4.058c.016.571-.057,1.678-.032,2.053-.282-.118-1.107-.407-1.421-.505a4.894,4.894,0,0,0-4.3-1.146,3.422,3.422,0,0,0-1.066,2.165,1.658,1.658,0,0,1-1.637.193c-.8-.505-6.3-2.639-5.983,1.8.554,1.771,2.157,2.662,3.762,3.319-.771.5-.875,1.316-.682,2.382.216,1.234,1.484,2.012,2.551,2.421a1.477,1.477,0,0,0,.272,1.437c-.232.945.73,1.827,1.739,2.782,1.485,1.4,3.337,2.671,4.5,2.726a3.521,3.521,0,0,0,2.012-.3,2.353,2.353,0,0,1-3.032-1.555.582.582,0,0,0,.425-.577c2.35.705,3.241.939,5.7-.025a6.566,6.566,0,0,1-4.989-1.507,1.949,1.949,0,0,0,.738-.305,15.819,15.819,0,0,0,3.328.482l.009.016a22.741,22.741,0,0,1,7.257,1.8c.5.682.691,3.375.891,4.169h3.8c.368-4.731-2.535-4.417-3.36-14.369.714,1.107,1.475,3.68,7.529,7-3.424-2.244-5.292-4.787-5.477-7.281-1.709-.834-3.648-6.2.016-9.229-.127-1.837,1.155-4.461,4.074-6.352Zm-19.993,9.9h0a3.094,3.094,0,0,1,1.653,1.332c.393.6.586,1.682,1.363,2.148a.832.832,0,0,1-1.307-.168c-.713-.819-1.05-2.935-1.709-3.312Zm-4.522,8.99h0c.642.143,1.6-.009,2.5.071.746.072.625,1,.282,1-.691,0-2.389-.457-2.783-1.073Zm1.971-4.6h0c.137,1.7-5.74-1.266-6.262-1.755.393-.387,6.087-.4,6.262,1.755Zm49.834,3.851h0c.016.152.016.288.041.425.3-.035.473-.225.737-.73a6.569,6.569,0,0,1-.778.3Zm1.853-3.049h0a4.209,4.209,0,0,1-1.491,1.612,2.7,2.7,0,0,0,.111.93c1.139-.489,1.973-1.276,1.38-2.542Zm-1.942-1.6a2.827,2.827,0,0,0,1.78-.593c.466,1.653-1.834,2.31-3.534,1.973a6.992,6.992,0,0,0,1.754-1.38Zm1.526-5.419h0a3.389,3.389,0,0,1-2.223,1.186c-1.155-.031-2.719,2.469-.426,2.126a12.536,12.536,0,0,0,3.433-1.38,22.478,22.478,0,0,1-1.869,2.494,3.925,3.925,0,0,0,2.576-1.669c1.739-2.566-.634-4.962-1.355-1.611a.933.933,0,0,1-.136-1.146Zm.441-6.849a.6.6,0,0,0,.359-.435c.418-.384.555-.238,1.3.019a2.081,2.081,0,0,1,1.314,2.364c-.238,1.316-4.451,4.908-5.749,4.835,1.4-.552,4.153-4.312,4.458-5.035-2.341,1.348-4.483,1.316-6.11,2.414a2.413,2.413,0,0,1-1.5.584c-1.148-1.514.2-3.094,1.313-3.7,1.06-.571,3.747-.4,4.613-1.043Zm-12.719,2.261h0c2.317,2.3,3.849.048,4.81-3.143.089-.321.457-.819,1.371-.185a5.309,5.309,0,0,0-.937-1.179c-1.316-.225-4.564.618-4.46,2.271a2.917,2.917,0,0,1-.784,2.236Zm1.66-6.89h0a26.757,26.757,0,0,1,8.924-1.25c-3.673-.987-5.765-.377-8.924,1.25Zm-7.548-1.273h0a5.483,5.483,0,0,1,6.177.048c.07.048-.612.825-1.06.737-1.163-.232-3.216-1.235-5.117-.785ZM315.2,428.07h0c1.139,1.853,1.837,3.61.491,4.683-.25.2.41-2.092-.491-4.683Zm-44.018-23.826a18.664,18.664,0,0,0,7.331,2.014c-1.637,0-6.945-.025-7.331-2.014Zm18.99,12.614h0c1.082.707,1.694,2.56,2.967,2a8.832,8.832,0,0,0-2.967-2Zm-7.915-.593c1.973-2.075,5.469-.377,7.69.5a14.476,14.476,0,0,0-7.69-.5Zm-3.665,10.016c-.311-.873-.111-3.046,1.332-6.495a16.057,16.057,0,0,1,1.435-2.607,23.724,23.724,0,0,0-1.228,2.623c-1.723,5.188-.118,6.288.073,6.44-.48.032-1.346.778-1.612.039Zm2.767-15.854h0c.577,1.539,3.521,1.114,4.787.955l-.032.064a3.375,3.375,0,0,0-1.3.457c-2.823,1.748-5.333-.289-3.457-1.476ZM294.4,430.252c.264-2.093-2.63-3.175-5.7-1.748l1.475-3.842c2.453-1.075,3.528-1.957,10.489,0,4.708-2.839,13.144,3.008,14.1,1.26a22.377,22.377,0,0,1,3.528,4.955c.193.369-.216.971-.064,1.339,2.109,5.045-2.9,5.622-5.349,8.6a5.176,5.176,0,0,1-1.98,1.91,1.645,1.645,0,0,1,.191,1.659,2.164,2.164,0,0,1-.923,3.281c-1.612,3.385-3.639,4.651-7.64,4.251,1.971-.419,3.191-.86,3.407-3.176-.241-.025-.336-.289-.345-.457-2.462.914-3.312,1.082-6.511.064,3.215.047,3.89-.771,5.229-1.933a3.17,3.17,0,0,1-.971-.32,19.33,19.33,0,0,1-5.71.73,21.174,21.174,0,0,1-4.09,5.067c-1.564,1.539.8,6.224.7,8.6H291.2a7.413,7.413,0,0,0-.185-5.485c1.355-.994,1.283-2.18.835-2.767,1.1-1.475,1.98-4.667.3-4.587.407-1.949-.577-2.631-2.343-1.467a14.191,14.191,0,0,0,1.516-10.272,10.868,10.868,0,0,0,3.08-5.67Zm-8.8-.1a8.588,8.588,0,0,0,1.957-1.244c.223-.232,1.6-2.4-.98-6.424,1.291,3.649-.425,7.281-.977,7.668Zm13.473,13.664a15.681,15.681,0,0,1-1.4,2.935,12.643,12.643,0,0,0,4.635-2.317c-.625-.691-1.025-.793-1.177-1.773a6.608,6.608,0,0,1-2.053,1.155Zm-12.125.882c.695.073,1.234.675,1.659.577,1.876-.425,2.23-3.023,2.221-6.39-.314,2.853-1.259,4.651-3.88,5.813Zm-14.028-7.522h0a14.981,14.981,0,0,0,.666,6.472,15.952,15.952,0,0,1-1.869-4.531c-.632-2.557-3.119-2.766-3.191-4.562.907,1.1,3.625,1.723,4.394,2.621Zm1.436-.841c.81-.65.923-7.363.914-8.213,1.8,2.63,1.926,6.262-.914,8.213Zm-10.65,9.816h0l.009.216a1.815,1.815,0,0,1-.009-.216Zm1.387-1.933h0a15.184,15.184,0,0,0,.609,1.476c-.016.632-1.546.5-2,.457C263.712,444.935,264.683,445.256,265.1,444.214Z" fill="#edeeef" fill-rule="evenodd"/>
    <path id="Path_2933" data-name="Path 2933" d="M303.257,440.527c-3.159,1.282-1.027,4.667,1.53,2.028-.793-.216-1.282-1.346-1.53-2.028Zm-20.009-22.75h0A6.1,6.1,0,0,1,285,420.734c.015-.536,2.093-1.643,2.436-1.859a8.108,8.108,0,0,0-1.973.568c-.12-.241,1-.873,1.46-1.041a8.249,8.249,0,0,0-1.9.327c.1-.473.362-.673.98-.93a10.582,10.582,0,0,0-1.516.162c-.009-.184.048-.234.216-.3a4.62,4.62,0,0,0-1.451.114Zm-2.141,4.264h0c1.387-.295.714-3.544.593-3.769a8.815,8.815,0,0,1-.593,3.769Zm-.7.25c-.3-1.068,1.123-2.166,1.139-3.616a6.221,6.221,0,0,1-1.139,3.616Zm1.364-16.024h0a3.768,3.768,0,0,0-2.223,2.03,8.362,8.362,0,0,1,3.28-.963.769.769,0,0,1-.207-1.155c-.272.025-.561.05-.85.088Zm-.723,3.369h0A3.57,3.57,0,0,0,278.8,416.2c.209-.45.425-.907.675-1.364-1.459-.168-3-4.394,1.571-5.2Zm-6.9,2.815c-.777,1.579-1.123,3.473-.634,4.651,2.117.113,1.628,2.839,1.644,4.089-1.539.387-2.808,1.557-3.874,6.12a28.668,28.668,0,0,1-.054-7.675c.047-.409,1.37-1.989,1.443-2.389s-1.107.368-1.012-.009a8.975,8.975,0,0,1,2.487-4.787Zm-13.9,43.923h0a9.447,9.447,0,0,1-1.653-.441c.657.768.787.673,1.653.441ZM259,455.2h0a4.873,4.873,0,0,1-2.062-1.589c-.193,1.219.977,1.894,2.237,2.253A.722.722,0,0,1,259,455.2Zm-1.212-1.18c-.891-.682-1.612-1.554-1.282-2.341a2.71,2.71,0,0,0,1.812.216c-.866.193-.98,1.789-.53,2.125Zm-3.08-3.8h0c.593.577,2.671,1.627,3.241,1.364a19.662,19.662,0,0,1-2.262-1.853c-.145-.13-.288-.25-.434-.362a2.158,2.158,0,0,1,.441.121,2.027,2.027,0,0,1-.184-2.2c-.641-.216-.857-.578-1.4.266a2.33,2.33,0,0,0,.6,2.662Zm.882-8.452h0c-1.194-.371-2.148-1.035-3.4-.85-.561.3-1.259.359-1.195,2.566a3.058,3.058,0,0,0,.729.968c-.52-1.57.153-2.2,1.548-2.477.682-.128,1.523-.105,2.317-.207Zm10.072-3.144h0c-.022,6.078,1.4,9.527,4.188,8.62,1.082-.352-3.883-4.347-4.188-8.62Zm2.255-6.231h0c.673,2.189,1.733,2.4,3.738,3.094a7.18,7.18,0,0,1-2.294-3.633c-.923-1.146-1.484-.1-1.444.539Zm6.7,15.012h0a10.486,10.486,0,0,0-.545,7.313c.168.962.625,4.251,1.034,5.783h.666c-1.043-1.027-.882-2.807-.777-3.514a5.168,5.168,0,0,1-.371-3.271c-1.041-2.589-.391-3.617-.007-6.311Zm-3.578,2.8c.273.4,1.155.625,1.059.857-.345.8-.24.948.587,2.8a2.17,2.17,0,0,0-1.075-.288,17.816,17.816,0,0,1,1.716,1.98,15.351,15.351,0,0,0-6.592-1.492,14.154,14.154,0,0,1-3.049-1.475,4.393,4.393,0,0,0,.362-2.648,15.7,15.7,0,0,0,4.171.361c-1.725-.768-2.68-1.323-4.26-2.173.834.336,1.885-.327,2.48-1.162a4.431,4.431,0,0,0,2.3,1.539,6.645,6.645,0,0,1,4.451-1.611c-.851.593-2.792,2.389-2.151,3.312Zm20.684-6.561a15.882,15.882,0,0,0,.416-5.581c1.266,5.533,6.609.866,7.754-.041a5.587,5.587,0,0,0-.054,1.66,26.443,26.443,0,0,1-4.419,2.223,15.437,15.437,0,0,0,5.58-.089c-1.123,1.739-5.453,3.008-7.474,1.708-.562,1.2,2.9.945,3.344.875,3.273-.7-1.619,5.781-3.246,6.463.593-3.328.977-6.816-1.9-7.218Zm22.326-9.166h0a19.652,19.652,0,0,1-2.246,2.551c1.107.568,1.186,2.1,1.18,3.135,1.243-3.065,5.244-3.969,4.451-7.3-.082-.25-.819,1.066-2.631,1.364a2.858,2.858,0,0,0-.754.247Zm-6.263,13.826h0c-.425.007-.666-.377-.2-.729-.193.047-.387.088-.571.12-.209.1-.432.168-.634.273-.464.238.4.527.675.479.232-.038.473-.079.73-.143Zm-5.006-14.555h0c-.441.939-1.323,2.382-2.189,2.55.146.953-.07.762-.136,1.523a3.881,3.881,0,0,0,.082,1.523,40.114,40.114,0,0,0,3.382-2.646c-.464-.793-.086-2.662.121-3.448C303.369,433.983,302.807,434.721,302.782,433.751Z" fill="#d8dbdc" fill-rule="evenodd"/>
    <path id="Path_2934" data-name="Path 2934" d="M281.312,426.6c.161.618-.771,2.03-1.476,1.78-1.082-.32.394-2.053.682-1.675-.113.336-.209.248-.3.257.273.263.86-.178,1.092-.362Zm-5.622,10.177h0a13.389,13.389,0,0,0,1.523-4.507c.041.795.441,3.337-1.523,4.507Zm3.048,23.722h-.409c0-3.738-2.671-7.009-2.671-10.882.4,3.48,3.08,7.369,3.08,10.882ZM263.7,446.151h0c.45.048,1.98.175,2-.466a13.421,13.421,0,0,1-.611-1.475c-.441,1.107-1.492.682-1.378,2.15l-.009-.209Zm2.262.048a4.384,4.384,0,0,0,3.287,2.623,3.96,3.96,0,0,0,1.034,2.646c.482,1.628,2.462,3.094,3.039,4.09a15.232,15.232,0,0,0-6.59-1.491,13.92,13.92,0,0,1-3.048-1.485,4.3,4.3,0,0,0,.361-2.639,15.993,15.993,0,0,0,4.179.361c-1.726-.768-2.687-1.323-4.267-2.173-.048-.473-.178-1.082-.232-1.555a3.193,3.193,0,0,0,2.237-.377Zm7.867,10.136c.505.673.7,3.376.9,4.163h.378c-.409-1.523-.866-4.82-1.035-5.774-1.107-5.165.441-5.911.832-8.525a.954.954,0,0,0,.1-.152c1.878,6.206,10.771,7.1,12.9,12.268.136.339.441,1.8.521,2.183h.634c-.089-.385-.416-1.837-.562-2.183-2.293-5.492-11.123-6.558-13.055-12.325.93.755,2.285.457,3.994.088,3.03-.657,5.877-.961,9.02.851,1.733-.112,2.735-1.492,3.265-3.281a16.6,16.6,0,0,0,.063-7.77c1.357-1.643,2.43-3.055,2.615-5.63a10.7,10.7,0,0,1-3.672,5.349c.762,2.68,1.339,9.736-2.366,10.218-3.6-2.062-8.091-.562-10.53-.032-4.426.962-3.76-8.661-3.76-8.822-.577,2.877-.907,3.321.223,7.931.409,1.652-4.01,1.7-4.93,3.1-1.733.1-3.2-1.885-3.883-4.217,1.541.457,2.509,1.939,3.273,3.312a7.145,7.145,0,0,0-3.3-5.847c-.073-.473-.3-4.885.962-7.049a6.324,6.324,0,0,0-1.444,4.026c-.914-1.412-1.6-1.916-1.468-3.271.257-2.735,1.62-4.051,4.178-5.5a10.765,10.765,0,0,0,1.668,2.414c-2.55-5.828-.1-21.586,6.688-24.6a17.336,17.336,0,0,1-2.037-.143,1.592,1.592,0,0,0,.692-.425c-.6-.032-3.547-.771-3.547-1.637-.238,1.78,1.717,3.681,1.532,3.849a4.038,4.038,0,0,0-.343.5c-.577-1.212-2.366-4.4-1.275-5.518,3.855,2.11,7.586,2.3,11.5,1.98-.305.073-.68.314-1.009.435,3.794-.514,6.608.232,7.819,4.169a8.408,8.408,0,0,0-1.179-3.16c1.532.882,2.991,1.4,3.144,3.41a2.788,2.788,0,0,0-.282-1.5c.466.5,1.493,1.532,1.091,2.132a5.314,5.314,0,0,0-2.2-.762,8.913,8.913,0,0,1,4.442,3.89c-.689-.337-1.18-1.025-1.973-.939s-.762.073-1.364-.584c-1.235-1.539-3.151-2.5-4.322-3.947-1.836-2.421-5.069-1.811-7.176-.7a7.529,7.529,0,0,1,3.655.143c-.241,1.9,2.189,1.652,4.547,2.471a4.349,4.349,0,0,0-2.951.993c2.56-1.17,4.676-.625,6.7,1.973a7.643,7.643,0,0,1,1.6,2.624c.162.752.289,1.907-.472,1.411-2.4-1.564-7.5-4.219-10-2.582-2.576,1.835-4.251,6.022-4.765,9.3-.264,2.294,1.421,5.092,4.019,4.547-.5,1.363-.971.529-3.464.577-2.167-1.475-2.6-5.958-2.64-8.557-.015-1.436.385-4.4-1.548-5.123-.745-1.878,1.323-6.793,4.572-7.659-.85.121-4.067.841-5.06,1.628a16.439,16.439,0,0,1,2.182-.041,5.726,5.726,0,0,0-1.966.827,2.677,2.677,0,0,1,1.043.223,2.933,2.933,0,0,0-1.1.73,2.68,2.68,0,0,1,.559.066c-1.009,1.666-1.514,3.921-.961,5.251,2.109.114,1.621,2.832,1.643,4.089.032,2.415.86,8.068,2.969,9.3,3.126-.105,3.5.707,4.451-1.348a3.711,3.711,0,0,0,2.31-1.155,3.7,3.7,0,0,1-1.589-.248,15.649,15.649,0,0,1,3.239-6.279c.377,1.162,1.83,1.942,2.391,3.488a5.146,5.146,0,0,1,.144,2.664c-.016.3-8.62,4.546-11.837,9.013,4.917-4.483,12.623-8.829,14.74-9.334-1.4-.034-2.469.416-2.367,0,.418-1.614,4.235-4.6,10.25-1.95a17.13,17.13,0,0,0-3.416,3.248,16.4,16.4,0,0,1,5.869-3.423c5.012-1.516,11.468,2.268,12.319,1.78a8.026,8.026,0,0,1,2.205,3.664c.329,1.139-.705,2.8-2.037,3.626,1.821-.3,2.944-1.621,3.032-1.364,1.235,3.585-3.137,5.117-4.853,7.29.016-1.027-.064-2.559-1.171-3.128a17.045,17.045,0,0,0,2.31-2.68,2.366,2.366,0,0,0,.1-2.316,2.819,2.819,0,0,0-2.712-2.133c-2,0-4.451,1.571-6.07,1.483-.2-5.838,6.07-5.229,8.788-3.569-4.923-2.967-8.14-1.444-9.872,1.611a3,3,0,0,0-1.451-1.17c-1.1-.2-4.46.875-4.948,1.725-3.713,1.4-4.451,4.658-3.487,8.293.409-1.694.952-3.09,2.766-3.585.9,1.723,1.787,1.771,2.485,1.787.561.691-.1,2.182.12,3.207a26.437,26.437,0,0,1-4.419,2.223,15.657,15.657,0,0,0,5.583-.088c-1.123,1.739-5.453,3.007-7.468,1.707-.559,1.2,2.9.948,3.347.866,1.145-.184.952.618.3,1.982a9.629,9.629,0,0,1-3.362,4.106,8.369,8.369,0,0,0,.218-4.292c.137,2.944-1.107,5.8-3.825,6.826,1.161.375,2.566-.866,2.518-.738-.168.488-.088,1.691-2.357,3.055,1.491-.562,1.916-.857,1.9-.609-.04.545,1.33,4.867,1.378,5.774h.561c.114-2.374-2.252-7.066-.688-8.6a21.159,21.159,0,0,0,4.089-5.076,19.012,19.012,0,0,0,5.711-.73,3.01,3.01,0,0,0,.97.33c-1.339,1.155-2.014,1.98-5.228,1.932,3.191,1.01,4.048.841,6.51-.072.009.168.105.441.337.456-.207,2.319-1.428,2.76-3.4,3.185,4,.393,6.029-.875,7.643-4.251a2.171,2.171,0,0,0,.921-3.28,1.553,1.553,0,0,0-.144-1.6,5.088,5.088,0,0,0,1.924-1.966c2.445-2.989,7.467-3.56,5.357-8.6-.161-.378.257-.978.064-1.348a23.07,23.07,0,0,0-3.528-4.956c-.955,1.757-9.391-4.089-14.1-1.259-6.993-1.964-8.043-1.066-10.521.016-1.364-1.676-2.551-1.6-2.817-3.617a1.552,1.552,0,0,0,.235-.168c-.184,1.389,1.266-.337,1.482-.625a3.453,3.453,0,0,1,2.03-.248,20.427,20.427,0,0,1-.53,2.8,3.061,3.061,0,0,0,2.751-2.293c1.386-.321,2.775-3.151,2.062-4.611.616-1.091-1.492-3.689-2.335-4.4-.1-2.1-2.535-4.017-4.94-5.267a5.357,5.357,0,0,0-4.708-1.068c-4.369-.321-7.963.441-12.261-1.885-2.462-.127.522,6.617.859,6.69a33.609,33.609,0,0,0-4.524,18.572c-3.512,2.142-4.771,3.538-4.762,6.063a6.576,6.576,0,0,0,2.011,4.065c.01.561-.056,1.668-.031,2.046-.282-.112-1.114-.41-1.419-.505a4.9,4.9,0,0,0-4.308-1.139,3.407,3.407,0,0,0-1.066,2.157,1.639,1.639,0,0,1-1.636.194c-.8-.507-6.295-2.633-5.981,1.8.552,1.78,2.155,2.662,3.76,3.321-.771.505-.873,1.323-.689,2.383.223,1.234,1.491,2.012,2.548,2.428a1.49,1.49,0,0,0,.282,1.427c-.321,1.332.466,2.239,1.668,2.785a6.162,6.162,0,0,0,4.636,2.773,3.79,3.79,0,0,0,2.068-.377,2.79,2.79,0,0,1-1.484-.121,2.215,2.215,0,0,1-1.564-1.4.485.485,0,0,0,.434-.473c2.351.7,3.128.825,5.59-.13a6.576,6.576,0,0,1-4.99-1.507,1.905,1.905,0,0,0,.739-.311,15.2,15.2,0,0,0,3.328.479l.009.016a22.886,22.886,0,0,1,7.249,1.8Zm-8.879-13.128c-.848-.209-1.155-1.6-1.418-2.293a7.809,7.809,0,0,1,4.555,4.571c-1.148-1.812-2.782-2.1-4.1-3.744a6.849,6.849,0,0,0,.961,1.466Zm-3.687,13.312a2.445,2.445,0,0,1,.4.819,1.737,1.737,0,0,0-1.034-.448,4.69,4.69,0,0,0,2.759,1.241,5.444,5.444,0,0,1-3.955-1.307c.932.386,1.018-.505,1.83-.3Zm-1.018-.143c-.876.225-1,.321-1.662-.441a10.112,10.112,0,0,0,1.662.441Zm2.709-10.97a5.668,5.668,0,0,1,.482,2.493,27.493,27.493,0,0,1-3.448-2.068c.5-1.917-1.612-3.344-3.258-3.835a3.331,3.331,0,0,0,1.8-.216,2.164,2.164,0,0,1,.578-2.126c1.066-.238,3.976.339,4.337,1.758a2.854,2.854,0,0,0,1.307,2.148c-.207,1.043-.577,1.427-1.066,1.525-1.45.305-3.744-2.744-4.54-3.762.4,1.38,2.64,3.921,3.81,4.083Zm-7.37-3.642c-.329.089-1.516.048-2.373.216a13.722,13.722,0,0,1,4.233.514c1.116.481,2.687,1.8,2.11,3.137-2.142.047-4.836-1.155-7.313-2.351a46.414,46.414,0,0,0,6.535,4.692c-1.25.473-2.4-.339-3.5-1.373-1.171-1.121-3.48-1.371-4.29-3.11-.066-2.207.632-2.262,1.2-2.575,1.243-.175,2.205.482,3.391.85Zm-1.475,5.8c.537-.843.755-.482,1.4-.266,1.13,1.116,2.228,1.741,3.776,1,.723.41,2.357.876,1.677,2.03-1.268,1.323-4.7-.827-5.7-.954a31.535,31.535,0,0,0,2.687,2.214c-.569.263-2.637-.8-3.233-1.364a2.306,2.306,0,0,1-.6-2.662Zm2.389,4.121a2.773,2.773,0,0,0,1.812.216,10.327,10.327,0,0,0,3.137,1.6c.7,1.091-3.071,0-3.407-.136a7.5,7.5,0,0,0,2.011,1.868c-.793-.136-4.194-2-3.553-3.544Zm.441,1.932a4.606,4.606,0,0,0,3.569,1.9c.45.161,1.4.8.169.643-1.564-.186-4.017-.818-3.738-2.544Zm4.749.819h0a8.3,8.3,0,0,1,.784.739c-1.114-.78-2.541-.876-3.769-1.317a9.673,9.673,0,0,0,7.211,2.294c-1.725-.073-2.51-.755-4.226-1.716Zm-.643-3.385h0c.811.609,2.407,1.757,2.623.241.216-1.482-.721-1.653-1.844-2.021-.031.593-.152,1.564-.779,1.78Zm-.407.114h0a.936.936,0,0,1-.33.088,3.155,3.155,0,0,1,1.523,1.21c-.032-.1-1.6-1.282-1.989-1.146-.561.273-2.278-.659-2.862-.923,2.951,2.357,5.365,3.626,8.9,3.658a17.893,17.893,0,0,1-5.244-2.887Zm5.587-1.355c-5.028-.434-8.051-2.639-11.923-5.351a56.9,56.9,0,0,1,9.255,4.282,35,35,0,0,0-4.492-2.668,1.3,1.3,0,0,0,.761-.089,26.624,26.624,0,0,0,6.4,3.826Zm26.586-4.619h0c.161,1.732-.7,4.08-2.367,4.2-.256.025.466-.9,1.453-1.876a5.242,5.242,0,0,0,.914-2.325Zm-18.366,1.354c-.872.473-4.7.594-4.778,2.2a3.338,3.338,0,0,0,2.157,2.56c-.488.1-1.211-.009-1.17.105.657,1.65,2.678,2.909,2.982,3.214-.914-4.467.057-5.485.809-8.075Zm23.217.207h0a15.711,15.711,0,0,0,1.4-2.941,6.551,6.551,0,0,0,2.053-1.155c.152.977.545,1.082,1.17,1.78a12.878,12.878,0,0,1-4.628,2.316Zm-.2-13.071h0a7.6,7.6,0,0,0,.193-2.157c-.12.987-.457,2.125-1.148,2.414a3.581,3.581,0,0,0-1.853,2.462c.1-2.646,1.494-4.242,3.617-5.453a4.036,4.036,0,0,1-.809,2.734Zm9.045,15.206h0c.866-.257,1.307.625,2.223.28a5.168,5.168,0,0,1-3.921,2.375c1.073-.409,1.555-1.757,2.564-2.246-.416-.114-1.186.866-1.114.689a3.932,3.932,0,0,0,.248-1.1Zm1.132-.2h0a9.039,9.039,0,0,0,1.748-.587c-.482.914-.657.81-1.748.587ZM300.6,436.3h0c1.861-.353,2.528-3.579,2.9-5.054a11.744,11.744,0,0,1-1.8,3.376c-1.075,1.171-2.687,1.725-3.978-.784.907-1.292.882-1.7.843-2.335-.095-1.653,3.062-2.421,4.378-2.2a3.307,3.307,0,0,1,1.435,2.437,4.266,4.266,0,0,0,2.157.184c-.28.1-1.193.216-1.444.352a3.258,3.258,0,0,0-1.161,4.42,38.9,38.9,0,0,1-3.385,2.646,4.079,4.079,0,0,1-.08-1.523c.064-.762.28-.578.144-1.523Zm7.163-4.683h0c1.243-.475,2.116-1.276,3.616-1.116-.32.216-.5.266-.659,1.027.282-.577,1.228-.539,1.437-.457a2.223,2.223,0,0,1,1.532,2.358c-.241,1.323-5.942,6.542-6.9,5.164,1.4-.545,4.956-4.651,5.381-5.358-2.342,1.339-4.474,1.307-6.111,2.4a2.454,2.454,0,0,1-1.5.6c-1.146-1.525.2-3.1,1.316-3.7,1.057-.571,3.744-.4,4.619-1.044a7.568,7.568,0,0,1-2.734.13Zm2.421,7.865h0c.723-3.36,3.375-.689,1.636,1.878-.482.682-2.718,2.084-3.473,1.8a8.334,8.334,0,0,0,1.373-1.751,7.257,7.257,0,0,0,1.114-1.145c-.882.361-4.258,2.928-6.2,1.443-1.2-1.307.52-1.9,1.2-2.4,1.926.521,3.2.152,4.21-.971-.072.241-.327.473.137,1.146Zm.12,3.674h0c1.187,1.764-1.789,3.816-2.646,4a4.849,4.849,0,0,0,1.444-2.053c-.346.168-4.3,1.58-3.89.3a7.2,7.2,0,0,0,2.535-1.7,3.082,3.082,0,0,0,2.557-.545Zm.162,2.2h0c.945,1.98-1.669,2.807-3.41,3.087-.273.041-1.13-.241-.666-.489.2-.105.418-.175.627-.264a4.662,4.662,0,0,0,3.449-2.334Zm-5.2,1.132h0a6.6,6.6,0,0,0-.643.882c1.018-.948,2.623-1.107,3.889-1.669-1.587,2.126-4.915,3.192-7.513,2.926,1.964-.143,2.63-.969,4.267-2.139Zm-.475-3.94h0c-2.564,2.639-4.7-.745-1.539-2.027.248.681.745,1.8,1.539,2.027Zm.514.121h0a1.481,1.481,0,0,0,.3.009c-.4.425-2.059,1.989-2.694,2.846.112-.1,2.887-2.526,3.135-2.823a10.143,10.143,0,0,0,2.985-1.067c-2.56,2.84-4.676,4.395-8.75,4.572a14.534,14.534,0,0,0,5.02-3.537Zm2.934-5.829h0c-3.3,2.332-5.926,4.144-10.545,4.715a25.27,25.27,0,0,0,6.69-4.908,3.867,3.867,0,0,0,.68-.08,24.069,24.069,0,0,0-4.008,3.408c2.044-1.259,6.054-4.883,9.629-5.574a11,11,0,0,1-2.446,2.439Zm-35.317.321c-2.934-1.764-4.948-1.589-5.044-4.9.666,2.309,1.725,2.509,3.778,3.223.241.089-.818-4-.482-6.936a22.4,22.4,0,0,0,1.748,8.614Zm12.142-28.75h0c-.505.416.473,1.089.336.184.121.073.225.153.321.216.009,1.419-2,.939-1.964-.457a1.39,1.39,0,0,1,1.307.057ZM277.383,422.2a15.922,15.922,0,0,1,2.092-7.379,2.893,2.893,0,0,0,2.094-.168l-.01.032c-2.462,1.027-3.7,3.851-4.176,7.515Zm16.279-3.337h0a2.117,2.117,0,0,0-.361-.473c.441-.168.466-.841.65-1.387.12-.393.6-.545.818-.809.241.73-.659,3.671-1.107,2.669Zm-11.107,10a3.235,3.235,0,0,0,1.821-.712,4.2,4.2,0,0,1-1.284-.218c-.312-.143-.273-.495-.7-.577-.946-.175.152.914-.153,1.2a.984.984,0,0,1,.314.305Zm-.6-.055h0c-.016.048-.289-.025-.3-.032l.546-.609c.056.055-.209.625-.241.641Zm.241-11.411c.361,1.643.713,4.692-1.026,5.133-1.611.416-1.252,2.868-.081,3.991a1.234,1.234,0,0,0,.313-.184,3.6,3.6,0,0,1,.08.441c1.532.714,2.03-2.414,2.6-3.328a4.738,4.738,0,0,0-1.4-5.9c1.379,1.973,1.691,4.876-.435,5.965-.52.266-.609.827-.663,1.389a1.467,1.467,0,0,1,.536-1.485,2.825,2.825,0,0,0,1.475-2.646c.016-.657-.729-3.1-1.395-3.375Zm7.972-.539h0a8.829,8.829,0,0,1,2.966,2c-1.275.552-1.884-1.3-2.966-2Zm.432.682h0c.9.425.257.923-.359,1.1.015-.393-.121-1.084.359-1.1Zm.57.514h0a8.486,8.486,0,0,0,.9,1.043.661.661,0,0,1-.841.289c.127-.137.425-.289.377-.587-.216.266-.336.314-.859.257.257-.073.507-.771.418-1Zm.93,1.091h0c.041.016.3.016.337.023,0,.072-.248.545-.585.491a2.4,2.4,0,0,0,.248-.514Zm.409.038h0a1.925,1.925,0,0,0,.378-.111c-.073.352-.305.762-.746.7a2.037,2.037,0,0,0,.368-.587Zm-.513.612h0c.072.28.618.111.713-.025.089,1.034-.954,2.037-1.6,2.478a17.341,17.341,0,0,0,.473-2.694.637.637,0,0,0,.216-.009c-.01.064-.1.241-.1.282a.337.337,0,0,0,.3-.032Zm-3.938-2.2h0c.257-.2,2.285-1.187,1.98-.08-.5,1.514-2.116,3.585-2.268,3.367-.064-.159.209-.994.313-1.828.08-.65-.1-1.291-.025-1.459Zm-6.713,10.225c-.079.057-.513.425-.666.561-.086.568,1.589.321,1.1-.129a2.135,2.135,0,0,0-.457.129c.038-.079.12-.5.022-.561Zm.01-10.641a16.261,16.261,0,0,0-1.437,2.6c-1.435,3.439-1.644,5.612-1.33,6.488.264.738,1.139-.009,1.612-.032-.193-.162-1.8-1.25-.073-6.447a24.476,24.476,0,0,1,1.228-2.614Zm.352,1.089h0c.111.225.786,3.473-.6,3.762a8.642,8.642,0,0,0,.6-3.762Zm-.161.4h0a6.182,6.182,0,0,1-1.139,3.617c-.3-1.067,1.132-2.167,1.139-3.617Zm1.709-.9h0a4.739,4.739,0,0,1,1.443-.12c-.161.07-.215.12-.215.3a10.645,10.645,0,0,1,1.513-.161c-.616.25-.872.45-.977.929a7.858,7.858,0,0,1,1.909-.327c-.459.168-1.579.794-1.468,1.041a8.175,8.175,0,0,1,1.973-.568c-.345.216-2.414,1.323-2.439,1.859a6.135,6.135,0,0,0-1.739-2.957Zm4.61-.218h0l-.3.1c-.079-.21-.136-.628-.3-.78a1.4,1.4,0,0,1-.9.723,2.193,2.193,0,0,1-.643-1.18.813.813,0,0,1-.537.57l-.168-.265a.726.726,0,0,1-.545.418,1.054,1.054,0,0,1-.378-.666c-.416.184-.873.4-1.259-.143,1.291-.066,4.292-.426,5.044,1.225Zm2.087-.784h0a14.523,14.523,0,0,0-7.7-.514c1.974-2.078,5.47-.378,7.7.514Zm2.541-2.976h0c.682-.137,1.114.625,1.628.793.209.314-.209,1.228-.7,1.917a2.008,2.008,0,0,0-.923-2.71Zm1.958,1.177h0a1.059,1.059,0,0,1-.66,1.517A3.625,3.625,0,0,0,294.449,414.978Z" fill-rule="evenodd"/>
    <path id="Path_2935" data-name="Path 2935" d="M307.372,449.291c-1,.488-1.485,1.843-2.56,2.252a5.155,5.155,0,0,0,3.915-2.373c-.914.337-1.348-.546-2.214-.28a3.794,3.794,0,0,1-.257,1.089c-.071.187.7-.8,1.116-.688Zm-43.98,8.845h0a4.68,4.68,0,0,1-2.758-1.244,1.851,1.851,0,0,1,1.035.441,2.256,2.256,0,0,0-.41-.809c-.809-.2-.891.682-1.82.3.152.143.313.273.466.391.1.066.191.12.279.186a6.3,6.3,0,0,0,3.208.737Zm-.914-2.967a8.67,8.67,0,0,0-.793-.739c1.723.964,2.509,1.653,4.235,1.717a9.675,9.675,0,0,1-7.218-2.294c1.234.441,2.653.539,3.776,1.316Zm-.682-2.75h0c-.216-.226-1.587-1.235-1.948-1.1-.569.27-2.285-.667-2.862-.932,2.941,2.357,5.356,3.632,8.9,3.664a18.084,18.084,0,0,1-5.251-2.887.9.9,0,0,1-.32.082,3.135,3.135,0,0,1,1.482,1.171Zm.032.038h0a.454.454,0,0,0-.032-.038c.025.022.032.031.032.038Zm1.732-3.719h0a56.444,56.444,0,0,0-9.261-4.283c3.873,2.71,6.9,4.915,11.925,5.356a26.6,26.6,0,0,1-6.4-3.833,1.22,1.22,0,0,1-.762.089,35.575,35.575,0,0,1,4.5,2.671Zm2.3-6.417a6.836,6.836,0,0,1,2.221,3.169,6.667,6.667,0,0,0-2.021-1.964,9.151,9.151,0,0,1-2.069-1.783,6.712,6.712,0,0,0,.962,1.46c-.857-.207-1.162-1.6-1.419-2.285a10.468,10.468,0,0,1,2.326,1.4Zm32.407-11.38h0c-2.119,1.212-3.514,2.817-3.61,5.463a3.533,3.533,0,0,1,1.853-2.462c.682-.289,1.027-1.437,1.139-2.424a8.045,8.045,0,0,1-.185,2.167,4.068,4.068,0,0,0,.8-2.744Zm12.414,3.474a11.347,11.347,0,0,1-2.439,2.436c-3.3,2.335-5.933,4.14-10.552,4.708a25.068,25.068,0,0,0,6.687-4.908,3.628,3.628,0,0,0,.682-.079,24.716,24.716,0,0,0-4,3.407c2.037-1.259,6.047-4.882,9.625-5.564Zm-1.653,7.233h0a9.82,9.82,0,0,1-2.975,1.059c-.257.3-3.024,2.726-3.144,2.83.634-.866,2.294-2.421,2.7-2.855a1.469,1.469,0,0,1-.3-.007,14.41,14.41,0,0,1-5.028,3.535c4.082-.168,6.2-1.723,8.749-4.562Zm-.52,4.058c-1.58,2.125-4.917,3.2-7.515,2.928,1.973-.146,2.63-.964,4.273-2.142a7.1,7.1,0,0,0-.648.882c1.019-.939,2.63-1.107,3.89-1.668Z" fill="#fff" fill-rule="evenodd"/>
    <path id="Path_2936" data-name="Path 2936" d="M297.256,423.828c.955.184,2.069.457,3.408.825a5.437,5.437,0,0,1,1.789-.657c.738-2.309.907-10.713-1.869-14.178,1.25,6.72-.577,10.064-3.328,14.01Zm-5.453,44h0c.079,3.608-3.424,9.109-6.206,11.316a48.9,48.9,0,0,0,9.854-9.945,3.741,3.741,0,0,1-.6-.53,4.525,4.525,0,0,1-.834-1.275,5.956,5.956,0,0,1-.98.234l-1.234.2Zm4.78-11.837h0a4.384,4.384,0,0,1-1.164-3.407c4.956-3.585,8.2-4.092,7.106-.666,1.042.143,2.317-2.51,1.364-3.071a5.777,5.777,0,0,1-1.452.2h-.009a11.459,11.459,0,0,1-3.36-.7h.266a5.857,5.857,0,0,0,4.962-1.933,3.166,3.166,0,0,1-.968-.32,19.248,19.248,0,0,1-5.7.73,21.144,21.144,0,0,1-4.089,5.067c-.714.707-.6,2.068-.289,3.569a4.914,4.914,0,0,1,3.337.529Zm1.091-9.247a14.743,14.743,0,0,0,1.4-2.935,6.616,6.616,0,0,0,2.044-1.146c.152.971.554,1.073,1.173,1.764a12.742,12.742,0,0,1-4.62,2.317Zm7.65-23.319h0c-.232.375-.168.368-.514.489a16.275,16.275,0,0,1,2.814.529,10.489,10.489,0,0,0-1.13-5.453A7.841,7.841,0,0,1,305.324,423.428Z" fill="#d70006" fill-rule="evenodd"/>
    <path id="Path_2937" data-name="Path 2937" d="M266.622,456.174a25.676,25.676,0,0,1,6,1.707c.987.466,1.123,2.285.768,3.464a8.682,8.682,0,0,1,1.164-1.893,9.98,9.98,0,0,0-.723-3.119,23.125,23.125,0,0,0-7.144-1.8h-.105l-.007-.016a15.618,15.618,0,0,1-3.321-.473,1.969,1.969,0,0,1-.736.3,6.431,6.431,0,0,0,4.337,1.523c.2,0,.418-.007.641-.016h.018C267.183,455.972,266.895,456.085,266.622,456.174Z" fill="#007628" fill-rule="evenodd"/>
    <path id="Path_2938" data-name="Path 2938" d="M272.764,458.715l-1.227,5.245a1.482,1.482,0,0,1,.482.241l1.291-2.687a5.769,5.769,0,0,1,2.9-3.281c1.427-.616,3.68-.954,4.987-.056a4.615,4.615,0,0,1,1.476,1.925c.1-.993.193-2.005.288-3.014l9.311-1.485c1.469-.232,3.008-.441,4.306.394a9.317,9.317,0,0,1,4.387-1.78c2.967-.5,5.927-1,8.893-1.469l-1.418,6.954-5.381.889c-1.2.193-1.653.7-1.8,1.709-.082.505-.057.705.327.641l6.4-1.059-1.418,6.929L300.3,469.87a12.859,12.859,0,0,1-1.884.177,5.4,5.4,0,0,1-2.053-.354,4.124,4.124,0,0,1-1.509-1.019,4.6,4.6,0,0,1-.835-1.275,6.691,6.691,0,0,1-.977.234l-3.569.569c-.111,1.148-.225,2.293-.327,3.448l-10.273,1.637c-.234-.771-.466-1.541-.707-2.31l-1.691.273-1.171,2.605-13.81,2.2a3.076,3.076,0,0,1-3.785-3.369l1.123-11.748Z" fill="#fff" fill-rule="evenodd"/>
    <path id="Path_2939" data-name="Path 2939" d="M272.764,458.715l-1.227,5.245a1.482,1.482,0,0,1,.482.241l1.291-2.687a5.769,5.769,0,0,1,2.9-3.281c1.427-.616,3.68-.954,4.987-.056a4.615,4.615,0,0,1,1.476,1.925c.1-.993.193-2.005.288-3.014l9.311-1.485c1.469-.232,3.008-.441,4.306.394a9.317,9.317,0,0,1,4.387-1.78c2.967-.5,5.927-1,8.893-1.469l-1.418,6.954-5.381.889c-1.2.193-1.653.7-1.8,1.709-.082.505-.057.705.327.641l6.4-1.059-1.418,6.929L300.3,469.87a12.859,12.859,0,0,1-1.884.177,5.4,5.4,0,0,1-2.053-.354,4.124,4.124,0,0,1-1.509-1.019,4.6,4.6,0,0,1-.835-1.275,6.691,6.691,0,0,1-.977.234l-3.569.569c-.111,1.148-.225,2.293-.327,3.448l-10.273,1.637c-.234-.771-.466-1.541-.707-2.31l-1.691.273-1.171,2.605-13.81,2.2a3.076,3.076,0,0,1-3.785-3.369l1.123-11.748,13.937-2.221Zm-2.084,5.765h0l1.114-4.86-12.287,1.966q-.538,5.57-1.066,11.155a2.365,2.365,0,0,0,2.95,2.583l13.394-2.142c.393-.866.787-1.732,1.178-2.607l2.728-.432c.231.771.472,1.539.7,2.309L288.45,471l.329-3.44,4.153-.666a5.652,5.652,0,0,0,1.533-.456c.722,2.566,2.943,3.1,5.4,2.743.384-.057.769-.12,1.155-.193l4.819-.818,1.107-5.374-5.685.939c-1.259.161-.818-1.451-.6-2.23h0a2.124,2.124,0,0,1,.561-1.026,2.262,2.262,0,0,1,.7-.377,5.214,5.214,0,0,1,1.034-.241h0l4.613-.761.136-.023.025-.137,1.025-5,.057-.273-.273.039-1.541.25h0l-5.933.993h0a10.123,10.123,0,0,0-1.564.362,7.576,7.576,0,0,0-2.326,1.148,7.12,7.12,0,0,0-.593.495,2.877,2.877,0,0,0-1.171-.673,4.465,4.465,0,0,0-1.789-.136c-.216.016-.432.057-.657.1l-.209.032L283.8,457.7l-.153.025-.016.152-.536,5.663-.025-.082a21.331,21.331,0,0,0-1.2-3.3,3.443,3.443,0,0,0-1.091-1.364,2.659,2.659,0,0,0-1.723-.416c-.209.007-.418.023-.634.048-.193.022-.393.056-.587.1a6.142,6.142,0,0,0-1.339.393,4.068,4.068,0,0,0-1.186.771,5.887,5.887,0,0,0-1.187,1.828l-.057.127-1.8,3.746a2.429,2.429,0,0,0-.641-.545A2.826,2.826,0,0,0,270.68,464.48Z" fill-rule="evenodd"/>
    <path id="Path_2940" data-name="Path 2940" d="M270.323,461l-9.775,1.557q-.5,5.136-.98,10.264a1.516,1.516,0,0,0,.13.834,1.094,1.094,0,0,0,.529.5,1.667,1.667,0,0,0,.857.073c4.924-.787,8.718-1.389,12.928-2.062l1.171-2.608,4.3-.679.707,2.3,7.218-1.155.327-3.439,5.038-.8a3.9,3.9,0,0,0,2.566-1.453c-.016,1.516.344,3.055,1.739,3.617a3.614,3.614,0,0,0,1.3.225,11.216,11.216,0,0,0,1.65-.159l4.7-.8.616-3.014-3.046.529c-.321.055-.634.1-.923.137-1.307.159-2-.219-2.044-1.494a8.494,8.494,0,0,1,.191-2.012c.394-1.707,1.476-2.318,3.281-2.623l3.794-.648.616-3.023-5.99,1a6.29,6.29,0,0,0-4.851,3.015c-.235-1.612-1.38-2.037-3.008-1.755l-6.617,1.05-2.069.327q-.48,5.115-.971,10.225l-2.862-8.315a1.588,1.588,0,0,0-1.764-1.107,6.8,6.8,0,0,0-2,.377,2.9,2.9,0,0,0-1.707,1.6L271.775,469a8.7,8.7,0,0,0,.055-1.644A1.784,1.784,0,0,0,269.5,465.6l-5.517.882q.071-.783.143-1.564c1.836-.3,3.673-.586,5.5-.882l.7-3.032Zm17.7,2.614h0c.08-.85.159-1.7.248-2.557.93-.146,1.862-.3,2.8-.441.876-.162,1.564-.048,1.437.961-.105,1.107-.771,1.46-1.716,1.6l-2.767.441Zm-10.288-.12h0c.022-.064.111-.257.175-.28.072,0,.12.177.129.232l.794,2.848-2.462.391,1.364-3.191Zm-14,5.574h0l3.087-.489c.442-.089,1.035-.073,1.044.45a1.842,1.842,0,0,1-.127.762,1.283,1.283,0,0,1-1.092.625l-2.27.361a1.084,1.084,0,0,1-.61.023c-.191-.1-.152-.464-.136-.673l.1-1.059Zm7-8.452h0l-.85,3.689-5.47.873-.088.93,5.021-.8a2.537,2.537,0,0,1,2.005.343,2.351,2.351,0,0,1,.8,1.846l2.9-6.04a3.97,3.97,0,0,1,.812-1.178,4.12,4.12,0,0,1,2.1-.954,8.034,8.034,0,0,1,1.107-.13,2.225,2.225,0,0,1,1.3.289,2,2,0,0,1,.8,1.107l2.366,6.865.866-9.013,8.789-1.4a4.976,4.976,0,0,1,1.436-.073,2.138,2.138,0,0,1,1.869,1.33,5.6,5.6,0,0,1,1.86-1.628,8.758,8.758,0,0,1,2.823-.9l6.488-1.085-.755,3.667-4.065.705a4.222,4.222,0,0,0-2.141.809,4.126,4.126,0,0,0-1.05,3.064c-.025.5-.05,1.162.4,1.476a1.954,1.954,0,0,0,1.291.152c.3-.041.609-.089.907-.136l3.528-.6-.755,3.667-4.946.841a12.359,12.359,0,0,1-1.71.161,3.8,3.8,0,0,1-1.411-.25,3.428,3.428,0,0,1-1.907-3.134,4.472,4.472,0,0,1-2.23.986l-4.8.771L287.7,470.3l-7.725,1.235-.7-2.31-3.874.618-1.171,2.6-13.039,2.078a1.538,1.538,0,0,1-1.932-1.723q.324-3.393.648-6.8l.354-3.706,10.473-1.675Zm17.82.714,2.557-.41h.009a1.667,1.667,0,0,1,.9.016c.143.073.223.257.184.61v.009a1.323,1.323,0,0,1-.434.945,2.028,2.028,0,0,1-1.018.362v.007l-2.373.377.177-1.916Zm-10.121,4.707-1.557.248.987-2.3.57,2.052ZM266.779,468.9c.473-.072.857-.152.745.505a.661.661,0,0,1-.393.562,2.35,2.35,0,0,1-.673.168l-2.207.354c-.3.048-.352.08-.321-.3.026-.28.057-.569.089-.851l2.76-.441Z" fill-rule="evenodd"/>
    <path id="Path_2941" data-name="Path 2941" d="M270.323,461l-9.775,1.557q-.5,5.136-.98,10.264a1.516,1.516,0,0,0,.13.834,1.094,1.094,0,0,0,.529.5,1.667,1.667,0,0,0,.857.073c4.924-.787,8.718-1.389,12.928-2.062l1.171-2.608,4.3-.679.707,2.3,7.218-1.155.327-3.439,5.038-.8a3.9,3.9,0,0,0,2.566-1.453c-.016,1.516.344,3.055,1.739,3.617a3.614,3.614,0,0,0,1.3.225,11.216,11.216,0,0,0,1.65-.159l4.7-.8.616-3.014-3.046.529c-.321.055-.634.1-.923.137-1.307.159-2-.219-2.044-1.494a8.67,8.67,0,0,1,.048-1.05c.016-.143.032-.311.064-.5.288-2.071,1.4-2.75,3.36-3.089l3.794-.648.616-3.023-5.99,1a6.29,6.29,0,0,0-4.851,3.015c-.235-1.612-1.38-2.037-3.008-1.755l-6.617,1.05-2.069.327q-.48,5.115-.971,10.225l-2.862-8.315a1.588,1.588,0,0,0-1.764-1.107,6.8,6.8,0,0,0-2,.377,2.9,2.9,0,0,0-1.707,1.6L271.775,469a8.7,8.7,0,0,0,.055-1.644A1.784,1.784,0,0,0,269.5,465.6l-5.517.882q.071-.783.143-1.564c1.836-.3,3.673-.586,5.5-.882l.7-3.032Zm17.7,2.614h0c.08-.85.159-1.7.248-2.557.93-.146,1.862-.3,2.8-.441.876-.162,1.564-.048,1.437.961-.105,1.107-.771,1.46-1.716,1.6l-2.767.441Zm-10.288-.12h0c.022-.064.111-.257.175-.28.072,0,.12.177.129.232l.794,2.848-2.462.391,1.364-3.191Zm-14,5.574h0l3.087-.489c.442-.089,1.044-.073,1.044.45a1.842,1.842,0,0,1-.127.762,1.283,1.283,0,0,1-1.092.625l-2.27.361a1.084,1.084,0,0,1-.61.023c-.191-.1-.152-.464-.136-.673Z" fill="#e60005" fill-rule="evenodd"/>
    <path id="Path_2942" data-name="Path 2942" d="M299.336,463.373h0a7.3,7.3,0,0,1,.023-.834c-4.924.818-10.175,1.891-15.34,3.217L284,465.9l-.016.152-.016.161-.016.16-.018.161-.016.159-.007.162-.015.159-.016.161-.016.159-.016.162-.016.161-.016.152-.016.159-.018.162-.016.159-.007.161-.048.482-.409-1.18-.57-1.659c-.1.023-.191.048-.289.08a125.381,125.381,0,0,0-12.021,3.816c-.289.114-.577.225-.866.337a65.931,65.931,0,0,0-8.315,3.873h0l12.766-2.036,1.18-2.606,4.3-.682.7,2.3,7.218-1.146.329-3.448,5.036-.8a3.847,3.847,0,0,0,2.566-1.45c-.009,1.514.346,3.062,1.741,3.617a3.447,3.447,0,0,0,1.3.222,10.019,10.019,0,0,0,1.653-.159l4.7-.793.625-3.008-3.055.521c-.321.057-.635.1-.923.136-1.307.16-2.005-.216-2.044-1.491Zm-38.7,11.171Zm35.735-6.633h0l.009.009.007.009Z" fill="#d70006" fill-rule="evenodd"/>
  </g>
</svg>
