<svg xmlns="http://www.w3.org/2000/svg" width="63.361" height="32.215" viewBox="0 0 63.361 32.215">
  <g id="Group_4586" data-name="Group 4586" transform="translate(-149.2 -160.321)">
    <path id="Path_3000" data-name="Path 3000" d="M212.562,192.535,200.74,179.406h-2.676l-17.183-19.084L163.7,179.406h-2.675L149.2,192.536Z" fill="#fff"/>
    <path id="Path_3001" data-name="Path 3001" d="M236.006,191.625h.892l5.511-6.121c-.376.773-.779,1.715-.779,1.715l.515.558-3.464,3.847h.892l2.55-2.832.607.7c-.075.262-.228.656-.348,1l-4.4,4.89H225.494l3.378-3.751h2.675l11.175-12.411v1.981l-9.391,10.43h.892l8.715-9.679a1.787,1.787,0,0,1,.338,1.606Zm12.283-13.642,2.23-2.476-.892-.99-2.23,2.476Zm.892-3.962-.892-.99-2.23,2.476.892.991Z" transform="translate(-67.408 -11.229)" fill="#0f2769"/>
    <path id="Path_3002" data-name="Path 3002" d="M394.534,214.166l3.377,3.751h-1.783l-3.378-3.751Zm-4.649,3.751-17.444-19.374-.892.991L388.1,217.917Zm-2.675,0L371.1,200.029l-.892.99,15.215,16.9Zm-17-15.907c0,.768,0,1.483,0,1.981a2.4,2.4,0,0,1,.458,2.463l-1.63,3.125h1.208l-.481.85.456.506-.308.543.3.436-.462,1.589h2.6l2.32-.6,1.123,1.261h5.364Zm19.864,12.156,3.378,3.751h1.784l-3.377-3.751Zm-2.675,0,3.378,3.751h1.784l-3.377-3.751Z" transform="translate(-194.235 -33.77)" fill="#d3a354"/>
    <path id="Path_3003" data-name="Path 3003" d="M227.212,377.316l-58.913,0,6.065-6.736h46.784Z" transform="translate(-16.875 -185.771)" fill="#0f2769"/>
    <path id="Path_3004" data-name="Path 3004" d="M359.749,214.166h-1.784L344.79,199.534l.892-.991Zm-15.4-14.137-.892.991,11.837,13.147h1.784ZM332.7,217.914h19.728l-3.377-3.748H336.075Z" transform="translate(-162.126 -33.77)" fill="#00862f"/>
    <g id="Group_4585" data-name="Group 4585" transform="translate(159.5 186.516)">
      <path id="Path_3005" data-name="Path 3005" d="M239.56,386.174a.841.841,0,0,0-.326-.18,1.236,1.236,0,0,0-.321-.045.642.642,0,0,0-.188.028.5.5,0,0,0-.169.087.459.459,0,0,0-.124.155.517.517,0,0,0-.049.237v.914a.516.516,0,0,0,.049.237.444.444,0,0,0,.127.155.535.535,0,0,0,.171.087.655.655,0,0,0,.188.028,1.148,1.148,0,0,0,.309-.044,1.027,1.027,0,0,0,.338-.181l.352.581a1.323,1.323,0,0,1-.462.246,1.847,1.847,0,0,1-.551.082,1.74,1.74,0,0,1-.452-.061,1.276,1.276,0,0,1-.408-.187,1,1,0,0,1-.293-.321.909.909,0,0,1-.112-.462V386.31a.922.922,0,0,1,.11-.462,1.007,1.007,0,0,1,.288-.324,1.278,1.278,0,0,1,.4-.192,1.653,1.653,0,0,1,.452-.063,2.028,2.028,0,0,1,.563.08,1.206,1.206,0,0,1,.469.249Z" transform="translate(-237.638 -385.264)" fill="#fff"/>
      <path id="Path_3006" data-name="Path 3006" d="M264.674,388.1h-1.041l-.192.638h-.8l1.139-3.231h.769l1.121,3.231h-.8Zm-.853-.609h.666l-.066-.22-.258-.891h-.019l-.258.891Z" transform="translate(-259.727 -385.478)" fill="#fff"/>
      <path id="Path_3007" data-name="Path 3007" d="M294.208,386.181v.769a5.913,5.913,0,0,1-.04.708,1.721,1.721,0,0,1-.167.577.991.991,0,0,1-.368.4,1.34,1.34,0,0,1-.649.169l-.112-.6a.873.873,0,0,0,.342-.157.61.61,0,0,0,.181-.249,1.123,1.123,0,0,0,.07-.347q.011-.2.012-.457v-1.481h2.2v3.231h-.755v-2.56Z" transform="translate(-286.439 -385.478)" fill="#fff"/>
      <path id="Path_3008" data-name="Path 3008" d="M325.826,388.1h-1.041l-.192.638h-.8l1.139-3.231h.769l1.121,3.231h-.8Zm-.853-.609h.666l-.066-.22-.258-.891H325.3l-.258.891Z" transform="translate(-313.757 -385.478)" fill="#fff"/>
      <path id="Path_3009" data-name="Path 3009" d="M359.115,387.776a1.155,1.155,0,0,1-.061.382.876.876,0,0,1-.18.307.815.815,0,0,1-.3.2,1.055,1.055,0,0,1-.406.073H356.6v-3.231h1.51a1.143,1.143,0,0,1,.431.073.82.82,0,0,1,.293.195.736.736,0,0,1,.166.281,1.088,1.088,0,0,1,.052.338.676.676,0,0,1-.026.178.836.836,0,0,1-.075.183.736.736,0,0,1-.124.164.618.618,0,0,1-.174.122.738.738,0,0,1,.2.143.847.847,0,0,1,.143.188.9.9,0,0,1,.084.206A.756.756,0,0,1,359.115,387.776Zm-.835-1.294a.317.317,0,0,0-.08-.223.387.387,0,0,0-.291-.087h-.563v.586h.563a.423.423,0,0,0,.284-.077A.255.255,0,0,0,358.281,386.482Zm.033,1.266a.38.38,0,0,0-.087-.253.352.352,0,0,0-.284-.1h-.6v.689h.6a.381.381,0,0,0,.277-.091A.322.322,0,0,0,358.313,387.748Z" transform="translate(-342.747 -385.478)" fill="#fff"/>
      <path id="Path_3010" data-name="Path 3010" d="M386.133,388.1h-1.041l-.192.638h-.8l1.139-3.231h.769l1.121,3.231h-.8Zm-.853-.609h.666l-.066-.22-.258-.891H385.6l-.258.891Z" transform="translate(-367.04 -385.478)" fill="#fff"/>
      <path id="Path_3011" data-name="Path 3011" d="M415.253,386.181v2.56h-.745v-2.56h-.821v-.67h2.382v.67Z" transform="translate(-393.183 -385.478)" fill="#fff"/>
      <path id="Path_3012" data-name="Path 3012" d="M459.215,387.469a1.069,1.069,0,0,1-.094.464.908.908,0,0,1-.259.328,1.136,1.136,0,0,1-.389.2,1.665,1.665,0,0,1-.475.066,1.641,1.641,0,0,1-.473-.066,1.138,1.138,0,0,1-.386-.2.93.93,0,0,1-.262-.328,1.049,1.049,0,0,1-.1-.464v-.286h-.319v1.308h-.745v-3.231h.745v1.252h.319v-.258a.941.941,0,0,1,.105-.459.97.97,0,0,1,.276-.319,1.185,1.185,0,0,1,.389-.188,1.654,1.654,0,0,1,.447-.061,1.567,1.567,0,0,1,.449.066,1.233,1.233,0,0,1,.391.195.963.963,0,0,1,.274.326.987.987,0,0,1,.1.464Zm-.745-1.05a.621.621,0,0,0-.04-.237.438.438,0,0,0-.1-.155.4.4,0,0,0-.15-.087.559.559,0,0,0-.176-.028.552.552,0,0,0-.178.028.423.423,0,0,0-.15.087.417.417,0,0,0-.105.155.618.618,0,0,0-.04.237v.914a.617.617,0,0,0,.04.237.416.416,0,0,0,.105.155.426.426,0,0,0,.15.087.562.562,0,0,0,.178.028.57.57,0,0,0,.176-.028.4.4,0,0,0,.15-.087.437.437,0,0,0,.1-.155.62.62,0,0,0,.04-.237Z" transform="translate(-430.318 -385.228)" fill="#fff"/>
      <path id="Path_3013" data-name="Path 3013" d="M493.205,386.181v.769a5.938,5.938,0,0,1-.04.708,1.721,1.721,0,0,1-.167.577.993.993,0,0,1-.368.4,1.34,1.34,0,0,1-.649.169l-.113-.6a.875.875,0,0,0,.342-.157.613.613,0,0,0,.181-.249,1.129,1.129,0,0,0,.07-.347q.012-.2.012-.457v-1.481h2.2v3.231h-.755v-2.56Z" transform="translate(-462.26 -385.478)" fill="#fff"/>
      <path id="Path_3014" data-name="Path 3014" d="M524.822,388.1h-1.041l-.192.638h-.8l1.139-3.231h.769l1.121,3.231h-.8Zm-.853-.609h.666l-.066-.22-.258-.891h-.019l-.258.891Z" transform="translate(-489.577 -385.478)" fill="#fff"/>
      <path id="Path_3015" data-name="Path 3015" d="M555.6,385.511h2.255v.661h-1.51v.61h1.289v.661h-1.289v.638h1.51v.661H555.6Z" transform="translate(-518.566 -385.478)" fill="#fff"/>
      <path id="Path_3016" data-name="Path 3016" d="M585.728,387.776a1.161,1.161,0,0,1-.061.382.877.877,0,0,1-.18.307.815.815,0,0,1-.3.2,1.055,1.055,0,0,1-.406.073h-1.571v-3.231h1.51a1.142,1.142,0,0,1,.431.073.821.821,0,0,1,.293.195.731.731,0,0,1,.167.281,1.092,1.092,0,0,1,.052.338.669.669,0,0,1-.026.178.832.832,0,0,1-.075.183.737.737,0,0,1-.124.164.621.621,0,0,1-.173.122.738.738,0,0,1,.2.143.841.841,0,0,1,.143.188.893.893,0,0,1,.085.206A.756.756,0,0,1,585.728,387.776Zm-.835-1.294a.316.316,0,0,0-.08-.223.387.387,0,0,0-.291-.087h-.562v.586h.563a.422.422,0,0,0,.284-.077A.255.255,0,0,0,584.894,386.482Zm.033,1.266a.38.38,0,0,0-.087-.253.352.352,0,0,0-.284-.1h-.6v.689h.6a.381.381,0,0,0,.277-.091A.321.321,0,0,0,584.926,387.748Z" transform="translate(-542.967 -385.478)" fill="#fff"/>
    </g>
    <path id="Path_3017" data-name="Path 3017" d="M375.206,255.466l1.847.511-1.53.026-.316.537Zm.751,1.752,1.14-.259-1.145-.241A.592.592,0,0,0,375.957,257.218Zm-2.469,2.382h.87l.441.348v-.99Zm.879.663-.2.364.74.733A1.645,1.645,0,0,0,374.367,260.263Zm1.018-1.594v3.051l-.932.406-.124.557,1.092-.417.546-3.241,1.64-1.446Z" transform="translate(-198.166 -84.063)" fill="#fff" fill-rule="evenodd"/>
  </g>
</svg>
