<svg xmlns="http://www.w3.org/2000/svg" width="65.463" height="34.903" viewBox="0 0 65.463 34.903">
  <g id="Group_4584" data-name="Group 4584" transform="translate(-88.464 -27.04)">
    <path id="Path_2994" data-name="Path 2994" d="M153.915,43.737c-.172-2.457-1.979-4.941-5.826-8v0a2.687,2.687,0,0,0-1.644-3.095c-4.827-2.53-15.194-5.194-22.98-5.6.076.206.258.784.388,1.214a189.213,189.213,0,0,0-25.751.714c-2.346.227-9.638,1.223-9.638,1.223l16.476,6.976c-1.758.392-3.542.817-5.339,1.278-1.833.473-7.264,2.3-7.264,2.3s4.822,1.042,6.586,1.421c3.28.705,12.528,2.661,16.475,3.563-.522,1.6-3.921,12.661-3.921,12.661s4.4-4.609,5.769-5.9c1.738-1.638,2.312-2.193,2.834-2.617-.2,2.356-.643,7.413-.757,8.659a3.416,3.416,0,0,0,.688,2.632,2.991,2.991,0,0,0,2.379.756,4.756,4.756,0,0,0,2.193-1.071c2.653-2.17,9.3-8.036,14.919-13.431.316-.048.631-.09.948-.125,3.857-.422,7.593.187,8.231,2.095.418,1.254-.012,2.027-.4,3.227.662-.624,2.37-2.182,3.038-3.01,1.087-1.345,2.767-3.436,2.6-5.874" fill="#161615"/>
    <path id="Path_2995" data-name="Path 2995" d="M128.82,35.927l.076-.008c-.228-.437-.42-.89-.593-1.219,3.161-.376,10.479,0,13.4,1.852s5.575,2.485,7.573,2.043a3.553,3.553,0,0,1-.894,1.114,6.287,6.287,0,0,1-2.266.068c-.826,1.353-2.858,1.186-6.064,2.786a103,103,0,0,0-12.93,7.68c-.13,1.572-.406,4.628-.444,5.1l6.354-2.289-1.283-1.08,5.423-1.234c.879-1.408,7.6-7.857,8.663-8.64a10.144,10.144,0,0,1,1.081-.18,23.217,23.217,0,0,1,4.637-3.248,2.066,2.066,0,0,0,.069-.274,1.612,1.612,0,0,0-.709-1.812c-12.925-6.7-36.834-4.537-49.709-3.5l12.142,5.289c5.811-1.181,11.184-1.981,15.474-2.45" transform="translate(-5.036 -1.927)" fill="#c1ab8f"/>
    <path id="Path_2996" data-name="Path 2996" d="M148.116,63.677l1.284,1.08-6.355,2.289s-.34,4.08-.43,5.041c-.12,1.3,1,1.708,2.055.842,2.36-1.931,7.855-6.667,12.976-11.419Z" transform="translate(-21.402 -13.627)" fill="#766750"/>
    <path id="Path_2997" data-name="Path 2997" d="M166.349,43.981c-2.411.382-3.573-1.3-3.786-3.079-.867-.143-1.729-.226-2.507-.294-.039,2.228,1.482,4.657,5.142,4.108a3.072,3.072,0,0,0,2.309-1.133,2.994,2.994,0,0,1-1.159.4" transform="translate(-28.3 -5.363)" fill="#fff"/>
    <path id="Path_2998" data-name="Path 2998" d="M177.605,43.094c-5.039,2.59-9.093,7.84-10.5,9.75,4.16-1.338,12.751-2.066,14.138,2.107,2.28-2.947,4.579-5.509-3.641-11.857m-2.451,3.436a2.278,2.278,0,0,1,1.228-1.108,5.653,5.653,0,0,1,2.145,1.533Z" transform="translate(-31.089 -6.346)" fill="#f5ecd8"/>
    <path id="Path_2999" data-name="Path 2999" d="M139.674,45.347a4.493,4.493,0,0,1-2.089-4.6h0a188.856,188.856,0,0,0-31.009,4.909c4.332.749,18.4,4,18.4,4s-1.54,4.536-2.333,7.421a78.769,78.769,0,0,1,17.038-11.732m-15.96.106,10.527-1.163-5.687,4.155.122-1.695Z" transform="translate(-7.158 -5.418)" fill="#d9000d"/>
  </g>
</svg>
