<svg xmlns="http://www.w3.org/2000/svg" width="130.682" height="37.2" viewBox="0 0 130.682 37.2">
  <g id="Group_12" data-name="Group 12" transform="translate(-2.166 -2.179)">
    <path id="Path_18" data-name="Path 18" d="M281.148,475.268c2.388,6.071-1.5,9.961-5.391,13.863-3.607,3.992-6.79,8.125-.385,15.583-2.4-6.071,1.5-9.961,5.378-13.85,3.62-3.992,6.8-8.138.4-15.6Z" transform="translate(-263.749 -465.335)" fill="#fff" fill-rule="evenodd"/>
    <path id="Path_19" data-name="Path 19" d="M260.05,446.972c2.387,6.072-1.515,9.961-5.391,13.863-3.62,3.979-6.79,8.125-.4,15.57-2.388-6.059,1.5-9.948,5.391-13.85,3.607-3.992,6.79-8.125.4-15.583Z" transform="translate(-248.427 -444.793)" fill="#fff" fill-rule="evenodd"/>
    <path id="Path_20" data-name="Path 20" d="M630.743,536.636v11.912h5.211V544.2h5.738v-2.619h-5.738v-2.336h11.373v9.306h5.211v-9.306h4.724v-2.606Z" transform="translate(-524.414 -509.888)" fill="#fff" fill-rule="evenodd"/>
    <path id="Path_21" data-name="Path 21" d="M576.1,545.968V543.9h6.79V541.3H576.1v-2.054h8.729v-2.606H570.873v11.912h14.056v-2.58Z" transform="translate(-480.949 -509.888)" fill="#fff" fill-rule="evenodd"/>
    <path id="Path_22" data-name="Path 22" d="M514.724,536.636v5.956l-8.344-5.956h-4.043v11.912h3.568v-6.559l8.562,6.559h3.825V536.636Z" transform="translate(-431.192 -509.888)" fill="#fff" fill-rule="evenodd"/>
    <path id="Path_23" data-name="Path 23" d="M350.942,536.636H336.5v2.606h4.608v9.306h5.224v-9.306h4.608Z" transform="translate(-310.796 -509.888)" fill="#fff" fill-rule="evenodd"/>
    <path id="Path_24" data-name="Path 24" d="M394.737,536.636h-5.584l-6.508,11.912h3.389l1.065-2.041h7.317l1.065,2.041h5.776ZM388.4,544.03l2.413-4.608,2.31,4.608Z" transform="translate(-344.297 -509.888)" fill="#fff" fill-rule="evenodd"/>
    <path id="Path_25" data-name="Path 25" d="M458.393,536.636H444.248v2.606h4.621v9.306h5.211v-9.306h4.313Z" transform="translate(-389.02 -509.888)" fill="#fff" fill-rule="evenodd"/>
  </g>
</svg>
