<?xml version="1.0" encoding="utf-8"?>
<!-- Generator: Adobe Illustrator 23.0.1, SVG Export Plug-In . SVG Version: 6.00 Build 0)  -->
<svg version="1.1" id="Слой_1" xmlns="http://www.w3.org/2000/svg" xmlns:xlink="http://www.w3.org/1999/xlink" x="0px" y="0px"
	 viewBox="0 0 316.915 194.766" enable-background="new 0 0 316.915 194.766" xml:space="preserve">
<g>
	<path fill-rule="evenodd" clip-rule="evenodd" fill="#FFFFFF" d="M301.588,93.501c-0.094,0.374-0.224,0.744-0.391,1.107
		c-0.729,1.58-2.031,2.714-3.546,3.268c5.991,4.023,10.146,9.977,11.224,11.521c0.006,0.009,0.004,0.009-0.004,0.002l-0.064,0.045
		c1.745,3.565,1.745,17.552,1.745,17.596h-0.017c0,2.566-1.585,4.975-4.138,5.899c-2.811,1.019-5.875-0.094-7.422-2.51
		c-1.847-0.547-3.417-1.933-4.123-3.881c-0.471-1.298-1.579-3.022-3.007-4.695c-0.191-0.224-0.357-0.416-0.499-0.577
		c-0.884,4.253,0.22,8.245,1.997,11.267c0.322,0.548,0.704,1.106,1.131,1.663c0.134,0.174,0.267,0.342,0.4,0.502
		c2.017,0.648,4.055,0.212,4.584,0.077c0.518-0.162,1.065-0.26,1.632-0.281c2.302-0.091,4.362,1.072,5.524,2.879
		c2.511,0.74,4.389,3.013,4.496,5.773l0.568,14.181c0.065,0.611,0.042,1.243-0.082,1.879c-0.665,3.407-3.967,5.631-7.375,4.966
		c-0.017-0.003-5.661-1.063-11.608-4.561c-0.95-0.559-2.057-1.241-3.157-1.995c-1.067-0.73-2.284-1.624-3.628-2.712
		c-3.236-2.228-7.423-5.615-11.326-10.36c-2.944-3.58-5.706-7.901-7.749-13.029c-1.31,0.311-2.641,0.477-3.953,0.526
		c-0.833,0.032-1.602,0.023-2.304-0.022c-0.548-0.035-1.146-0.1-1.775-0.19c-0.16-0.015-0.32-0.035-0.481-0.063l-0.01-0.002
		l0.002-0.012c-0.495-0.078-0.976-0.163-1.442-0.254v6.343h-0.011c0,0.668-0.107,1.348-0.333,2.016
		c-1.113,3.286-4.68,5.047-7.966,3.934c-0.01-0.003-2.414-0.844-5.376-1.541c-0.226,1.03-0.484,2.183-0.777,3.441
		c-0.402,1.728-0.899,3.791-1.512,6.238c-2.295,9.181-6.932,16.063-13.773,20.378c-1.32,0.833-2.742,1.571-4.263,2.212
		c-1.54,0.647-3.089,1.168-4.646,1.558l-0.005,0.001c-9.735,2.435-55.466,6.564-55.597,6.576
		c-0.063,0.006-22.149,2.094-38.842,2.094c-12.171,0-38.996-2.293-62.741-5.01c-3.853-0.44-8.317-0.985-13.32-1.627
		c-4.826-0.62-8.861-1.166-11.911-1.616l-0.009-0.002C7.049,172.268,5.318,144.208,5.226,139.61
		c-0.018-0.194-0.028-0.392-0.028-0.591V55.162c0-13.101,10.084-28.2,32.879-36.058C69.216,8.374,116.958,9.47,147.92,10.91
		c15.685,0.729,29.121,2.464,40.218,4.521c10.665,1.977,19.22,4.268,25.549,6.255l0.195,0.01l1.22,0.061l1.221,0.062l1.159,0.059
		l0.082,0.003l1.206,0.062l1.189,0.063l1.166,0.062l1.065,0.057l0.095,0.004l1.101,0.061l1.058,0.06l0.935,0.055l0.099,0.004
		l0.71,0.043c0.309,0.006,0.62,0.035,0.934,0.088l1.73,0.297c2.821,0.449,5.066,2.791,5.276,5.764l0.048,0.656
		c1.355-0.897,3.056-1.272,4.772-0.909l13.492,2.871c1.788,0.305,3.295,1.353,4.225,2.795c1.393,0.41,2.572,1.285,3.374,2.433
		l0.867-0.78l0.011,0.012c1.531-1.375,3.707-1.969,5.84-1.388l15.715,4.286c1.321,0.277,2.564,0.978,3.502,2.088
		c0.181,0.213,0.344,0.435,0.49,0.664c1.138,0.334,2.193,0.994,3.016,1.966c2.24,2.648,1.91,6.61-0.737,8.85l-7.231,6.12
		c8.607,3.944,13.754,7.14,13.774,7.151v0c2.588,1.594,3.7,4.88,2.483,7.768c-0.003,0.005-0.616,1.532-1.983,3.459
		c0.035,0.021,0.073,0.045,0.112,0.072c8.535,6.025,5.704,16.857,5.696,16.889L301.588,93.501L301.588,93.501z M308.636,109.138
		c0.06,0.091,0.116,0.193,0.172,0.307l0.064-0.045C308.843,109.373,308.735,109.251,308.636,109.138z"/>
	<path fill-rule="evenodd" clip-rule="evenodd" fill="#FFFFFF" d="M110.509,42.387c-1.422,0.5-3.093,1.237-4.469,1.311l-0.381,0.027
		l-0.382,0.034l-0.384,0.041l-0.385,0.046l-0.385,0.053l-0.386,0.058l-0.388,0.064l-0.386,0.069l-0.386,0.074l-0.385,0.08
		l-0.385,0.084l-0.383,0.088l-0.382,0.093l-0.38,0.096l-2.033,0.535l0.459-1.231l-0.389-0.014l-0.789-0.022l-0.782-0.016
		l-0.773-0.01l-0.766-0.004l-0.757,0.002l-0.75,0.008l-0.742,0.014l-0.734,0.02l-0.727,0.025l-0.719,0.031l-0.711,0.037
		l-0.704,0.042l-0.696,0.047l-0.689,0.053l-0.68,0.058l-0.673,0.064l-0.665,0.068l-0.658,0.074l-0.651,0.079l-0.644,0.084
		l-0.635,0.088l-0.629,0.094l-0.621,0.098l-0.613,0.103l-0.606,0.107l-0.6,0.113l-0.592,0.116l-0.585,0.122l-0.578,0.125
		l-0.572,0.13l-0.364,0.085l-0.361,0.088l-0.358,0.089l-0.356,0.091l-0.352,0.093l-0.35,0.095l-0.347,0.097l-1.592,0.454l0.141-1.49
		l0.012-0.19l0.006-0.191l0.001-0.193l-0.004-0.192l-0.011-0.189L74.408,44.1l-0.023-0.189l-0.039-0.262l-0.047-0.257l-0.056-0.252
		l-0.064-0.246l-0.072-0.238l-0.081-0.227l-0.089-0.216l-0.095-0.202L73.725,41.8l-0.124-0.194l-0.131-0.177l-0.141-0.16
		l-0.149-0.144l-0.156-0.126L72.86,40.89l-0.181-0.096l-0.173-0.073l-0.183-0.059l-0.19-0.044l-0.2-0.029l-0.21-0.012l-0.221,0.005
		l-0.234,0.025l-0.25,0.045l-0.264,0.068l-0.278,0.092l-0.293,0.119l-0.31,0.148l-0.324,0.177l-0.339,0.208l-0.354,0.24
		l-0.392,0.292l-0.017,0.013l-0.433,0.353l-0.402,0.355l-0.379,0.361l-0.357,0.366l-0.335,0.371l-0.314,0.375l-0.295,0.378
		l-0.277,0.382l-0.258,0.382l-0.241,0.385l-0.225,0.385l-0.21,0.384l-0.195,0.384l-0.182,0.382l-0.168,0.379l-0.237,0.571
		l-0.389,0.349l-0.199,0.211l-0.186,0.228l-0.172,0.246l-0.16,0.26l-0.147,0.273l-0.134,0.282l-0.121,0.29l-0.108,0.294
		l-0.097,0.296l-0.085,0.295l-0.075,0.292l-0.064,0.283l-0.055,0.275l-0.045,0.263l-0.091,0.608L61.3,53.343l-0.225,0.177
		l-0.221,0.177l-0.219,0.179l-0.215,0.178l-0.212,0.179l-0.21,0.181l-0.207,0.182l-0.203,0.182l-0.201,0.183l-0.198,0.183
		l-0.195,0.184l-0.192,0.184l-0.19,0.186l-0.187,0.185l-0.182,0.184l-0.395,0.412l-0.379,0.413l-0.366,0.415l-0.353,0.417
		L56.41,58.14l-0.326,0.419l-0.314,0.419l-0.3,0.421l-0.287,0.42l-0.274,0.421l-0.262,0.42l-0.249,0.421l-0.236,0.42l-0.225,0.42
		l-0.212,0.418l-0.2,0.417l-0.187,0.416l-0.176,0.414l-0.164,0.412l-0.153,0.41l-0.141,0.406l-0.13,0.404l-0.118,0.401l-0.107,0.397
		l-0.095,0.394l-0.086,0.391l-0.074,0.386l-0.064,0.382l-0.052,0.376l-0.043,0.373l-0.032,0.367l-0.022,0.363l-0.01,0.268
		l-0.004,0.268l0.001,0.264l0.006,0.26l0.013,0.254l0.017,0.251l0.022,0.247l0.042,0.38l-0.085,0.476l-0.063,0.35l-0.062,0.35
		l-0.063,0.349l-0.062,0.349l-0.063,0.352l-0.063,0.349l-0.083,0.463l-0.126,0.271l-0.094,0.209l-0.108,0.255l-0.119,0.296
		l-0.125,0.332l-0.126,0.366L50.601,76.4l-0.119,0.418l-0.107,0.436l-0.094,0.452l-0.076,0.462l-0.053,0.467l-0.027,0.468
		l0.001,0.464l0.032,0.456l0.067,0.453l0.032,0.148l0.04,0.151l0.044,0.144l0.049,0.138l0.054,0.13l0.059,0.126l0.063,0.121
		l0.062,0.106l0.143,0.21l0.154,0.188l0.17,0.172l0.184,0.158l0.198,0.144l0.212,0.129l0.226,0.114l1.369,0.573l-0.837,1.009
		l-0.089,0.102l-0.093,0.103l-0.098,0.105l-0.1,0.107l-0.104,0.108l-0.104,0.108l-0.106,0.108l-0.221,0.227l-0.217,0.226
		l-0.211,0.226l-0.202,0.225l-0.19,0.224l-0.177,0.224l-0.16,0.222l-0.367,0.572l-0.532,0.09l-0.127,0.027l-0.126,0.034
		l-0.127,0.039l-0.124,0.044l-0.124,0.051l-0.123,0.057l-0.115,0.059l-0.244,0.144l-0.224,0.157l-0.21,0.175l-0.197,0.192
		L47.553,88.4l-0.167,0.226l-0.149,0.242L47.1,89.134l-0.045,0.102l-0.046,0.115l-0.043,0.118l-0.039,0.121l-0.034,0.123
		l-0.032,0.127l-0.027,0.129l-0.122,0.704l-0.686,0.184l-0.124,0.039l-0.124,0.043l-0.123,0.048l-0.12,0.052l-0.118,0.057
		l-0.117,0.062l-0.108,0.062l-0.228,0.148l-0.208,0.158l-0.191,0.171l-0.177,0.184l-0.16,0.196l-0.142,0.207l-0.125,0.219
		l-0.112,0.244l-0.014,0.035l-0.02,0.052L43.8,92.885l-0.017,0.05l-0.016,0.05l-0.015,0.051l-0.015,0.055l-0.093,0.367l-0.529,0.399
		l-0.278,0.218l-0.279,0.229l-0.281,0.238l-0.279,0.248l-0.278,0.255l-0.274,0.264l-0.269,0.271l-0.261,0.277l-0.254,0.284
		l-0.245,0.288l-0.234,0.293l-0.221,0.295l-0.208,0.298l-0.193,0.299L39.4,97.888l-0.051,0.114l-0.072,0.16l-0.071,0.157
		l-0.071,0.159l-0.071,0.159l-0.072,0.16l-0.071,0.158l-0.051,0.113l-0.017,0.054l-0.028,0.092l-0.026,0.092l-0.024,0.09
		l-0.022,0.091l-0.02,0.092l-0.019,0.092l-0.005,0.032l-0.002,0.093l-0.009,0.32l-0.004,0.158l-0.004,0.16l-0.009,0.318
		l-0.003,0.086l0.004,0.023l0.014,0.085l0.017,0.085l0.019,0.085l0.021,0.081l0.024,0.082l0.027,0.084l0.005,0.016l0.045,0.077
		l0.088,0.152l0.088,0.151l0.088,0.151l0.088,0.151l0.089,0.152l0.089,0.152l0.045,0.079l0.106,0.121l0.163,0.168l0.182,0.167
		l0.199,0.167l0.219,0.166l0.237,0.165l0.258,0.163l0.895,0.52l-0.242,0.812l-0.032,0.129l-0.027,0.139l-0.023,0.148l-0.016,0.155
		l-0.012,0.166l-0.006,0.173l-0.001,0.181l0.006,0.189l0.011,0.196l0.017,0.202l0.022,0.208l0.028,0.216l0.034,0.221l0.039,0.227
		l0.043,0.222l0.015,0.065l0.018,0.082l0.018,0.079l0.017,0.076l0.019,0.078l0.037,0.163l0.014,0.063l0.121,0.451l0.139,0.469
		l0.155,0.479l0.17,0.487l0.186,0.494l0.2,0.5l0.213,0.504l0.225,0.506l0.237,0.506l0.248,0.505l0.259,0.504l0.268,0.499
		l0.277,0.494l0.284,0.488l0.292,0.48l0.298,0.472l0.241,0.366l0.245,0.363l0.248,0.353l0.249,0.347l0.25,0.336l0.25,0.326
		l0.251,0.316l0.25,0.304l0.25,0.292l0.249,0.278l0.247,0.265l0.243,0.25l0.24,0.233l0.236,0.218l0.231,0.199l0.222,0.18
		l0.324,0.237l0.312,0.2l0.299,0.164l0.284,0.127l0.268,0.092l0.249,0.058l0.232,0.025l0.825-0.012l0.268,0.522l0.014,0.029
		l0.012,0.025l0.011,0.021l0.012,0.023l0.012,0.024l0.013,0.025l0.009,0.019l0.058,0.109l0.063,0.114l0.066,0.112l0.065,0.11
		l0.067,0.107l0.069,0.107l0.071,0.104l0.067,0.098l0.191,0.256l0.195,0.239l0.202,0.226l0.206,0.212l0.211,0.197l0.214,0.185
		l0.217,0.171l0.218,0.157l0.219,0.143l0.218,0.131l0.217,0.116l0.214,0.103l0.21,0.089l0.205,0.076l0.199,0.063l0.089,0.023
		l0.036-0.021l0.02-0.017l0.002-0.155l-0.031-0.266l-0.067-0.29l-0.103-0.311l-0.136-0.331l-0.166-0.346l-0.19-0.36l-1.485-2.616
		l2.692,1.115l0.321,0.126l0.335,0.124l0.348,0.12l0.36,0.115l0.371,0.108l0.381,0.101l0.389,0.092l0.397,0.08l0.404,0.069
		l0.409,0.055l0.413,0.042l0.417,0.025l0.419,0.009l0.42-0.009L62.414,123l0.54-0.06l0.541-0.08l0.539-0.098l0.535-0.114
		l0.528-0.129l0.519-0.141l0.508-0.15l0.494-0.158l0.479-0.164l0.46-0.168l0.44-0.169l0.418-0.168l0.394-0.166l0.366-0.16
		l0.337-0.152l1.047-0.49l0.429,0.748l0.021,0.035l0.022,0.037l0.02,0.034l0.042,0.068l0.024,0.037l0.02,0.03l0.062,0.09
		l0.066,0.094l0.069,0.093l0.071,0.093l0.074,0.092l0.078,0.093l0.082,0.095l0.09,0.102l0.213,0.225l0.236,0.232l0.249,0.229
		l0.259,0.226l0.269,0.22l0.275,0.216l0.281,0.209l0.283,0.201l0.284,0.192l0.284,0.186l0.28,0.174l0.275,0.165l0.267,0.153
		l0.258,0.142l0.247,0.129l0.098,0.049l-0.021-0.187l-0.053-0.273l-0.077-0.306l-0.098-0.332l-0.114-0.353l-0.129-0.367l-0.138-0.38
		l-0.154-0.414l-0.024-0.08l-0.049-0.155l-0.076-0.241l-0.095-0.304l-0.106-0.346l-0.11-0.365l-0.106-0.364l-0.385-1.355
		l1.781-0.178l0.714-0.073l0.699-0.076l0.682-0.076l0.664-0.078l0.643-0.077l0.622-0.077l0.595-0.075l0.57-0.074l0.542-0.072
		l0.511-0.069l0.478-0.065l0.445-0.063l0.408-0.058l0.371-0.054l0.329-0.046l0.082-0.013l0.08-0.011l0.076-0.011l0.071-0.011
		l0.071-0.01l0.066-0.01l0.064-0.009l0.12-0.017h0.002l0.264-0.039l0.324-0.049l0.322-0.048l0.318-0.047l0.316-0.048l0.313-0.047
		l0.31-0.047l0.267-0.04l0.011-0.002l0.355-0.054l0.312-0.047l0.308-0.047l0.305-0.045l0.303-0.046l0.299-0.044l0.297-0.045
		l0.292-0.043l0.29-0.043l0.288-0.042l0.285-0.041l0.28-0.041l0.28-0.04l0.276-0.039l0.274-0.038l1.551-0.213l-0.311,1.297
		l0.248,0.653l-0.68,0.466l-0.128,0.086l-0.145,0.095l-0.161,0.106l-0.175,0.112l-0.363,0.234l-0.25,0.162l-0.231,0.15l-0.243,0.16
		l-0.254,0.169l-0.265,0.178l-0.274,0.185l-0.284,0.194l-0.291,0.202l-0.3,0.211l-0.417,0.296l-0.427,0.302l-0.433,0.309
		l-0.439,0.314l-0.442,0.317l-0.445,0.322l-0.446,0.327l-0.446,0.331l-0.444,0.333l-0.441,0.336l-0.437,0.338l-0.431,0.34
		l-0.423,0.341l-0.415,0.341l-0.405,0.342l-0.395,0.342l-0.38,0.339l-0.366,0.338l-0.35,0.336l-0.334,0.333l-0.314,0.328
		l-0.293,0.324l-0.272,0.318l-0.249,0.313l-0.224,0.304l-0.198,0.295l-0.172,0.285l-0.143,0.271l-0.114,0.257l-0.086,0.241
		l-0.059,0.224l-0.029,0.181v0.016l0.001,0.025l0.001,0.036l0.113,2.219l-1.284-1.207l-0.077,0.026l-0.398,0.166l-0.567,0.263
		l-0.745,0.374l-0.324,0.182l-0.309,0.201l-0.302,0.223l-0.294,0.246l-0.284,0.266l-0.275,0.283l-0.263,0.301l-0.251,0.314
		L73.1,135.6l-0.223,0.339l-0.207,0.347l-0.192,0.354l-0.175,0.358l-0.158,0.362l-0.139,0.361l-0.122,0.363l-0.071,0.244
		l-0.063,0.246l-0.054,0.244l-0.045,0.239l-0.034,0.234l-0.025,0.23l-0.016,0.224l-0.006,0.219l0,0.036v0.048l0.001,0.044
		l0.001,0.037l0.002,0.04l0.002,0.047l0.036,0.66l-2.763,1.449l-0.771-1.047l-0.317-0.424l-0.313-0.412l-0.307-0.396l-0.299-0.378
		l-0.291-0.356l-0.281-0.333l-0.008-0.009l0.043,0.263l0.061,0.337l0.069,0.356l0.078,0.372l0.086,0.387l0.095,0.398l0.285,1.127
		l-1.006,0.461l-0.318,0.17l-0.315,0.196l-0.309,0.225l-0.295,0.252l-0.278,0.284l-0.256,0.317l-0.232,0.354l-0.203,0.393
		l-0.171,0.439l-0.133,0.49l-0.091,0.546l-0.04,0.605l0.017,0.672l0.082,0.741l0.155,0.816l0.172,0.677l0.19,0.61l0.206,0.544
		l0.223,0.484l0.239,0.432l0.257,0.387l0.276,0.352l0.297,0.323l0.322,0.301l0.351,0.286l0.381,0.275l0.414,0.271l0.448,0.27
		l0.483,0.274l0.517,0.282l0.55,0.295l0.255,0.137l0.262,0.141l0.271,0.146l0.277,0.151l0.284,0.156l0.291,0.164l0.298,0.17
		l0.906,0.531l-0.244,0.791l-0.013,0.072l-0.004,0.074l0.004,0.072l0.014,0.071l0.022,0.071l0.032,0.069l0.055,0.089l0.33,0.444
		l0.351,0.451l0.358,0.438l0.364,0.425l0.371,0.412l0.377,0.399l0.383,0.387l0.388,0.374l0.395,0.361l0.4,0.35l0.405,0.338
		l0.411,0.325l0.416,0.315l0.42,0.304l0.425,0.291l0.428,0.281l0.434,0.268l0.437,0.258l0.441,0.249l0.444,0.236l0.448,0.227
		l0.451,0.217l0.454,0.206l0.456,0.196l0.46,0.187l0.462,0.178l0.464,0.167l0.465,0.158l0.468,0.147l0.469,0.14l0.47,0.131
		l0.471,0.122l0.394,0.095l0.396,0.089l0.396,0.083l0.396,0.077l0.396,0.071l0.396,0.065l0.396,0.06l0.395,0.055l0.395,0.049
		l0.395,0.043l0.395,0.038l0.393,0.033l0.393,0.027l0.391,0.023l0.39,0.018l0.388,0.014l0.388,0.008l0.385,0.003l0.384-0.001
		l0.382-0.006l0.38-0.011l0.378-0.015l0.376-0.019l0.373-0.023l0.371-0.027l0.368-0.031l0.366-0.035l0.362-0.039l0.359-0.043
		l0.355-0.047l0.353-0.051l0.345-0.053l0.711-0.122l0.693-0.137l0.678-0.15l0.66-0.162l0.642-0.174l0.623-0.186l0.602-0.196
		l0.579-0.205l0.556-0.214l0.532-0.222l0.506-0.23l0.479-0.233l0.45-0.238l0.42-0.242l0.39-0.245l0.355-0.244l0.405-0.31
		l0.359-0.311l0.314-0.313l0.267-0.309l0.221-0.306l0.174-0.297l0.13-0.288l0.1-0.314l0.104-0.381l0.127-0.393l0.141-0.369
		l0.151-0.346l0.161-0.324l0.169-0.302l0.175-0.281l0.179-0.261l0.183-0.242l0.184-0.225l0.182-0.206l0.179-0.19l0.174-0.176
		l0.168-0.16l0.158-0.148l0.147-0.134l0.223-0.204l0.206-0.192l0.188-0.181l0.168-0.17l0.147-0.16l0.122-0.148l0.1-0.138
		l0.077-0.126l0.056-0.114l0.038-0.107l0.024-0.105l0.011-0.11l-0.003-0.124l-0.02-0.145l-0.042-0.171l-0.341-0.961l1.019-0.523
		l0.306-0.188l0.318-0.226l0.327-0.259l0.334-0.293l0.34-0.322l0.347-0.352l0.351-0.377l0.356-0.4l0.36-0.422l0.363-0.44
		l0.367-0.455l0.37-0.47l0.373-0.48l0.376-0.49l0.379-0.495l0.428-0.56l0.431-0.561l0.433-0.558l0.433-0.548l0.435-0.536l0.432-0.52
		l0.43-0.496l0.427-0.472l0.426-0.442l0.423-0.407l0.422-0.37l0.422-0.328l0.43-0.282l0.442-0.229l0.466-0.166l0.124-0.02
		l0.206-0.049l0.135-0.026l0.174-0.031l0.222-0.039l0.272-0.047l0.319-0.056l0.366-0.065l0.411-0.073l0.453-0.081l0.493-0.091
		l0.531-0.1l0.567-0.109l0.602-0.117l0.632-0.126l0.663-0.137l0.69-0.143l0.716-0.154l0.738-0.162l0.76-0.172l0.779-0.182
		l0.795-0.189l0.809-0.199l0.823-0.209l0.832-0.218l0.841-0.228l0.846-0.236l0.85-0.246l0.852-0.255l0.851-0.265l0.751-0.241
		l0.289-0.179l0.373-0.243l0.374-0.257l0.374-0.268l0.374-0.281l0.373-0.294l0.372-0.306l0.37-0.318l0.368-0.331l0.365-0.343
		l0.362-0.354l0.357-0.367l0.354-0.379l0.348-0.391l0.343-0.402l0.336-0.414l0.331-0.426l0.324-0.438l0.315-0.448l0.308-0.461
		l0.3-0.471l0.29-0.483l0.281-0.493l0.27-0.504l0.261-0.517l0.249-0.526l0.238-0.537l0.226-0.548l0.214-0.56l0.2-0.569l0.188-0.579
		l0.173-0.591l0.154-0.586l0.142-0.606l0.13-0.628l0.117-0.651l0.108-0.674l0.096-0.697l0.086-0.723l0.076-0.746l0.067-0.772
		l0.058-0.796l0.05-0.824l0.042-0.85l0.035-0.877l0.027-0.904l0.022-0.933l81.283,13.831l-7.156-98.097l-1.794-0.308l-0.955-0.058
		l-1.009-0.059l-1.058-0.06l-1.101-0.061l-1.136-0.061l-1.165-0.063l-1.189-0.062l-1.205-0.063l-1.218-0.062l-1.221-0.062
		l-1.22-0.061l-1.211-0.06l-1.197-0.059l-1.466-0.072l-1.975-0.095l-1.077-0.052l-1.03-0.049l-0.979-0.047l-0.92-0.044l-0.856-0.04
		l-0.784-0.038l-0.707-0.034l-0.624-0.03l-0.535-0.026l-0.438-0.021l-0.338-0.017l-0.232-0.013l-0.126-0.008l-1.218-0.105
		l-1.264-0.089l-1.324-0.076l-1.384-0.061l-1.439-0.046l-1.494-0.031l-1.549-0.015l-1.599,0l-1.648,0.017l-1.696,0.033l-1.741,0.05
		l-1.786,0.068l-1.827,0.085l-1.868,0.103l-1.906,0.121l-1.943,0.14l-1.978,0.158l-2.012,0.178l-2.042,0.196l-2.072,0.217
		l-2.099,0.237l-2.126,0.257l-2.149,0.277l-2.172,0.299l-2.192,0.32l-2.212,0.341l-2.228,0.364l-2.244,0.385l-2.256,0.408
		l-2.269,0.431l-2.278,0.454c-9.149,1.911-18.22,4.189-26.946,7.604C111.491,40.563,109.286,41.288,110.509,42.387z"/>
	<path fill-rule="evenodd" clip-rule="evenodd" fill="#009FE3" d="M212.602,27.867c-12.366-3.95-34.239-9.309-64.955-10.737
		c-31.94-1.485-75.207-2.656-106.309,7.466C20.629,31.336,11.489,44.17,11.489,55.113c0,14.901,0,83.856,0,83.856
		s-0.584,27.466,25.128,31.264c25.712,3.799,70.417,8.182,87.07,8.182c16.655,0,38.276-2.046,38.276-2.046s45.288-4.09,54.639-6.428
		c9.35-2.338,15.485-9.058,18.115-19.576c1.189-4.758,1.959-8.142,2.447-10.42c-29.674,2.237-69.601,9.635-90.273,22.296
		c-8.003-1.2-7.003-8.602,0.8-14.005c18.182-8.651,51.943-13.112,79.788-13.539l-0.01-0.002l-0.386-0.099l10.8,1.739
		c0.033-0.195,0.048-0.287,0.048-0.287l-2.922-9.059l-81.283-13.831l-0.022,0.933l-0.027,0.904l-0.035,0.877l-0.042,0.85
		l-0.05,0.824l-0.058,0.796l-0.067,0.772l-0.076,0.746l-0.086,0.723l-0.096,0.697l-0.108,0.674l-0.117,0.651l-0.13,0.628
		l-0.142,0.606l-0.154,0.586l-0.173,0.591l-0.188,0.579l-0.2,0.569l-0.214,0.56l-0.226,0.548l-0.238,0.537l-0.249,0.526
		l-0.261,0.517l-0.27,0.504l-0.281,0.493l-0.29,0.483l-0.3,0.471l-0.308,0.461l-0.315,0.448l-0.324,0.438l-0.331,0.426l-0.336,0.414
		l-0.343,0.402l-0.348,0.391l-0.354,0.379l-0.357,0.367l-0.362,0.354l-0.365,0.343l-0.368,0.331l-0.37,0.318l-0.372,0.306
		l-0.373,0.294l-0.374,0.281l-0.374,0.268l-0.374,0.257l-0.373,0.243l-0.289,0.179l-0.751,0.241l-0.851,0.265l-0.852,0.255
		l-0.85,0.246l-0.846,0.236l-0.841,0.228l-0.832,0.218l-0.823,0.209l-0.809,0.199l-0.795,0.189l-0.779,0.182l-0.76,0.172
		l-0.738,0.162l-0.716,0.154l-0.69,0.143l-0.663,0.137l-0.632,0.126l-0.602,0.117l-0.567,0.109l-0.531,0.1l-0.493,0.091
		l-0.453,0.081l-0.411,0.073l-0.366,0.065l-0.319,0.056l-0.272,0.047l-0.222,0.039l-0.174,0.031l-0.135,0.026l-0.206,0.049
		l-0.124,0.02l-0.466,0.166l-0.442,0.229l-0.43,0.282l-0.422,0.328l-0.422,0.37l-0.423,0.407l-0.426,0.442l-0.427,0.472l-0.43,0.496
		l-0.432,0.52l-0.435,0.536l-0.433,0.548l-0.433,0.558l-0.431,0.561l-0.428,0.56l-0.379,0.495l-0.376,0.49l-0.373,0.48l-0.37,0.47
		l-0.367,0.455l-0.363,0.44l-0.36,0.422l-0.356,0.4l-0.351,0.377l-0.347,0.352l-0.34,0.322l-0.334,0.293l-0.327,0.259l-0.318,0.226
		l-0.306,0.188l-1.019,0.523l0.341,0.961l0.042,0.171l0.02,0.145l0.003,0.124l-0.011,0.11l-0.024,0.105l-0.038,0.107l-0.056,0.114
		l-0.077,0.126l-0.1,0.138l-0.122,0.148l-0.147,0.16l-0.168,0.17l-0.188,0.181l-0.206,0.192l-0.223,0.204l-0.147,0.134l-0.158,0.148
		l-0.168,0.16l-0.174,0.176l-0.179,0.19l-0.182,0.206l-0.184,0.225l-0.183,0.242l-0.179,0.261l-0.175,0.281l-0.169,0.302
		l-0.161,0.324l-0.151,0.346l-0.141,0.369l-0.127,0.393l-0.104,0.381l-0.1,0.314l-0.13,0.288l-0.174,0.297l-0.221,0.306
		l-0.267,0.309l-0.314,0.313l-0.359,0.311l-0.405,0.31l-0.355,0.244l-0.39,0.245l-0.42,0.242l-0.45,0.238l-0.479,0.233l-0.506,0.23
		l-0.532,0.222l-0.556,0.214l-0.579,0.205l-0.602,0.196l-0.623,0.186l-0.642,0.174l-0.66,0.162l-0.678,0.15l-0.693,0.137
		l-0.711,0.122l-0.345,0.053l-0.353,0.051l-0.355,0.047l-0.359,0.043l-0.362,0.039l-0.366,0.035l-0.368,0.031l-0.371,0.027
		l-0.373,0.023l-0.376,0.019l-0.378,0.015l-0.38,0.011l-0.382,0.006l-0.384,0.001l-0.385-0.003l-0.388-0.008l-0.388-0.014
		l-0.39-0.018l-0.391-0.023l-0.393-0.027l-0.393-0.033l-0.395-0.038l-0.395-0.043l-0.395-0.049l-0.395-0.055l-0.396-0.06
		l-0.396-0.065l-0.396-0.071l-0.396-0.077l-0.396-0.083l-0.396-0.089l-0.394-0.095l-0.471-0.122l-0.47-0.131l-0.469-0.14
		l-0.468-0.147l-0.465-0.158l-0.464-0.167l-0.462-0.178l-0.46-0.187l-0.456-0.196l-0.454-0.206l-0.451-0.217l-0.448-0.227
		l-0.444-0.236l-0.441-0.249l-0.437-0.258l-0.434-0.268l-0.428-0.281l-0.425-0.291l-0.42-0.304l-0.416-0.315l-0.411-0.325
		l-0.405-0.338l-0.4-0.35l-0.395-0.361l-0.388-0.374l-0.383-0.387l-0.377-0.399l-0.371-0.412l-0.364-0.425l-0.358-0.438
		l-0.351-0.451l-0.33-0.444l-0.055-0.089l-0.032-0.069l-0.022-0.071l-0.014-0.071l-0.004-0.072l0.004-0.074l0.013-0.072l0.244-0.791
		l-0.906-0.531l-0.298-0.17l-0.291-0.164l-0.284-0.156l-0.277-0.151l-0.271-0.146l-0.262-0.141l-0.255-0.137l-0.55-0.295
		l-0.517-0.282l-0.483-0.274l-0.448-0.27l-0.414-0.271l-0.381-0.275l-0.351-0.286l-0.322-0.301l-0.297-0.323l-0.276-0.352
		l-0.257-0.387l-0.239-0.432l-0.223-0.484l-0.206-0.544l-0.19-0.61l-0.172-0.677l-0.155-0.816l-0.082-0.741l-0.017-0.672l0.04-0.605
		l0.091-0.546l0.133-0.49l0.171-0.439l0.203-0.393l0.232-0.354l0.256-0.317l0.278-0.284l0.295-0.252l0.309-0.225l0.315-0.196
		l0.318-0.17l1.006-0.461l-0.285-1.127l-0.095-0.398l-0.086-0.387l-0.078-0.372l-0.069-0.356l-0.061-0.337l-0.043-0.263l0.008,0.009
		l0.281,0.333l0.291,0.356l0.299,0.378l0.307,0.396l0.313,0.412l0.317,0.424l0.771,1.047l2.763-1.449l-0.036-0.66l-0.002-0.047
		l-0.002-0.04l-0.001-0.037l-0.001-0.044v-0.048l0-0.036l0.006-0.219l0.016-0.224l0.025-0.23l0.034-0.234l0.045-0.239l0.054-0.244
		l0.063-0.246l0.071-0.244l0.122-0.363l0.139-0.361l0.158-0.362l0.175-0.358l0.192-0.354l0.207-0.347L73.1,135.6l0.237-0.327
		l0.251-0.314l0.263-0.301l0.275-0.283l0.284-0.266l0.294-0.246l0.302-0.223l0.309-0.201l0.324-0.182l0.745-0.374l0.567-0.263
		l0.398-0.166l0.077-0.026l1.284,1.207l-0.113-2.219l-0.001-0.036l-0.001-0.025v-0.016l0.029-0.181l0.059-0.224l0.086-0.241
		l0.114-0.257l0.143-0.271l0.172-0.285l0.198-0.295l0.224-0.304l0.249-0.313l0.272-0.318l0.293-0.324l0.314-0.328l0.334-0.333
		l0.35-0.336l0.366-0.338l0.38-0.339l0.395-0.342l0.405-0.342l0.415-0.341l0.423-0.341l0.431-0.34l0.437-0.338l0.441-0.336
		l0.444-0.333l0.446-0.331l0.446-0.327l0.445-0.322l0.442-0.317l0.439-0.314l0.433-0.309l0.427-0.302l0.417-0.296l0.3-0.211
		l0.291-0.202l0.284-0.194l0.274-0.185l0.265-0.178l0.254-0.169l0.243-0.16l0.231-0.15l0.25-0.162l0.363-0.234l0.175-0.112
		l0.161-0.106l0.145-0.095l0.128-0.086l0.68-0.466l-0.248-0.653l0.311-1.297l-1.551,0.213l-0.274,0.038l-0.276,0.039l-0.28,0.04
		l-0.28,0.041l-0.285,0.041l-0.288,0.042l-0.29,0.043l-0.292,0.043l-0.297,0.045l-0.299,0.044l-0.303,0.046l-0.305,0.045
		l-0.308,0.047l-0.312,0.047l-0.355,0.054l-0.011,0.002l-0.267,0.04l-0.31,0.047l-0.313,0.047l-0.316,0.048l-0.318,0.047
		l-0.322,0.048l-0.324,0.049l-0.264,0.039h-0.002l-0.12,0.017l-0.064,0.009l-0.066,0.01l-0.071,0.01l-0.071,0.011l-0.076,0.011
		l-0.08,0.011l-0.082,0.013l-0.329,0.046l-0.371,0.054l-0.408,0.058l-0.445,0.063l-0.478,0.065l-0.511,0.069l-0.542,0.072
		l-0.57,0.074l-0.595,0.075l-0.622,0.077l-0.643,0.077l-0.664,0.078l-0.682,0.076l-0.699,0.076l-0.714,0.073l-1.781,0.178
		l0.385,1.355l0.106,0.364l0.11,0.365l0.106,0.346l0.095,0.304l0.076,0.241l0.049,0.155l0.024,0.08l0.154,0.414l0.138,0.38
		l0.129,0.367l0.114,0.353l0.098,0.332l0.077,0.306l0.053,0.273l0.021,0.187l-0.098-0.049l-0.247-0.129l-0.258-0.142l-0.267-0.153
		l-0.275-0.165l-0.28-0.174l-0.284-0.186l-0.284-0.192l-0.283-0.201l-0.281-0.209l-0.275-0.216l-0.269-0.22l-0.259-0.226
		l-0.249-0.229l-0.236-0.232l-0.213-0.225l-0.09-0.102l-0.082-0.095l-0.078-0.093l-0.074-0.092l-0.071-0.093l-0.069-0.093
		l-0.066-0.094l-0.062-0.09l-0.02-0.03l-0.024-0.037l-0.042-0.068l-0.02-0.034l-0.022-0.037l-0.021-0.035l-0.429-0.748l-1.047,0.49
		l-0.337,0.152l-0.366,0.16l-0.394,0.166l-0.418,0.168l-0.44,0.169l-0.46,0.168l-0.479,0.164l-0.494,0.158l-0.508,0.15l-0.519,0.141
		l-0.528,0.129l-0.535,0.114l-0.539,0.098l-0.541,0.08l-0.54,0.06l-0.422,0.028l-0.42,0.009l-0.419-0.009l-0.417-0.025l-0.413-0.042
		l-0.409-0.055l-0.404-0.069l-0.397-0.08l-0.389-0.092l-0.381-0.101l-0.371-0.108l-0.36-0.115l-0.348-0.12l-0.335-0.124
		l-0.321-0.126l-2.692-1.115l1.485,2.616l0.19,0.36l0.166,0.346l0.136,0.331l0.103,0.311l0.067,0.29l0.031,0.266l-0.002,0.155
		l-0.02,0.017l-0.036,0.021l-0.089-0.023l-0.199-0.063l-0.205-0.076l-0.21-0.089l-0.214-0.103l-0.217-0.116l-0.218-0.131
		l-0.219-0.143l-0.218-0.157l-0.217-0.171l-0.214-0.185l-0.211-0.197l-0.206-0.212l-0.202-0.226l-0.195-0.239l-0.191-0.256
		l-0.067-0.098l-0.071-0.104l-0.069-0.107l-0.067-0.107l-0.065-0.11l-0.066-0.112l-0.063-0.114l-0.058-0.109l-0.009-0.019
		l-0.013-0.025l-0.012-0.024l-0.012-0.023l-0.011-0.021l-0.012-0.025l-0.014-0.029l-0.268-0.522l-0.825,0.012l-0.232-0.025
		l-0.249-0.058l-0.268-0.092l-0.284-0.127l-0.299-0.164l-0.312-0.2l-0.324-0.237l-0.222-0.18l-0.231-0.199l-0.236-0.218l-0.24-0.233
		l-0.243-0.25l-0.247-0.265l-0.249-0.278l-0.25-0.292l-0.25-0.304l-0.251-0.316l-0.25-0.326l-0.25-0.336l-0.249-0.347l-0.248-0.353
		l-0.245-0.363l-0.241-0.366l-0.298-0.472l-0.292-0.48l-0.284-0.488l-0.277-0.494l-0.268-0.499l-0.259-0.504l-0.248-0.505
		l-0.237-0.506l-0.225-0.506l-0.213-0.504l-0.2-0.5l-0.186-0.494l-0.17-0.487l-0.155-0.479l-0.139-0.469l-0.121-0.451l-0.014-0.063
		l-0.037-0.163l-0.019-0.078l-0.017-0.076l-0.018-0.079l-0.018-0.082l-0.015-0.065l-0.043-0.222l-0.039-0.227l-0.034-0.221
		l-0.028-0.216l-0.022-0.208l-0.017-0.202l-0.011-0.196l-0.006-0.189l0.001-0.181l0.006-0.173l0.012-0.166l0.016-0.155l0.023-0.148
		l0.027-0.139l0.032-0.129l0.242-0.812l-0.895-0.52l-0.258-0.163l-0.237-0.165l-0.219-0.166l-0.199-0.167l-0.182-0.167l-0.163-0.168
		l-0.106-0.121l-0.045-0.079l-0.089-0.152l-0.089-0.152l-0.088-0.151l-0.088-0.151l-0.088-0.151l-0.088-0.152l-0.045-0.077
		l-0.005-0.016l-0.027-0.084l-0.024-0.082l-0.021-0.081l-0.019-0.085l-0.017-0.085l-0.014-0.085l-0.004-0.023l0.003-0.086
		l0.009-0.318l0.004-0.16l0.004-0.158l0.009-0.32l0.002-0.093l0.005-0.032l0.019-0.092l0.02-0.092l0.022-0.091l0.024-0.09
		l0.026-0.092l0.028-0.092l0.017-0.054l0.051-0.113l0.071-0.158l0.072-0.16l0.071-0.159l0.071-0.159l0.071-0.157l0.072-0.16
		l0.051-0.114l0.161-0.274l0.193-0.299l0.208-0.298l0.221-0.295l0.234-0.293l0.245-0.288l0.254-0.284l0.261-0.277l0.269-0.271
		l0.274-0.264l0.278-0.255l0.279-0.248l0.281-0.238l0.279-0.229l0.278-0.218l0.529-0.399l0.093-0.367l0.015-0.055l0.015-0.051
		l0.016-0.05l0.017-0.05l0.018-0.051l0.02-0.052l0.014-0.035l0.112-0.244l0.125-0.219l0.142-0.207l0.16-0.196l0.177-0.184
		l0.191-0.171l0.208-0.158l0.228-0.148l0.108-0.062l0.117-0.062l0.118-0.057l0.12-0.052l0.123-0.048l0.124-0.043l0.124-0.039
		l0.686-0.184l0.122-0.704l0.027-0.129l0.032-0.127l0.034-0.123l0.039-0.121l0.043-0.118l0.046-0.115l0.045-0.102l0.137-0.266
		l0.149-0.242l0.167-0.226l0.181-0.209l0.197-0.192l0.21-0.175l0.224-0.157l0.244-0.144l0.115-0.059l0.123-0.057l0.124-0.051
		l0.124-0.044l0.127-0.039l0.126-0.034l0.127-0.027l0.532-0.09l0.367-0.572l0.16-0.222l0.177-0.224l0.19-0.224l0.202-0.225
		l0.211-0.226l0.217-0.226l0.221-0.227l0.106-0.108l0.104-0.108l0.104-0.108l0.1-0.107l0.098-0.105l0.093-0.103l0.089-0.102
		l0.837-1.009l-1.369-0.573L51.69,82.54l-0.212-0.129l-0.198-0.144l-0.184-0.158l-0.17-0.172l-0.154-0.188l-0.143-0.21l-0.062-0.106
		l-0.063-0.121l-0.059-0.126l-0.054-0.13l-0.049-0.138l-0.044-0.144l-0.04-0.151l-0.032-0.148l-0.067-0.453l-0.032-0.456
		l-0.001-0.464l0.027-0.468l0.053-0.467l0.076-0.462l0.094-0.452l0.107-0.436l0.119-0.418l0.125-0.393l0.126-0.366l0.125-0.332
		l0.119-0.296l0.108-0.255l0.094-0.209l0.126-0.271l0.083-0.463l0.063-0.349l0.063-0.352l0.062-0.349l0.063-0.349l0.062-0.35
		l0.063-0.35l0.085-0.476l-0.042-0.38l-0.022-0.247l-0.017-0.251l-0.013-0.254l-0.006-0.26l-0.001-0.264l0.004-0.268l0.01-0.268
		l0.022-0.363l0.032-0.367l0.043-0.373l0.052-0.376l0.064-0.382l0.074-0.386l0.086-0.391l0.095-0.394l0.107-0.397l0.118-0.401
		l0.13-0.404l0.141-0.406l0.153-0.41l0.164-0.412l0.176-0.414l0.187-0.416l0.2-0.417l0.212-0.418l0.225-0.42l0.236-0.42l0.249-0.421
		l0.262-0.42l0.274-0.421l0.287-0.42l0.3-0.421l0.314-0.419l0.326-0.419l0.339-0.417l0.353-0.417l0.366-0.415l0.379-0.413
		l0.395-0.412l0.182-0.184l0.187-0.185l0.19-0.186l0.192-0.184l0.195-0.184l0.198-0.183l0.201-0.183l0.203-0.182l0.207-0.182
		l0.21-0.181l0.212-0.179l0.215-0.178l0.219-0.179l0.221-0.177l0.225-0.177l0.512-0.395l0.091-0.608l0.045-0.263l0.055-0.275
		l0.064-0.283l0.075-0.292l0.085-0.295l0.097-0.296l0.108-0.294l0.121-0.29l0.134-0.282l0.147-0.273l0.16-0.26l0.172-0.246
		l0.186-0.228l0.199-0.211l0.389-0.349l0.237-0.571l0.168-0.379l0.182-0.382l0.195-0.384l0.21-0.384l0.225-0.385l0.241-0.385
		l0.258-0.382l0.277-0.382l0.295-0.378l0.314-0.375l0.335-0.371l0.357-0.366l0.379-0.361l0.402-0.355l0.433-0.353l0.017-0.013
		l0.392-0.292l0.354-0.24l0.339-0.208l0.324-0.177l0.31-0.148l0.293-0.119l0.278-0.092l0.264-0.068l0.25-0.045l0.234-0.025
		l0.221-0.005l0.21,0.012l0.2,0.029l0.19,0.044l0.183,0.059l0.173,0.073l0.181,0.096l0.165,0.108l0.156,0.126l0.149,0.144
		l0.141,0.16l0.131,0.177l0.124,0.194l0.115,0.212l0.095,0.202l0.089,0.216l0.081,0.227l0.072,0.238l0.064,0.246l0.056,0.252
		l0.047,0.257l0.039,0.262l0.023,0.189l0.016,0.189l0.011,0.189l0.004,0.192l-0.001,0.193l-0.006,0.191l-0.012,0.19l-0.141,1.49
		l1.592-0.454l0.347-0.097l0.35-0.095l0.352-0.093l0.356-0.091l0.358-0.089l0.361-0.088l0.364-0.085l0.572-0.13l0.578-0.125
		l0.585-0.122l0.592-0.116l0.6-0.113l0.606-0.107l0.613-0.103l0.621-0.098l0.629-0.094l0.635-0.088l0.644-0.084l0.651-0.079
		l0.658-0.074l0.665-0.068l0.673-0.064l0.68-0.058l0.689-0.053l0.696-0.047l0.704-0.042l0.711-0.037l0.719-0.031l0.727-0.025
		l0.734-0.02l0.742-0.014l0.75-0.008l0.757-0.002l0.766,0.004l0.773,0.01l0.782,0.016l0.789,0.022l0.389,0.014l-0.459,1.231
		l2.033-0.535l0.38-0.096l0.382-0.093l0.383-0.088l0.385-0.084l0.385-0.08l0.386-0.074l0.386-0.069l0.388-0.064l0.386-0.058
		l0.385-0.053l0.385-0.046l0.384-0.041l0.382-0.034l0.381-0.027c1.376-0.074,3.046-0.811,4.469-1.311
		c-1.224-1.098,0.982-1.824,3.616-2.854c8.726-3.415,17.797-5.692,26.946-7.604l2.278-0.454l2.269-0.431l2.256-0.408l2.244-0.385
		l2.228-0.364l2.212-0.341l2.192-0.32l2.172-0.299l2.149-0.277l2.126-0.257l2.099-0.237l2.072-0.217l2.042-0.196l2.012-0.178
		l1.978-0.158l1.943-0.14l1.906-0.121l1.868-0.103l1.827-0.085l1.786-0.068l1.741-0.05l1.696-0.033l1.648-0.017l1.599,0l1.549,0.015
		l1.494,0.031l1.439,0.046l1.384,0.061l1.324,0.076l1.264,0.089l1.218,0.105l0.126,0.008l0.232,0.013l0.338,0.017l0.438,0.021
		l0.535,0.026l0.624,0.03l0.707,0.034l0.784,0.038l0.856,0.04l0.92,0.044l0.979,0.047l1.03,0.049l1.077,0.052l1.975,0.095
		l1.466,0.072l1.197,0.059L212.602,27.867L212.602,27.867z M291.986,70.599c0,0-0.584,1.461-2.045,3.214s-2.63,4.383,2.337,7.889
		c4.968,3.506,3.214,10.227,3.214,10.227s-16.361-7.597-23.666-10.519c-7.305-2.921-30.388-14.901-40.614-18.992
		c-10.226-4.09-24.835-6.428-35.062-6.72c-10.227-0.292-22.79,0.584-22.79,0.584c5.259-3.506,14.316-6.72,21.037-8.473
		c6.72-1.753,23.959-1.461,51.132,4.675C272.701,58.62,291.986,70.599,291.986,70.599L291.986,70.599z M242.315,91.344
		c0,0,2.922,11.103-7.597,10.519c-10.518-0.585-28.927-0.293-43.828,1.168c-14.9,1.461-27.173,4.091-27.173,4.091
		s1.753-10.811,4.091-11.979c2.338-1.169,27.465-6.72,42.951-6.72C226.244,88.422,242.315,91.344,242.315,91.344z"/>
	<g>
		<path d="M85.608,81.85c0.592,5.268,5.832,5.164,9.747,4.688c0.877-0.107,1.788-0.251,2.715-0.431
			c4.389-0.851,8.873-2.456,11.636-4.502c0.244-0.181,0.594-0.133,0.781,0.106c0.187,0.239,0.141,0.581-0.104,0.762
			c-3.006,2.228-7.787,3.955-12.425,4.854c-0.94,0.182-1.889,0.332-2.827,0.446c-0.934,0.114-1.84,0.189-2.703,0.224
			c-0.391,0.016-0.767,0.023-1.125,0.023c-0.072,0-0.233-0.096-0.231-0.004c0.006,0.311-0.21,0.629-0.498,0.722
			c-0.034,0.011-11.948,3.816-16.42,8.006c-0.225,0.21-0.599,0.219-0.835,0.018c-0.237-0.199-0.247-0.533-0.022-0.743
			c2.045-1.916,5.454-3.73,8.698-5.183c-3.14,0.331-7.819,1.053-10.553,1.679c-0.56,0.128-1.029,0.25-1.375,0.361
			c-0.023,0.131-0.091,0.259-0.201,0.365c-0.297,0.287-0.797,0.313-1.117,0.06c-0.08-0.064-0.137-0.138-0.169-0.222h0
			c-0.203-0.536,0.226-0.963,1.14-1.291c0.425-0.153,1.038-0.319,1.776-0.488c1.865-0.427,4.62-0.898,7.198-1.265
			c-4.782-0.287-11.604-0.468-14.016-0.146c-0.33,0.043-0.55-0.199-0.493-0.542c0.057-0.343,0.371-0.657,0.7-0.701
			c2.292-0.305,8.377-0.177,13.119,0.073c-1.132-1.06-3.028-2.173-4.44-2.026c-0.332,0.035-0.547-0.215-0.481-0.559
			c0.067-0.343,0.392-0.649,0.724-0.684c1.807-0.188,4.068,1.089,5.352,2.301c0.353,0.333,0.638,0.664,0.824,0.959
			c0.027,0.044,0.052,0.086,0.076,0.129c0.398,0.027,0.777,0.054,1.133,0.082c1.039,0.08,1.881,0.163,2.421,0.243
			c0.699,0.103,1.17,0.235,1.388,0.398c1.986-0.796,3.684-1.395,4.643-1.721c-2.946-0.64-4.753-2.755-5.31-5.738
			c-0.378,0.108-0.811,0.345-1.063,0.413v-0.003c-0.01,0.002-0.019,0.005-0.028,0.007l-0.435-1.645l-1.955,1.476l-1.188-1.359
			c0.891-0.722,1.866-1.403,2.908-2.038c1.038-0.632,2.134-1.216,3.267-1.746c5.794-2.71,12.82-4.153,18.412-3.694l-0.813,2.004
			c-6.939-0.569-13.591,1.655-19.671,4.75c5.323-1.548,14.311-4.604,19.761-3.444l-1.071,1.967
			c-1.216-0.259-2.914-0.174-4.818,0.106c0.199,0.576,0.386,1.403,0.441,2.543c0.255,5.205-5.898,5.549-9.488,3.638
			c-1.472-0.783-2.015-1.951-2.643-3.329C85.835,81.785,85.721,81.817,85.608,81.85L85.608,81.85z M134.431,38.712
			c0.327-2.274-1.446-2.202-2.997-2.588l-1.52,1.96c0.282,0.07,0.665,0.148,1.042,0.224c0.903,0.183,0.738,0.603,0.061,0.604
			c-1.246,0.003-2.398-0.708-2.17-2.061c0.031-0.182,0.063-0.374,0.086-0.583c0.083-0.01-0.534-0.012-0.41-0.023
			c4.016-1.082,6.157-1.413,10.112-2.258c24.169-5.164,47.218-6.316,59.629-5.147c0.715,0.067,1.534-0.441,1.829-1.134
			c0.296-0.693-0.044-1.31-0.759-1.378c-12.627-1.189-36.043-0.025-60.554,5.212c-4.802,1.026-9.619,2.2-14.372,3.532
			c-4.776,1.338-9.539,3.299-14.221,4.996l-0.031,0.012c-0.593,0.215-0.996,0.907-0.898,1.543c0.097,0.636,0.658,0.978,1.251,0.762
			l0.031-0.011c4.556-1.651,9.231-3.583,13.95-4.906c0.723-0.202,1.367-0.361,2.088-0.556c-0.17,1.011-0.251,1.999,1.011,3.197
			C128.899,41.356,134.026,41.531,134.431,38.712L134.431,38.712z M112.146,109.217c-0.307,0.087-0.564-0.108-0.574-0.438
			c-0.01-0.328,0.229-0.666,0.536-0.754l0.005-0.002l0.006-0.002c0.276-0.076,0.594-0.104,0.947-0.088l-0.001,0.001
			c0.312,0.015,0.657,0.064,1.034,0.145c1.834,0.395,4.623,1.591,8.011,3.329l0.005,0.002l0.013,0.006v0.001
			c0.625,0.319,1.329,0.614,2.085,0.886c0.749,0.269,1.548,0.51,2.372,0.724c4.216,1.092,8.991,1.436,11.272,1.048
			c0.324-0.056,0.554,0.177,0.512,0.517c-0.041,0.341-0.337,0.662-0.661,0.717c-2.438,0.415-7.461,0.068-11.843-1.067
			c-0.849-0.22-1.679-0.471-2.465-0.752c-0.777-0.279-1.517-0.592-2.197-0.939l-0.005-0.002l-0.013-0.007h0
			c-3.308-1.696-6.011-2.859-7.754-3.235c-0.319-0.067-0.598-0.109-0.832-0.12l-0.002,0.002c-0.19-0.009-0.339,0.001-0.447,0.029
			h-0.001C112.15,109.216,112.148,109.217,112.146,109.217l0.005-0.001c0,0,0,0,0,0L112.146,109.217L112.146,109.217z
			 M112.146,109.217L112.146,109.217C112.146,109.217,112.146,109.217,112.146,109.217L112.146,109.217z M51.257,71.211
			c-2.619-2.524-4.717-4.843-4.729-4.857l-1.879,1.52c0.015,0.016,2.83,3.13,6.109,6.134c-0.374,0.78-1.748,3.901-1.22,6.629
			c0.102,0.525,0.282,0.983,0.525,1.375c0.462,0.745,1.152,1.266,1.96,1.57c-0.168,0.209-0.439,0.489-0.722,0.778
			c-0.592,0.605-1.218,1.247-1.644,1.956c-0.448,0.066-0.883,0.213-1.292,0.433c-0.813,0.436-1.472,1.125-1.881,2.004
			c-0.171,0.37-0.295,0.776-0.364,1.211c-0.423,0.106-0.831,0.275-1.207,0.501c-0.756,0.454-1.359,1.114-1.694,1.935
			c-0.071,0.173-0.129,0.354-0.173,0.541c-1.52,1.125-3.253,2.763-4.251,4.541c-3.983-1.367-10.24-1.806-14.333-1.911
			c-0.96-0.024-1.768-0.032-2.388-0.029c-0.64,0.003-1.142,0.018-1.443,0.037c-0.108,0.006-0.146,0.008-0.155,0.009
			c-0.335,0.031-0.667,0.337-0.74,0.681c-0.074,0.345,0.138,0.6,0.473,0.568c0.082-0.007,0.097-0.01,0.104-0.01
			c0.246-0.015,0.716-0.027,1.368-0.03c0.67-0.003,1.479,0.003,2.349,0.025c4.093,0.105,10.389,0.545,14.195,1.929
			c-0.096,0.285-0.169,0.573-0.217,0.862l-8.017-0.39c-0.351-0.018-0.741,0.25-0.87,0.596c-0.129,0.346,0.051,0.64,0.402,0.657
			l8.45,0.411c0.037,0.292,0.105,0.58,0.209,0.863c-14.645,0.686-21.613,6.441-21.634,6.458c-0.238,0.191-0.265,0.533-0.06,0.762
			c0.205,0.228,0.564,0.257,0.803,0.064c0.02-0.016,6.829-5.646,21.598-6.071c0.454,0.549,1.088,1.065,1.935,1.535
			c-0.284,0.857-0.247,2.023,0.024,3.352c-0.089-0.058-0.205-0.079-0.334-0.054c-0.027,0.005-9.518,1.718-11.367,5.681
			c-0.142,0.305,0.026,0.591,0.375,0.639c0.349,0.048,0.747-0.16,0.89-0.466c1.435-3.075,9.959-4.625,9.983-4.63
			c0.261-0.05,0.501-0.275,0.598-0.539c0.635,2.539,2.035,5.553,3.687,8.107c1.317,2.038,2.779,3.819,4.105,4.85
			c0.972,0.755,1.921,1.154,2.795,1.082c0.033,0.067,0.065,0.135,0.1,0.201c0.18,0.348,0.381,0.674,0.596,0.977
			c1.107,1.56,2.603,2.47,3.843,2.759c0.388,0.091,1-0.344,1.037-0.738l0.002-0.016l-0.001-0.003
			c0.085-0.98-0.415-1.999-1.019-3.042c1.669,0.712,4.069,1.448,6.537,1.225c3.066-0.28,6.107-1.544,7.705-2.304
			c0.063,0.112,0.129,0.223,0.202,0.332c0.19,0.288,0.416,0.572,0.666,0.848l0.001,0.001c1.259,1.389,3.178,2.6,4.467,3.224
			c0.479,0.232,1.171-0.235,1.146-0.773c-0.001-0.028-0.002-0.062-0.006-0.102h0.001c-0.06-0.795-0.446-1.835-0.834-2.88
			c0.002-0.001-0.42-1.309-0.651-2.154c3.928-0.379,7.389-0.875,9.041-1.112c0.222-0.032,0.411-0.06,0.563-0.08h0.007
			c0.878-0.13,1.725-0.258,2.539-0.38l0.012-0.003c1.688-0.254,3.236-0.486,4.663-0.684c-0.059,0.209-0.046,0.404,0.025,0.563
			c-0.493,0.346-1.843,1.164-3.483,2.324c-4.417,3.127-10.526,7.451-10.846,10.572c-0.002,0.021,0.002,0.187,0.005,0.214
			c-0.009-0.021-0.163-0.215-2.492,0.99c-1.983,1.026-3.53,3.223-4.184,5.346c-0.226,0.734-0.351,1.465-0.354,2.137
			c-0.001,0.136,0.003,0.268,0.012,0.399l-1.588,0.834c-0.865-1.178-1.709-2.288-2.458-3.112c-0.008-0.009-0.016-0.018-0.024-0.026
			c-0.012-0.017-0.024-0.026-0.034-0.036c-0.464-0.464-1.353,0.066-1.26,0.735c0.108,0.777,0.311,1.835,0.606,2.961
			c-1.899,0.808-4.325,2.802-3.219,7.652c0.926,4.06,2.74,5.029,5.774,6.651c0.67,0.358,1.407,0.751,2.21,1.225
			c-0.171,0.451-0.119,0.977,0.187,1.399c3.76,5.214,8.842,8.053,14.035,9.344c4.348,1.08,8.779,1.073,12.586,0.465
			c3.924-0.628,7.262-1.921,9.253-3.356c1.24-0.895,2.047-1.893,2.3-2.914c0.517-2.081,1.574-3.046,2.329-3.735
			c1.228-1.121,2.049-1.873,1.449-3.376c1.915-0.88,3.865-3.429,5.897-6.088c2.271-2.972,4.672-6.113,6.314-6.202l0.523-2.002
			c-3.009,0.162-5.864,3.898-8.565,7.434c-1.344,2.092-2.526,4.309-5.505,5.923c-0.207,0.009-0.418,0.066-0.62,0.177
			c-0.727,0.397-1.051,1.335-0.723,2.093c0.048,0.111-0.148,0.291-0.444,0.561c-1.088,0.994-2.614,2.388-3.361,5.395
			c-0.062,0.25-0.383,0.583-0.909,0.963c-1.533,1.106-4.271,2.129-7.621,2.665c-3.469,0.555-7.516,0.559-11.5-0.432
			c-3.47-0.862-6.889-2.48-9.835-5.145c0.224-0.074,0.432-0.194,0.606-0.359c0.599-0.565,0.571-1.443-0.063-1.959
			c-2.721-2.218-4.902-3.383-6.652-4.318c-2.609-1.394-4.168-2.228-4.926-5.552c-0.642-2.814,0.377-3.895,1.163-4.306
			c0.211,0.576,0.445,1.135,0.703,1.646c0.213,0.423,0.446,0.819,0.698,1.173c0.256,0.357,0.532,0.67,0.83,0.92l0.001,0.001
			l0.01,0.009c0.045,0.037,0.218,0.104,0.284,0.11c0.284,0.026,0.564,0.013,0.841-0.02c1.202,1.175,3.294,2.616,6.264,2.495
			c3.954-0.161,6.069-0.33,6.518-0.368c0.785,0.047,7.559,0.377,9.985-2.151l0.004-0.006l0.001,0.001
			c0.311-0.323,0.812-0.662,1.411-1.005c0.019,0.12,0.058,0.24,0.116,0.352c0.282,0.542,0.936,0.728,1.459,0.415
			c3.257-1.947,5.898-4.018,8.195-6.3c2.278-2.264,4.2-4.723,6.04-7.473c1.922-2.871,3.019-5.297,3.17-7.638
			c0.15-2.336-0.65-4.49-2.518-6.809c-4.803-5.953-10.23-5.142-22.932-3.234l0-0.001c-0.814,0.122-1.661,0.249-2.539,0.379v0.001
			c-0.15,0.021-0.338,0.049-0.556,0.08c-3.921,0.563-18.367,2.64-23.856,0.926l-0.017-0.005l0-0.002
			c-5.495-1.733-5.812-5.6-5.813-5.61c-0.08-0.782-0.765-1.213-1.53-0.961c-0.155,0.051-0.301,0.125-0.435,0.219
			c-0.45-0.87-0.946-1.846-1.33-2.634c-0.921-1.89,3.697,1.162,5.198,1.619c1.501,0.455,3.661-1.834,3.661-1.834l5.511-7.96
			c0,0-4.661,4.292-6.696,4.478c-2.035,0.185-3.408-1.465-4.76,0.155c-1.353,1.624-4.75,0.71-7.042,0.682
			c-2.292-0.028-4.554-7.99-4.554-7.99c0.252,0.173,1.858,8.709,3.006,10.499l6.267,4c-0.064,0.209-0.088,0.427-0.067,0.64
			c0.208,1.872,0.764,6.107-0.465,7.791c-0.109,0.149-0.636-0.163-1.37-0.732c-1.21-0.939-2.57-2.606-3.814-4.531
			c-2.276-3.521-4.231-7.781-4.115-9.772c0.046-0.813,0.269-0.951,0.089-1.853c-0.186-0.936-0.28-0.823-1.028-1.369
			c-0.479-0.349-0.827-0.715-1.065-1.093c-0.108-0.171-0.192-0.345-0.255-0.52c0.069-0.079,0.125-0.169,0.161-0.265
			c0.117-0.313-0.02-0.585-0.309-0.646c0-0.031,0.002-0.063,0.003-0.094c0.009-0.15,0.032-0.303,0.065-0.456
			c0.088-0.053,0.166-0.118,0.229-0.197c0.173-0.215,0.189-0.47,0.07-0.665c0.039-0.085,0.081-0.168,0.125-0.252
			c0.565-1.069,1.521-2.102,2.5-2.944c0.306,0.97,0.972,2.048,2.122,3.178l1.824-1.565c-1.074-1.054-1.642-2.016-1.847-2.839
			c-0.133-0.536-0.106-0.983,0.035-1.327c0.095-0.234,0.25-0.412,0.434-0.522c0.13-0.079,0.287-0.135,0.459-0.167
			c0.301,1.449,1.192,3.129,2.942,4.842c0.591,0.579,1.584,0.611,2.216,0.071c0.632-0.54,0.665-1.447,0.074-2.027
			c-1.708-1.671-2.442-3.22-2.553-4.444c-0.046-0.508,0.018-0.925,0.162-1.235c0.063-0.135,0.128-0.222,0.186-0.253
			c0.112-0.06,0.304-0.056,0.559,0.022c0.892,0.276,2.161-0.64,2.159-1.563c0-0.344,0.647-1.008,1.233-1.608
			c0.39-0.399,0.763-0.781,1.079-1.201c0.145-0.193,0.209-0.402,0.202-0.602c0.203-0.02,0.407-0.048,0.61-0.087
			c0.805-0.156,1.604-0.462,2.334-0.914c0.477-0.296,0.857-0.602,1.158-0.915c0.2,0.012,0.408-0.035,0.599-0.147
			c3.769-2.223,8.681-3.273,11.448-3.361c0.498-0.016,0.903-0.001,1.195,0.045c0.143,0.021,0.18-0.009,0.196,0.008l0.019,0.018
			l0.002,0.001c0.588,0.588,1.581,0.627,2.217,0.087c0.63-0.535,0.675-1.437,0.104-2.025l0.001-0.001
			c-0.265-0.281-0.724-0.469-1.334-0.563c-0.461-0.072-1.036-0.098-1.693-0.077c-1.088,0.035-2.469,0.2-3.988,0.507
			c0.046-0.039,0.087-0.082,0.12-0.131c0.784-1.153,1.754-2.21,2.906-3.182c1.163-0.98,2.524-1.882,4.081-2.714
			c0.272-0.145,0.397-0.496,0.281-0.783c-0.117-0.287-0.432-0.402-0.704-0.257c-1.672,0.894-3.151,1.877-4.437,2.96
			c-1.295,1.092-2.383,2.278-3.262,3.571c-0.181,0.266-0.074,0.573,0.239,0.685c0.011,0.004,0.022,0.007,0.034,0.011
			c-0.361,0.082-0.729,0.171-1.1,0.268c0.015-0.051,0.026-0.103,0.03-0.154c0.268-3.426,3.313-8.77,6.334-12.191
			c0.578-0.654,1.153-1.235,1.704-1.712c0.521-0.451,1.013-0.804,1.456-1.033v0.001l0.015-0.007c0.275-0.14,0.412-0.491,0.303-0.783
			c-0.107-0.292-0.419-0.415-0.694-0.275l-0.015,0.007l-0.005,0.003c-0.59,0.303-1.219,0.75-1.863,1.308
			c-0.615,0.534-1.252,1.175-1.887,1.895c-3.209,3.634-6.447,9.355-6.738,13.068c-0.007,0.092,0.004,0.175,0.032,0.248
			c-1.56,0.476-3.324,1.085-4.822,1.838l-0.602-1.993l-3.808-2.596l4.264,0.744l0.995-1.969l-7.273-1.269l-0.255,0.506
			c-0.185-0.17-0.369-0.341-0.55-0.511l1.546-0.656c-0.205-0.878-0.289-1.834-0.241-2.84c0.169-3.601,1.961-7.996,5.876-12.001
			c0.673-0.688,1.41-1.365,2.212-2.025c0.11,0.043,0.245,0.072,0.41,0.094c1.702,0.223,2.276-0.751,2.766-2.386
			c2.216-1.403,4.795-2.677,7.771-3.751c0.218,0.525,0.784,0.75,1.311,0.502c0.461-0.218,0.858-0.694,1.158-1.318
			c1.078-0.326,2.201-0.627,3.373-0.899c5.188-1.207,11.283-1.867,18.388-1.747c-4.038,1.441-7.01,3.06-7.026,3.069l0.701,1.641
			c0.027-0.015,9.497-5.178,17.103-4.894l0.103-0.289c4.979-0.275,21.561-1.054,25.095,0.57l1.422-1.841
			c-4.577-2.105-27.378-0.649-27.443-0.645l-0.052,0.208c-2.101,0.095-4.27,0.504-6.326,1.056l0.289-0.775
			c-8.704-0.41-16.049,0.28-22.184,1.707c-0.991,0.23-1.95,0.481-2.879,0.749c0.061-0.569,0.058-1.162-0.019-1.736
			c-0.103-0.774-0.309-1.541-0.632-2.182c-0.359-0.71-0.874-1.292-1.573-1.617c-1.277-0.595-2.964-0.38-5.112,1.288l-0.004,0.003
			l-0.045,0.035c-2.489,1.95-3.854,4.266-4.697,6.36c-1.488,1.227-2.018,3.417-2.208,4.785c-1.254,0.96-2.379,1.96-3.381,2.985
			c-4.402,4.504-6.419,9.472-6.611,13.554C51.142,69.779,51.17,70.518,51.257,71.211L51.257,71.211z M55.399,77.804
			c0.571,0.393,1.121,0.734,1.64,1.008c0.301,1.058,0.339,1.98-0.507,2.504c-0.407,0.252-0.854,0.423-1.303,0.51
			c-0.623,0.12-1.25,0.091-1.796-0.093c-0.554-0.187-1.033-0.534-1.351-1.049c-0.164-0.264-0.285-0.57-0.352-0.916
			c-0.296-1.534,0.165-3.256,0.58-4.382c0.108,0.093,0.217,0.186,0.325,0.277c-0.009,0.012-0.016,0.023-0.018,0.031l-0.745,2.34
			c-0.014,0.045-0.015,0.165,0,0.204c0.002,0.006,0.772,2.119,2.749,0.629C55.056,78.54,55.293,78.174,55.399,77.804L55.399,77.804z
			 M93.939,79.61l0.502,0.497c0.112,0.111,0.144,0.258,0.108,0.428c-0.001,0.007-0.484,2.521-3.732,1.963
			c-1.4-0.24-1.766-0.936-1.735-1.644c-0.308,0.086-0.609,0.171-0.906,0.255c0.035,0.597,0.324,1.171,0.841,1.661
			c0.669,0.633,1.707,1.114,3.071,1.328c0.137,0.021,0.306,0.043,0.51,0.063l0.002,0.003c1.414,0.146,2.318,0.027,2.785-0.321l0,0
			c0.369-0.278,0.513-0.874,0.471-1.738c-0.091-1.858-0.516-2.581-0.653-2.769C94.784,79.421,94.362,79.514,93.939,79.61
			L93.939,79.61z M85.625,147.222c0.042,0.021,0.274,0.06,0.329,0.055c0.704-0.064,1.486-0.156,2.272-0.249
			c0.791-0.093,1.589-0.187,2.256-0.248l0,0l0.014-0.002c0.626-0.055,1.089-0.761,0.696-1.12c-0.638-0.583-1.317-1.283-2.03-2.017
			c-0.503-0.518-1.023-1.055-1.551-1.574c0.192,0.044,0.398,0.082,0.614,0.115c0.818,0.125,1.828,0.196,2.844,0.208
			c2.589,0.028,5.417-0.437,6.176-1.514l-1.791-0.691c-0.109,0.155-1.899,0.206-3.715,0.187c-2.988-0.034-3.102-0.122-5.644,0.292
			c-1.225-1.05-2.456-1.856-3.6-2.031l-0.001-0.002l-0.011-0.002c-0.421-0.063-1.002,0.41-0.988,0.815
			c0.008,0.23,0.032,0.486,0.071,0.766c-0.008-0.004-0.018-0.007-0.026-0.01c-0.502-0.181-1.145,0.02-1.435,0.445
			c-0.636,0.933-1.35,1.306-2.146,1.364c-1.065,0.078-2.359-0.273-3.804-0.719c-0.371-0.114-0.634-0.357-0.804-0.685
			c-0.172-0.334-0.251-0.753-0.249-1.219c0.002-0.497,0.095-1.038,0.263-1.585c0.465-1.507,1.464-3.016,2.683-3.646
			c3.243-1.677,3.904-2.823,4.035-3.28l0.033-0.006c0.209-2.041,5.691-5.921,9.654-8.727c2.718-1.923,4.841-3.427,4.878-4.455
			c0.002-0.066,0-0.129-0.008-0.188c4.027-0.469,6.964-0.506,9.343,0.328c-2.622,1.286-6.646,3.378-7.767,4.607l-0.002,0.003l0,0
			c-0.353,0.386-0.765,0.913-1.232,1.51c-1.402,1.791-3.382,4.319-5.436,4.918l0.085,1.898c3.042-0.887,5.391-3.887,7.055-6.013
			c0.414-0.528,0.779-0.995,1.088-1.334l0.002-0.003l0,0c1.01-1.108,6.2-3.615,8.235-4.573c0.85,0.571,1.635,1.31,2.389,2.244
			c1.595,1.979,2.281,3.743,2.163,5.577c-0.03,0.463-0.112,0.936-0.243,1.424c-0.036-0.107-0.116-0.204-0.236-0.27
			c-0.28-0.154-0.672-0.086-0.874,0.152c-0.166,0.194-0.356,0.421-0.567,0.676c-1.37,1.648-4.228,5.172-6.666,8.18
			c-2.13,2.627-3.21,4.757-3.562,4.792c-0.332,0.033-0.657,0.338-0.727,0.681c-0.06,0.298,0.093,0.526,0.354,0.558
			c-0.529,0.267-1.176,0.582-1.843,0.907c-1.785,0.867-3.668,1.783-4.756,2.912l-0.004,0.006H91.44
			c-1.55,1.615-7.759,1.181-7.777,1.18c-0.005,0-0.161,0.003-0.166,0.003c-0.006,0-2.135,0.194-6.506,0.372
			c-1.573,0.064-2.85-0.453-3.815-1.093c0.215-0.234,0.287-0.552,0.073-0.784c-0.862-0.939-1.87-2.303-2.892-3.704l1.058-0.555
			c0.336,0.516,0.833,0.906,1.511,1.115c1.641,0.506,3.137,0.903,4.564,0.799c1.646-0.121,3.091-0.828,4.327-2.562
			c0.33,1.298,0.915,2.772,1.767,3.945c0.271,0.373,0.569,0.718,0.892,1.017c0.33,0.306,0.692,0.569,1.086,0.774l0.001-0.001
			C85.624,147.221,85.605,147.212,85.625,147.222L85.625,147.222z M54.875,120.411c-0.159-0.342-0.287-0.677-0.362-1
			c-0.019-0.079-0.055-0.146-0.106-0.196c0.121-0.61,0.196-1.325,0.221-2.156c1.043,1.04,2.554,2.049,4.747,2.74h0.007l0.023,0.008
			c2.134,0.666,5.383,0.826,8.87,0.731c-1.426,0.571-3.299,1.173-5.178,1.344c-3.795,0.346-7.597-2.129-7.608-2.136L54.875,120.411
			L54.875,120.411z M152.993,33.801l0.017-0.001l0.008,0.003c0.301-0.027,0.789-0.042,1.092-0.038h0.006
			c5.802,0.089,4.824,4.938,1.417,6.709c4.264-0.65,7.797-0.494,9.347,1.217c0.523,0.578,0.94,1.149,1.261,1.709
			c1.138,1.993,1.16,3.95,0.531,5.753c-0.628,1.803-1.898,3.405-3.35,4.721c-1.086,0.983-2.293,1.817-3.404,2.452
			c-0.531,0.303-1.172,0.098-1.432-0.458c-0.26-0.556-0.039-1.252,0.491-1.555c0.859-0.491,1.805-1.146,2.673-1.933
			c1.048-0.949,1.954-2.078,2.381-3.302c0.428-1.225,0.387-2.598-0.451-4.065c-0.273-0.479-0.623-0.96-1.059-1.44
			c-4.398-4.855-32.505,7.486-32.586,7.521c-0.567,0.247-1.155-0.045-1.311-0.652c-0.156-0.607,0.178-1.3,0.745-1.546
			c0.059-0.026,14.231-6.257,24.86-8.203c-2.985,0.231-4.832,0.455-5.102-2.514c-0.11-1.214,1.648-1.45,2.515-1.528
			c-1.266,5.908,8.342-0.765,1.792-0.867v-0.001c-0.139-0.002-0.292,0-0.455,0.005c-0.169,0.005-0.305,0.012-0.399,0.02
			l-0.001,0.003l-0.017,0.002L152.993,33.801L152.993,33.801z M118.968,48.546c0.237,0.201,0.505,0.408,0.78,0.556l0.001-0.001
			c0.307,0.164,0.637,0.275,0.958,0.246l-0.431,2.011c-4.189,0.384-4.87-6.01-1.627-6.304l1.396-0.127
			C119.007,46.168,118.021,47.143,118.968,48.546L118.968,48.546z M152.565,81.514c6.244-0.57,4.91,5.191,1.896,6.361
			c-1.273,0.494-3.691,0.17-4.598-1.795l1.921-0.727c2.593,3.729,5.684-3.253,0.35-1.828L152.565,81.514L152.565,81.514z
			 M133.505,68.668c-0.147,0.391-0.161,0.717-0.083,1.035l0.003,0.003c1.631,6.672,10.043-1.045,2.48-1.25l0.733-2.012
			c12.091,0.424-2.763,15.018-5.408,4.207l0.001,0c-0.157-0.641-0.128-1.3,0.171-2.095L133.505,68.668L133.505,68.668z
			 M91.581,55.283c-1.165,0.589,0.618,2.34,2.009,0.126l1.395-0.278c0.23,2.51-2.495,3.819-4.708,2.89
			c-2.864-1.203-0.678-5.526,1.747-4.75L91.581,55.283L91.581,55.283z M103.571,48.992c4.501,0.382,5.998,2.087,4.346,4.006
			c-1.815,2.107-5.307,2.262-6.864-0.269l1.515-1.106c0.674,1.063,4.04,1.735,4.125,0.232c-0.696-0.948-2.213-0.974-3.553-0.852
			L103.571,48.992L103.571,48.992z M78.532,51.11c-1.92,4.194,2.2,1.82,1.915,0.032c-0.062-0.393-0.54-0.405-1.035-0.628
			c0.152-0.359,0.257-0.683,0.397-1.317c3.149-0.284,1.742,3.237-0.126,4.928c-3.046,2.757-4.392-2.209-1.612-4.029L78.532,51.11
			L78.532,51.11z M73.105,104.751c-2,1.968-0.598,2.66,1.135,1.608c0.126,1.362-2.999,2.44-3.5,1.335
			c-0.509-1.122-0.154-2.303,0.39-3.334L73.105,104.751L73.105,104.751z M65.341,49.712c0.054-0.181,0.11-0.366,0.171-0.555
			c0.486-0.225,0.898-0.703,1.01-1.229c0.076-0.356,0.001-0.664-0.183-0.871c0.682-1.423,1.67-2.871,3.183-4.056l0.045-0.035
			l-0.001,0c0.908-0.704,1.504-0.85,1.873-0.678c0.311,0.145,0.567,0.458,0.771,0.862c0.239,0.473,0.39,1.041,0.467,1.614
			c0.083,0.62,0.216,1.174,0.305,1.544C70.126,47.286,67.586,48.437,65.341,49.712L65.341,49.712z M20.782,89.963
			c-0.308,0.086-0.563-0.113-0.571-0.442c-0.007-0.33,0.236-0.667,0.544-0.753c0.021-0.005,7.319-2.091,14.003,1.62
			c0.349,0.193,0.418,0.603,0.154,0.913c-0.264,0.31-0.762,0.404-1.111,0.211C27.537,88.032,20.802,89.957,20.782,89.963
			L20.782,89.963z M76.459,108.055c0.095-0.028,33.187-9.911,40.636-8.957c0.357,0.046,0.774-0.195,0.931-0.538
			c0.157-0.343-0.004-0.658-0.361-0.704c-7.761-0.994-41.166,8.984-41.262,9.013c-0.305,0.091-0.54,0.43-0.524,0.756
			C75.894,107.952,76.154,108.144,76.459,108.055L76.459,108.055z M84.768,106.594c0.168-0.022,58.336-7.874,71.73-0.323
			l-0.96,1.119c-13.068-7.367-70.811,0.425-70.977,0.447L84.768,106.594L84.768,106.594z M78.325,104.283
			c0.068-0.032,23.515-11.227,38.028-12.29c0.337-0.025,0.677-0.325,0.759-0.669c0.081-0.345-0.125-0.604-0.462-0.58
			c-14.837,1.087-38.59,12.429-38.659,12.461c-0.278,0.133-0.429,0.481-0.337,0.778C77.747,104.281,78.047,104.415,78.325,104.283
			L78.325,104.283z M86.382,102.141c0.119-0.035,41.299-12.345,61.588-8.096c0.362,0.076,0.804-0.138,0.988-0.478
			c0.183-0.339,0.039-0.676-0.323-0.751c-20.627-4.32-62.189,8.105-62.309,8.14c-0.305,0.09-0.54,0.429-0.524,0.756
			C85.818,102.039,86.077,102.231,86.382,102.141L86.382,102.141z M123.044,119.942c-0.212-0.359-0.099-0.835,0.253-1.06
			c0.351-0.226,0.809-0.117,1.021,0.241c0.013,0.023,4.897,7.979-8.653,14.865c-0.149,0.076-0.309,0.074-0.441,0.01
			c-1.178,3.413-2.871,7.376-5.268,11.672c-0.16,0.287-0.562,0.459-0.896,0.384c-0.334-0.076-0.476-0.37-0.315-0.657
			c5.264-9.436,7.063-17.191,7.444-20.912c0.085-0.829-0.338-2.199-0.187-2.495c0.173-0.339,0.423-0.552,0.734-0.641v0.002
			c0.52-0.148,0.858,0.181,0.91,0.963c0.029,0.433,0.011,1.081-0.075,1.918c-0.196,1.909-0.752,4.849-1.929,8.512
			C127.187,126.69,123.055,119.961,123.044,119.942L123.044,119.942z M100.522,141.497l-1.217,0.623
			c0.019,0.05-0.275,0.225-0.75,0.475c0.79-0.718,2.495-2.819,4.461-5.243c2.349-2.898,5.103-6.294,6.656-8.162
			c0.197-0.237,0.365-0.438,0.498-0.596c-0.432,1.306-1.202,2.725-2.279,4.333c-1.712,2.56-3.488,4.835-5.573,6.906
			C101.746,140.402,101.149,140.955,100.522,141.497L100.522,141.497z M69.44,92.634l0.002-0.002l-0.196,0.103L69.44,92.634z
			 M69.44,92.634l0.369-0.191c0-0.001,0-0.001,0-0.002l-0.368,0.192L69.44,92.634L69.44,92.634z M68.579,93.081l0.001,0.002
			C68.58,93.082,68.58,93.081,68.579,93.081L68.579,93.081L68.579,93.081z M87.661,136.226c-0.379,0.314-0.965,0.28-1.308-0.075
			c-0.343-0.356-0.313-0.9,0.066-1.215l9.126-7.563c0.379-0.313,0.965-0.279,1.308,0.076c0.342,0.355,0.313,0.899-0.067,1.214
			L87.661,136.226L87.661,136.226z M148.413,54.064l-1.393,0.012c-0.009,0.011-3.132,3.826,4.212,3.156l0.429-2
			C147.517,56.334,148.037,54.535,148.413,54.064L148.413,54.064z M137.874,52.045l1.14,1.041c0.028-0.018,9.576-6.148,17.447-5.806
			c1.437,0.063,2.293,0.273,2.688,0.583c0.211,0.166,0.264,0.368,0.188,0.59c-0.099,0.29-0.389,0.642-0.825,1.026
			c-1.73,1.528-5.335,3.274-8.946,4.287l0.154,1.476c4.093-1.148,8.261-3.199,10.338-5.033c0.736-0.65,1.244-1.294,1.449-1.895
			c0.228-0.669,0.091-1.26-0.499-1.723c-0.636-0.5-1.824-0.832-3.696-0.913C148.39,45.29,137.904,52.025,137.874,52.045z"/>
	</g>
	<path fill-rule="evenodd" clip-rule="evenodd" d="M241.146,36.973l-3.506,42.075l13.732,3.798l1.664-20.381l11.776,23.303
		l16.946,7.012l-16.07-29.511l18.992-16.07l-16.069-4.383l-15.08,13.571l1.347-16.493L241.146,36.973L241.146,36.973z
		 M204.47,59.006l10.212,0.557l-3.923-14.993L204.47,59.006L204.47,59.006z M217.078,68.717l-16.565-0.629l-2.61,5.993
		l-14.901-0.585l20.453-40.321l16.362,0.877l13.44,44.704l-14.317-2.922L217.078,68.717z"/>
	<path fill-rule="evenodd" clip-rule="evenodd" d="M187.092,90.76c0,0-10.227,1.461-17.823,3.214
		c-7.597,1.753-16.362,4.675-16.362,4.675l2.045,42.951c0,0,12.856-3.506,18.992-5.259c6.136-1.754,19.284-4.676,17.531-18.408
		c-1.753-13.732-16.654-8.181-16.654-8.181l-8.182,2.045l-0.584-6.136c0,0,5.551-1.753,9.934-2.63
		c4.383-0.877,11.396-2.045,11.396-2.045L187.092,90.76L187.092,90.76z M303.965,113.258c0.292,0.292,0.292,13.732,0.292,13.732
		c-2.636-7.258-16.048-20.587-18.991-7.305c-2.308,10.411,3.798,19.577,8.766,22.498c4.967,2.923,10.811,1.169,10.811,1.169
		l0.584,14.609c0,0-4.675-0.876-9.642-3.799c-4.968-2.921-17.239-11.395-21.33-27.465c-1.099-4.32-1.69-8.154-1.759-11.476
		c-0.257,9.77-7.976,11.169-13.435,10.307c-5.552-0.876-8.766-2.63-8.766-2.63v14.902c0,0-5.843-2.046-11.103-2.63
		c-5.26-0.585-14.024-0.877-14.024-0.877l-2.854-7.845l-15.933,0.205l-1.959,6.764c0,0-3.799,0.292-7.013,0.292
		c-3.214,0-7.013,0.292-6.721,0.292l14.317-42.367c0,0,4.091-0.876,8.474-0.876s8.181,0,8.181,0l14.609,37.399l-0.292-37.399
		c0,0,14.901,2.045,20.745,3.798c5.735,1.721,15.411,9.633,15.767,19.596c0.119-8.375,3.818-13.225,11.406-14.045
		C294.907,98.94,303.673,112.966,303.965,113.258L303.965,113.258z M209.293,117.299l9.827-0.186l-5.439-14.959L209.293,117.299
		L209.293,117.299z M167.198,129.387l-0.529-9.423c0,0,4.369-1.194,6.222-1.46c1.852-0.266,5.294-0.001,5.56,2.787
		c0.265,2.787-1.456,4.779-5.03,6.105C169.846,128.724,167.198,129.387,167.198,129.387L167.198,129.387z M249.795,113.194
		c0,0,3.177,0.664,5.294,0.797c2.117,0.133,4.236-0.93,4.236-3.318c0-2.389-1.589-5.309-3.839-6.238
		c-2.249-0.929-5.956-1.326-5.956-1.326L249.795,113.194z"/>
	<path fill-rule="evenodd" clip-rule="evenodd" fill="#009640" d="M237.64,34.344l-3.507,42.074l13.733,3.798l1.664-20.381
		l11.776,23.303l16.946,7.013l-16.07-29.511l18.992-16.07l-16.07-4.383l-15.079,13.571l1.347-16.493L237.64,34.344L237.64,34.344z
		 M200.963,56.376l10.213,0.557l-3.924-14.993L200.963,56.376L200.963,56.376z M213.572,66.088l-16.564-0.629l-2.61,5.993
		l-14.901-0.584l20.453-40.321l16.361,0.877l13.441,44.704l-14.316-2.922L213.572,66.088z"/>
	<path fill-rule="evenodd" clip-rule="evenodd" fill="#E30613" d="M183.585,88.13c0,0-10.226,1.461-17.822,3.214
		c-7.598,1.753-16.363,4.675-16.363,4.675l2.045,42.95c0,0,12.856-3.506,18.992-5.259c6.136-1.753,19.284-4.675,17.53-18.407
		c-1.753-13.733-16.654-8.182-16.654-8.182l-8.181,2.046l-0.585-6.137c0,0,5.552-1.753,9.935-2.629
		c4.383-0.877,11.395-2.046,11.395-2.046L183.585,88.13L183.585,88.13z M300.459,110.628c0.292,0.292,0.292,13.733,0.292,13.733
		c-2.636-7.259-16.049-20.587-18.992-7.305c-2.307,10.411,3.799,19.576,8.766,22.498c4.967,2.922,10.811,1.169,10.811,1.169
		l0.584,14.608c0,0-4.675-0.876-9.643-3.798c-4.967-2.922-17.238-11.395-21.329-27.466c-1.099-4.32-1.69-8.154-1.76-11.475
		c-0.256,9.769-7.975,11.168-13.433,10.306c-5.552-0.876-8.766-2.629-8.766-2.629v14.901c0,0-5.844-2.045-11.102-2.63
		c-5.26-0.584-14.025-0.877-14.025-0.877l-2.852-7.844l-15.933,0.204l-1.96,6.764c0,0-3.798,0.292-7.013,0.292
		c-3.214,0-7.012,0.292-6.72,0.292l14.317-42.366c0,0,4.091-0.877,8.473-0.877c4.383,0,8.182,0,8.182,0l14.609,37.399l-0.293-37.399
		c0,0,14.901,2.045,20.745,3.799c5.736,1.721,15.412,9.634,15.768,19.596c0.119-8.375,3.818-13.224,11.406-14.044
		C291.402,96.311,300.167,110.336,300.459,110.628L300.459,110.628z M205.786,114.669l9.828-0.186l-5.44-14.958L205.786,114.669
		L205.786,114.669z M163.693,126.757l-0.529-9.423c0,0,4.368-1.194,6.222-1.46c1.853-0.266,5.294,0,5.559,2.787
		c0.266,2.788-1.455,4.779-5.029,6.105C166.34,126.094,163.693,126.757,163.693,126.757L163.693,126.757z M246.288,110.565
		c0,0,3.177,0.663,5.295,0.796c2.117,0.133,4.235-0.929,4.235-3.317c0-2.39-1.589-5.31-3.838-6.238
		c-2.25-0.93-5.957-1.327-5.957-1.327L246.288,110.565z"/>
</g>
</svg>
