<svg id="Group_12" data-name="Group 12" xmlns="http://www.w3.org/2000/svg" width="177.27" height="54.559" viewBox="0 0 177.27 54.559">
  <path id="Path_10" data-name="Path 10" d="M271.487,511.694a2.86,2.86,0,0,1-2.173-1c-10.4-12.114-3.544-19.7.553-24.241.032-.035.085-.09.119-.123,5.5-5.514,8.746-9.193,6.42-15.111a2.862,2.862,0,0,1,4.834-2.912c10.422,12.135,3.538,19.726-.574,24.262-.029.033-.109.114-.141.146-5.474,5.494-8.711,9.16-6.378,15.063a2.862,2.862,0,0,1-2.66,3.914Z" transform="translate(-256.226 -457.135)" fill="#fff" fill-rule="evenodd"/>
  <path id="Path_11" data-name="Path 11" d="M250.351,483.382a2.859,2.859,0,0,1-2.173-1c-10.424-12.14-3.538-19.709.577-24.231.028-.031.127-.132.158-.161,5.462-5.5,8.692-9.169,6.373-15.065a2.862,2.862,0,0,1,4.836-2.909c10.385,12.115,3.526,19.7-.573,24.239-.031.035-.088.094-.12.127-5.494,5.512-8.742,9.19-6.417,15.089a2.862,2.862,0,0,1-2.66,3.911Z" transform="translate(-242.69 -439.018)" fill="#fff" fill-rule="evenodd"/>
  <path id="Path_12" data-name="Path 12" d="M647.422,550.044a2.862,2.862,0,0,1-2.861-2.862v-9.356h-1.682c0,.068.007.137.007.206v3.438a2.862,2.862,0,0,1-2.862,2.862h-4.671v2.851a2.862,2.862,0,0,1-2.861,2.862h-6.842a2.862,2.862,0,0,1-2.861-2.862V531.544a2.861,2.861,0,0,1,2.861-2.861h34.817a2.861,2.861,0,0,1,2.861,2.861v3.42a2.861,2.861,0,0,1-2.861,2.862h-3.341v9.356a2.862,2.862,0,0,1-2.861,2.862Z" transform="translate(-486.057 -496.428)" fill="#fff" fill-rule="evenodd"/>
  <path id="Path_13" data-name="Path 13" d="M565.781,550.044a2.862,2.862,0,0,1-2.862-2.862V531.544a2.862,2.862,0,0,1,2.862-2.861H584.1a2.861,2.861,0,0,1,2.861,2.861v3.42a2.862,2.862,0,0,1-2.544,2.844v3.131a2.863,2.863,0,0,1,2.68,2.856v3.387a2.862,2.862,0,0,1-2.862,2.862Z" transform="translate(-447.725 -496.428)" fill="#fff" fill-rule="evenodd"/>
  <path id="Path_14" data-name="Path 14" d="M513.168,550.044a2.861,2.861,0,0,1-1.739-.59l-6.639-5.086v2.814a2.862,2.862,0,0,1-2.862,2.862h-4.685a2.862,2.862,0,0,1-2.862-2.862V531.544a2.861,2.861,0,0,1,2.862-2.861h5.309a2.861,2.861,0,0,1,1.663.532l6.429,4.589v-2.26a2.861,2.861,0,0,1,2.861-2.861h4.685a2.862,2.862,0,0,1,2.862,2.861v15.638a2.862,2.862,0,0,1-2.862,2.862Z" transform="translate(-403.841 -496.428)" fill="#fff" fill-rule="evenodd"/>
  <path id="Path_15" data-name="Path 15" d="M337.459,550.044a2.862,2.862,0,0,1-2.862-2.862v-9.356H331.41a2.862,2.862,0,0,1-2.862-2.862v-3.42a2.862,2.862,0,0,1,2.862-2.861h18.957a2.862,2.862,0,0,1,2.862,2.861v3.42a2.862,2.862,0,0,1-2.862,2.862h-3.188v9.356a2.862,2.862,0,0,1-2.861,2.862Z" transform="translate(-297.663 -496.428)" fill="#fff" fill-rule="evenodd"/>
  <path id="Path_16" data-name="Path 16" d="M394.4,550.044a2.864,2.864,0,0,1-2.538-1.537l-.595-1.142h-6.138l-.6,1.142A2.864,2.864,0,0,1,382,550.044h-4.449a2.861,2.861,0,0,1-2.51-4.234l8.544-15.638a2.861,2.861,0,0,1,2.511-1.489h7.331a2.859,2.859,0,0,1,2.509,1.487l8.561,15.638a2.861,2.861,0,0,1-2.509,4.236Z" transform="translate(-327.207 -496.428)" fill="#fff" fill-rule="evenodd"/>
  <path id="Path_17" data-name="Path 17" d="M445.22,550.044a2.862,2.862,0,0,1-2.862-2.862v-9.356h-3.205a2.861,2.861,0,0,1-2.861-2.862v-3.42a2.861,2.861,0,0,1,2.861-2.861h18.572a2.861,2.861,0,0,1,2.861,2.861v3.42a2.861,2.861,0,0,1-2.861,2.862h-2.8v9.356a2.862,2.862,0,0,1-2.861,2.862Z" transform="translate(-366.648 -496.428)" fill="#fff" fill-rule="evenodd"/>
  <path id="Path_18" data-name="Path 18" d="M284.105,475.268c3.135,7.971-1.972,13.077-7.078,18.2-4.735,5.241-8.915,10.667-.505,20.458-3.152-7.971,1.972-13.077,7.061-18.183,4.752-5.241,8.932-10.684.522-20.475Z" transform="translate(-261.262 -462.228)" fill="#e4252e" fill-rule="evenodd"/>
  <path id="Path_19" data-name="Path 19" d="M263.009,446.972c3.134,7.971-1.989,13.077-7.078,18.2-4.752,5.224-8.915,10.667-.522,20.441-3.135-7.954,1.972-13.06,7.078-18.183,4.735-5.241,8.915-10.667.523-20.458Z" transform="translate(-247.749 -444.111)" fill="#00966a" fill-rule="evenodd"/>
  <path id="Path_20" data-name="Path 20" d="M630.743,536.636v15.638h6.842v-5.713h7.533v-3.438h-7.533v-3.067h14.931v12.218h6.842V540.057h6.2v-3.421Z" transform="translate(-491.151 -501.521)" fill="#00966a" fill-rule="evenodd"/>
  <path id="Path_21" data-name="Path 21" d="M577.732,548.888v-2.713h8.915v-3.421h-8.915v-2.7h11.459v-3.421H570.873v15.638h18.453v-3.387Z" transform="translate(-452.818 -501.521)" fill="#00966a" fill-rule="evenodd"/>
  <path id="Path_22" data-name="Path 22" d="M518.6,536.636v7.819l-10.954-7.819h-5.308v15.638h4.685v-8.611l11.24,8.611h5.022V536.636Z" transform="translate(-408.935 -501.521)" fill="#00966a" fill-rule="evenodd"/>
  <path id="Path_23" data-name="Path 23" d="M355.459,536.636H336.5v3.421h6.05v12.218h6.859V540.057h6.05Z" transform="translate(-302.755 -501.521)" fill="#e4252e" fill-rule="evenodd"/>
  <path id="Path_24" data-name="Path 24" d="M398.519,536.636h-7.33l-8.544,15.639h4.449l1.4-2.68H398.1l1.4,2.68h7.583Zm-8.325,9.707,3.168-6.05,3.033,6.05Z" transform="translate(-332.3 -501.52)" fill="#e4252e" fill-rule="evenodd"/>
  <path id="Path_25" data-name="Path 25" d="M462.818,536.636H444.248v3.421h6.067v12.218h6.842V540.057h5.662Z" transform="translate(-371.742 -501.521)" fill="#e4252e" fill-rule="evenodd"/>
</svg>
