<svg xmlns="http://www.w3.org/2000/svg" viewBox="0 0 22 18.5"><path class="cls-2" d="M19 0H3a3 3 0 0 0-3 3v9a3 3 0 0 0 3 3h1v2.5a1 1 0 0 0 2 0V15h10v2.5a1 1 0 0 0 2 0V15h1a3 3 0 0 0 3-3V3a3 3 0 0 0-3-3zm1 12a1 1 0 0 1-1 1H3a1 1 0 0 1-1-1V3a1 1 0 0 1 1-1h16a1 1 0 0 1 1 1z"/><path class="cls-2" d="M8.83 6.18a1 1 0 0 0 0-2H6.1a1 1 0 0 0-1 1v2.69a1 1 0 0 0 1 1h1.73v.69H6.1a1 1 0 0 0 0 2h2.73a1 1 0 0 0 1-1V7.87a1 1 0 0 0-1-1H7.1v-.69zM11.7 6a.67.67 0 1 0 .67.67.67.67 0 0 0-.67-.67zM11.7 8.12a.67.67 0 1 0 .67.67.67.67 0 0 0-.67-.67zM15.91 4.18h-1.1a1 1 0 0 0 0 2h.1v4.38a1 1 0 0 0 2 0V5.18a1 1 0 0 0-1-1z"/></svg>