
<svg xmlns="http://www.w3.org/2000/svg" viewBox="0 0 29.25 29.18"><path d="M16.25 3.18A13 13 0 0 0 9.6 5l.33.33a.51.51 0 0 1 .15.35v.2a11.87 11.87 0 0 1 6.17-1.72 12 12 0 1 1-10.32 5.9H5.7a.52.52 0 0 1-.36-.14L5 9.63a12.88 12.88 0 0 0-1.78 6.55 13 13 0 1 0 13-13z"/><path d="M16.25 24.18a8 8 0 1 0-5.25-14l.71.71a6.92 6.92 0 0 1 4.54-1.68A7 7 0 1 1 11 11.56l-.71-.71a8 8 0 0 0 6 13.33z"/><path d="M5.7 10.08h3.84l.75.77.71.71 2.82 2.87a2.93 2.93 0 0 0-.57 1.75 3 3 0 1 0 1.28-2.46l-2.82-2.86-.71-.71-.92-.94V5.7a.51.51 0 0 0-.15-.35L9.6 5 4.94.36a.49.49 0 0 0-.55-.11.51.51 0 0 0-.31.46v3.38H.7a.5.5 0 0 0-.46.31.53.53 0 0 0 .11.6L5 9.63l.31.31a.52.52 0 0 0 .39.14zm-1.12-5a.5.5 0 0 0 .5-.5V1.92l4 4v3.16H5.9l-4-4zm11.67 9.09a2 2 0 1 1-1.71 1l1.35 1.38a.51.51 0 0 0 .36.15.51.51 0 0 0 .35-.86l-1.35-1.37a2 2 0 0 1 1-.29z" fill="currentColor"/></svg>