<svg xmlns="http://www.w3.org/2000/svg" viewBox="0 0 26 17.91">
  <path d="M13 10c6.46 0 13-1.72 13-5s-6.54-5-13-5S0 1.72 0 5s6.54 5 13 5zm0-8c7.12 0 11 2 11 3s-3.88 3-11 3S2 6 2 5s3.88-3 11-3z"/>
  <path fill="currentColor" d="M13 10.91c-6.39 0-11.85-1.72-13-4.09v6.09c0 2.76 5.83 5 13 5s13-2.24 13-5V6.82c-1.15 2.37-6.62 4.09-13 4.09zm11 2c0 .16-.61 1-2.77 1.76A25.1 25.1 0 0 1 13 15.91a25.06 25.06 0 0 1-8.23-1.24C2.61 13.89 2 13.07 2 12.91v-2a17.34 17.34 0 0 0 1.93.73A31.07 31.07 0 0 0 13 12.91a31 31 0 0 0 9.06-1.25 16.08 16.08 0 0 0 1.94-.73z"/>
</svg>