
<svg xmlns="http://www.w3.org/2000/svg" viewBox="0 0 20 20"><path d="M19.94 5.88a7.48 7.48 0 0 0-.46-2.43A5.14 5.14 0 0 0 16.55.53a7.49 7.49 0 0 0-2.43-.47C13.06 0 12.72 0 10 0S6.94 0 5.88.06a7.49 7.49 0 0 0-2.43.47A5.09 5.09 0 0 0 .53 3.45a7.23 7.23 0 0 0-.47 2.43C0 6.94 0 7.28 0 10s0 3.06.06 4.12a7.23 7.23 0 0 0 .47 2.43 5.08 5.08 0 0 0 2.92 2.93 7.48 7.48 0 0 0 2.43.46C6.94 20 7.28 20 10 20s3.06 0 4.12-.06a7.48 7.48 0 0 0 2.43-.46 5.12 5.12 0 0 0 2.93-2.93 7.43 7.43 0 0 0 .46-2.43c0-1.06.06-1.4.06-4.12s0-3-.06-4.12zM18.14 14a5.61 5.61 0 0 1-.34 1.86 3.35 3.35 0 0 1-1.9 1.9 5.37 5.37 0 0 1-1.86.34c-1 .05-1.37.06-4 .06s-3 0-4-.06a5.41 5.41 0 0 1-1.94-.3 3.35 3.35 0 0 1-1.9-1.9 5.37 5.37 0 0 1-.34-1.9c-.05-1-.06-1.37-.06-4s0-3 .06-4a5.41 5.41 0 0 1 .34-1.9 3.35 3.35 0 0 1 1.9-1.9A5.66 5.66 0 0 1 6 1.86c1-.05 1.37-.06 4-.06s3 0 4 .06a5.61 5.61 0 0 1 1.86.34 3.35 3.35 0 0 1 1.9 1.9 5.66 5.66 0 0 1 .38 1.9c.05 1.06.06 1.37.06 4s-.01 3-.06 4z"/><path d="M10 5.55A4.45 4.45 0 1 0 14.45 10 4.45 4.45 0 0 0 10 5.55zm0 7.34A2.89 2.89 0 1 1 12.89 10 2.89 2.89 0 0 1 10 12.89zM15.23 3.4a1.37 1.37 0 1 0 1.37 1.37 1.37 1.37 0 0 0-1.37-1.37z"/></svg>