<svg xmlns="http://www.w3.org/2000/svg" viewBox="0 0 36 36"><path d="M34.48,7H10.7a1,1,0,0,0-1,1V29a1,1,0,0,0,1,1H34.48a1,1,0,0,0,1-1V8A1,1,0,0,0,34.48,7Zm-1,21H11.7V9H33.48Z"/><path fill="currentColor" d="M19.38,14.28v8.47l6.83-4.2Zm2,3.61,1,.65-1,.64Z"/><rect x="1" y="21.73" width="7.52" height="1.93"/><polygon points="1 13.72 1 15.65 6.8 17 6.8 17.1 1 18.45 1 20.38 1.75 20.38 8.52 18.34 8.52 15.76 1.75 13.72 1 13.72"/><polygon points="7.12 28.07 1 28.07 1 30 8.52 30 8.52 24.84 7.12 24.84 7.12 28.07"/><polygon points="7.12 10.44 5.4 10.44 5.4 7.97 4 7.97 4 10.44 2.4 10.44 2.4 7.43 1.92 7 1 7 1 12.38 8.52 12.38 8.52 7 7.12 7 7.12 10.44"/></svg>