
<svg xmlns="http://www.w3.org/2000/svg" viewBox="0 0 24 24"><path d="M20.88 20.05l.43-.5c.1-.12.19-.25.29-.38s.27-.35.39-.53.17-.28.25-.42l.34-.56.23-.48c.09-.19.18-.37.26-.56s.14-.37.21-.55l.19-.54c.06-.21.11-.43.16-.64a4.6 4.6 0 0 0 .13-.5c0-.25.08-.51.12-.77l.06-.41a12 12 0 1 0-23.88 0l.06.4c0 .26.07.53.12.78s.08.33.12.49.11.44.17.65.13.36.19.53.13.38.21.56.17.37.26.55.15.33.23.49.22.37.33.55l.26.43c.12.18.26.35.39.53s.19.26.29.38.28.33.43.49.18.21.28.31a12 12 0 0 0 17.2 0c.1-.09.18-.2.28-.3zM23 12c0 .34 0 .68-.05 1v.31c0 .11-.06.47-.11.71l-.06.31c-.06.26-.12.5-.19.75l-.06.22c-.1.31-.22.63-.35.93l-.06.15c-.11.25-.23.49-.36.73a2.54 2.54 0 0 1-.16.28 6.42 6.42 0 0 1-.34.56 3.28 3.28 0 0 1-.2.31l-.12.16a9.88 9.88 0 0 0-6.43-5.12 5 5 0 1 0-4.94 0 9.88 9.88 0 0 0-6.47 5.14l-.1-.16a3.28 3.28 0 0 1-.2-.31c-.12-.18-.24-.37-.34-.55l-.16-.29a9.88 9.88 0 0 1-.36-.73l-.06-.15c-.13-.3-.25-.62-.35-.93l-.06-.22c-.07-.25-.13-.49-.19-.75L1.2 14c-.05-.24-.08-.47-.11-.71s0-.21 0-.31c0-.34-.05-.68-.05-1a11 11 0 0 1 22 0zm-11 1a4 4 0 1 1 4-4 4 4 0 0 1-4 4zm0 10a11 11 0 0 1-8.2-3.69 9 9 0 0 1 16.4 0A11 11 0 0 1 12 23z"/></svg>