
<svg xmlns="http://www.w3.org/2000/svg" viewBox="0 0 26 26"><path d="M19.06 7.67h-4.38a.5.5 0 0 0-.5.5.51.51 0 0 0 .5.5h3.18l-4.77 4.83-1.77-1.57a.5.5 0 0 0-.69 0l-4.87 4.89a.5.5 0 0 0 0 .71.5.5 0 0 0 .35.15.51.51 0 0 0 .36-.15L11 13l1.77 1.57a.5.5 0 0 0 .69 0l5.09-5.16v3.17a.51.51 0 0 0 .5.5.5.5 0 0 0 .5-.5V8.17a.5.5 0 0 0-.49-.5z" fill="currentColor"/><path d="M13 0a13 13 0 1 0 13 13A13 13 0 0 0 13 0zm6.5 23.07v-2.62a.5.5 0 0 0-1 0v3.05a.35.35 0 0 0 0 .14 11.86 11.86 0 0 1-5 1.33V18.4a.5.5 0 0 0-1 0V25a11.86 11.86 0 0 1-5-1.33.35.35 0 0 0 0-.14v-3.08a.5.5 0 0 0-1 0v2.62a12 12 0 1 1 13 0z"/></svg>