<svg xmlns="http://www.w3.org/2000/svg" viewBox="0 0 36.09 36"><defs><style>.cls-1{fill:none;}.cls-2{fill:blue;}.cls-3{fill:orange;}.cls-4{fill:green;}</style></defs><path fill="currentColor" d="M10,26.55a1,1,0,0,0,1,.7,1,1,0,0,0,.3,0l3.25-1,.58-2.27L10.67,25.3A1,1,0,0,0,10,26.55Z"/><path fill="currentColor" d="M8.87,23.59a1,1,0,0,0,1,.71,1,1,0,0,0,.3-.05l5.31-1.63L16,20.35l-6.48,2A1,1,0,0,0,8.87,23.59Z"/><path fill="currentColor" d="M13.66,7.54a1,1,0,0,0-1.25-.66L5.14,9.12a1,1,0,0,0,.3,2A1,1,0,0,0,5.73,11L13,8.79A1,1,0,0,0,13.66,7.54Z"/><path d="M35.92,7.3a1,1,0,0,0-.62-.46L21.36,3.42a1,1,0,0,0-1.21.72l-1.66,6.49a1,1,0,0,0,.12.77l.52.85.07.11.5.85h0l-.62-.8-.29.18L18.6,12a1,1,0,0,0-.49-.59l-.9-.47-.46.89.34-.95h0l0-.07v0l0-.05.47-.88a1,1,0,0,0,.08-.77l-2-6.4a1,1,0,0,0-1.24-.66L.71,6.22a1,1,0,0,0-.59.49,1,1,0,0,0-.07.77l2,6.39a1,1,0,0,0,.5.59l.9.47L3.91,14,3.57,15h0l-.06.12L3,16a1,1,0,0,0-.07.77l4.7,15a1,1,0,0,0,.95.7,1,1,0,0,0,.29,0l7-2.11,12.67,3.12a.93.93,0,0,0,.23,0,1,1,0,0,0,1-.75l3.89-15.19a1,1,0,0,0-.12-.77L33,15.84l-.86.52h0l.73-.58L33,15.7l.05,0,.88-.52a1,1,0,0,0,.46-.61L36,8.06A1.06,1.06,0,0,0,35.92,7.3ZM20,14.17l.17-.1.87-.51a1,1,0,0,0,.46-.62,1,1,0,0,0-.11-.76l-.5-.81-.09-.16-.31-.5L21.84,5.6l12,2.94-1.3,5.11-.5.29-.13.08-.87.51a1,1,0,0,0-.46.62,1,1,0,0,0,.11.76l.5.81a1.51,1.51,0,0,0,.09.16l.31.5L28.05,31.2l-12-2.95,3.53-13.81ZM5,16.54l.24-.45a.88.88,0,0,0,.1-.17L5.8,15a1,1,0,0,0,.08-.77,1,1,0,0,0-.5-.59l-.86-.45-.15-.08-.53-.27-1.58-5L14.08,4.28l1.58,5-.26.49c0,.07-.08.14-.07.14h0l-.48.88a1,1,0,0,0-.07.77,1,1,0,0,0,.49.59l.86.44.16.09.53.27.59,1.88L16,20.35l-.58,2.27-.34,1.32-.58,2.27-.65,2.52v.05L9.27,30.17Z"/><path fill="currentColor" d="M26.71,26.51l-7.38-1.85a1,1,0,0,0-1.21.73,1,1,0,0,0,.72,1.21l7.38,1.85.25,0a1,1,0,0,0,.24-2Z"/><path fill="currentColor" d="M20.41,21.65a1,1,0,1,0-.49,1.93l7.38,1.85a1,1,0,0,0,1.21-.72,1,1,0,0,0-.72-1.22Z"/><path fill="currentColor" d="M23.16,10.05l7.38,1.85a1,1,0,0,0,.25,0A1,1,0,0,0,31,10L23.65,8.11a1,1,0,1,0-.49,1.94Z"/></svg>