<svg xmlns="http://www.w3.org/2000/svg" id="Layer_1" data-name="Layer 1" viewBox="0 0 20.14 23">

 
  <path d="M20.07 5.06a.52.52 0 0 0-.31-.23l-8.43-2.07-.75-2.41A.5.5 0 0 0 10 0L.36 2.92a.5.5 0 0 0-.3.25.5.5 0 0 0 0 .38L1.42 8a.51.51 0 0 0 .25.29l.89.46-.47.87a.5.5 0 0 0 0 .38l3.01 9.7-.1.3a.51.51 0 0 0 .37.61.49.49 0 0 0 .39.22.39.39 0 0 0 .15 0h.13l9 2.22h.12a.49.49 0 0 0 .48-.37L18.45 12a.5.5 0 0 0-.06-.38l-.51-.84.19-.12-.2-.46.23.45.61-.36A.56.56 0 0 0 19 10l1.16-4.53a.5.5 0 0 0-.09-.41zm-2.45 4.72h-.08l-.61.36a.52.52 0 0 0-.23.31.5.5 0 0 0 .06.38l.35.58a.53.53 0 0 1 .06.1l.25.42-2.53 9.97-8.77-2.15 2.53-9.93.41-.24.1-.06.61-.36a.46.46 0 0 0 .23-.31.51.51 0 0 0 0-.38l-.4-.57-.07-.1-.25-.42 1-3.85L19 5.68l-1 3.84zm-14.55.14l.22-.4.06-.1.33-.62a.53.53 0 0 0 0-.39.51.51 0 0 0-.25-.29l-.57-.32h-.1l-.44-.23-1.19-3.84 8.64-2.61.43 1.36h-.18a.5.5 0 0 0-.61.36l-.24 1v-.06a.5.5 0 0 0-.62-.33l-5.1 1.49a.51.51 0 0 0-.33.63.5.5 0 0 0 .48.35.39.39 0 0 0 .15 0l5.08-1.58a.48.48 0 0 0 .24-.18l-.81 3.17a.49.49 0 0 0 .05.39l.52.84-.83.5a.53.53 0 0 0-.24.31L6.5 14.19a.5.5 0 0 0-.31.62.46.46 0 0 0 .11.19l-.73 2.89z"/>
  <path d="M13.76 18.58l-5.16-1.3a.51.51 0 0 0-.61.37.5.5 0 0 0 .37.6l5.15 1.3h.13a.5.5 0 0 0 .48-.38.49.49 0 0 0-.36-.59z"/>
  <path d="M14.51 16.47l-5.16-1.3a.5.5 0 0 0-.24 1l5.16 1.29h.12a.5.5 0 0 0 .48-.38.49.49 0 0 0-.36-.61z"/>
  <path d="M16.77 7l-5.15-1.28a.5.5 0 0 0-.61.36.5.5 0 0 0 .37.61L16.53 8h.12a.51.51 0 0 0 .49-.38.5.5 0 0 0-.37-.62z"/>
</svg>