<svg xmlns="http://www.w3.org/2000/svg" viewBox="0 0 23.03 14.32"><path d="M20.82 10.21a12.28 12.28 0 0 0-1.7-1.9.82.82 0 0 1-.05-1.15h.06s3-4.41 3.3-5.91c.1-.5-.1-.8-.6-.8h-2.6a1 1 0 0 0-1 .7A20.71 20.71 0 0 1 15 6.21c-.6.6-.8.8-1.1.8s-.4-.2-.4-.8V1.1c0-.7-.1-.9-.6-.9H8.71a.63.63 0 0 0-.4.1c-.1.1-.2.2-.2.3 0 .7 1 .8 1 2.6v3.71c0 .69 0 1-.4 1-.9 0-3.1-3.2-4.3-6.91-.2-.8-.5-1-1.2-1H.6a.72.72 0 0 0-.5.2c0 .3-.1.5-.1.7C0 1.6.8 5 4.11 9.51c2.2 3 5 4.7 7.61 4.7 1.6 0 1.9-.3 1.9-1v-2.3c0-.6.2-.8.5-.8s1 .1 2.5 1.7c1.8 1.7 1.9 2.5 2.8 2.5h3c.3 0 .6-.1.6-.7s-.9-1.9-2.2-3.4z"/></svg>