
<svg xmlns="http://www.w3.org/2000/svg" viewBox="0 0 25 30.68"><path d="M19.59 9.86h-4.86l-1.56-4.23a.51.51 0 0 0-.46-.33.47.47 0 0 0-.47.31l-1.78 4.25H6a.49.49 0 0 0-.47.34.5.5 0 0 0 .17.56l3.8 2.87L8 18.1a.49.49 0 0 0 .17.55.48.48 0 0 0 .57 0l3.94-2.55 4.35 2.57a.59.59 0 0 0 .26.07.55.55 0 0 0 .33-.13.51.51 0 0 0 .13-.57l-1.93-4.55 4-2.73a.53.53 0 0 0 .2-.57.52.52 0 0 0-.43-.33zM15 12.92a.49.49 0 0 0-.18.61l1.49 3.52-3.3-2a.51.51 0 0 0-.53 0l-3 1.95 1.14-3.46a.51.51 0 0 0-.18-.55l-2.9-2.19h3.26a.5.5 0 0 0 .46-.31l1.41-3.38 1.24 3.37a.5.5 0 0 0 .47.32H18z" fill="currentColor"/><path d="M20.4 22.18a12.51 12.51 0 1 0-16.17-.33L1.57 26.5a.5.5 0 0 0 0 .55.51.51 0 0 0 .53.18l4-1.06 1.06 3.95a.49.49 0 0 0 .42.37h.06a.48.48 0 0 0 .43-.25l3-5.33a10.89 10.89 0 0 0 1.43.09c.31 0 .62 0 .93-.05l3.05 5.29a.5.5 0 0 0 .44.25H17a.5.5 0 0 0 .42-.37l1.06-3.95 3.95 1.06a.5.5 0 0 0 .56-.74zM7.79 28.69l-.87-3.26a.48.48 0 0 0-.24-.3.46.46 0 0 0-.38-.05L3 26l2-3.46a12.42 12.42 0 0 0 5 2.26zM1 12.5A11.5 11.5 0 1 1 12.5 24 11.51 11.51 0 0 1 1 12.5zm17.24 12.58a.51.51 0 0 0-.62.35l-.87 3.27-2.24-3.88a12.4 12.4 0 0 0 5.08-2L21.48 26z"/></svg>