<svg xmlns="http://www.w3.org/2000/svg" viewBox="0 0 18.22 19">
  <path d="M17.87 2.88l-2-1.69a1 1 0 0 0-.18-.1L15.58 1a1.16 1.16 0 0 0-.37 0h-1.77a1 1 0 0 0-2 0H5.55a1 1 0 0 0-2 0H1a1 1 0 0 0-1 1v14a1 1 0 0 0 .29.7l2 2A1 1 0 0 0 3 19h14.22a1 1 0 0 0 1-1V3.64a1 1 0 0 0-.35-.76zM2 3h1.56v.2a1 1 0 1 0 2 0V3h5.89v.2a1 1 0 0 0 2 0V3h1.35l1.42 1.4v.82H2zm1.43 14L2 15.56V7.22h14.22V17z"/>
  <circle cx="4.75" cy="10.25" r="1.25"/>
  <circle cx="9.16" cy="10.25" r="1.25"/>
  <circle cx="13.56" cy="10.25" r="1.25"/>
  <circle cx="4.75" cy="14.17" r="1.25"/>
  <circle cx="9.16" cy="14.17" r="1.25"/>
  <circle cx="13.56" cy="14.17" r="1.25"/>
</svg>