<svg xmlns="http://www.w3.org/2000/svg" viewBox="0 0 17.11 19.04">
  <path d="M16.21 3a.5.5 0 0 0-.5-.47h-3.79A4 4 0 0 0 8.55 0a4 4 0 0 0-3.37 2.55H1.4A.5.5 0 0 0 .9 3L0 18.51a.47.47 0 0 0 .14.37.48.48 0 0 0 .36.12h16.11a.48.48 0 0 0 .36-.16.5.5 0 0 0 .14-.37zM8.55 1a2.76 2.76 0 0 1 2.21 1.55H6.34A2.79 2.79 0 0 1 8.55 1zM1 18l.87-14.45h2.9a9.36 9.36 0 0 0-.36 1.56A1.5 1.5 0 1 0 6 6.6a1.53 1.53 0 0 0-.62-1.21 8 8 0 0 1 .47-1.84h5.41a8.58 8.58 0 0 1 .46 1.78A1.48 1.48 0 0 0 11 6.6a1.5 1.5 0 1 0 1.7-1.48 8.57 8.57 0 0 0-.37-1.57h2.91L16.08 18z"/>
</svg>