<svg id="Слой_1" data-name="Слой 1" xmlns="http://www.w3.org/2000/svg" viewBox="0 0 59.15 45.15"><defs><style>.cls-1{fill:#fff;}.cls-2{fill:#70706f;}.cls-3{fill:#ffd501;}</style></defs><title>Artboard 9</title><rect class="cls-1" x="-1032.71" y="-62.8" width="1199.02" height="173.36"/><path class="cls-2" d="M2.37,36.55a.65.65,0,0,0-.26-.3.81.81,0,0,0-.43-.11c-.57,0-.89.49-.89,1.2s.32,1.2.89,1.2a.72.72,0,0,0,.4-.1,1.08,1.08,0,0,0,.34-.38l.64.38a1.46,1.46,0,0,1-1.4.85,1.54,1.54,0,0,1-1.21-.53,2.41,2.41,0,0,1-.23-.36A2.66,2.66,0,0,1,0,37.33a1.74,1.74,0,0,1,1.68-1.94,1.42,1.42,0,0,1,1.38.84Zm2.29,2.74a1.49,1.49,0,0,0,0-2.95,1.49,1.49,0,0,0,0,2.95m0-2.23c.36,0,.53.33.53.76s-.17.76-.53.76-.52-.32-.52-.76.17-.77.52-.76m1.72-.66v2.84h1.5a.89.89,0,0,0,1-.91.64.64,0,0,0-.39-.62.63.63,0,0,0,.31-.55c0-.49-.34-.76-.9-.76Zm.73,1.09V37h.63c.23,0,.34.1.34.27s-.09.26-.32.26Zm0,1.19v-.63h.68c.25,0,.35.1.35.31s-.1.32-.35.32Zm4.58-.61a1.56,1.56,0,0,0,0-.24c0-.81-.43-1.48-1.19-1.48a1.34,1.34,0,0,0-1.27,1.48,1.57,1.57,0,0,0,.34,1.05,1.38,1.38,0,0,0,2,0l-.53-.45a.61.61,0,0,1-.48.2.56.56,0,0,1-.59-.54h1.7M10,37.5c0-.28.19-.5.46-.5a.5.5,0,0,1,.51.5Zm2.89-1.09h-.75v3.88l.75-.37v-.83a.93.93,0,0,0,.6.22c.7,0,1.11-.59,1.11-1.44,0-1.06-.5-1.52-1.1-1.52a.85.85,0,0,0-.6.24Zm0,.88a.51.51,0,0,1,.46-.24c.29,0,.48.25.48.83s-.16.73-.44.73a.61.61,0,0,1-.51-.25Zm5.23-.87v2.21h-.79v-2.2h-.75v2.2H15.8v-2.2h-.75v2.84h3.82V36.42Zm3.64,1.66a1.35,1.35,0,0,0,0-.23c0-.81-.43-1.49-1.19-1.49a1.34,1.34,0,0,0-1.27,1.48,1.55,1.55,0,0,0,.34,1,1.23,1.23,0,0,0,1,.43,1.29,1.29,0,0,0,1-.46l-.53-.44a.67.67,0,0,1-.49.2.55.55,0,0,1-.58-.54h1.7m-1.69-.56c0-.29.2-.51.47-.51a.51.51,0,0,1,.51.51ZM24,36.43v1H23v-1h-.74v2.83H23V38.08h1v1.19h.75V36.43Zm2.51,2.9a1.36,1.36,0,0,0,1.17-.63l-.48-.45a.82.82,0,0,1-.67.36c-.36,0-.59-.3-.59-.76s.24-.76.59-.76a.76.76,0,0,1,.65.41l.5-.5a1.3,1.3,0,0,0-1.13-.63,1.49,1.49,0,0,0,0,3m3.86-2.26v-.63H27.87v.63h.85v2.21h.75V37.07Zm.38-.63v2.84h1.5a.89.89,0,0,0,1-.91.64.64,0,0,0-.39-.62.63.63,0,0,0,.31-.55c0-.49-.34-.76-.89-.76Zm.73,1.09V37h.62c.24,0,.34.1.34.27s-.09.26-.31.26Zm0,1.19v-.63h.69c.24,0,.35.11.35.32s-.11.31-.35.31Zm4.86-2.27h-.8L35,37.82c-.08.22-.15.48-.19.62a4.84,4.84,0,0,0-.18-.62l-.46-1.37h-.82l1.1,2.84-.38,1h.73Zm0,2.84H37l.58-1h.57v1h.73V36.45H37.42a.89.89,0,0,0-1,.93.73.73,0,0,0,.53.77ZM38.18,37v.7h-.66c-.24,0-.37-.11-.37-.34s.15-.35.39-.35ZM43,35.3a2.06,2.06,0,0,1-.54.06,1.55,1.55,0,0,0-1.77,1.71v.84a1.27,1.27,0,1,0,2.51,0c0-.85-.4-1.45-1.07-1.45a.84.84,0,0,0-.72.39c0-.54.26-.82,1-.82A1.71,1.71,0,0,0,43,36ZM42,37.16c.33,0,.5.33.5.75s-.17.75-.5.74-.5-.31-.5-.74.16-.75.5-.75m3.53-.69-.9,1.42a2.59,2.59,0,0,0-.19.33c0-.11,0-.47,0-.62V36.46h-.74V39.3h.71l.9-1.42.18-.33c0,.11,0,.47,0,.62V39.3h.74V36.47Zm1.43.8a1.48,1.48,0,0,1,.82-.3c.3,0,.4.15.4.3a.28.28,0,0,1-.32.29h-.48v.56h.49a.33.33,0,0,1,.38.34c0,.17-.12.35-.45.35a1.59,1.59,0,0,1-.94-.34L46.6,39a2.07,2.07,0,0,0,1.14.33c.92,0,1.23-.47,1.23-.92a.67.67,0,0,0-.54-.65.63.63,0,0,0,.46-.58c0-.39-.29-.81-1.14-.81a2.34,2.34,0,0,0-1,.27Zm4.2-.79v1h-1v-1h-.75v2.84h.75V38.12h1v1.19h.75V36.48Zm3.64,1.66a1.49,1.49,0,0,0,0-.24c0-.81-.44-1.48-1.19-1.48a1.34,1.34,0,0,0-1.27,1.48A1.57,1.57,0,0,0,52.67,39a1.25,1.25,0,0,0,1,.43,1.33,1.33,0,0,0,1-.46l-.53-.44a.63.63,0,0,1-.49.19.54.54,0,0,1-.58-.53h1.7m-1.69-.56c0-.29.2-.51.47-.51a.51.51,0,0,1,.51.51Zm3.4,1.8a1.36,1.36,0,0,0,1.17-.63l-.48-.45a.82.82,0,0,1-.67.36c-.36,0-.59-.3-.59-.75s.24-.77.59-.77a.76.76,0,0,1,.65.41l.49-.5a1.29,1.29,0,0,0-1.12-.63,1.49,1.49,0,0,0,0,3m2.4-.07.26-.92h-.9L58.17,40h.53Zm-56,1.91h-.8l-.47,1.37c-.07.22-.15.48-.18.62a6.45,6.45,0,0,0-.19-.62L.82,41.21H0l1.1,2.84-.38,1h.73Zm1.16.63h.75v2.21h.75V41.22H3.44l-.08,1.43c0,.59-.28.79-.6.83l.17.63A1.29,1.29,0,0,0,4,42.66Zm4.81-.62h-.8l-.47,1.37c-.07.22-.15.48-.18.62,0-.13-.11-.4-.18-.62l-.47-1.37H6l1.1,2.84-.38,1h.74Zm2,0v1a.9.9,0,0,1-.53.17c-.25,0-.39-.13-.39-.49v-.66H9.23V42c0,.66.31,1,.91,1a1.76,1.76,0,0,0,.75-.17v1.21h.75V41.23Zm4.47,0v2.2h-.79v-2.2h-.74v2.21H13V41.23h-.75v2.84H16.1V41.24Zm3.7,2.84v-1.9c0-.64-.47-1-1.15-1a1.91,1.91,0,0,0-.56.07,1.83,1.83,0,0,0-.51.22l.29.52a1.79,1.79,0,0,1,.37-.16,2.22,2.22,0,0,1,.41,0,.35.35,0,0,1,.4.36v.14a1.15,1.15,0,0,0-.54-.11c-.65,0-1.16.31-1.16.94a1,1,0,0,0,1.06,1,.9.9,0,0,0,.64-.25v.19Zm-.75-.83a.63.63,0,0,1-.52.26c-.32,0-.43-.18-.43-.38s.15-.36.43-.36a.84.84,0,0,1,.52.12ZM22,42.91a1.56,1.56,0,0,0,0-.24c0-.81-.43-1.48-1.19-1.48a1.33,1.33,0,0,0-1.27,1.48,1.53,1.53,0,0,0,.34,1,1.26,1.26,0,0,0,1,.43,1.31,1.31,0,0,0,1-.45l-.53-.45a.61.61,0,0,1-.48.2.56.56,0,0,1-.59-.54H22m-1.68-.57c0-.28.19-.51.46-.5a.5.5,0,0,1,.51.5Zm5.16,1.75V41.25h-.76l-.54,1.27a3.41,3.41,0,0,0-.16.42,3.7,3.7,0,0,0-.17-.42l-.52-1.27h-.84v2.84h.73V43c0-.18,0-.61,0-.74,0,.13.13.37.22.59l.56,1.29.56-1.29c.1-.21.18-.46.23-.59,0,.13,0,.56,0,.74v1.08Zm4.84,0V41.26h-.76L29,42.53a2.89,2.89,0,0,0-.16.42,2.64,2.64,0,0,0-.17-.42l-.52-1.27h-.84V44.1H28V43c0-.18,0-.61,0-.75,0,.13.13.38.22.6l.56,1.29.56-1.29c.1-.21.18-.46.23-.59,0,.13,0,.56,0,.74V44.1Zm2.42-2.83-.9,1.42a2.92,2.92,0,0,0-.18.33c0-.11,0-.47,0-.62V41.26h-.74V44.1h.71l.9-1.42.18-.33c0,.11,0,.47,0,.62V44.1h.74V41.27Zm2.08,0H34v3.88l.75-.37V44a.91.91,0,0,0,.6.22c.7,0,1.1-.59,1.1-1.44,0-1.06-.49-1.52-1.1-1.52a.85.85,0,0,0-.6.24Zm0,.88a.53.53,0,0,1,.46-.24c.29,0,.49.25.49.83s-.16.73-.45.73a.62.62,0,0,1-.5-.25ZM5,25.44h5.65V22.16H5V19.58h6.25L9.21,16H.34V31.62H12.85V28H5ZM21.18,16l-2.66,5.1L15.87,16H10.68l5.47,9.46v6.18h4.68V25.44L26.3,16Z"/><polygon class="cls-3" points="30.99 0 0.07 11.29 30.99 5.82 30.99 0"/></svg>