<svg id="Слой_1" data-name="Слой 1" xmlns="http://www.w3.org/2000/svg" viewBox="0 0 101.34 18.38"><defs><style>.cls-1{fill:#fff;}.cls-2{fill:#191412;}.cls-3{fill:#ff4d00;}.cls-4{fill:#a4a3a3;}</style></defs><title>Artboard 8</title><rect class="cls-1" x="-906.01" y="-81.03" width="1199.02" height="173.36"/><path class="cls-2" d="M30.17,2l-1,3.36H26L27,2H23.33s-2.76,9-2.82,9.19h3.66c0-.1,1.18-3.85,1.18-3.85h3.19l-1.18,3.85H31L33.82,2Z"/><path class="cls-2" d="M49.38,3l-.17.12L49.55,2H45.9l-2.81,9.19h3.65l1.7-5.55a1.68,1.68,0,0,1,1.5-1.29h.94a.78.78,0,0,1,.66.29.85.85,0,0,1,.16.54,1.92,1.92,0,0,1-.08.5s-1.47,4.81-1.69,5.51h3.66c0-.1,2-6.48,2-6.48a3.29,3.29,0,0,0,.14-.89,1.93,1.93,0,0,0-.37-1.18,2.48,2.48,0,0,0-2.13-.83A6.34,6.34,0,0,0,49.38,3Z"/><path class="cls-2" d="M34.91,2.68c0,.11.53,1.82.57,1.95A8.67,8.67,0,0,1,38.35,4c1.13,0,1.77.16,2,.48a.7.7,0,0,1,.06.64l-.23.75-.07,0a9,9,0,0,0-2.72-.49,5.62,5.62,0,0,0-3.17.88,4.17,4.17,0,0,0-1.69,2.27,2.24,2.24,0,0,0,.18,2,3,3,0,0,0,2.47.89,8.16,8.16,0,0,0,3.42-.81l.14-.07-.21.69h3.66c0-.1,1.94-6.35,1.94-6.35a2.6,2.6,0,0,0,.12-.75,1.68,1.68,0,0,0-.34-1.06C43.35,2.26,42,1.83,40,1.83A18,18,0,0,0,34.91,2.68Zm2.9,4.52a5,5,0,0,1,1.82.3l0,0-.41,1.34h0a5.14,5.14,0,0,1-2,.46A1.55,1.55,0,0,1,36,8.92a.7.7,0,0,1-.12-.4,1,1,0,0,1,0-.28C36.07,7.59,36.8,7.2,37.81,7.2Z"/><path class="cls-2" d="M63.62,2,60.11,4.73,61,2H57.31L54.46,11.3h3.65l1.16-3.79,2.66,3.79h3.89L62.48,6.52,68,2Z"/><path class="cls-2" d="M65.13,6.63h0a3.76,3.76,0,0,0,.43,3.42,4.57,4.57,0,0,0,3.83,1.6c4,0,6.31-1.56,7.38-5.05a3.76,3.76,0,0,0-.42-3.42,4.58,4.58,0,0,0-3.84-1.59C68.8,1.59,66.11,3.43,65.13,6.63ZM68.7,8.68a2.34,2.34,0,0,1,0-2.08h0A3.19,3.19,0,0,1,71.73,4a1.72,1.72,0,0,1,1.47.54,2.36,2.36,0,0,1,0,2.09,3.2,3.2,0,0,1-3.06,2.59A1.71,1.71,0,0,1,68.7,8.68Z"/><path class="cls-2" d="M77.31,6.63h0a3.76,3.76,0,0,0,.42,3.42,4.59,4.59,0,0,0,3.84,1.6c4,0,6.31-1.56,7.38-5.05a3.79,3.79,0,0,0-.43-3.42,4.57,4.57,0,0,0-3.83-1.59C81,1.59,78.29,3.43,77.31,6.63ZM83.9,4a1.72,1.72,0,0,1,1.47.54,2.36,2.36,0,0,1,0,2.09,3.18,3.18,0,0,1-3.05,2.59,1.69,1.69,0,0,1-1.47-.55,2.34,2.34,0,0,1,0-2.08h0A3.17,3.17,0,0,1,83.9,4Z"/><path class="cls-2" d="M97.19,1.89l-3.55,3,.91-3H90.9L88,11.37h3.65l1.18-3.85,2.86,3.85h4L96.11,6.55s5-4.43,5.23-4.66Z"/><path class="cls-3" d="M21.61.45,21.56,0h-3.1c.36,3.65-2.16,7.73-5.75,8.7h0a0,0,0,0,1-.07,0s0,0,0-.05h0A9.39,9.39,0,0,0,17,0h-3A7.05,7.05,0,0,1,9,6.79s-.06,0-.07,0a.06.06,0,0,1,0,0h0A7.55,7.55,0,0,0,12.4,0h-3C9.34,3.51,6.19,6,0,6a2.2,2.2,0,0,1,.26.15,51.47,51.47,0,0,1,9.09,6,2.55,2.55,0,0,0,1.73.59C19.1,12.11,22,5.08,21.61.45Z"/><path class="cls-4" d="M40.11,13.05s-.3,1-.37,1.2a2.68,2.68,0,0,0-1.43-.34,2.73,2.73,0,0,0-2.78,1.71,1.23,1.23,0,0,0,.12,1.14,1.91,1.91,0,0,0,1.58.56A4.24,4.24,0,0,0,38.89,17l-.08.27h1.08l1.39-4.53ZM36.62,16.4a.75.75,0,0,1,0-.7h0a1.59,1.59,0,0,1,1.7-1.17,2,2,0,0,1,1.27.36c0,.13-.41,1.32-.43,1.41a3.41,3.41,0,0,1-1.56.4A1.14,1.14,0,0,1,36.62,16.4Z"/><path class="cls-4" d="M42.59,14.2s.07-.23.07-.23H41.58l-1,3.29h1.08l.57-1.87a1.35,1.35,0,0,1,1.43-.84,2.51,2.51,0,0,1,.79.11l.08,0L45,14l-.19,0a3.49,3.49,0,0,0-.9-.08A3.25,3.25,0,0,0,42.59,14.2Z"/><path class="cls-4" d="M45.27,13.2h0a.28.28,0,0,0,0,.26.73.73,0,0,0,.58.21c.32,0,.7-.14.77-.39a.3.3,0,0,0-.05-.27.67.67,0,0,0-.54-.2C45.69,12.81,45.34,13,45.27,13.2Zm-.06.77-1,3.29h1.08l1-3.29Z"/><path class="cls-4" d="M50.57,14l-2.23,2.42L47.61,14H46.46l1.22,3.29h.85L51.78,14Z"/><path class="cls-4" d="M52,13.2h0a.28.28,0,0,0,.05.26.73.73,0,0,0,.58.21c.32,0,.7-.14.78-.39a.33.33,0,0,0-.06-.27.67.67,0,0,0-.54-.2C52.38,12.81,52,13,52,13.2Zm-.06.77-1,3.29H52L53,14Z"/><path class="cls-4" d="M54.72,14.22,54.8,14H53.72l-1,3.29h1.07l.58-1.86c.17-.55.75-.87,1.61-.87.48,0,.79.08.91.25a.58.58,0,0,1,0,.54l-.59,1.94h1.08L58,15.32a.91.91,0,0,0-.1-.89,2,2,0,0,0-1.65-.52A3.6,3.6,0,0,0,54.72,14.22Z"/><path class="cls-4" d="M58.23,15.62a1.53,1.53,0,0,0-.08.58,1,1,0,0,0,.2.56,1.9,1.9,0,0,0,1.58.56A4.28,4.28,0,0,0,61.59,17c-.21.54-.69.79-2.51.81h-.19l.28.57h.08A6.84,6.84,0,0,0,61.67,18a1.74,1.74,0,0,0,1-1.11L63.6,14H62.52s-.06.18-.08.27A2.78,2.78,0,0,0,61,13.91,2.73,2.73,0,0,0,58.23,15.62Zm1.09.78a.75.75,0,0,1,0-.7h0A1.59,1.59,0,0,1,61,14.53a2,2,0,0,1,1.27.36c0,.13-.41,1.32-.43,1.41a3.38,3.38,0,0,1-1.56.4A1.14,1.14,0,0,1,59.32,16.4Z"/><path class="cls-4" d="M65.45,15.56a1.71,1.71,0,0,0-.08.53,1.13,1.13,0,0,0,.21.57,2.39,2.39,0,0,0,1.83.66,6.59,6.59,0,0,0,2.2-.36l.18-.05-.47-.52-.08,0a4.88,4.88,0,0,1-1.64.28,1.29,1.29,0,0,1-1-.33.57.57,0,0,1-.14-.36v-.12h3.8l0-.06a.91.91,0,0,0,.12-.26,1.69,1.69,0,0,0,.07-.48,1,1,0,0,0-.21-.55,2.22,2.22,0,0,0-1.83-.63A2.92,2.92,0,0,0,65.45,15.56Zm2.85-1a1.28,1.28,0,0,1,1,.31.48.48,0,0,1,.12.31v.13H66.65A1.86,1.86,0,0,1,68.3,14.53Z"/><path class="cls-4" d="M75.11,14.39a1.81,1.81,0,0,0-1.45-.48,3.07,3.07,0,0,0-1.37.29s.07-.23.07-.23H71.27l-1,3.29h1.07l.57-1.86q.27-.87,1.47-.87c.42,0,.69.07.81.22a.68.68,0,0,1,0,.57l-.6,1.94h1.08l.57-1.86c.18-.58.68-.87,1.47-.87.43,0,.7.07.81.22s.09.3,0,.57l-.6,1.94H78l.6-1.94a1,1,0,0,0-.1-.92A1.87,1.87,0,0,0,77,13.91,3.24,3.24,0,0,0,75.11,14.39Z"/><path class="cls-4" d="M80,14.33a2.12,2.12,0,0,0-1.15,1.25h0A1.12,1.12,0,0,0,79,16.64a2.42,2.42,0,0,0,2,.68,4.35,4.35,0,0,0,2-.43,2.13,2.13,0,0,0,1.16-1.25A1.17,1.17,0,0,0,84,14.58a2.46,2.46,0,0,0-2-.67A4.35,4.35,0,0,0,80,14.33Zm0,2a.73.73,0,0,1-.06-.69h0a1.79,1.79,0,0,1,1.92-1.12,1.4,1.4,0,0,1,1.12.36.7.7,0,0,1,.06.67,1.84,1.84,0,0,1-1.94,1.14A1.34,1.34,0,0,1,80,16.34Z"/><path class="cls-4" d="M85.51,13.05l-.28.92h-.72l-.18.61H85c-.09.28-.58,1.89-.58,1.89a.86.86,0,0,0,0,.3.52.52,0,0,0,.1.27c.15.19.45.28.95.28a5,5,0,0,0,1.12-.11h.06l.3-.65-.25.05a3.83,3.83,0,0,1-.81.08c-.29,0-.35,0-.36-.05a.25.25,0,0,1,0-.15s.48-1.53.59-1.9h1.42l.19-.61H86.3c.08-.24.39-1.24.39-1.24Z"/><path class="cls-4" d="M88.3,13.2h0a.28.28,0,0,0,0,.26.74.74,0,0,0,.58.21c.33,0,.7-.14.78-.39a.3.3,0,0,0,0-.27.7.7,0,0,0-.55-.2A.84.84,0,0,0,88.3,13.2Zm-.06.77-1,3.29h1.08l1-3.29Z"/><path class="cls-4" d="M90.4,14.33a2.15,2.15,0,0,0-1.15,1.25h0a1.17,1.17,0,0,0,.14,1.06,2.43,2.43,0,0,0,2,.68,4.43,4.43,0,0,0,2-.43,2.15,2.15,0,0,0,1.15-1.25,1.11,1.11,0,0,0-.14-1.06,2.45,2.45,0,0,0-2-.67A4.36,4.36,0,0,0,90.4,14.33Zm1.84.2a1.44,1.44,0,0,1,1.13.36.75.75,0,0,1,.06.67,1.85,1.85,0,0,1-1.94,1.14,1.37,1.37,0,0,1-1.11-.36.52.52,0,0,1-.11-.33,1,1,0,0,1,0-.36A1.81,1.81,0,0,1,92.24,14.53Z"/><path class="cls-4" d="M96.38,14.22l.07-.25H95.37l-1,3.29h1.08L96,15.4c.24-.79,1.21-.87,1.61-.87s.79.08.91.25a.6.6,0,0,1,0,.54L98,17.26H99l.6-1.94a1,1,0,0,0-.11-.9,2,2,0,0,0-1.64-.51A3.57,3.57,0,0,0,96.38,14.22Z"/></svg>