<svg id="Слой_1" data-name="Слой 1" xmlns="http://www.w3.org/2000/svg" viewBox="0 0 44.57 34.67"><defs><style>.cls-1{fill:#fff;}.cls-2{fill:#ea5b0c;}.cls-3{fill:#de0716;}.cls-4{fill:#1d1d1b;}.cls-5{fill:#f59e00;}</style></defs><title>Artboard 14</title><rect class="cls-1" x="-200.46" y="-70.25" width="1199.02" height="173.36"/><path d="M8.11,34.47V32.18a1.36,1.36,0,0,0-1.44-1.46,1.42,1.42,0,0,0-1.29.65,1.35,1.35,0,0,0-1.21-.65,1.23,1.23,0,0,0-1.07.54v-.45H2.31v3.66h.8v-2a.86.86,0,0,1,.9-1c.52,0,.79.35.79,1v2h.8v-2a.87.87,0,0,1,.9-1c.54,0,.8.35.8,1v2ZM20,30.81h-1.3V29.7h-.8v1.11h-.74v.73h.74v1.67c0,.85.33,1.35,1.27,1.35a2,2,0,0,0,1-.28l-.23-.68a1.45,1.45,0,0,1-.71.2c-.4,0-.53-.24-.53-.61V31.54H20Zm6.79-.09a1.07,1.07,0,0,0-1,.54v-.45H25v3.66h.79v-2c0-.6.26-.94.78-.94a1.26,1.26,0,0,1,.5.09l.25-.75a1.71,1.71,0,0,0-.57-.1Zm-10.26.38A2.75,2.75,0,0,0,15,30.72c-.93,0-1.52.45-1.52,1.17s.44,1,1.26,1.08l.37.05c.44.07.65.18.65.39s-.29.44-.84.44a2,2,0,0,1-1.21-.38l-.38.62a2.67,2.67,0,0,0,1.59.47c1.05,0,1.66-.5,1.66-1.19s-.48-1-1.27-1.1L15,32.22c-.34,0-.62-.11-.62-.36s.26-.43.7-.43a2.34,2.34,0,0,1,1.14.32Zm21.32-.38a1.1,1.1,0,0,0-1,.54v-.45h-.79v3.66h.8v-2c0-.6.26-.94.78-.94a1.29,1.29,0,0,1,.5.09l.24-.75a1.62,1.62,0,0,0-.56-.1ZM27.58,32.64a1.85,1.85,0,0,0,2,1.92,1.93,1.93,0,0,0,1.32-.43l-.38-.65a1.57,1.57,0,0,1-1,.33,1.17,1.17,0,0,1,0-2.34,1.64,1.64,0,0,1,1,.33l.38-.64a1.89,1.89,0,0,0-1.32-.44,1.85,1.85,0,0,0-2,1.92Zm7.46,0V30.81h-.8v.45a1.39,1.39,0,0,0-1.16-.54,1.92,1.92,0,0,0,0,3.84A1.39,1.39,0,0,0,34.24,34v.44H35Zm-3,0a1.11,1.11,0,1,1,1.11,1.17,1.1,1.1,0,0,1-1.11-1.17Zm-9.6-1.92a1.79,1.79,0,0,0-1.82,1.92,1.81,1.81,0,0,0,1.88,1.92,2.26,2.26,0,0,0,1.5-.51l-.39-.59a1.73,1.73,0,0,1-1.07.38A1,1,0,0,1,21.48,33h2.71a3,3,0,0,0,0-.31,1.75,1.75,0,0,0-1.74-1.92Zm0,.71a.9.9,0,0,1,.92.89H21.49a.94.94,0,0,1,1-.89Zm20,1.21v-3.3h-.8v1.92a1.37,1.37,0,0,0-1.15-.54,1.92,1.92,0,0,0,0,3.84A1.37,1.37,0,0,0,41.62,34v.44h.8Zm-3,0a1.11,1.11,0,1,1,1.11,1.17,1.1,1.1,0,0,1-1.11-1.17Zm-26.87,0V30.81h-.8v.45a1.37,1.37,0,0,0-1.15-.54,1.92,1.92,0,0,0,0,3.84A1.37,1.37,0,0,0,11.79,34v.44h.8Zm-3,0a1.11,1.11,0,1,1,1.11,1.17A1.1,1.1,0,0,1,9.63,32.64Zm34.11,1.3a.37.37,0,0,1,.15,0,.42.42,0,0,1,.12.08.44.44,0,0,1,.08.11.68.68,0,0,1,0,.14.59.59,0,0,1,0,.14.36.36,0,0,1-.08.12l-.12.08a.37.37,0,0,1-.15,0,.32.32,0,0,1-.14,0,.37.37,0,0,1-.2-.2.32.32,0,0,1,0-.14.35.35,0,0,1,0-.14.44.44,0,0,1,.08-.11A.25.25,0,0,1,43.6,34,.32.32,0,0,1,43.74,33.94Zm0,.65a.2.2,0,0,0,.11,0,.28.28,0,0,0,.15-.15.2.2,0,0,0,0-.11.22.22,0,0,0,0-.11.24.24,0,0,0-.06-.09L43.85,34l-.11,0-.11,0-.09.06-.06.09a.43.43,0,0,0,0,.11.36.36,0,0,0,0,.11.35.35,0,0,0,.06.09l.09.06A.23.23,0,0,0,43.74,34.59Zm0-.46a.17.17,0,0,1,.1,0,.11.11,0,0,1,0,.08.09.09,0,0,1,0,.07.1.1,0,0,1-.08,0l.11.13h-.08l-.1-.13h0v.13h-.07v-.34Zm-.09.07v.09h.13a.05.05,0,0,0,0,0s0,0,0,0h-.13Z"/><rect class="cls-2" x="16.26" y="2.94" width="12.05" height="21.66"/><path class="cls-3" d="M17,13.77A13.78,13.78,0,0,1,22.28,2.94a13.77,13.77,0,1,0,0,21.66A13.75,13.75,0,0,1,17,13.77Z"/><path class="cls-4" d="M43.25,22.31v-.45h.18v-.09H43v.09h.17v.45Zm.89,0v-.54H44l-.16.37-.17-.37h-.13v.54h.09V21.9l.15.35h.11L44,21.9v.41Z"/><path class="cls-5" d="M44.57,13.77A13.78,13.78,0,0,1,22.28,24.6a13.78,13.78,0,0,0,0-21.66A13.78,13.78,0,0,1,44.57,13.77Z"/></svg>