<svg id="Layer_1" data-name="Layer 1" xmlns="http://www.w3.org/2000/svg" xmlns:xlink="http://www.w3.org/1999/xlink" viewBox="0 0 150 82"><defs><style>.cls-1,.cls-2{fill:none;}.cls-2{clip-path:url(#clip-path);}.cls-3{fill:#fff;}.cls-3,.cls-4,.cls-6{fill-rule:evenodd;}.cls-4{fill:#ea3592;}.cls-5{clip-path:url(#clip-path-2);}.cls-6{fill:#496272;}</style><clipPath id="clip-path"><polygon class="cls-1" points="1 1 2 1 1 2 1 1"/></clipPath><clipPath id="clip-path-2"><polygon class="cls-2" points="-1 -1 -2 -1 -1 -2 -1 -1"/></clipPath></defs><title>Artboard 1</title><path class="cls-3" d="M67.05,61l41.19-46.11L41.09.05C54,9.37,63,19.12,66.67,32.22h0A48.32,48.32,0,0,1,68,38.31,68.9,68.9,0,0,1,67.05,61"/><path class="cls-4" d="M89.84,23.35c-2-.79-4.3,1.27-5.19,3.37A26.55,26.55,0,0,0,83.47,33a7,7,0,0,0,3.42,1c2.35,0,3.92-2,4.58-4,1-3.2.35-5.84-1.63-6.63"/><path class="cls-4" d="M91.17,19.39c2.91,0,5.37,1.94,5.33,5.95a15.86,15.86,0,0,1-.38,3.15l12.12-13.56L87.34,10.3l-2,11.86a7.74,7.74,0,0,1,5.82-2.77M78.55,35.17l1.27-7.6h0L82.89,9.31,41.09.05c12.44,9,21.28,18.41,25.18,30.85l1.89-11.17h4.61l-.85,4.06c1-1.74,3.25-3.87,5.26-4.26a5.75,5.75,0,0,1,1.34-.05l-.81,5.12c-2-.3-6,1.32-6.53,4.55l-1.4,8.34h-2c.05.27.1.54.13.81A68.6,68.6,0,0,1,67.05,61L87.94,37.64h0c-4.72.94-9.35-2.49-9.35-2.49"/><path class="cls-3" d="M92.34,32.73l0,0h0s0,0,0,0m0,0h0"/><path class="cls-4" d="M92.32,32.76h0s0,0,0,0l0,0M47.91,75.89a7.92,7.92,0,0,1,1.14,3.3l.07.56,2.53-3.24-4-1.13.31.51m60,.27a8,8,0,0,1,1.14,3.3l.07.57,2.53-3.25-4-1.13.3.51"/><g class="cls-5"><path class="cls-3" d="M108.25,75.89a7.78,7.78,0,0,1,1.14,3.3l.07.56L112,76.51l-4-1.13.3.51M5.27,73H7.21v8.74H5.27V78H1.94v3.81H0V73H1.94v3.49H5.27V73"/></g><path class="cls-6" d="M11.06,80.25h3l-.23,1.52H9.14V73h4.8v1.52H11.06v2h2.53L13.37,78H11.06v2.29m8.84-2.19L19,74.82l-.9,3.24Zm.39,1.48H17.74l-.61,2.23H15.25L17.91,73h2.31l2.63,8.74h-2Zm5.94.71h3L29,81.77H24.29V73h1.94v7.22M29,73h6.54l-.22,1.52H33.14v7.22H31.2V74.55H29V73m13.16,0H44.1v8.74H42.16V78H38.83v3.81H36.89V73h1.94v3.49h3.33V73m18.19,0H62.3v8.74H60.35V78H57v3.81H55.09V73H57v3.49h3.32V73m7.79,5.29v3.45H66.2V78.29L63.54,73h2.1l1.63,3.76L69,73h1.72l-2.61,5.29m7.53-1.57h2.9v4.68a9.7,9.7,0,0,1-2.91.5,4.68,4.68,0,0,1-3.45-1.18A4.61,4.61,0,0,1,71,77.51c0-3,2.06-4.65,4.84-4.65a6.28,6.28,0,0,1,2.21.36l-.26,1.69a4.49,4.49,0,0,0-2-.39,2.9,2.9,0,0,0-.13,5.8,3.26,3.26,0,0,0,1-.12v-2H75.45l.22-1.44M80.54,73h1.95v8.74H80.54Zm5.85,7.22h3l-.24,1.52H84.46V73h4.81v1.52H86.39v2h2.53L88.7,78H86.39v2.29M96.19,73h1.7v8.74H96l-3.18-6v6H91.08V73h2.16l3,5.46V73m5.56,7.22h3l-.24,1.52H99.83V73h4.8v1.52h-2.87v2h2.53L104.07,78h-2.31v2.29m19-7.22h1.94v8.74h-1.94V78H117.4v3.81h-1.94V73h1.94v3.49h3.33V73m9.53,4.34c0-1.57-.73-2.92-2-2.92s-2.09,1.32-2.09,3,.77,2.95,2.07,2.95h0C129.51,80.35,130.26,79.09,130.26,77.37Zm2-.07c0,2.9-1.64,4.63-4.1,4.63h0c-2.47,0-3.93-2-3.93-4.47s1.61-4.6,4.08-4.6,4,2,4,4.44Zm9.9-4.27.44,8.74h-1.79l-.27-6.56-1.9,6.56h-1.47l-1.62-6.36-.34,6.36h-1.69L134,73h2.47L138,79,139.69,73h2.43m4.23,7.22h3l-.23,1.52h-4.68V73h4.8v1.52h-2.87v2h2.53L148.66,78h-2.31v2.29M5.63,73H7.57v8.74H5.63V77.94H2.3v3.81H.36V73H2.3V76.5H5.63V73"/></svg>