<svg id="Слой_1" data-name="Слой 1" xmlns="http://www.w3.org/2000/svg" viewBox="0 0 90.92 23.48"><defs><style>.cls-1{fill:#fff;}.cls-2{fill:#e95125;}.cls-3{fill:#573e91;}.cls-4{fill:#1d1d1b;}</style></defs><title>Artboard 11</title><rect class="cls-1" x="-527.36" y="-74.58" width="1199.02" height="173.36"/><path class="cls-2" d="M1.16,23.37h0l0,0h.05a1.77,1.77,0,0,0,.52.08h9.17l-6-6h0L2.53,19.83,1.42,21c-.39.38-.64.64-.64.64h0a1.14,1.14,0,0,0-.31.78A1.08,1.08,0,0,0,1.16,23.37Z"/><path class="cls-3" d="M.47,22.37a1.14,1.14,0,0,1,.31-.78h0s.25-.26.64-.64l1.11-1.12,2.39-2.38h0L6,16.37l0,0,8.12-8.09L5.89,0,1.22,4.68C-.18,6.08,0,7,0,8.87V21.72a1.76,1.76,0,0,0,1.15,1.65h0A1.08,1.08,0,0,1,.47,22.37Z"/><polygon class="cls-4" points="74.56 14.65 72.52 14.65 70.08 17.11 70.08 14.65 68.35 14.65 68.35 21.45 70.08 21.45 70.08 18.64 72.56 21.45 74.64 21.45 71.44 17.8 74.56 14.65"/><path class="cls-4" d="M19.79,11.85H15.43v9.6h1.81V18.1h2.55C22,18.1,23.38,17,23.38,15S22,11.85,19.79,11.85Zm-.05,4.63h-2.5v-3h2.5c1.26,0,1.83.6,1.83,1.51S21,16.48,19.74,16.48Z"/><path class="cls-4" d="M27.47,14.46a3.59,3.59,0,1,0,0,7.18,3.59,3.59,0,1,0,0-7.18Zm0,5.56a2,2,0,1,1,2-2A1.9,1.9,0,0,1,27.47,20Z"/><path class="cls-4" d="M35.6,20a1.79,1.79,0,0,1-1.81-2,1.8,1.8,0,0,1,3.38-1l1.48-.85a3.12,3.12,0,0,0-3-1.7A3.5,3.5,0,0,0,32,18.05a3.45,3.45,0,0,0,3.58,3.59,3.37,3.37,0,0,0,3.11-1.82L37.3,19A1.94,1.94,0,0,1,35.6,20Z"/><path class="cls-4" d="M54,18.5c-.08,1-.29,1.28-.64,1.28a1.56,1.56,0,0,1-.53-.08v1.76a2.21,2.21,0,0,0,.61.07c1.47,0,2-1,2.16-3l.16-2.37h2v5.23h1.73V14.65H54.28Z"/><path class="cls-4" d="M49.09,14.46a3.48,3.48,0,0,0-3.58,3.59A3.47,3.47,0,0,0,49,21.64a3.28,3.28,0,0,0,3.13-1.73l-1.38-.68a2,2,0,0,1-1.72.93,1.8,1.8,0,0,1-1.87-1.7h5.24v-.6A3.22,3.22,0,0,0,49.09,14.46ZM47.2,17.14A1.92,1.92,0,0,1,49,15.77a1.66,1.66,0,0,1,1.77,1.37Z"/><path class="cls-4" d="M64,14.46a3.48,3.48,0,0,0-3.58,3.59,3.47,3.47,0,0,0,3.5,3.59A3.28,3.28,0,0,0,67,19.91l-1.38-.68a2,2,0,0,1-1.72.93,1.8,1.8,0,0,1-1.87-1.7H67.3v-.6A3.22,3.22,0,0,0,64,14.46Zm-1.89,2.68a1.92,1.92,0,0,1,1.84-1.37,1.66,1.66,0,0,1,1.77,1.37Z"/><polygon class="cls-4" points="39.26 16.16 41.29 16.16 41.29 21.45 43.02 21.45 43.02 16.16 45.05 16.16 45.05 14.65 39.26 14.65 39.26 16.16"/><path class="cls-4" d="M78.07,14.46a3.59,3.59,0,1,0,3.72,3.59A3.51,3.51,0,0,0,78.07,14.46Zm0,5.56a2,2,0,1,1,2-2A1.91,1.91,0,0,1,78.07,20Z"/><polygon class="cls-4" points="88.66 14.65 86.79 19.41 84.91 14.65 82.66 14.65 82.66 21.43 84.3 21.43 84.3 17.14 86.12 21.43 87.46 21.43 89.28 17.14 89.28 21.43 90.92 21.43 90.92 14.65 88.66 14.65"/></svg>