<svg id="Слой_1" data-name="Слой 1" xmlns="http://www.w3.org/2000/svg" xmlns:xlink="http://www.w3.org/1999/xlink" viewBox="0 0 57.3 28.35"><defs><style>.cls-1,.cls-3{fill:#fff;}.cls-2,.cls-3{fill-rule:evenodd;}.cls-2{fill:url(#linear-gradient);}.cls-4{fill:#0069b4;}</style><linearGradient id="linear-gradient" x1="28.65" x2="28.65" y2="28.35" gradientUnits="userSpaceOnUse"><stop offset="0" stop-color="#00b1eb"/><stop offset="0.21" stop-color="#009ad9"/><stop offset="0.52" stop-color="#007fc5"/><stop offset="0.79" stop-color="#006fb8"/><stop offset="1" stop-color="#0069b4"/></linearGradient></defs><title>Artboard 7</title><rect class="cls-1" x="-744.02" y="-73.01" width="1199.02" height="173.36"/><polyline class="cls-2" points="0 28.35 28.96 28.35 57.3 0 0 0 0 28.35"/><path class="cls-3" d="M34,5.33H28.36V18.74L23.44,5.33H18.55l-4.2,11.21C13.9,13.71,11,12.74,8.67,12c-1.52-.49-3.13-1.21-3.12-2s.87-1.26,2.56-1.17A9.21,9.21,0,0,1,12.23,10l2-3.41A15.26,15.26,0,0,0,7.8,5h0A7.76,7.76,0,0,0,2.15,7.09,4.77,4.77,0,0,0,.8,10.38a4.41,4.41,0,0,0,1.94,3.94,13.12,13.12,0,0,0,3.83,1.75c1.57.49,2.85.91,2.83,1.81a1.31,1.31,0,0,1-.37.88,2.51,2.51,0,0,1-1.82.57A7.88,7.88,0,0,1,2.54,18L.8,21.46a13,13,0,0,0,6.39,1.69h.29a7.63,7.63,0,0,0,4.85-1.63,1.73,1.73,0,0,0,.21-.17L12,22.86H17.1L18,20.24a9.27,9.27,0,0,0,3,.48,9.44,9.44,0,0,0,2.94-.45l.83,2.59h8.35V17.44h1.83c4.4,0,7-2.24,7-6C41.93,7.25,39.4,5.33,34,5.33ZM21,16.81a5.16,5.16,0,0,1-1.81-.32L21,10.85h0l1.76,5.66A5.52,5.52,0,0,1,21,16.81Zm13.37-3.25H33.09V9h1.25c1.65,0,3,.55,3,2.24s-1.33,2.3-3,2.3"/><path class="cls-4" d="M35.83,26.48A1.49,1.49,0,1,1,37.32,28,1.48,1.48,0,0,1,35.83,26.48Zm1.49,1.84a1.84,1.84,0,1,0-1.86-1.84A1.83,1.83,0,0,0,37.32,28.32Zm-.39-1.69h.37l.56.91h.36l-.61-.93a.54.54,0,0,0,.55-.58c0-.42-.24-.6-.74-.6h-.81v2.11h.32Zm0-.28V25.7h.44c.22,0,.46.05.46.31s-.24.34-.51.34Z"/></svg>