<svg xmlns="http://www.w3.org/2000/svg" viewBox="0 0 65.8 10.48"><defs><style>.cls-1{fill:#003f78;}</style></defs><title>Asset 1</title><g id="Layer_2" data-name="Layer 2"><g id="Слой_1" data-name="Слой 1"><path class="cls-1" d="M2.79,0A3.07,3.07,0,0,0,.64.58,2.92,2.92,0,0,0,0,2.68V7.81a2.94,2.94,0,0,0,.64,2.1,3.11,3.11,0,0,0,2.15.57H8.6a3.11,3.11,0,0,0,2.15-.57,2.94,2.94,0,0,0,.64-2.1V6.33h-3V8H3V2.51H8.39V4h3V2.68a2.92,2.92,0,0,0-.64-2.1A3.07,3.07,0,0,0,8.6,0Z"/><path class="cls-1" d="M24.21,8H17.45V2.51h6.76Zm-7-8A3,3,0,0,0,15.1.58a2.92,2.92,0,0,0-.64,2.1V7.81a2.94,2.94,0,0,0,.64,2.1,3.09,3.09,0,0,0,2.14.57h7.18a3.09,3.09,0,0,0,2.14-.57,2.9,2.9,0,0,0,.65-2.1V2.68a2.92,2.92,0,0,0-.64-2.1A3.07,3.07,0,0,0,24.42,0H17.24"/><polygon class="cls-1" points="40.13 0 30.58 0 30.58 10.48 33.58 10.48 33.58 2.51 40.5 2.51 40.5 0 40.13 0"/><path class="cls-1" d="M45.79,3c.38.73,1.15,2.18,1.51,2.84H44.22L45.79,3M47,0H44.57L38.65,10.48h3.13s.95-1.79,1.11-2.11h5.76c.17.32,1.16,2.11,1.16,2.11H53.2L47.19,0H47"/><path class="cls-1" d="M57.25,0A2.83,2.83,0,0,0,55.5.47a2.2,2.2,0,0,0-.61,1.67V4h2.66V2.32h4.62c.31,0,.36.07.36.07s.08.11.08.34v.81c0,.24,0,.3-.06.31s-.14.07-.31.07H58.65V6.23h3.67a.76.76,0,0,1,.4.08s.08.1.08.35v.92a.68.68,0,0,1-.06.32s-.13.08-.42.08H57.41V6.33H54.67V8.25a2.37,2.37,0,0,0,.53,1.69,2.91,2.91,0,0,0,2,.54h5.34a3.88,3.88,0,0,0,2.53-.65,2,2,0,0,0,.71-1.62V7a2.21,2.21,0,0,0-.55-1.53,2.24,2.24,0,0,0-.59-.39,2.29,2.29,0,0,0,.43-.32,1.8,1.8,0,0,0,.44-1.28V2.26A2.14,2.14,0,0,0,65,.59,2.76,2.76,0,0,0,63,0Z"/></g></g></svg>